<svg xmlns="http://www.w3.org/2000/svg" viewBox="0 0 820 540" role="img" aria-label="Tyrannoceratops, a hybrid dinosaur"><g transform="translate(454.9 470) scale(0.985) translate(-454.9 -470)"><defs><clipPath id="bod-duo-tyrannoceratops-60-40"><path d="M740.2 360.1L731.6 356L723.1 352.1L714.6 348.2L706.2 344.4L697.7 340.7L689.4 337L681.1 333.4L672.8 329.9L664.6 326.5L656.4 323.2L648.2 319.9L640.1 316.7L632 313.6L624 310.6L616 307.6L608.1 304.7L600.2 302L592.4 299.2L584.5 296.6L576.8 294L569 291.6L561.3 289.2L553.6 286.9L546.3 282.9L539 278.9L531.7 275L524.4 271.1L517.1 267.3L511.5 263.9L505.7 259.8L498 255.5L490.2 251.3L482 248.9L473.7 247.5L465.4 246.3L457.1 245.2L448.8 244.2L440.4 243.4L432.1 242.7L423.7 242.1L415.3 243.1L407 244.4L398.7 245.7L390.4 247.2L382.2 248.8L374 250.6L365.9 252.5L370.9 255.5L379.2 260.8L372.3 258.9L365.6 257.4L359 256.1L352.4 255L346 254.2L340.3 252.8L335.6 249.7L330.8 246.8L326.1 244.1L321.3 241.6L316.5 239.3L307.9 235.2L300.5 231.9L294.1 229.4L288.7 227.7L284.5 226.7L281.3 226.5L278.7 226.2L276.3 226.4L274.1 227.1L272.1 228.3L270.4 229.9L268.9 232L267.6 234.9L266.1 237.7L264.4 240.2L262.7 242.6L260.8 244.8L258.8 246.8L256 248.5L253.5 250.1L251.1 251.8L248.9 253.4L246.8 255L244.9 256.5L243.2 257.8L241.9 259L240.9 260.3L240.2 261.6L239.9 262.9L239.9 264.2L240.9 266L242.1 267.5L243.5 268.7L245 269.5L246.7 269.9L248.7 270L254 270.2L259.1 270.6L264.1 271L269 271.6L273.7 272.4L278.2 273.2L273.8 277.7L269.3 281.8L264.7 285.5L260.1 288.7L255.4 291.4L250.7 293.7L249.7 294.8L249.3 295.8L249.3 296.7L249.8 297.5L250.8 298.2L252.3 298.8L259.6 296.5L266.5 294.1L273.1 291.7L279.3 289.2L285.1 286.7L290.7 284.1L292.9 283.7L294.9 283.3L296.7 283L298.3 282.9L299.7 282.7L300.9 282.7L300.9 282.7L304.5 283.6L308.2 284.6L312 285.9L316 287.3L320 289L323 292.7L325.5 297.4L328 302.2L330.4 307.1L332.7 312.2L335.1 317.3L352.7 330L372.7 331.5L379.7 332.3L386.6 333.1L393.4 334.1L400.3 335.2L407 336.4L413.8 337.7L420.4 339.1L427.2 339.2L433.9 339.4L440.6 339.7L447.4 340.2L454.1 340.7L460.9 341.4L467.6 342.2L474.6 342.3L481.9 340.8L489.2 339.5L498.5 338.7L507.5 337.2L514.9 335.5L522.4 333.9L530.1 332.4L537.8 330.9L545.6 329.8L553.3 330.4L560.9 331.1L568.7 331.8L576.5 332.7L584.4 333.6L592.4 334.6L600.4 335.7L608.5 336.9L616.7 338.2L625 339.5L633.3 340.9L641.7 342.5L650.2 344.1L658.7 345.8L667.3 347.5L676 349.4L684.7 351.3L693.5 353.4L702.4 355.5L711.3 357.7L720.3 360L729.4 362.3L738.5 364.8Z"/></clipPath><linearGradient id="gb-duo-tyrannoceratops-60-40" x1="0" y1="0" x2="0" y2="1"><stop offset="0" stop-color="#82a068"/><stop offset="0.55" stop-color="#6b8f4e"/><stop offset="1" stop-color="#536f3d"/></linearGradient><linearGradient id="gl-duo-tyrannoceratops-60-40" x1="0" y1="0" x2="0" y2="1"><stop offset="0" stop-color="#698d4d"/><stop offset="0.55" stop-color="#5e7e45"/><stop offset="1" stop-color="#526c3c"/></linearGradient><linearGradient id="gf-duo-tyrannoceratops-60-40" x1="0" y1="0" x2="0" y2="1"><stop offset="0" stop-color="#628347"/><stop offset="0.55" stop-color="#597641"/><stop offset="1" stop-color="#506a3a"/></linearGradient><linearGradient id="sc-duo-tyrannoceratops-60-40" x1="0" y1="0" x2="0" y2="1"><stop offset="0" stop-color="#e1b768"/><stop offset="0.55" stop-color="#d9a441"/><stop offset="1" stop-color="#b18736"/></linearGradient><linearGradient id="bn-duo-tyrannoceratops-60-40" x1="0" y1="0" x2="0" y2="1"><stop offset="0" stop-color="#eee7d1"/><stop offset="0.55" stop-color="#e6dcc0"/><stop offset="1" stop-color="#c4bca3"/></linearGradient><radialGradient id="sh-duo-tyrannoceratops-60-40"><stop offset="0" stop-color="#23281e" stop-opacity="0.18"/><stop offset="0.7" stop-color="#23281e" stop-opacity="0.11"/><stop offset="1" stop-color="#23281e" stop-opacity="0"/></radialGradient></defs><line x1="60" y1="470" x2="780" y2="470" stroke="#b9b4a0" stroke-width="2"/><path d="M120 470l5 -9 M127 470l4 -6" stroke="#b9b4a0" stroke-width="1.5" fill="none"/><path d="M300 470l5 -9 M307 470l4 -6" stroke="#b9b4a0" stroke-width="1.5" fill="none"/><path d="M520 470l5 -9 M527 470l4 -6" stroke="#b9b4a0" stroke-width="1.5" fill="none"/><path d="M700 470l5 -9 M707 470l4 -6" stroke="#b9b4a0" stroke-width="1.5" fill="none"/><ellipse cx="491" cy="478" rx="228.5" ry="10" fill="url(#sh-duo-tyrannoceratops-60-40)"/><path d="M515.5 282.6L514.9 288.6L513.2 296.8L510.5 307.1L507.5 318.6L504.7 330.8L502.5 343.1L501.5 355.2L502.3 366.8L504.9 377.6L509.6 387L515.4 395L521.4 402L527.2 408.2L532.1 413.6L535.6 418.1L537.4 421.4L537.3 424.4L536.3 427.6L534.5 431.1L532.1 434.6L529.3 438L526.4 441.3L523.6 444.4L521.6 447.1L536.4 456.9L537.5 454.9L539.6 452.2L542.4 448.6L545.7 444.1L548.8 438.9L551.4 432.9L552.9 426.1L552.6 418.6L550.6 410.8L546.9 403.5L542.3 396.4L537.6 389.5L533.3 382.7L529.9 376.2L528 370.4L527.7 365.5L529.7 359.3L533.1 351.2L537.5 341.9L542.8 332.2L548.3 322.7L553.7 313.9L558.6 306.1L562.5 300.2Z" fill="url(#gf-duo-tyrannoceratops-60-40)" stroke="#455b32" stroke-width="1.8"/><path d="M533 457.7L517 463.7Q514.5 467 518.4 468.3L535 464.3Z" fill="url(#gf-duo-tyrannoceratops-60-40)" stroke="#455b32" stroke-width="1.5" stroke-linejoin="round"/><path d="M517.2 464.5L513.4 467.3L518.2 467.5Z" fill="#455b32"/><path d="M529.9 455.4L510.4 462.5Q507.7 466.1 511.9 467.5L532.1 462.6Z" fill="url(#gf-duo-tyrannoceratops-60-40)" stroke="#455b32" stroke-width="1.5" stroke-linejoin="round"/><path d="M510.7 463.5L506.8 466.3L511.6 466.5Z" fill="#455b32"/><path d="M534.6 464.6L541.5 467.4Q545.3 467 543.6 463.6L537.4 459.4Z" fill="url(#gf-duo-tyrannoceratops-60-40)" stroke="#455b32" stroke-width="1.5" stroke-linejoin="round"/><path d="M541.8 466.9L546.5 467.6L543.3 464.1Z" fill="#455b32"/><path d="M403.9 288.1L403.6 292.2L403.4 297.7L403.4 304.4L403.3 311.8L403.2 319.7L402.9 327.6L402.3 335.2L401.3 342.2L400.3 349.1L398.8 356.1L397 363.1L395.1 369.8L393.1 376.1L391.3 381.7L389.8 386.3L388.7 389.8L380.8 387.7L381.6 384L382.8 379.2L384.2 373.6L385.7 367.3L387.2 360.7L388.6 354L389.6 347.4L390.2 341.2L389.9 334.9L389.4 327.8L388.6 320.3L387.6 312.8L386.5 305.6L385.4 299.1L384.4 293.5L383.6 289.3Z" fill="url(#gf-duo-tyrannoceratops-60-40)" stroke="#455b32" stroke-width="1.8"/><path d="M381.2 383.2L377 394.4Q376.9 398.2 380.5 397.1L390.3 390.3Z" fill="url(#gf-duo-tyrannoceratops-60-40)" stroke="#455b32" stroke-width="1.5" stroke-linejoin="round"/><path d="M377.5 394.8L376 399.3L380 396.7Z" fill="#455b32"/><path d="M383.6 387.2L383.1 396.1Q383.9 399.1 386.4 397.4L391.9 390.3Z" fill="url(#gf-duo-tyrannoceratops-60-40)" stroke="#455b32" stroke-width="1.5" stroke-linejoin="round"/><path d="M383.3 396.2L383.2 401L386.3 397.3Z" fill="#455b32"/><g transform="rotate(-24 343.3 269.4)"><ellipse cx="343.3" cy="269.4" rx="31.3" ry="42.3" fill="url(#sc-duo-tyrannoceratops-60-40)" stroke="#93712e" stroke-width="2.2"/><circle cx="312.3" cy="275.3" r="1.9" fill="#d9a441" stroke="#93712e" stroke-width="1.2"/><circle cx="313.9" cy="255" r="2.6" fill="#d9a441" stroke="#93712e" stroke-width="1.2"/><circle cx="322.3" cy="238" r="1.2" fill="#d9a441" stroke="#93712e" stroke-width="1.2"/><circle cx="335.7" cy="228.4" r="1.9" fill="#d9a441" stroke="#93712e" stroke-width="1.2"/><circle cx="350.8" cy="228.4" r="2.6" fill="#d9a441" stroke="#93712e" stroke-width="1.2"/><circle cx="364.2" cy="238" r="1.2" fill="#d9a441" stroke="#93712e" stroke-width="1.2"/><circle cx="372.7" cy="255" r="1.9" fill="#d9a441" stroke="#93712e" stroke-width="1.2"/><circle cx="374.2" cy="275.3" r="2.6" fill="#d9a441" stroke="#93712e" stroke-width="1.2"/><ellipse cx="343.3" cy="269.4" rx="18.6" ry="26.2" fill="#bf913a"/><path d="M335.7 264.2L319 253.5" stroke="#997530" stroke-width="1.6" opacity="0.4"/><path d="M338.8 259.4L328.9 238.6" stroke="#997530" stroke-width="1.6" opacity="0.4"/><path d="M343.3 257.6L343.3 233.1" stroke="#997530" stroke-width="1.6" opacity="0.4"/><path d="M347.7 259.4L357.6 238.6" stroke="#997530" stroke-width="1.6" opacity="0.4"/><path d="M350.9 264.2L367.6 253.5" stroke="#997530" stroke-width="1.6" opacity="0.4"/></g><path d="M293.3 229.1Q289.8 209.5 267.9 192.3Q279.9 210.8 279.4 230.9Z" fill="url(#bn-duo-tyrannoceratops-60-40)" stroke="#8a7a52" stroke-width="1.5" stroke-linejoin="round"/><path d="M288.6 220Q281.8 220.7 277.1 225.7" fill="none" stroke="#8a7a52" stroke-width="1.1" opacity="0.5"/><path d="M285 214.8Q279 215 275.2 219.5" fill="none" stroke="#8a7a52" stroke-width="1.1" opacity="0.5"/><path d="M306.1 233.4Q303.2 218.2 286.8 204.9Q293.3 219.5 292.3 235.1Z" fill="url(#bn-duo-tyrannoceratops-60-40)" stroke="#8a7a52" stroke-width="1.5" stroke-linejoin="round"/><path d="M302.7 226.1Q295.9 226.4 290.9 231.1" fill="none" stroke="#8a7a52" stroke-width="1.1" opacity="0.5"/><path d="M299.9 221.9Q294 221.8 289.9 226.2" fill="none" stroke="#8a7a52" stroke-width="1.1" opacity="0.5"/><path d="M264.9 249.6Q263 242.8 254.1 236.8Q253.1 244 251 251.4Z" fill="url(#bn-duo-tyrannoceratops-60-40)" stroke="#8a7a52" stroke-width="1.5" stroke-linejoin="round"/><path d="M263.3 246Q256.5 245.5 251 249.5" fill="none" stroke="#8a7a52" stroke-width="1.1" opacity="0.5"/><path d="M740.2 360.1L731.6 356L723.1 352.1L714.6 348.2L706.2 344.4L697.7 340.7L689.4 337L681.1 333.4L672.8 329.9L664.6 326.5L656.4 323.2L648.2 319.9L640.1 316.7L632 313.6L624 310.6L616 307.6L608.1 304.7L600.2 302L592.4 299.2L584.5 296.6L576.8 294L569 291.6L561.3 289.2L553.6 286.9L546.3 282.9L539 278.9L531.7 275L524.4 271.1L517.1 267.3L511.5 263.9L505.7 259.8L498 255.5L490.2 251.3L482 248.9L473.7 247.5L465.4 246.3L457.1 245.2L448.8 244.2L440.4 243.4L432.1 242.7L423.7 242.1L415.3 243.1L407 244.4L398.7 245.7L390.4 247.2L382.2 248.8L374 250.6L365.9 252.5L370.9 255.5L379.2 260.8L372.3 258.9L365.6 257.4L359 256.1L352.4 255L346 254.2L340.3 252.8L335.6 249.7L330.8 246.8L326.1 244.1L321.3 241.6L316.5 239.3L307.9 235.2L300.5 231.9L294.1 229.4L288.7 227.7L284.5 226.7L281.3 226.5L278.7 226.2L276.3 226.4L274.1 227.1L272.1 228.3L270.4 229.9L268.9 232L267.6 234.9L266.1 237.7L264.4 240.2L262.7 242.6L260.8 244.8L258.8 246.8L256 248.5L253.5 250.1L251.1 251.8L248.9 253.4L246.8 255L244.9 256.5L243.2 257.8L241.9 259L240.9 260.3L240.2 261.6L239.9 262.9L239.9 264.2L240.9 266L242.1 267.5L243.5 268.7L245 269.5L246.7 269.9L248.7 270L254 270.2L259.1 270.6L264.1 271L269 271.6L273.7 272.4L278.2 273.2L273.8 277.7L269.3 281.8L264.7 285.5L260.1 288.7L255.4 291.4L250.7 293.7L249.7 294.8L249.3 295.8L249.3 296.7L249.8 297.5L250.8 298.2L252.3 298.8L259.6 296.5L266.5 294.1L273.1 291.7L279.3 289.2L285.1 286.7L290.7 284.1L292.9 283.7L294.9 283.3L296.7 283L298.3 282.9L299.7 282.7L300.9 282.7L300.9 282.7L304.5 283.6L308.2 284.6L312 285.9L316 287.3L320 289L323 292.7L325.5 297.4L328 302.2L330.4 307.1L332.7 312.2L335.1 317.3L352.7 330L372.7 331.5L379.7 332.3L386.6 333.1L393.4 334.1L400.3 335.2L407 336.4L413.8 337.7L420.4 339.1L427.2 339.2L433.9 339.4L440.6 339.7L447.4 340.2L454.1 340.7L460.9 341.4L467.6 342.2L474.6 342.3L481.9 340.8L489.2 339.5L498.5 338.7L507.5 337.2L514.9 335.5L522.4 333.9L530.1 332.4L537.8 330.9L545.6 329.8L553.3 330.4L560.9 331.1L568.7 331.8L576.5 332.7L584.4 333.6L592.4 334.6L600.4 335.7L608.5 336.9L616.7 338.2L625 339.5L633.3 340.9L641.7 342.5L650.2 344.1L658.7 345.8L667.3 347.5L676 349.4L684.7 351.3L693.5 353.4L702.4 355.5L711.3 357.7L720.3 360L729.4 362.3L738.5 364.8Z" fill="url(#gb-duo-tyrannoceratops-60-40)" stroke="#394a2a" stroke-width="3" stroke-linejoin="round"/><g clip-path="url(#bod-duo-tyrannoceratops-60-40)"><path d="M711.2 357.9L693.4 353.6L675.8 349.7L658.6 346.1L641.6 342.9L624.8 340L608.4 337.5L592.2 335.3L576.4 333.4L560.8 331.8L545.5 330.6L529.9 333.4L514.7 336.8L498.2 340.2L481.5 342.5L467.4 344.1L453.9 342.6L440.4 341.6L427.1 341.1L413.7 339.6L400.3 337L386.7 334.8L372.9 333.1L334.2 318.5L329.7 308.1L325 298.2L319.6 289.7L323.6 282.5L330.4 289.7L336.7 298.1L343 307.1L371.5 317.3L385.8 317.9L400 319.1L414 320.7L428 321.8L442.1 322.5L456.1 323.7L470.2 325.4L484.8 325.5L500.8 325.2L516.6 323.9L531.7 322.7L547.1 322L562.4 323.9L578 326.2L593.8 328.7L609.9 331.6L626.2 334.8L642.9 338.4L659.7 342.3L676.9 346.5L694.3 351.1L711.9 356Z" fill="#475d34" opacity="0.2"/><path d="M553.8 286L539.2 277.9L531.9 273.8L524.6 269.8L511.8 262.4L506 258.2L490.5 249.5L482.3 247.1L465.7 244.4L457.3 243.3L440.6 241.4L432.2 240.7L423.8 240.2L407 242.5L398.6 243.9L382.1 247.1L373.9 249L371.2 254L380.1 259.6L373.1 257.9L359.6 255.1L353 254.2L340.7 252.1L336 249L326.4 243.3L321.6 240.8L311.9 236.2L309.9 242.5L319.3 246.6L323.9 249L333.2 254.2L337.8 257.1L349.2 260.1L355.2 261.6L367.6 265.3L373.9 267.6L368.7 264.4L374.7 260.4L382.7 258.9L398.8 256.4L407 255.4L423.3 253.8L431.5 254.3L439.6 254.9L455.9 256.6L464.1 257.6L480.3 260.1L488.3 262.3L503.7 269.4L510 272.8L523.3 278.8L530.6 282.1L537.9 285.3L552.7 292Z" fill="#b4c59f" opacity="0.26"/></g><g clip-path="url(#bod-duo-tyrannoceratops-60-40)"><g fill="none" stroke="#394a2a" stroke-width="1.2" opacity="0.2"><path d="M340.5 281.4Q335.1 282.3 333.6 277"/><path d="M351.3 301.3Q347.4 301.6 346.7 297.7"/><path d="M327.1 272.3Q323.3 273.3 321.9 269.6"/><path d="M403.9 304.6Q399.8 308.5 395.5 304.8"/><path d="M417.4 298.8Q414.4 301.5 411.4 298.8"/><path d="M554.4 304.2Q549.9 307 546.6 302.8"/><path d="M449.5 282.1Q445.3 285.3 441.6 281.5"/><path d="M361.6 306.4Q358 308.4 355.6 304.9"/><path d="M514.2 318.7Q509.6 321.8 506 317.5"/><path d="M325.5 264.4Q321.9 265.5 320.4 262"/><path d="M322.4 262.6Q317.2 264.3 314.9 259.3"/><path d="M380.2 284.6Q376.6 288.3 372.5 285.1"/><path d="M335.6 269.3Q330.4 270.5 328.6 265.4"/><path d="M456.7 281.4Q453.1 284 450.2 280.7"/><path d="M454.5 302.2Q451 304.8 448.1 301.6"/><path d="M442.1 270.8Q438.4 273.8 435 270.3"/><path d="M321.1 276.3Q315.9 277.8 313.9 272.8"/><path d="M568.9 312.5Q564.2 315.3 560.9 310.8"/><path d="M351.6 273.4Q346.9 274 345.7 269.4"/><path d="M509.6 296.6Q505.4 299.2 502.3 295.3"/><path d="M356.6 277.6Q350.8 278.3 349.5 272.5"/><path d="M552.5 310.1Q548.9 312.3 546.3 308.9"/></g><g fill="none" stroke="#394a2a" stroke-linecap="round"><path d="M333.2 265.5L324.3 260.5L315.4 256.3L311 254.5L302.2 251.4L297.9 250.2L289.1 249.1L284.7 248.9L276.3 249.4L272.1 249.9" stroke-width="1.5" opacity="0.3"/><path d="M326.7 277L318.2 273L314.1 271.3L310 269.7L302.1 267.2L298.2 266.2L290.7 264.5L287.1 263.5L283.5 262.6" stroke-width="1.3" opacity="0.26"/><path d="M507.2 288.6L492.7 283.7L477.3 279.7L453.9 276.5L438.3 275.1L422.6 274.1L407 274.7L391.4 275.9L375.9 277.6" stroke-width="1.5" opacity="0.28"/><path d="M486.2 317.8L471.5 317L457.2 315.2L435.6 313.5L421.3 312.9L407 311.5L385.4 310.4L370.9 310.2L347 302.1" stroke-width="1.4" opacity="0.26"/><path d="M704.8 348.3L687.7 342L670.9 336.1L654.2 330.5L637.7 325.2L621.5 320.2L605.4 315.6L589.6 311.3L573.9 307.3" stroke-width="1.3" opacity="0.28"/><path d="M695 348.9L677.7 343.8L660.7 339L652.3 336.7L635.7 332.5L619.3 328.5L611.2 326.6L595.1 323.2L587.2 321.6" stroke-width="1.3" opacity="0.24"/><path d="M478 308.5A25.5 25.5 0 0 1 526 302.4" stroke-width="1.6" opacity="0.3"/><path d="M350 300.9A21.3 21.3 0 0 1 387 296.2" stroke-width="1.4" opacity="0.26"/></g></g><path d="M278.2 273.2L273.7 272.4L269 271.6L264.1 271L259.1 270.6L254 270.2L248.7 270L246.7 269.9L245 269.5L243.5 268.7L242.1 267.5L240.9 266L239.9 264.2L252.5 292.5L256.1 290.4L260 287.8L264.1 284.9L268.5 281.4L273.2 277.5L278.2 273.2Z" fill="#5a3138"/><path d="M277.2 273.3Q279.1 268.6 282.1 264.1" fill="none" stroke="#394a2a" stroke-width="1.6" opacity="0.45"/><path d="M251.6 256.7Q248.7 254.4 246.4 257.3" fill="none" stroke="#394a2a" stroke-width="1.6" opacity="0.75"/><g opacity="1"><path d="M246.5 268.7L245 276L241.7 269.3Z" fill="#f6f2e4" stroke="#8a7a52" stroke-width="0.8"/><path d="M252.1 269.8L250.3 275.1L247.3 270.4Z" fill="#f6f2e4" stroke="#8a7a52" stroke-width="0.8"/><path d="M257.8 270L256.3 277.3L253 270.6Z" fill="#f6f2e4" stroke="#8a7a52" stroke-width="0.8"/><path d="M263.5 270.5L261.8 275.8L258.8 271.1Z" fill="#f6f2e4" stroke="#8a7a52" stroke-width="0.8"/><path d="M269.3 271.1L267.8 278.3L264.5 271.7Z" fill="#f6f2e4" stroke="#8a7a52" stroke-width="0.8"/><path d="M272.8 280.2L270.2 275.6L268.8 280.7Z" fill="#f6f2e4" stroke="#8a7a52" stroke-width="0.8"/><path d="M267.5 284.6L265 281L263.5 285.1Z" fill="#f6f2e4" stroke="#8a7a52" stroke-width="0.8"/><path d="M261.8 288.6L259.2 284L257.8 289.1Z" fill="#f6f2e4" stroke="#8a7a52" stroke-width="0.8"/></g><ellipse cx="273.7" cy="251.4" rx="10.9" ry="8.2" fill="#394a2a" opacity="0.1"/><circle cx="272.9" cy="251.5" r="5.4" fill="#fdfaef" stroke="#394a2a" stroke-width="1.5"/><circle cx="272.3" cy="251.5" r="3.4" fill="#c9983d"/><circle cx="271.9" cy="251.5" r="1.8" fill="#1c1a14"/><circle cx="271.1" cy="249.8" r="0.9" fill="#fdfaef" opacity="0.9"/><path d="M279.6 239.6Q270.8 238.9 261.8 246" fill="none" stroke="#394a2a" stroke-width="2.2" stroke-linecap="round"/><path d="M489.5 288.6L488.9 294.6L487.2 302.8L484.5 313.1L481.5 324.6L478.7 336.8L476.5 349.1L475.5 361.2L476.3 372.8L478.9 383.6L483.6 393L489.4 401L495.4 408L501.2 414.2L506.1 419.6L509.6 424.1L511.4 427.4L511.3 430.4L510.3 433.6L508.5 437.1L506.1 440.6L503.3 444L500.4 447.3L497.6 450.4L495.6 453.1L510.4 462.9L511.5 460.9L513.6 458.2L516.4 454.6L519.7 450.1L522.8 444.9L525.4 438.9L526.9 432.1L526.6 424.6L524.6 416.8L520.9 409.5L516.3 402.4L511.6 395.5L507.3 388.7L503.9 382.2L502 376.4L501.7 371.5L503.7 365.3L507.1 357.2L511.5 347.9L516.8 338.2L522.3 328.7L527.7 319.9L532.6 312.1L536.5 306.2Z" fill="url(#gl-duo-tyrannoceratops-60-40)" stroke="#394a2a" stroke-width="2.4"/><g clip-path="url(#bod-duo-tyrannoceratops-60-40)"><path d="M489.5 288.6L488.9 294.6L487.2 302.8L484.5 313.1L481.5 324.6L478.7 336.8L476.5 349.1L475.5 361.2L476.3 372.8L478.9 383.6L483.6 393L489.4 401L495.4 408L501.2 414.2L506.1 419.6L509.6 424.1L511.4 427.4L511.3 430.4L510.3 433.6L508.5 437.1L506.1 440.6L503.3 444L500.4 447.3L497.6 450.4L495.6 453.1L510.4 462.9L511.5 460.9L513.6 458.2L516.4 454.6L519.7 450.1L522.8 444.9L525.4 438.9L526.9 432.1L526.6 424.6L524.6 416.8L520.9 409.5L516.3 402.4L511.6 395.5L507.3 388.7L503.9 382.2L502 376.4L501.7 371.5L503.7 365.3L507.1 357.2L511.5 347.9L516.8 338.2L522.3 328.7L527.7 319.9L532.6 312.1L536.5 306.2Z" fill="url(#gl-duo-tyrannoceratops-60-40)"/></g><path d="M507 460.7L491 466.7Q488.5 470 492.4 471.3L509 467.3Z" fill="url(#gl-duo-tyrannoceratops-60-40)" stroke="#394a2a" stroke-width="1.5" stroke-linejoin="round"/><path d="M491.2 467.5L487.4 470.3L492.2 470.5Z" fill="#394a2a"/><path d="M503.9 458.4L484.4 465.5Q481.7 469.1 485.9 470.5L506.1 465.6Z" fill="url(#gl-duo-tyrannoceratops-60-40)" stroke="#394a2a" stroke-width="1.5" stroke-linejoin="round"/><path d="M484.7 466.5L480.8 469.3L485.6 469.5Z" fill="#394a2a"/><path d="M508.6 467.6L515.5 470.4Q519.3 470 517.6 466.6L511.4 462.4Z" fill="url(#gl-duo-tyrannoceratops-60-40)" stroke="#394a2a" stroke-width="1.5" stroke-linejoin="round"/><path d="M515.8 469.9L520.5 470.6L517.3 467.1Z" fill="#394a2a"/><path d="M377.9 294.1L377.6 298.2L377.4 303.7L377.4 310.4L377.3 317.8L377.2 325.7L376.9 333.6L376.3 341.2L375.3 348.2L374.3 355.1L372.8 362.1L371 369.1L369.1 375.8L367.1 382.1L365.3 387.7L363.8 392.3L362.7 395.8L354.8 393.7L355.6 390L356.8 385.2L358.2 379.6L359.7 373.3L361.2 366.7L362.6 360L363.6 353.4L364.2 347.2L363.9 340.9L363.4 333.8L362.6 326.3L361.6 318.8L360.5 311.6L359.4 305.1L358.4 299.5L357.6 295.3Z" fill="url(#gl-duo-tyrannoceratops-60-40)" stroke="#394a2a" stroke-width="2.4"/><g clip-path="url(#bod-duo-tyrannoceratops-60-40)"><path d="M377.9 294.1L377.6 298.2L377.4 303.7L377.4 310.4L377.3 317.8L377.2 325.7L376.9 333.6L376.3 341.2L375.3 348.2L374.3 355.1L372.8 362.1L371 369.1L369.1 375.8L367.1 382.1L365.3 387.7L363.8 392.3L362.7 395.8L354.8 393.7L355.6 390L356.8 385.2L358.2 379.6L359.7 373.3L361.2 366.7L362.6 360L363.6 353.4L364.2 347.2L363.9 340.9L363.4 333.8L362.6 326.3L361.6 318.8L360.5 311.6L359.4 305.1L358.4 299.5L357.6 295.3Z" fill="url(#gl-duo-tyrannoceratops-60-40)"/></g><path d="M355.2 389.2L351 400.4Q350.9 404.2 354.5 403.1L364.3 396.3Z" fill="url(#gl-duo-tyrannoceratops-60-40)" stroke="#394a2a" stroke-width="1.5" stroke-linejoin="round"/><path d="M351.5 400.8L350 405.3L354 402.7Z" fill="#394a2a"/><path d="M357.6 393.2L357.1 402.1Q357.9 405.1 360.4 403.4L365.9 396.3Z" fill="url(#gl-duo-tyrannoceratops-60-40)" stroke="#394a2a" stroke-width="1.5" stroke-linejoin="round"/><path d="M357.3 402.2L357.2 407L360.3 403.3Z" fill="#394a2a"/></g></svg>