<svg xmlns="http://www.w3.org/2000/svg" viewBox="0 0 820 540" role="img" aria-label="Triceralophus, a hybrid dinosaur"><g transform="translate(454.2 470) scale(0.985) translate(-454.2 -470)"><defs><clipPath id="bod-mix-triceratops-parasaurolophus"><path d="M718.4 375L710.7 370.8L703 366.6L695.4 362.5L687.8 358.5L680.3 354.6L672.7 350.7L665.3 347L657.8 343.3L650.4 339.7L643 336.2L635.7 332.7L628.4 329.4L621.1 326.1L613.9 322.9L606.7 319.8L599.5 316.8L592.4 313.8L585.3 311L578.2 308.2L571.2 305.5L564.2 302.9L557.2 300.4L550.2 297.9L543.7 293.9L537.1 289.7L530.6 285.6L524 281.6L517.4 277.7L511 273.9L503.5 269.9L495.7 266L487.9 262.2L479.8 260.2L471.6 259.1L463.4 258.1L455.2 257.2L447 256.5L438.8 255.8L430.6 255.2L422.3 254.7L414.1 255.6L405.9 256.6L397.7 257.7L389.5 258.9L381.3 260.2L373.2 261.6L365.1 263.1L367.1 265.2L374.9 270.1L368.3 269.9L361.9 269.9L355.6 270.1L349.5 270.5L343.4 271.1L338 271L333.4 269L328.8 267.2L324.3 265.6L319.7 264.1L315.2 262.7L307.9 260L301.5 257.8L296 256.1L291.3 255L287.6 254.4L284.7 254.3L282.3 254.1L280 254.3L278 254.9L276.2 255.9L274.6 257.3L273.2 259.2L272 261.7L270.6 264L269.1 266.3L267.4 268.3L265.6 270.2L263.8 272L261.2 273.4L258.9 274.9L256.7 276.3L254.6 277.7L252.7 279.1L250.9 280.5L249.4 281.6L248.1 282.7L247.2 283.8L246.5 284.9L246.2 286L246.2 287.1L247 288.9L247.9 290.6L249.1 292.1L250.3 293.4L251.7 294.6L253.3 295.6L257.2 297.3L261.1 298.8L265.2 300.1L269.3 301.2L273.6 302.1L277.9 302.8L283.2 303.1L287.7 303.3L291.5 303.4L294.5 303.3L296.8 303.1L298.3 302.7L299 302.6L299.8 302.5L300.8 302.5L301.9 302.7L303.1 303L304.5 303.3L304.5 303.3L307.9 304.2L311.3 305.2L314.8 306.3L318.3 307.6L322 309L324.8 312.4L327.1 316.9L329.4 321.5L331.6 326.2L333.8 330.9L335.9 335.7L352.4 345.9L369.7 347.1L376.9 347.9L384.1 348.7L391.2 349.6L398.3 350.6L405.4 351.7L412.4 352.9L419.5 354.1L426.5 354.2L433.6 354.3L440.7 354.5L447.8 354.8L454.8 355.2L461.9 355.7L469 356.2L476.2 356L483.7 354.2L491.2 352.4L499 350.8L505.9 349.1L512.6 347.4L519.5 345.8L526.4 344.3L533.5 342.9L540.7 341.7L547.6 342.4L554.5 343.1L561.6 344L568.7 344.9L575.8 345.9L583.1 347L590.4 348.2L597.8 349.5L605.2 350.8L612.8 352.3L620.3 353.9L628 355.5L635.7 357.2L643.5 359.1L651.3 361L659.3 363L667.2 365.1L675.3 367.3L683.4 369.6L691.6 371.9L699.8 374.4L708.1 377L716.4 379.6Z"/></clipPath><linearGradient id="gb-mix-triceratops-parasaurolophus" x1="0" y1="0" x2="0" y2="1"><stop offset="0" stop-color="#82a068"/><stop offset="0.55" stop-color="#6b8f4e"/><stop offset="1" stop-color="#536f3d"/></linearGradient><linearGradient id="gl-mix-triceratops-parasaurolophus" x1="0" y1="0" x2="0" y2="1"><stop offset="0" stop-color="#698d4d"/><stop offset="0.55" stop-color="#5e7e45"/><stop offset="1" stop-color="#526c3c"/></linearGradient><linearGradient id="gf-mix-triceratops-parasaurolophus" x1="0" y1="0" x2="0" y2="1"><stop offset="0" stop-color="#628347"/><stop offset="0.55" stop-color="#597641"/><stop offset="1" stop-color="#506a3a"/></linearGradient><linearGradient id="sc-mix-triceratops-parasaurolophus" x1="0" y1="0" x2="0" y2="1"><stop offset="0" stop-color="#e1b768"/><stop offset="0.55" stop-color="#d9a441"/><stop offset="1" stop-color="#b18736"/></linearGradient><linearGradient id="bn-mix-triceratops-parasaurolophus" x1="0" y1="0" x2="0" y2="1"><stop offset="0" stop-color="#eee7d1"/><stop offset="0.55" stop-color="#e6dcc0"/><stop offset="1" stop-color="#c4bca3"/></linearGradient><radialGradient id="sh-mix-triceratops-parasaurolophus"><stop offset="0" stop-color="#23281e" stop-opacity="0.18"/><stop offset="0.7" stop-color="#23281e" stop-opacity="0.11"/><stop offset="1" stop-color="#23281e" stop-opacity="0"/></radialGradient></defs><line x1="60" y1="470" x2="780" y2="470" stroke="#b9b4a0" stroke-width="2"/><path d="M120 470l5 -9 M127 470l4 -6" stroke="#b9b4a0" stroke-width="1.5" fill="none"/><path d="M300 470l5 -9 M307 470l4 -6" stroke="#b9b4a0" stroke-width="1.5" fill="none"/><path d="M520 470l5 -9 M527 470l4 -6" stroke="#b9b4a0" stroke-width="1.5" fill="none"/><path d="M700 470l5 -9 M707 470l4 -6" stroke="#b9b4a0" stroke-width="1.5" fill="none"/><ellipse cx="483.1" cy="478" rx="215.6" ry="10" fill="url(#sh-mix-triceratops-parasaurolophus)"/><path d="M514.9 292.8L514.4 298.4L512.6 306.3L510 316.1L507 327.1L504.2 338.7L502 350.5L501 362.1L501.8 373.3L504.6 383.8L509.6 392.5L515.5 399.7L521.6 405.7L527.4 411L532.2 415.5L535.5 419.1L537.2 421.6L537 424L536.1 427L534.3 430.5L531.8 434.1L528.9 437.7L526 441.1L523.3 444.3L521.3 447L536.7 457L537.8 455L539.9 452.2L542.8 448.4L546 443.8L549.1 438.6L551.7 432.6L553.2 425.9L552.8 418.4L550.7 410.9L546.8 404L542.1 397.7L537.4 391.6L533.1 385.7L530 380.3L528.3 375.6L528.2 371.8L530.2 366.7L533.5 359.4L538 350.9L543.2 341.9L548.8 333L554.2 324.8L559.2 317.5L563.1 312Z" fill="url(#gf-mix-triceratops-parasaurolophus)" stroke="#455b32" stroke-width="1.8"/><path d="M533 457.7L516.9 463.7Q514.4 467 518.3 468.3L535 464.3Z" fill="url(#gf-mix-triceratops-parasaurolophus)" stroke="#455b32" stroke-width="1.5" stroke-linejoin="round"/><path d="M517.1 464.5L513.3 467.3L518.1 467.5Z" fill="#455b32"/><path d="M529.9 455.4L510.3 462.5Q507.5 466 511.8 467.5L532.1 462.6Z" fill="url(#gf-mix-triceratops-parasaurolophus)" stroke="#455b32" stroke-width="1.5" stroke-linejoin="round"/><path d="M510.5 463.5L506.7 466.3L511.5 466.5Z" fill="#455b32"/><path d="M534.6 464.7L541.6 467.4Q545.3 466.9 543.6 463.6L537.4 459.3Z" fill="url(#gf-mix-triceratops-parasaurolophus)" stroke="#455b32" stroke-width="1.5" stroke-linejoin="round"/><path d="M541.8 466.9L546.6 467.6L543.3 464.1Z" fill="#455b32"/><path d="M404.9 301L404.4 306.6L404.1 314.1L403.9 323.1L403.7 333.2L403.4 343.9L402.9 354.6L402.1 365L401 374.6L399.9 384L398.4 393.8L396.5 403.6L394.5 413.1L392.6 422.1L390.7 430.1L389.1 436.7L388 441.7L377.6 439.8L378.3 434.6L379.4 427.8L380.7 419.8L382.2 410.8L383.7 401.4L385 391.8L386 382.4L386.5 373.7L386.1 364.7L385.4 354.8L384.4 344.5L383.2 334.2L382 324.3L380.7 315.4L379.6 307.8L378.6 302.1Z" fill="url(#gf-mix-triceratops-parasaurolophus)" stroke="#455b32" stroke-width="1.8"/><ellipse cx="379.8" cy="462" rx="14.9" ry="5.5" fill="url(#gf-mix-triceratops-parasaurolophus)" stroke="#455b32" stroke-width="2"/><path d="M375.3 458.4L373.7 463.7M381.5 458.4L379.9 463.7" fill="none" stroke="#455b32" stroke-width="1.2" opacity="0.45"/><g transform="rotate(-24 341.8 286.5)"><ellipse cx="341.8" cy="286.5" rx="46.4" ry="62.7" fill="url(#sc-mix-triceratops-parasaurolophus)" stroke="#93712e" stroke-width="2.2"/><circle cx="295.8" cy="295.2" r="2.9" fill="#d9a441" stroke="#93712e" stroke-width="1.2"/><circle cx="298.1" cy="265.1" r="3.9" fill="#d9a441" stroke="#93712e" stroke-width="1.2"/><circle cx="310.7" cy="239.9" r="1.8" fill="#d9a441" stroke="#93712e" stroke-width="1.2"/><circle cx="330.5" cy="225.7" r="2.9" fill="#d9a441" stroke="#93712e" stroke-width="1.2"/><circle cx="353" cy="225.7" r="3.9" fill="#d9a441" stroke="#93712e" stroke-width="1.2"/><circle cx="372.8" cy="239.9" r="1.8" fill="#d9a441" stroke="#93712e" stroke-width="1.2"/><circle cx="385.4" cy="265.1" r="2.9" fill="#d9a441" stroke="#93712e" stroke-width="1.2"/><circle cx="387.7" cy="295.2" r="3.9" fill="#d9a441" stroke="#93712e" stroke-width="1.2"/><ellipse cx="341.8" cy="286.5" rx="27.6" ry="38.9" fill="#bf913a"/><path d="M330.5 278.8L305.7 262.9" stroke="#997530" stroke-width="1.6" opacity="0.4"/><path d="M335.1 271.6L320.5 240.8" stroke="#997530" stroke-width="1.6" opacity="0.4"/><path d="M341.8 268.9L341.8 232.6" stroke="#997530" stroke-width="1.6" opacity="0.4"/><path d="M348.4 271.6L363 240.8" stroke="#997530" stroke-width="1.6" opacity="0.4"/><path d="M353 278.8L377.8 262.9" stroke="#997530" stroke-width="1.6" opacity="0.4"/></g><path d="M294.9 256.4Q290.2 227.4 260.6 201.5Q280.2 228.6 281 258.2Z" fill="url(#bn-mix-triceratops-parasaurolophus)" stroke="#8a7a52" stroke-width="1.5" stroke-linejoin="round"/><path d="M288.5 243.9Q281.7 244.6 277 249.6" fill="none" stroke="#8a7a52" stroke-width="1.1" opacity="0.5"/><path d="M283.5 235.9Q277.6 236.1 273.7 240.7" fill="none" stroke="#8a7a52" stroke-width="1.1" opacity="0.5"/><path d="M306.5 259.2Q302.6 236.7 281.1 216.4Q292.7 237.9 292.6 260.9Z" fill="url(#bn-mix-triceratops-parasaurolophus)" stroke="#8a7a52" stroke-width="1.5" stroke-linejoin="round"/><path d="M301.9 249.2Q295 249.4 290.1 254.2" fill="none" stroke="#8a7a52" stroke-width="1.1" opacity="0.5"/><path d="M298.1 242.8Q292.2 242.7 288.1 247.1" fill="none" stroke="#8a7a52" stroke-width="1.1" opacity="0.5"/><path d="M269.5 275Q267.2 264.7 256.8 255.5Q257.2 266 255.6 276.8Z" fill="url(#bn-mix-triceratops-parasaurolophus)" stroke="#8a7a52" stroke-width="1.5" stroke-linejoin="round"/><path d="M267.6 270.1Q260.7 269.5 255.2 273.6" fill="none" stroke="#8a7a52" stroke-width="1.1" opacity="0.5"/><path d="M296.5 261.1Q287.1 187.8 385.1 185.5" fill="none" stroke="#394a2a" stroke-width="19.5" stroke-linecap="round"/><path d="M296.5 261.1Q287.1 187.8 385.1 185.5" fill="none" stroke="#7f9e65" stroke-width="14.5" stroke-linecap="round"/><path d="M296.5 261.1Q287.1 187.8 385.1 185.5" fill="none" stroke="#9cb385" stroke-width="3.8" stroke-linecap="round" opacity="0.6"/><circle cx="296.3" cy="239.4" r="6.1" fill="none" stroke="#526c3c" stroke-width="1.1" opacity="0.4"/><circle cx="300.6" cy="223.5" r="6.1" fill="none" stroke="#526c3c" stroke-width="1.1" opacity="0.4"/><path d="M718.4 375L710.7 370.8L703 366.6L695.4 362.5L687.8 358.5L680.3 354.6L672.7 350.7L665.3 347L657.8 343.3L650.4 339.7L643 336.2L635.7 332.7L628.4 329.4L621.1 326.1L613.9 322.9L606.7 319.8L599.5 316.8L592.4 313.8L585.3 311L578.2 308.2L571.2 305.5L564.2 302.9L557.2 300.4L550.2 297.9L543.7 293.9L537.1 289.7L530.6 285.6L524 281.6L517.4 277.7L511 273.9L503.5 269.9L495.7 266L487.9 262.2L479.8 260.2L471.6 259.1L463.4 258.1L455.2 257.2L447 256.5L438.8 255.8L430.6 255.2L422.3 254.7L414.1 255.6L405.9 256.6L397.7 257.7L389.5 258.9L381.3 260.2L373.2 261.6L365.1 263.1L367.1 265.2L374.9 270.1L368.3 269.9L361.9 269.9L355.6 270.1L349.5 270.5L343.4 271.1L338 271L333.4 269L328.8 267.2L324.3 265.6L319.7 264.1L315.2 262.7L307.9 260L301.5 257.8L296 256.1L291.3 255L287.6 254.4L284.7 254.3L282.3 254.1L280 254.3L278 254.9L276.2 255.9L274.6 257.3L273.2 259.2L272 261.7L270.6 264L269.1 266.3L267.4 268.3L265.6 270.2L263.8 272L261.2 273.4L258.9 274.9L256.7 276.3L254.6 277.7L252.7 279.1L250.9 280.5L249.4 281.6L248.1 282.7L247.2 283.8L246.5 284.9L246.2 286L246.2 287.1L247 288.9L247.9 290.6L249.1 292.1L250.3 293.4L251.7 294.6L253.3 295.6L257.2 297.3L261.1 298.8L265.2 300.1L269.3 301.2L273.6 302.1L277.9 302.8L283.2 303.1L287.7 303.3L291.5 303.4L294.5 303.3L296.8 303.1L298.3 302.7L299 302.6L299.8 302.5L300.8 302.5L301.9 302.7L303.1 303L304.5 303.3L304.5 303.3L307.9 304.2L311.3 305.2L314.8 306.3L318.3 307.6L322 309L324.8 312.4L327.1 316.9L329.4 321.5L331.6 326.2L333.8 330.9L335.9 335.7L352.4 345.9L369.7 347.1L376.9 347.9L384.1 348.7L391.2 349.6L398.3 350.6L405.4 351.7L412.4 352.9L419.5 354.1L426.5 354.2L433.6 354.3L440.7 354.5L447.8 354.8L454.8 355.2L461.9 355.7L469 356.2L476.2 356L483.7 354.2L491.2 352.4L499 350.8L505.9 349.1L512.6 347.4L519.5 345.8L526.4 344.3L533.5 342.9L540.7 341.7L547.6 342.4L554.5 343.1L561.6 344L568.7 344.9L575.8 345.9L583.1 347L590.4 348.2L597.8 349.5L605.2 350.8L612.8 352.3L620.3 353.9L628 355.5L635.7 357.2L643.5 359.1L651.3 361L659.3 363L667.2 365.1L675.3 367.3L683.4 369.6L691.6 371.9L699.8 374.4L708.1 377L716.4 379.6Z" fill="url(#gb-mix-triceratops-parasaurolophus)" stroke="#394a2a" stroke-width="3" stroke-linejoin="round"/><g clip-path="url(#bod-mix-triceratops-parasaurolophus)"><path d="M691.5 372.1L675.2 367.5L659.1 363.3L643.4 359.5L627.8 356L612.6 352.8L597.6 350.1L582.9 347.7L568.5 345.6L554.3 343.9L540.5 342.6L526.2 345.4L512.4 348.7L498.8 352.4L483.5 355.9L468.8 358.2L454.7 357.1L440.6 356.5L426.5 356.1L412.4 354.8L398.3 352.5L384.1 350.5L369.8 348.8L335.1 337L331 327.3L326.7 317.9L321.6 309.7L324.8 302.1L331.1 308.6L337.1 316L342.9 323.9L368.9 332L383.6 332.8L398.2 333.9L412.7 335.4L427.3 336.3L441.8 336.9L456.4 337.7L471 338.9L485.9 338.3L501.2 337L514.6 335.5L528.4 334.5L542.4 333.8L556.3 335.9L570.4 338.3L584.8 341L599.4 344.1L614.3 347.6L629.4 351.4L644.7 355.6L660.3 360.1L676.2 365L692.2 370.2Z" fill="#475d34" opacity="0.2"/><path d="M550.4 297.1L537.3 288.6L530.8 284.4L524.2 280.3L511.2 272.4L503.7 268.3L488.1 260.3L480 258.2L463.6 256.2L455.4 255.3L438.9 253.8L430.7 253.2L422.4 252.7L405.9 254.7L397.6 255.8L381.3 258.4L373.1 259.9L367.4 263.6L375.6 268.8L362.5 268.8L356.1 269.1L349.9 269.6L338.3 270.2L333.7 268.2L324.6 264.8L320 263.3L310.9 260.7L309.5 266.5L318.3 268.9L322.7 270.3L331.6 273.6L336.1 275.5L346.8 276.1L352.5 276.3L358.3 276.6L370.2 278L365.4 274.9L373.6 271.9L381.7 270.8L397.7 268.8L405.8 268L422 266.7L430.1 267.1L438.2 267.6L454.3 269L462.4 269.8L478.5 271.7L486.5 273.4L502 279.8L509.5 283.1L522.6 289.5L529.2 292.9L535.8 296.3L549.1 303.2Z" fill="#b4c59f" opacity="0.26"/></g><g clip-path="url(#bod-mix-triceratops-parasaurolophus)"><g fill="none" stroke="#394a2a" stroke-width="1.2" opacity="0.2"><path d="M340.4 298.8Q335.1 300.3 333 295.2"/><path d="M350.8 316.5Q346.9 317.3 345.7 313.5"/><path d="M327.6 291.9Q323.9 293.2 322.2 289.7"/><path d="M402.3 319Q398.1 322.8 393.9 319"/><path d="M416.1 312.9Q413.1 315.5 410.2 312.8"/><path d="M550.4 315.8Q545.8 318.4 542.7 314.1"/><path d="M448.5 295.3Q444.3 298.6 440.6 294.8"/><path d="M360.2 320.1Q356.7 322.3 354.2 319"/><path d="M513.1 330.3Q508.4 333.3 504.9 328.9"/><path d="M325.6 284.5Q322.1 286 320.3 282.6"/><path d="M322.8 283.3Q317.7 285.5 315 280.8"/><path d="M378.6 297.6Q374.9 301.2 370.9 297.9"/><path d="M335.3 287.8Q330.1 289.5 327.8 284.7"/><path d="M455.6 294.3Q452.2 297 449.2 293.8"/><path d="M454 315.7Q450.5 318.4 447.5 315.2"/><path d="M440.9 283.9Q437.2 286.9 433.8 283.5"/><path d="M322.6 296.3Q317.6 298.3 315.1 293.6"/><path d="M563.3 324.3Q558.4 327 555.3 322.4"/><path d="M350 288.8Q345.4 290 343.7 285.6"/><path d="M509.5 307.5Q505.3 310.2 502.2 306.3"/><path d="M355 292Q349.3 293.4 347.3 287.8"/><path d="M548.3 321.7Q544.6 323.8 542.1 320.4"/></g><g fill="none" stroke="#394a2a" stroke-linecap="round"><path d="M332.4 284.3L323.9 280.9L315.6 278.1L311.5 276.9L303.3 275L299.3 274.3L291.3 273.7L287.3 273.8L279.6 274.3L275.8 274.8" stroke-width="1.5" opacity="0.3"/><path d="M327.2 296.4L319.4 293.4L315.6 292.1L311.8 291L304.4 289.1L300.7 288.3L293.6 287.1L290.2 286.4L286.7 285.8" stroke-width="1.3" opacity="0.26"/><path d="M507 299.3L491.8 295.1L476.3 291.9L452.8 289.4L437.1 288.3L421.4 287.5L405.7 288L390 288.8L374.4 290.1" stroke-width="1.5" opacity="0.28"/><path d="M486.9 330.4L471.9 330.3L457.2 329L435 327.7L420.3 327.3L405.5 326L383.3 324.8L368.5 324.4L346.4 318" stroke-width="1.4" opacity="0.26"/><path d="M686.3 362.4L670.8 355.8L655.6 349.5L640.5 343.5L625.6 337.9L610.9 332.7L596.3 327.8L582 323.2L567.8 319" stroke-width="1.3" opacity="0.28"/><path d="M677 362.8L661.4 357.4L645.9 352.3L638.3 349.9L623.2 345.3L608.3 341.1L600.9 339.1L586.4 335.4L579.2 333.7" stroke-width="1.3" opacity="0.24"/><path d="M477.1 319.4A26.4 26.4 0 0 1 526.8 313.1" stroke-width="1.6" opacity="0.3"/><path d="M343.8 312.1A25.8 25.8 0 0 1 388.6 306.4" stroke-width="1.4" opacity="0.26"/></g></g><path d="M248.2 290L249.5 291L250.9 291.6L252.5 292L254.3 292.1L259.2 292.2L263.9 292.5L268.5 292.8L273 293.3L277.3 293.9L281.5 294.6" fill="none" stroke="#394a2a" stroke-width="2" opacity="0.65"/><path d="M280.5 294.7Q282.4 289.9 285.4 285.5" fill="none" stroke="#394a2a" stroke-width="1.6" opacity="0.45"/><path d="M257.3 280.5Q254.4 278.3 252.1 281.2" fill="none" stroke="#394a2a" stroke-width="1.6" opacity="0.75"/><ellipse cx="277.5" cy="275.8" rx="9.4" ry="7" fill="#394a2a" opacity="0.1"/><circle cx="276.8" cy="275.9" r="4.7" fill="#fdfaef" stroke="#394a2a" stroke-width="1.5"/><circle cx="276.2" cy="275.9" r="2.9" fill="#c9983d"/><circle cx="275.9" cy="275.9" r="1.6" fill="#1c1a14"/><circle cx="275.2" cy="274.5" r="0.8" fill="#fdfaef" opacity="0.9"/><path d="M282.6 265.7Q274.9 265 267.2 271.2" fill="none" stroke="#394a2a" stroke-width="2.2" stroke-linecap="round"/><path d="M488.9 298.8L488.4 304.4L486.6 312.3L484 322.1L481 333.1L478.2 344.7L476 356.5L475 368.1L475.8 379.3L478.6 389.8L483.6 398.5L489.5 405.7L495.6 411.7L501.4 417L506.2 421.5L509.5 425.1L511.2 427.6L511 430L510.1 433L508.3 436.5L505.8 440.1L502.9 443.7L500 447.1L497.3 450.3L495.3 453L510.7 463L511.8 461L513.9 458.2L516.8 454.4L520 449.8L523.1 444.6L525.7 438.6L527.2 431.9L526.8 424.4L524.7 416.9L520.8 410L516.1 403.7L511.4 397.6L507.1 391.7L504 386.3L502.3 381.6L502.2 377.8L504.2 372.7L507.5 365.4L512 356.9L517.2 347.9L522.8 339L528.2 330.8L533.2 323.5L537.1 318Z" fill="url(#gl-mix-triceratops-parasaurolophus)" stroke="#394a2a" stroke-width="2.4"/><g clip-path="url(#bod-mix-triceratops-parasaurolophus)"><path d="M488.9 298.8L488.4 304.4L486.6 312.3L484 322.1L481 333.1L478.2 344.7L476 356.5L475 368.1L475.8 379.3L478.6 389.8L483.6 398.5L489.5 405.7L495.6 411.7L501.4 417L506.2 421.5L509.5 425.1L511.2 427.6L511 430L510.1 433L508.3 436.5L505.8 440.1L502.9 443.7L500 447.1L497.3 450.3L495.3 453L510.7 463L511.8 461L513.9 458.2L516.8 454.4L520 449.8L523.1 444.6L525.7 438.6L527.2 431.9L526.8 424.4L524.7 416.9L520.8 410L516.1 403.7L511.4 397.6L507.1 391.7L504 386.3L502.3 381.6L502.2 377.8L504.2 372.7L507.5 365.4L512 356.9L517.2 347.9L522.8 339L528.2 330.8L533.2 323.5L537.1 318Z" fill="url(#gl-mix-triceratops-parasaurolophus)"/></g><path d="M507 460.7L490.9 466.7Q488.4 470 492.3 471.3L509 467.3Z" fill="url(#gl-mix-triceratops-parasaurolophus)" stroke="#394a2a" stroke-width="1.5" stroke-linejoin="round"/><path d="M491.1 467.5L487.3 470.3L492.1 470.5Z" fill="#394a2a"/><path d="M503.9 458.4L484.3 465.5Q481.5 469 485.8 470.5L506.1 465.6Z" fill="url(#gl-mix-triceratops-parasaurolophus)" stroke="#394a2a" stroke-width="1.5" stroke-linejoin="round"/><path d="M484.5 466.5L480.7 469.3L485.5 469.5Z" fill="#394a2a"/><path d="M508.6 467.7L515.6 470.4Q519.3 469.9 517.6 466.6L511.4 462.3Z" fill="url(#gl-mix-triceratops-parasaurolophus)" stroke="#394a2a" stroke-width="1.5" stroke-linejoin="round"/><path d="M515.8 469.9L520.6 470.6L517.3 467.1Z" fill="#394a2a"/><path d="M378.9 307L378.4 312.6L378.1 320.1L377.9 329.1L377.7 339.2L377.4 349.9L376.9 360.6L376.1 371L375 380.6L373.9 390L372.4 399.8L370.5 409.6L368.5 419.1L366.6 428.1L364.7 436.1L363.1 442.7L362 447.7L351.6 445.8L352.3 440.6L353.4 433.8L354.7 425.8L356.2 416.8L357.7 407.4L359 397.8L360 388.4L360.5 379.7L360.1 370.7L359.4 360.8L358.4 350.5L357.2 340.2L356 330.3L354.7 321.4L353.6 313.8L352.6 308.1Z" fill="url(#gl-mix-triceratops-parasaurolophus)" stroke="#394a2a" stroke-width="2.4"/><g clip-path="url(#bod-mix-triceratops-parasaurolophus)"><path d="M378.9 307L378.4 312.6L378.1 320.1L377.9 329.1L377.7 339.2L377.4 349.9L376.9 360.6L376.1 371L375 380.6L373.9 390L372.4 399.8L370.5 409.6L368.5 419.1L366.6 428.1L364.7 436.1L363.1 442.7L362 447.7L351.6 445.8L352.3 440.6L353.4 433.8L354.7 425.8L356.2 416.8L357.7 407.4L359 397.8L360 388.4L360.5 379.7L360.1 370.7L359.4 360.8L358.4 350.5L357.2 340.2L356 330.3L354.7 321.4L353.6 313.8L352.6 308.1Z" fill="url(#gl-mix-triceratops-parasaurolophus)"/></g><ellipse cx="353.8" cy="465" rx="15.9" ry="6" fill="url(#gl-mix-triceratops-parasaurolophus)" stroke="#394a2a" stroke-width="2"/><path d="M349 461.1L347.4 466.8M355.7 461.1L354.1 466.8" fill="none" stroke="#394a2a" stroke-width="1.2" opacity="0.45"/></g></svg>