<svg xmlns="http://www.w3.org/2000/svg" viewBox="0 0 820 540" role="img" aria-label="Spinobrachion, a hybrid dinosaur"><g transform="translate(446.8 470) scale(0.985) translate(-446.8 -470)"><defs><clipPath id="bod-mix-spinosaurus-brachiosaurus"><path d="M786.8 342.8L776.3 339.7L765.9 336.6L755.6 333.6L745.3 330.6L735.1 327.7L724.9 324.8L714.8 322L704.8 319.2L694.8 316.5L684.9 313.9L675 311.3L665.2 308.7L655.5 306.2L645.8 303.8L636.1 301.4L626.6 299.1L617 296.8L607.6 294.6L598.2 292.5L588.8 290.4L579.5 288.3L570.3 286.3L561.1 284.4L552.2 280.5L543.3 276.4L534.5 272.3L525.7 268.4L516.9 264.4L514.2 261.4L511.8 256.8L503.7 250.5L495.6 244.4L486.8 240.1L477.7 236.9L468.6 233.8L459.5 230.8L450.4 227.9L441.2 225L432.1 222.2L422.9 219.5L413.5 218.1L404 216.9L394.6 215.7L385.1 214.6L375.7 213.6L366.3 212.7L356.9 211.9L361.1 216.1L352.9 213.6L338.2 207.3L323.8 201.6L309.9 196.4L296.4 191.7L283.3 187.5L271.6 182.7L261.8 176L252.5 169.8L243.4 164L234.8 158.7L226.4 153.9L218.4 149.5L210.7 145.6L203.3 142.1L196.2 139.1L189.3 136.6L182.6 134.5L176.1 133L167.9 132.4L161.1 132.1L155.4 132L151.1 132.2L148 132.5L146.1 133.1L144.8 133.5L143.7 134.2L142.9 135.2L142.4 136.4L142.2 137.9L142.3 139.6L142.8 141.8L143.1 144L143.4 146.1L143.4 148L143.4 149.9L143.2 151.7L142.5 153.5L141.9 155.1L141.4 156.7L141 158.3L140.6 159.8L140.3 161.3L140 162.5L139.8 163.7L139.8 164.7L140 165.7L140.3 166.7L140.8 167.5L141.8 168.2L142.7 168.7L143.6 169L144.3 169.3L145 169.4L145.6 169.3L146.2 169.2L146.7 169L147.1 168.9L147.6 168.7L148 168.5L148.4 168.3L147.8 169L147.2 169.7L146.6 170.3L146.1 170.9L145.7 171.5L145.3 172.1L145.8 173L146.5 173.9L147.5 174.6L148.7 175.3L150.3 175.8L152.1 176.1L156.2 175.6L160 174.8L163.7 173.8L167.1 172.6L170.3 171.2L173.2 169.6L173.9 168.9L174 168.6L173.5 168.6L172.5 169L170.9 169.6L168.8 170.6L168.8 170.6L172.7 171.5L177.3 172.8L182.4 174.6L188.1 176.9L194.3 179.7L201 183L208.1 186.8L215.7 191.1L223.8 195.8L232.2 201.1L241.2 206.9L250.5 213.2L258.6 222.3L266.2 233L274.1 244.2L282.4 255.7L291 267.8L300 280.2L316.3 297.4L338 305L346.2 307.8L354.3 310.7L362.3 313.7L370.4 316.7L378.5 319.8L386.5 322.9L394.5 326.1L402.9 328.2L411.3 330.3L419.6 332.5L428 334.8L436.4 337.1L444.8 339.5L453.2 342.1L461.9 343.7L471.3 343.5L480.7 343.5L495.8 345.1L510.6 343.5L519.5 341L528.5 338.6L537.6 336.2L546.8 333.9L556 331.9L565.2 331.9L574.4 332L583.7 332.2L593.1 332.5L602.5 332.7L612.1 333.1L621.7 333.5L631.4 334L641.1 334.5L651 335L660.9 335.7L670.9 336.4L680.9 337.1L691.1 337.9L701.3 338.8L711.6 339.7L722 340.7L732.4 341.7L742.9 342.8L753.5 343.9L764.2 345.1L774.9 346.4L785.7 347.7Z"/></clipPath><path id="sil-mix-spinosaurus-brachiosaurus" d="M786.8 342.8L776.3 339.7L765.9 336.6L755.6 333.6L745.3 330.6L735.1 327.7L724.9 324.8L714.8 322L704.8 319.2L694.8 316.5L684.9 313.9L675 311.3L665.2 308.7L655.5 306.2L645.8 303.8L636.1 301.4L626.6 299.1L617 296.8L607.6 294.6L598.2 292.5L588.8 290.4L579.5 288.3L570.3 286.3L561.1 284.4L552.2 280.5L543.3 276.4L534.5 272.3L525.7 268.4L516.9 264.4L514.2 261.4L511.8 256.8L503.7 250.5L495.6 244.4L486.8 240.1L477.7 236.9L468.6 233.8L459.5 230.8L450.4 227.9L441.2 225L432.1 222.2L422.9 219.5L413.5 218.1L404 216.9L394.6 215.7L385.1 214.6L375.7 213.6L366.3 212.7L356.9 211.9L361.1 216.1L352.9 213.6L338.2 207.3L323.8 201.6L309.9 196.4L296.4 191.7L283.3 187.5L271.6 182.7L261.8 176L252.5 169.8L243.4 164L234.8 158.7L226.4 153.9L218.4 149.5L210.7 145.6L203.3 142.1L196.2 139.1L189.3 136.6L182.6 134.5L176.1 133L167.9 132.4L161.1 132.1L155.4 132L151.1 132.2L148 132.5L146.1 133.1L144.8 133.5L143.7 134.2L142.9 135.2L142.4 136.4L142.2 137.9L142.3 139.6L142.8 141.8L143.1 144L143.4 146.1L143.4 148L143.4 149.9L143.2 151.7L142.5 153.5L141.9 155.1L141.4 156.7L141 158.3L140.6 159.8L140.3 161.3L140 162.5L139.8 163.7L139.8 164.7L140 165.7L140.3 166.7L140.8 167.5L141.8 168.2L142.7 168.7L143.6 169L144.3 169.3L145 169.4L145.6 169.3L146.2 169.2L146.7 169L147.1 168.9L147.6 168.7L148 168.5L148.4 168.3L147.8 169L147.2 169.7L146.6 170.3L146.1 170.9L145.7 171.5L145.3 172.1L145.8 173L146.5 173.9L147.5 174.6L148.7 175.3L150.3 175.8L152.1 176.1L156.2 175.6L160 174.8L163.7 173.8L167.1 172.6L170.3 171.2L173.2 169.6L173.9 168.9L174 168.6L173.5 168.6L172.5 169L170.9 169.6L168.8 170.6L168.8 170.6L172.7 171.5L177.3 172.8L182.4 174.6L188.1 176.9L194.3 179.7L201 183L208.1 186.8L215.7 191.1L223.8 195.8L232.2 201.1L241.2 206.9L250.5 213.2L258.6 222.3L266.2 233L274.1 244.2L282.4 255.7L291 267.8L300 280.2L316.3 297.4L338 305L346.2 307.8L354.3 310.7L362.3 313.7L370.4 316.7L378.5 319.8L386.5 322.9L394.5 326.1L402.9 328.2L411.3 330.3L419.6 332.5L428 334.8L436.4 337.1L444.8 339.5L453.2 342.1L461.9 343.7L471.3 343.5L480.7 343.5L495.8 345.1L510.6 343.5L519.5 341L528.5 338.6L537.6 336.2L546.8 333.9L556 331.9L565.2 331.9L574.4 332L583.7 332.2L593.1 332.5L602.5 332.7L612.1 333.1L621.7 333.5L631.4 334L641.1 334.5L651 335L660.9 335.7L670.9 336.4L680.9 337.1L691.1 337.9L701.3 338.8L711.6 339.7L722 340.7L732.4 341.7L742.9 342.8L753.5 343.9L764.2 345.1L774.9 346.4L785.7 347.7Z"/><linearGradient id="gb-mix-spinosaurus-brachiosaurus" gradientUnits="userSpaceOnUse" x1="0" y1="132" x2="0" y2="347.8"><stop offset="0" stop-color="#5e7e45"/><stop offset="0.52" stop-color="#6b8f4e"/><stop offset="1" stop-color="#b4c199"/></linearGradient><linearGradient id="gl-mix-spinosaurus-brachiosaurus" gradientUnits="userSpaceOnUse" x1="0" y1="132" x2="0" y2="470"><stop offset="0" stop-color="#5e7e45"/><stop offset="0.33" stop-color="#6b8f4e"/><stop offset="0.64" stop-color="#b4c199"/><stop offset="0.77" stop-color="#698d4d"/><stop offset="1" stop-color="#618147"/></linearGradient><linearGradient id="gf-mix-spinosaurus-brachiosaurus" gradientUnits="userSpaceOnUse" x1="0" y1="132" x2="0" y2="470"><stop offset="0" stop-color="#506a3a"/><stop offset="0.33" stop-color="#5c7b43"/><stop offset="0.64" stop-color="#9aa582"/><stop offset="0.77" stop-color="#5b7942"/><stop offset="1" stop-color="#526d3c"/></linearGradient><radialGradient id="wl-mix-spinosaurus-brachiosaurus" gradientUnits="userSpaceOnUse" cx="399.4" cy="188.1" r="402.3"><stop offset="0" stop-color="#d8dfc8" stop-opacity="0.3"/><stop offset="0.55" stop-color="#d8dfc8" stop-opacity="0.1"/><stop offset="1" stop-color="#d8dfc8" stop-opacity="0"/></radialGradient><radialGradient id="ao-mix-spinosaurus-brachiosaurus"><stop offset="0" stop-color="#394a2a" stop-opacity="1"/><stop offset="0.6" stop-color="#394a2a" stop-opacity="0.5"/><stop offset="1" stop-color="#394a2a" stop-opacity="0"/></radialGradient><linearGradient id="sl-mix-spinosaurus-brachiosaurus" x1="0" y1="0" x2="0" y2="1"><stop offset="0" stop-color="#d3b171"/><stop offset="0.55" stop-color="#c1923b"/><stop offset="1" stop-color="#9e7832"/></linearGradient><radialGradient id="sh-mix-spinosaurus-brachiosaurus"><stop offset="0" stop-color="#23281e" stop-opacity="0.18"/><stop offset="0.7" stop-color="#23281e" stop-opacity="0.11"/><stop offset="1" stop-color="#23281e" stop-opacity="0"/></radialGradient></defs><line x1="60" y1="470" x2="780" y2="470" stroke="#b9b4a0" stroke-width="2"/><path d="M120 470l5 -9 M127 470l4 -6" stroke="#b9b4a0" stroke-width="1.5" fill="none"/><path d="M300 470l5 -9 M307 470l4 -6" stroke="#b9b4a0" stroke-width="1.5" fill="none"/><path d="M520 470l5 -9 M527 470l4 -6" stroke="#b9b4a0" stroke-width="1.5" fill="none"/><path d="M700 470l5 -9 M707 470l4 -6" stroke="#b9b4a0" stroke-width="1.5" fill="none"/><ellipse cx="464" cy="478" rx="296.5" ry="10" fill="url(#sh-mix-spinosaurus-brachiosaurus)" opacity="0.7"/><ellipse cx="527" cy="474" rx="38.9" ry="5" fill="url(#sh-mix-spinosaurus-brachiosaurus)" opacity="0.7"/><ellipse cx="501" cy="474" rx="43.5" ry="5" fill="url(#sh-mix-spinosaurus-brachiosaurus)" opacity="1"/><path d="M511.4 287.4L511.8 293.5L511.6 301.8L510.9 312L510 323.4L509.2 335.5L508.7 347.7L508.9 359.5L509.9 370.6L511 381.1L513.1 391.1L515.8 400.7L518.8 409.7L521.8 417.9L524.4 425.2L526.5 431.3L527.7 436.1L527.5 439.5L527 442.1L526.2 443.9L525.3 445.3L524.2 446.6L522.8 448.1L521.1 450.2L519.7 452.3Q515.6 459.1 514.2 460Q510.4 460.4 510 462.2Q503.8 464.2 498.2 463.4Q493.6 463.8 495 466L540.3 466Q544.9 464.4 539.6 458.4L538.3 462.6L538.5 461.9L539.1 460.9L540.7 458.7L542.6 455.6L544.6 451.6L546.1 446.7L546.9 441.1L546.8 434.7L546.3 427.5L545 419.8L543.3 411.7L541.4 403.3L539.6 394.8L538.2 386.3L537.4 378.2L537.5 370.7L539.7 362.5L542.6 353L546.2 342.7L550.1 332.2L554.1 322.1L558 312.9L561.7 304.8L564.7 298.8Z" fill="url(#gf-mix-spinosaurus-brachiosaurus)" stroke="#597641" stroke-width="1" stroke-linejoin="round"/><path d="M495.5 462.5L492.7 466.7L497.7 467.1Z" fill="#455b32"/><path d="M510.9 459.3L508.7 463.1L513.1 463.1Z" fill="#455b32"/><path d="M524.3 462.8L522.9 466L526.4 465.6Z" fill="#455b32"/><path d="M504.8 463L503.2 465.2M520.8 462.6L518.9 465.2" stroke="#455b32" stroke-width="1" opacity="0.35" fill="none"/><path d="M384.2 252.2L383.7 258.4L383.3 266.7L383.1 276.7L382.9 287.9L382.5 299.6L382 311.5L381.3 323L380.1 333.6L379 344L377.5 354.8L375.7 365.8L373.7 376.4L371.7 386.5L369.8 395.4L368.2 402.8L367.1 408.5L356.4 406.7L357.1 400.9L358.2 393.3L359.6 384.3L361 374.3L362.5 363.8L363.8 353L364.8 342.5L365.3 332.7L364.9 322.7L364.2 311.7L363.1 300.2L362 288.7L360.7 277.8L359.4 267.9L358.3 259.6L357.2 253.3Z" fill="url(#gf-mix-spinosaurus-brachiosaurus)" stroke="#597641" stroke-width="1"/><path d="M356.7 400.9L354 413.2Q353.8 417 357.5 415.9L368.8 410.3Z" fill="url(#gf-mix-spinosaurus-brachiosaurus)" stroke="#597641" stroke-width="1.2" stroke-linejoin="round"/><path d="M354.5 413.6L353 418.1L357 415.6Z" fill="#455b32"/><path d="M359.3 405.5L360 414.9Q360.8 417.9 363.4 416.2L370.2 409.6Z" fill="url(#gf-mix-spinosaurus-brachiosaurus)" stroke="#597641" stroke-width="1.2" stroke-linejoin="round"/><path d="M360.2 415L360.1 419.8L363.2 416.1Z" fill="#455b32"/><path d="M560.7 288.4Q530.7 236 532.5 187Q528.1 173.6 531.5 138.4Q508.7 140.4 494.7 114.6Q464 126.2 441.3 109.8Q414.6 133.1 393.3 133.9Q371.3 178.2 350.5 216.7Q358.3 222.9 350.5 216.7L350.5 216.7L374.8 217.5L412.5 222L458.3 234.6L494.3 248.2L525.3 272.4L560.7 288.4Z" fill="url(#sl-mix-spinosaurus-brachiosaurus)" stroke="#896a2c" stroke-width="1.4" stroke-linejoin="round"/><path d="M525.3 272.4Q533.7 232.1 532.2 191" fill="none" stroke="#7d6129" stroke-width="1.6" opacity="0.55" stroke-linecap="round"/><path d="M494.3 248.2Q517 196.8 530.3 142.2" fill="none" stroke="#7d6129" stroke-width="1.6" opacity="0.55" stroke-linecap="round"/><path d="M458.3 234.6Q480.7 178 493.5 118.4" fill="none" stroke="#7d6129" stroke-width="1.6" opacity="0.55" stroke-linecap="round"/><path d="M412.5 222Q431.3 169.1 440.3 113.6" fill="none" stroke="#7d6129" stroke-width="1.6" opacity="0.55" stroke-linecap="round"/><path d="M374.8 217.5Q388.5 178.7 392.4 137.8" fill="none" stroke="#7d6129" stroke-width="1.6" opacity="0.55" stroke-linecap="round"/><path d="M542.9 280.4L543.9 270.4" stroke="#7d6129" stroke-width="1" opacity="0.3"/><path d="M510.4 260.5L531.1 202.7" stroke="#7d6129" stroke-width="1" opacity="0.3"/><path d="M476.5 240.8L500.8 165" stroke="#7d6129" stroke-width="1" opacity="0.3"/><path d="M440.1 228.8L461.9 152.3" stroke="#7d6129" stroke-width="1" opacity="0.3"/><path d="M393.6 219.6L407.9 159.8" stroke="#7d6129" stroke-width="1" opacity="0.3"/><path d="M356.1 215.8L358.1 206" stroke="#7d6129" stroke-width="1" opacity="0.3"/><use href="#sil-mix-spinosaurus-brachiosaurus" fill="url(#gb-mix-spinosaurus-brachiosaurus)" stroke="#526d3c" stroke-width="1.2" stroke-linejoin="round"/><g clip-path="url(#bod-mix-spinosaurus-brachiosaurus)" fill="#cd9b3e"><path d="M558.1 289.4a2.5 2.5 0 1 0 5 0a2.5 2.5 0 1 0 -5 0M427 231.9a2.4 2.4 0 1 0 4.8 0a2.4 2.4 0 1 0 -4.8 0M512 278.5a3.8 3.8 0 1 0 7.6 0a3.8 3.8 0 1 0 -7.6 0M188.7 151.5a2.7 2.7 0 1 0 5.4 0a2.7 2.7 0 1 0 -5.4 0M720.7 335.1a2.3 2.3 0 1 0 4.6 0a2.3 2.3 0 1 0 -4.6 0M195.1 156.2a2.1 2.1 0 1 0 4.2 0a2.1 2.1 0 1 0 -4.2 0M470 250.4a3.4 3.4 0 1 0 6.8 0a3.4 3.4 0 1 0 -6.8 0M678.7 324.1a4.4 4.4 0 1 0 8.8 0a4.4 4.4 0 1 0 -8.8 0M622.9 304.3a2.9 2.9 0 1 0 5.8 0a2.9 2.9 0 1 0 -5.8 0M583.1 307.7a3.6 3.6 0 1 0 7.2 0a3.6 3.6 0 1 0 -7.2 0M668.8 327.6a3.5 3.5 0 1 0 7 0a3.5 3.5 0 1 0 -7 0M358.5 230.8a4 4 0 1 0 8 0a4 4 0 1 0 -8 0M436.2 232.4a2.9 2.9 0 1 0 5.8 0a2.9 2.9 0 1 0 -5.8 0M416 236.2a2.5 2.5 0 1 0 5 0a2.5 2.5 0 1 0 -5 0M678.3 324a4.9 4.9 0 1 0 9.8 0a4.9 4.9 0 1 0 -9.8 0M486.9 261.9a2.7 2.7 0 1 0 5.4 0a2.7 2.7 0 1 0 -5.4 0M489.8 252.9a2.9 2.9 0 1 0 5.8 0a2.9 2.9 0 1 0 -5.8 0M507.5 275.5a3.6 3.6 0 1 0 7.2 0a3.6 3.6 0 1 0 -7.2 0M472 247.8a2.2 2.2 0 1 0 4.4 0a2.2 2.2 0 1 0 -4.4 0M554.6 300.4a4.8 4.8 0 1 0 9.6 0a4.8 4.8 0 1 0 -9.6 0M424.6 234.5a4.1 4.1 0 1 0 8.2 0a4.1 4.1 0 1 0 -8.2 0M250.9 187.3a3.4 3.4 0 1 0 6.8 0a3.4 3.4 0 1 0 -6.8 0M223 172.9a3.4 3.4 0 1 0 6.8 0a3.4 3.4 0 1 0 -6.8 0M688.9 326.3a4.2 4.2 0 1 0 8.4 0a4.2 4.2 0 1 0 -8.4 0M555.7 293.6a4.4 4.4 0 1 0 8.8 0a4.4 4.4 0 1 0 -8.8 0" opacity="0.3"/><path d="M609.3 320.4a4.5 4.5 0 1 0 9 0a4.5 4.5 0 1 0 -9 0M198.9 163.8a3 3 0 1 0 6 0a3 3 0 1 0 -6 0M591.7 313.5a3.8 3.8 0 1 0 7.6 0a3.8 3.8 0 1 0 -7.6 0M444.9 265a4.2 4.2 0 1 0 8.4 0a4.2 4.2 0 1 0 -8.4 0M649.2 325a3.3 3.3 0 1 0 6.6 0a3.3 3.3 0 1 0 -6.6 0M498.3 287.3a2.5 2.5 0 1 0 5 0a2.5 2.5 0 1 0 -5 0M190 164.7a3.4 3.4 0 1 0 6.8 0a3.4 3.4 0 1 0 -6.8 0M264.7 210.1a2.5 2.5 0 1 0 5 0a2.5 2.5 0 1 0 -5 0M234.5 190.2a4.8 4.8 0 1 0 9.6 0a4.8 4.8 0 1 0 -9.6 0M709.5 333.5a3.2 3.2 0 1 0 6.4 0a3.2 3.2 0 1 0 -6.4 0M466 262.1a3.7 3.7 0 1 0 7.4 0a3.7 3.7 0 1 0 -7.4 0M245.6 196.1a2.8 2.8 0 1 0 5.6 0a2.8 2.8 0 1 0 -5.6 0M383.4 244a4.4 4.4 0 1 0 8.8 0a4.4 4.4 0 1 0 -8.8 0M347.8 246.2a2.2 2.2 0 1 0 4.4 0a2.2 2.2 0 1 0 -4.4 0M402.1 247.8a3.7 3.7 0 1 0 7.4 0a3.7 3.7 0 1 0 -7.4 0M382.8 246a4.5 4.5 0 1 0 9 0a4.5 4.5 0 1 0 -9 0M729.1 336.8a4.2 4.2 0 1 0 8.4 0a4.2 4.2 0 1 0 -8.4 0M368.2 234a3 3 0 1 0 6 0a3 3 0 1 0 -6 0M306.5 219.1a3.9 3.9 0 1 0 7.8 0a3.9 3.9 0 1 0 -7.8 0M227.2 184.7a3.4 3.4 0 1 0 6.8 0a3.4 3.4 0 1 0 -6.8 0" opacity="0.19"/><path d="M309.2 238.4a4.7 4.7 0 1 0 9.4 0a4.7 4.7 0 1 0 -9.4 0M573.8 316.7a2.4 2.4 0 1 0 4.8 0a2.4 2.4 0 1 0 -4.8 0M189 164.7a4.4 4.4 0 1 0 8.8 0a4.4 4.4 0 1 0 -8.8 0M517.7 315.6a4 4 0 1 0 8 0a4 4 0 1 0 -8 0M336 253.3a4.6 4.6 0 1 0 9.2 0a4.6 4.6 0 1 0 -9.2 0M543.7 315.2a5 5 0 1 0 10 0a5 5 0 1 0 -10 0M687.8 330.4a4.6 4.6 0 1 0 9.2 0a4.6 4.6 0 1 0 -9.2 0M470.7 283.1a2 2 0 1 0 4 0a2 2 0 1 0 -4 0M510.1 309.5a3.2 3.2 0 1 0 6.4 0a3.2 3.2 0 1 0 -6.4 0M668.7 327.6a3.6 3.6 0 1 0 7.2 0a3.6 3.6 0 1 0 -7.2 0M698.4 331.9a4.1 4.1 0 1 0 8.2 0a4.1 4.1 0 1 0 -8.2 0M620.9 321.5a2.5 2.5 0 1 0 5 0a2.5 2.5 0 1 0 -5 0M483.9 299.4a2.8 2.8 0 1 0 5.6 0a2.8 2.8 0 1 0 -5.6 0M204.8 171.3a2.3 2.3 0 1 0 4.6 0a2.3 2.3 0 1 0 -4.6 0M195.8 167.7a4.2 4.2 0 1 0 8.4 0a4.2 4.2 0 1 0 -8.4 0" opacity="0.1"/></g><g clip-path="url(#bod-mix-spinosaurus-brachiosaurus)"><g fill="none" stroke="#3e512d" stroke-width="1.1" opacity="0.18"><path d="M282.4 217.7Q277 218.2 275.8 212.9"/><path d="M319 261Q315 261.3 314.4 257.3"/><path d="M252.6 195.1Q248.7 195.6 247.7 191.9"/><path d="M382.7 283.3Q377.8 286 374.6 281.3"/><path d="M400.5 280.5Q396.9 282.4 394.7 279.1"/><path d="M563.1 303.2Q558.8 306.4 555.2 302.4"/><path d="M442.1 270.1Q437.3 272.4 434.5 267.9"/><path d="M333.7 272.3Q329.6 273.2 328.3 269.3"/><path d="M516.5 322.2Q512.1 325.6 508.2 321.6"/><path d="M246.4 184.4Q242.6 185 241.6 181.4"/><path d="M238.7 179.4Q233.3 180.4 231.8 175.1"/><path d="M361.6 253.4Q357.1 256 354.1 251.8"/><path d="M266.4 197.2Q261 197.9 259.8 192.6"/><path d="M450.7 271Q446.7 272.9 444.5 269.1"/><path d="M443.8 293.8Q439.8 295.7 437.6 291.9"/><path d="M436.2 255.8Q431.9 257.9 429.3 253.8"/><path d="M241.4 194.2Q236.2 195 234.8 189.9"/><path d="M581 311Q576.5 314.2 572.8 310.1"/><path d="M300.8 214.4Q296.1 214.8 295.1 210.1"/><path d="M509.9 298.1Q505.6 300.6 502.7 296.6"/><path d="M312.5 223.5Q306.7 223.9 305.6 218.2"/><path d="M561.6 309.8Q558.1 312.3 555.3 309.1"/></g><g fill="none" stroke="#3e512d" stroke-linecap="round"><path d="M264.2 193.4L245.4 180.7L228.1 170L220 165.4L205 157.5L198 154.3L185.1 149.2L179.2 147.4L168.2 145.3L163.2 145.2" stroke-width="1" opacity="0.18"/><path d="M257.4 203.1L238.9 190.8L230.3 185.3L222 180.4L206.7 171.9L199.7 168.4L187 162.9L181.3 160.8L176 159.3" stroke-width="1" opacity="0.15"/><path d="M508.1 289.1L493 281.2L475.7 273.8L449.1 265.1L431.3 259.7L413.6 254.7L395.6 250.8L377.6 247.3L359.7 244.1" stroke-width="1" opacity="0.17"/><path d="M480 318.4L462.3 314.5L445.1 309.2L419.3 301.9L402.2 297.3L385.4 292L360 284.5L343.1 279.9L314.3 262.2" stroke-width="1.1" opacity="0.15"/><path d="M744.5 334.9L723.9 330.3L703.6 326.1L683.5 322L663.7 318.2L644.1 314.5L624.9 311.1L605.8 308L587 305" stroke-width="1" opacity="0.17"/><path d="M733.3 336.8L712.7 333.5L692.4 330.4L682.3 329L662.4 326.2L642.8 323.7L633 322.6L613.8 320.4L604.3 319.4" stroke-width="1" opacity="0.14"/></g></g><use href="#sil-mix-spinosaurus-brachiosaurus" fill="none" stroke="#394a2a" stroke-width="10" opacity="0.24" clip-path="url(#bod-mix-spinosaurus-brachiosaurus)"/><path d="M148.4 168.3L148 168.5L147.6 168.7L147.1 168.9L146.7 169L146.2 169.2L145.6 169.3L145 169.4L144.3 169.3L143.6 169L142.7 168.7L141.8 168.2L140.8 167.5L145.6 171.5L145.9 171.1L146.3 170.7L146.7 170.2L147.2 169.6L147.8 169L148.4 168.3Z" fill="#5a3138"/><path d="M147.9 168.7Q149.9 168.6 151.2 169.3" fill="none" stroke="#3e512d" stroke-width="1.2" opacity="0.45"/><path d="M142 162.5Q140.2 162.2 139.9 163.9" fill="none" stroke="#3e512d" stroke-width="1.3" opacity="0.72"/><g opacity="0.95"><path d="M143.8 168L144.1 170.5L141.9 169.4Z" fill="#ece2c4" stroke="#8a7a52" stroke-width="0.6"/><path d="M146.1 168.7L146.3 170.9L144.2 170Z" fill="#ece2c4" stroke="#8a7a52" stroke-width="0.6"/><path d="M148 168.2L148.3 170.7L146.1 169.6Z" fill="#ece2c4" stroke="#8a7a52" stroke-width="0.6"/><path d="M147.6 169.5L145.8 168.7L146 170.7Z" fill="#ece2c4" stroke="#8a7a52" stroke-width="0.6"/></g><ellipse cx="157.9" cy="151.7" rx="4.5" ry="3.4" fill="#3e512d" opacity="0.14"/><circle cx="157.5" cy="152" r="3.2" fill="#fdfaef" stroke="#3e512d" stroke-width="1.2"/><circle cx="157.1" cy="152" r="2" fill="#c9983d"/><circle cx="157" cy="152" r="1.1" fill="#1c1a14"/><circle cx="155.9" cy="151.7" r="0.8" fill="#fdfaef" opacity="0.9"/><path d="M157.7 144.2Q153.5 147.2 150.5 152.1" fill="none" stroke="#3e512d" stroke-width="1.55" stroke-linecap="round" opacity="0.8"/><path d="M485.4 293.4L485.8 299.5L485.6 307.8L484.9 318L484 329.4L483.2 341.5L482.7 353.7L482.9 365.5L483.9 376.6L485 387.1L487.1 397.2L489.8 406.8L492.8 415.8L495.8 424.1L498.5 431.4L500.5 437.5L501.7 442.1L501.5 445.2L501 447.2L500.4 448.3L499.8 449L499 449.6L497.8 450.7L495.8 452.5L494.2 454.5Q489.6 462.1 488.2 463Q484.4 463.4 484 465.2Q477.8 467.2 472.2 466.4Q467.6 466.8 469 469L514.3 469Q518.9 467.4 513.6 461.4L511.8 466.4L511.8 466L512.2 465.5L513.9 463.7L516.1 460.9L518.3 457.1L520 452.4L520.9 446.9L520.8 440.6L520.3 433.6L519 426L517.3 417.9L515.4 409.5L513.6 400.9L512.2 392.4L511.4 384.3L511.5 376.7L513.7 368.5L516.6 359L520.2 348.7L524.1 338.2L528.1 328.1L532 318.9L535.7 310.8L538.7 304.8Z" fill="url(#gl-mix-spinosaurus-brachiosaurus)" stroke="#526d3c" stroke-width="1.2" stroke-linejoin="round"/><g clip-path="url(#bod-mix-spinosaurus-brachiosaurus)"><path d="M485.4 293.4L485.8 299.5L485.6 307.8L484.9 318L484 329.4L483.2 341.5L482.7 353.7L482.9 365.5L483.9 376.6L485 387.1L487.1 397.2L489.8 406.8L492.8 415.8L495.8 424.1L498.5 431.4L500.5 437.5L501.7 442.1L501.5 445.2L501 447.2L500.4 448.3L499.8 449L499 449.6L497.8 450.7L495.8 452.5L494.2 454.5Q489.6 462.1 488.2 463Q484.4 463.4 484 465.2Q477.8 467.2 472.2 466.4Q467.6 466.8 469 469L514.3 469Q518.9 467.4 513.6 461.4L511.8 466.4L511.8 466L512.2 465.5L513.9 463.7L516.1 460.9L518.3 457.1L520 452.4L520.9 446.9L520.8 440.6L520.3 433.6L519 426L517.3 417.9L515.4 409.5L513.6 400.9L512.2 392.4L511.4 384.3L511.5 376.7L513.7 368.5L516.6 359L520.2 348.7L524.1 338.2L528.1 328.1L532 318.9L535.7 310.8L538.7 304.8Z" fill="url(#gl-mix-spinosaurus-brachiosaurus)"/></g><path d="M469.5 465.5L466.7 469.7L471.7 470.1Z" fill="#3e512d"/><path d="M484.9 462.3L482.7 466.1L487.1 466.1Z" fill="#3e512d"/><path d="M498.3 465.8L496.9 469L500.4 468.6Z" fill="#3e512d"/><path d="M478.8 466L477.2 468.2M494.8 465.6L492.9 468.2" stroke="#3e512d" stroke-width="1" opacity="0.35" fill="none"/><path d="M358.2 258.2L357.7 264.4L357.3 272.7L357.1 282.7L356.9 293.9L356.5 305.6L356 317.5L355.3 329L354.1 339.6L353 350L351.5 360.8L349.7 371.8L347.7 382.4L345.7 392.5L343.8 401.4L342.2 408.8L341.1 414.5L330.4 412.7L331.1 406.9L332.2 399.3L333.6 390.3L335 380.3L336.5 369.8L337.8 359L338.8 348.5L339.3 338.7L338.9 328.7L338.2 317.7L337.1 306.2L336 294.7L334.7 283.8L333.4 273.9L332.3 265.6L331.2 259.3Z" fill="url(#gl-mix-spinosaurus-brachiosaurus)" stroke="#526d3c" stroke-width="1.2"/><g clip-path="url(#bod-mix-spinosaurus-brachiosaurus)"><path d="M358.2 258.2L357.7 264.4L357.3 272.7L357.1 282.7L356.9 293.9L356.5 305.6L356 317.5L355.3 329L354.1 339.6L353 350L351.5 360.8L349.7 371.8L347.7 382.4L345.7 392.5L343.8 401.4L342.2 408.8L341.1 414.5L330.4 412.7L331.1 406.9L332.2 399.3L333.6 390.3L335 380.3L336.5 369.8L337.8 359L338.8 348.5L339.3 338.7L338.9 328.7L338.2 317.7L337.1 306.2L336 294.7L334.7 283.8L333.4 273.9L332.3 265.6L331.2 259.3Z" fill="url(#gl-mix-spinosaurus-brachiosaurus)"/></g><path d="M330.7 406.9L328 419.2Q327.8 423 331.5 421.9L342.8 416.3Z" fill="url(#gl-mix-spinosaurus-brachiosaurus)" stroke="#526d3c" stroke-width="1.2" stroke-linejoin="round"/><path d="M328.5 419.6L327 424.1L331 421.6Z" fill="#3e512d"/><path d="M333.3 411.5L334 420.9Q334.8 423.9 337.4 422.2L344.2 415.6Z" fill="url(#gl-mix-spinosaurus-brachiosaurus)" stroke="#526d3c" stroke-width="1.2" stroke-linejoin="round"/><path d="M334.2 421L334.1 425.8L337.2 422.1Z" fill="#3e512d"/><g clip-path="url(#bod-mix-spinosaurus-brachiosaurus)"><path d="M745.3 330.3L725 324.5L694.9 316.1L675.1 310.8L645.9 303.2L626.7 298.4L607.7 293.9L579.6 287.4L561.2 283.4L534.6 271L517 262.9L504.3 248.7L487.5 238.1L469.2 231.8L441.8 222.9L423.5 217.4L395 213.7L376.1 211.7L362 214.4L339.1 206.1L310.6 195.4L272 182.1L252.9 169.1L226.8 153.2L211 144.9L189.5 135.9L176.2 132.2L174.2 142.5L186.2 146L206.4 154.6L221.5 162.7L247 178.3L265.8 191L300 209.5L325.2 223.9L348.9 238.3L369.9 239.9L388.1 242.6L415.5 247.5L433.5 252.1L460.5 259.9L478.5 265.3L495.9 273L515.4 283.1L533.1 287.7L559.9 295.2L578.4 298.2L606.4 303.2L625.5 306.8L644.7 310.7L674.1 317L693.9 321.5L724.2 328.5L744.7 333.5Z" fill="#3e512d" opacity="0.04"/><path d="M745.3 330.3L725 324.5L694.9 316.1L675.1 310.8L645.9 303.2L626.7 298.4L607.7 293.9L579.6 287.4L561.2 283.4L534.6 271L517 262.9L504.3 248.7L487.5 238.1L469.2 231.8L441.8 222.9L423.5 217.4L395 213.7L376.1 211.7L362 214.4L339.1 206.1L310.6 195.4L272 182.1L252.9 169.1L226.8 153.2L211 144.9L189.5 135.9L176.2 132.2L175.1 137.9L187.7 141.4L208.5 150.3L223.8 158.5L249.5 174.3L268.4 187.2L304.3 203.7L330.7 216.9L353.8 229.2L372.2 229.7L390.5 232.6L418.1 237.6L436.1 242.9L463.1 251.4L481.2 257.3L498.3 266L515.9 277.3L533.5 282.9L560.3 291.8L578.8 294.9L606.8 300.2L625.9 304L645.1 308L674.5 314.7L694.3 319.3L724.5 326.9L745 332.2Z" fill="#3e512d" opacity="0.05"/><path d="M745.3 330.3L725 324.5L694.9 316.1L675.1 310.8L645.9 303.2L626.7 298.4L607.7 293.9L579.6 287.4L561.2 283.4L534.6 271L517 262.9L504.3 248.7L487.5 238.1L469.2 231.8L441.8 222.9L423.5 217.4L395 213.7L376.1 211.7L362 214.4L339.1 206.1L310.6 195.4L272 182.1L252.9 169.1L226.8 153.2L211 144.9L189.5 135.9L176.2 132.2L175.6 135.4L188.5 138.9L209.6 147.8L225.2 156L251.1 171.8L270.2 184.7L307.5 199.5L335.1 211.2L358.2 221.3L374.3 219.9L393 222.3L421.1 226.4L439.3 231.8L466.5 240.5L484.6 246.8L501.6 256.6L516.5 269.6L534.1 276.7L560.8 287.5L579.2 291.2L607.3 297.1L626.2 301.3L645.5 305.8L674.7 312.9L694.6 317.9L724.7 325.8L745.1 331.4Z" fill="#3e512d" opacity="0.06"/><path d="M753.5 344.1L732.3 342L711.5 340L691 338.3L670.8 336.9L650.9 335.6L631.3 334.6L612 333.8L593 333.3L574.3 332.9L555.9 332.8L537.5 337.4L519.4 342.4L495.5 346.8L470.6 345.4L452.5 344.1L435.7 339.2L419 334.6L402.3 330.3L386 325L369.9 318.7L353.8 312.7L337.7 306.9L298.9 281.6L281.5 256.8L265.6 233.9L250.1 213.8L254.5 207.4L271.9 225.2L290.2 245.5L310 267.6L341.6 287.3L358.3 292.3L375 297.5L391.6 303L408.4 308L425.5 312.6L442.5 317.5L459.6 322.7L477.5 325.9L499.3 329.2L520.7 327.2L538.7 324.8L557 322.8L575.4 323.7L594 324.9L613 326.2L632.3 327.8L651.8 329.6L671.7 331.6L691.8 333.8L712.2 336.3L732.9 339L753.9 342Z" fill="#b4c199" opacity="0.3"/><path d="M753.5 344.1L732.3 342L711.5 340L691 338.3L670.8 336.9L650.9 335.6L631.3 334.6L612 333.8L593 333.3L574.3 332.9L555.9 332.8L537.5 337.4L519.4 342.4L495.5 346.8L470.6 345.4L452.5 344.1L435.7 339.2L419 334.6L402.3 330.3L386 325L369.9 318.7L353.8 312.7L337.7 306.9L298.9 281.6L281.5 256.8L265.6 233.9L250.1 213.8L252.6 210.1L269.2 228.9L286.5 250.3L305.3 273.6L339.9 295.7L356.4 301L372.8 306.6L389.2 312.5L405.8 317.6L422.7 322L439.6 326.8L456.5 331.9L474.5 334.2L497.7 336.8L520.1 333.7L538.2 330.2L556.6 327.1L574.9 327.7L593.6 328.5L612.6 329.5L631.8 330.7L651.4 332.2L671.3 333.9L691.4 335.8L711.9 337.9L732.7 340.3L753.7 342.9Z" fill="#b4c199" opacity="0.18"/><path d="M743.2 341.1L722.4 338.4L701.8 336L681.5 333.9L661.5 331.9L651.6 331L632 329.4L612.8 328L593.8 326.9L575.1 325.9L556.8 325.2L538.4 327.8L520.4 330.8L498.4 333.4L475.8 330.5L457.9 327.8L440.9 322.7L423.9 317.8L415.4 315.6L398.5 311.2L382 305.4L365.5 299.8L349 294.5L322.6 286L297.6 259.3L279.1 237.5L262 217.4L266 211.9L284.8 229.8L305.1 249.6L329.8 273L352.2 279.3L369.2 283.9L386.1 288.9L403.1 294.1L420.2 298.7L428.8 301.1L446 306.1L463.3 311.5L481 315.6L501.3 320L521.4 319.2L539.3 318.3L557.6 317.6L575.9 318.9L594.6 320.5L613.6 322.2L632.8 324.2L652.3 326.4L662.2 327.6L682.1 330.1L702.3 332.9L722.8 335.9L743.6 339.1Z" fill="#394a2a" opacity="0.06"/><path d="M743.3 340.6L722.5 337.8L701.9 335.3L681.6 332.9L661.7 330.8L651.8 329.9L632.2 328.1L613 326.6L594 325.3L575.3 324.2L557 323.3L538.6 325.4L520.6 327.9L499.1 330.1L477.1 326.8L459.2 323.7L442.2 318.5L425.2 313.7L416.6 311.3L399.6 306.9L383.1 301.3L366.4 295.8L349.8 290.7L324.4 282.8L299.5 256.9L280.5 235.6L263 216L265.5 212.6L284.1 230.8L304.2 250.8L328.9 274.6L351.8 281.2L368.7 285.9L385.6 291L402.5 296.3L419.6 300.8L428.2 303.2L445.4 308.2L462.6 313.5L480.4 317.5L501 321.7L521.2 320.7L539.2 319.4L557.5 318.6L575.8 319.8L594.5 321.3L613.5 322.9L632.7 324.8L652.2 327L662.1 328.1L682 330.6L702.3 333.3L722.8 336.2L743.6 339.4Z" fill="#394a2a" opacity="0.06"/><path d="M743.4 340.1L722.6 337.2L702.1 334.5L681.8 332L661.8 329.7L652 328.7L632.4 326.8L613.2 325.1L594.2 323.7L575.5 322.4L557.2 321.4L538.8 323L520.9 325L499.9 326.7L478.4 323.1L460.6 319.6L443.5 314.4L426.4 309.5L417.8 307.1L400.8 302.7L384.1 297.1L367.4 291.9L350.6 286.9L326.2 279.5L301.4 254.5L282 233.6L264 214.7L265 213.3L283.4 231.7L303.3 252L328 276.3L351.4 283.1L368.3 287.9L385.1 293L401.9 298.4L419 302.9L427.6 305.3L444.8 310.3L461.9 315.6L479.7 319.4L500.6 323.4L521.1 322.1L539.1 320.6L557.4 319.5L575.7 320.7L594.4 322.1L613.4 323.7L632.6 325.5L652.1 327.6L662 328.7L682 331.1L702.2 333.7L722.7 336.5L743.5 339.6Z" fill="#394a2a" opacity="0.06"/><ellipse cx="503" cy="321.9" rx="75.4" ry="14.8" fill="url(#ao-mix-spinosaurus-brachiosaurus)" opacity="0.17"/><ellipse cx="529" cy="317.6" rx="58.6" ry="11.9" fill="url(#ao-mix-spinosaurus-brachiosaurus)" opacity="0.12"/><ellipse cx="344.7" cy="291.1" rx="50.2" ry="27.9" fill="url(#ao-mix-spinosaurus-brachiosaurus)" opacity="0.15"/><ellipse cx="370.7" cy="282.7" rx="40.5" ry="22.3" fill="url(#ao-mix-spinosaurus-brachiosaurus)" opacity="0.11"/><ellipse cx="164.8" cy="173.4" rx="23.9" ry="15.4" fill="url(#ao-mix-spinosaurus-brachiosaurus)" opacity="0.13"/><ellipse cx="539" cy="321" rx="52.7" ry="33.6" fill="url(#ao-mix-spinosaurus-brachiosaurus)" opacity="0.13"/><g fill="none" stroke="#3e512d" stroke-linecap="round"><path d="M475.8 310.1A27.6 27.6 0 0 1 528 303.5" stroke-width="1.2" opacity="0.18"/><path d="M322.3 263.1A26.2 26.2 0 0 1 368 257.3" stroke-width="1.1" opacity="0.16"/></g></g><use href="#sil-mix-spinosaurus-brachiosaurus" fill="url(#wl-mix-spinosaurus-brachiosaurus)"/></g></svg>