<svg xmlns="http://www.w3.org/2000/svg" viewBox="0 0 820 540" role="img" aria-label="Ankylophus, a hybrid dinosaur"><g transform="translate(452.4 470) scale(0.985) translate(-452.4 -470)"><line x1="60" y1="470" x2="780" y2="470" stroke="#b9b4a0" stroke-width="2"/><path d="M120 470l5 -9 M127 470l4 -6" stroke="#b9b4a0" stroke-width="1.5" fill="none"/><path d="M300 470l5 -9 M307 470l4 -6" stroke="#b9b4a0" stroke-width="1.5" fill="none"/><path d="M520 470l5 -9 M527 470l4 -6" stroke="#b9b4a0" stroke-width="1.5" fill="none"/><path d="M700 470l5 -9 M707 470l4 -6" stroke="#b9b4a0" stroke-width="1.5" fill="none"/><ellipse cx="487.1" cy="478" rx="197.7" ry="9" fill="rgba(30,30,20,0.14)"/><path d="M513.6 316.9L513 322.5L511.5 330.3L509.3 340.1L506.9 350.9L504.7 362.2L503 373.4L502.4 384.1L503.5 394.5L507.3 404.3L513.5 411.3L520.2 415.9L526.6 418.9L532.1 421.2L536.3 422.9L538.6 423.8L539.5 423.7L539 424.7L537.8 427.2L535.5 430.7L532.5 434.6L529.2 438.5L525.8 442.2L522.7 445.5L520.5 448.1L537.5 459.9L538.7 457.5L540.9 454.2L543.9 450L547.2 445.1L550.4 439.7L553.1 433.9L554.8 427.5L554.5 420.3L551.8 413.2L547.2 408L542.2 404L537.4 400.5L533.4 397.2L531 394.3L530.2 392.3L530.5 390.9L531.8 386.9L534.1 379.9L537.4 371.1L541.3 361.7L545.6 352.2L549.8 343.4L553.5 335.7L556.4 330Z" fill="#486035" stroke="#3e512d" stroke-width="2"/><ellipse cx="527" cy="461" rx="25.8" ry="6.5" fill="#486035" stroke="#3e512d" stroke-width="2"/><path d="M374.8 321.2L375 325.8L375.3 332L375.5 339.3L375.6 347.3L375.7 355.7L375.8 364.1L375.7 372.1L375.6 379.3L375.2 386.2L374.6 393.4L373.8 400.7L373.1 407.8L372.3 414.5L371.6 420.5L371.1 425.6L370.8 429.5L382.7 431.3L383.5 427.5L384.6 422.6L385.8 416.6L387.1 409.9L388.4 402.8L389.7 395.4L390.9 388L391.9 380.8L393 373.4L394 365.2L394.9 356.7L395.8 348.2L396.6 340.1L397.3 332.8L398.1 326.8L398.7 322.3Z" fill="#486035" stroke="#3e512d" stroke-width="2"/><path d="M376.8 430.4L367.8 439.4L381.8 437.4Z" fill="#486035" stroke="#3e512d" stroke-width="1.5"/><path d="M302.7 288.8Q311.3 215.4 406.9 237" fill="none" stroke="#394a2a" stroke-width="18.9" stroke-linecap="round"/><path d="M302.7 288.8Q311.3 215.4 406.9 237" fill="none" stroke="#7f9e65" stroke-width="13.9" stroke-linecap="round"/><path d="M302.7 288.8Q311.3 215.4 406.9 237" fill="none" stroke="#526c3c" stroke-width="3.3" stroke-linecap="round" opacity="0.5"/><defs><clipPath id="bod-mix-ankylosaurus-parasaurolophus"><path d="M723 363L715 360.1L707 357.3L699.1 354.5L691.2 351.7L683.4 349L675.6 346.3L667.8 343.7L660.1 341.2L652.4 338.7L644.8 336.2L637.2 333.8L629.7 331.4L622.1 329.1L614.7 326.8L607.3 324.6L599.9 322.4L592.5 320.3L585.2 318.2L578 316.2L570.7 314.3L563.6 312.3L556.4 310.5L549.3 308.6L542.5 304.6L535.7 300.4L529 296.3L522.2 292.1L515.5 288.1L512.5 284.5L507.9 279.8L499.7 274.5L491.4 269.3L482.6 266.4L473.6 264.7L464.6 263.2L455.5 262L446.4 260.9L437.3 260L428.2 259.3L419.1 258.8L410 260.2L400.9 261.8L391.9 263.7L383 265.7L374.1 267.9L365.3 270.3L356.6 272.9L357.1 275.3L366.5 279.9L360.5 281.3L354.6 282.8L348.8 284.5L343.2 286.3L337.7 288.2L332.7 289.3L328.4 288.2L324.1 287.2L319.9 286.3L315.7 285.5L311.5 284.8L307.4 284.3L303.3 283.8L299.2 283.5L295.1 283.5L291 284.1L287 284.9L283.1 285.7L279.3 286.7L275.5 287.8L271.9 289L268.3 290.3L264.8 291.7L261.4 293.2L258.1 294.8L254.8 296.5L251.7 298.3L248.8 300.2L254.7 317.7L257.8 317.5L260.8 317.5L263.7 317.6L266.6 317.7L269.5 318L272.4 318.4L275.3 318.9L278.1 319.4L281 320.1L283.9 320.8L286.8 321.6L289.6 322.5L292.5 323.5L295.5 324L298.5 324.4L301.5 324.9L304.6 325.5L307.8 326.2L311 326.9L314.3 327.8L317.6 328.7L321 329.7L323.7 333.1L326.1 337.6L328.3 342.1L330.5 346.7L332.7 351.3L334.8 356L352.4 364.2L368.7 364.2L375.8 364.9L382.8 365.7L389.8 366.7L396.7 367.9L403.5 369.2L410.2 370.6L416.9 372.1L423.6 372.1L430.3 372.2L437 372.5L443.8 372.9L450.5 373.5L457.3 374.2L464.1 375L471.1 375L478.6 373L486.3 371.3L497.5 370.4L508.1 368.1L515 365.3L522 362.6L529.1 360L536.3 357.4L543.5 355.1L550.6 355L557.7 355.1L564.9 355.2L572.1 355.3L579.5 355.5L586.8 355.7L594.3 356L601.8 356.4L609.4 356.8L617 357.2L624.7 357.7L632.5 358.3L640.3 358.9L648.2 359.6L656.1 360.3L664.1 361.1L672.2 361.9L680.3 362.7L688.5 363.7L696.7 364.6L705 365.7L713.4 366.7L721.8 367.9Z"/></clipPath></defs><path d="M723 363L715 360.1L707 357.3L699.1 354.5L691.2 351.7L683.4 349L675.6 346.3L667.8 343.7L660.1 341.2L652.4 338.7L644.8 336.2L637.2 333.8L629.7 331.4L622.1 329.1L614.7 326.8L607.3 324.6L599.9 322.4L592.5 320.3L585.2 318.2L578 316.2L570.7 314.3L563.6 312.3L556.4 310.5L549.3 308.6L542.5 304.6L535.7 300.4L529 296.3L522.2 292.1L515.5 288.1L512.5 284.5L507.9 279.8L499.7 274.5L491.4 269.3L482.6 266.4L473.6 264.7L464.6 263.2L455.5 262L446.4 260.9L437.3 260L428.2 259.3L419.1 258.8L410 260.2L400.9 261.8L391.9 263.7L383 265.7L374.1 267.9L365.3 270.3L356.6 272.9L357.1 275.3L366.5 279.9L360.5 281.3L354.6 282.8L348.8 284.5L343.2 286.3L337.7 288.2L332.7 289.3L328.4 288.2L324.1 287.2L319.9 286.3L315.7 285.5L311.5 284.8L307.4 284.3L303.3 283.8L299.2 283.5L295.1 283.5L291 284.1L287 284.9L283.1 285.7L279.3 286.7L275.5 287.8L271.9 289L268.3 290.3L264.8 291.7L261.4 293.2L258.1 294.8L254.8 296.5L251.7 298.3L248.8 300.2L254.7 317.7L257.8 317.5L260.8 317.5L263.7 317.6L266.6 317.7L269.5 318L272.4 318.4L275.3 318.9L278.1 319.4L281 320.1L283.9 320.8L286.8 321.6L289.6 322.5L292.5 323.5L295.5 324L298.5 324.4L301.5 324.9L304.6 325.5L307.8 326.2L311 326.9L314.3 327.8L317.6 328.7L321 329.7L323.7 333.1L326.1 337.6L328.3 342.1L330.5 346.7L332.7 351.3L334.8 356L352.4 364.2L368.7 364.2L375.8 364.9L382.8 365.7L389.8 366.7L396.7 367.9L403.5 369.2L410.2 370.6L416.9 372.1L423.6 372.1L430.3 372.2L437 372.5L443.8 372.9L450.5 373.5L457.3 374.2L464.1 375L471.1 375L478.6 373L486.3 371.3L497.5 370.4L508.1 368.1L515 365.3L522 362.6L529.1 360L536.3 357.4L543.5 355.1L550.6 355L557.7 355.1L564.9 355.2L572.1 355.3L579.5 355.5L586.8 355.7L594.3 356L601.8 356.4L609.4 356.8L617 357.2L624.7 357.7L632.5 358.3L640.3 358.9L648.2 359.6L656.1 360.3L664.1 361.1L672.2 361.9L680.3 362.7L688.5 363.7L696.7 364.6L705 365.7L713.4 366.7L721.8 367.9Z" fill="#6b8f4e" stroke="#394a2a" stroke-width="2.5" stroke-linejoin="round"/><path d="M283.8 317.8L280.9 317.1L274.9 315.9L271.9 315.4L266 314.8L263 314.6L256.9 314.6" fill="none" stroke="#394a2a" stroke-width="2" opacity="0.7"/><circle cx="290.5" cy="297.2" r="4.2" fill="#fdfaef" stroke="#394a2a" stroke-width="1.5"/><circle cx="289.5" cy="297.2" r="1.9" fill="#1c1a14"/><path d="M487.6 322.9L487 328.5L485.5 336.3L483.3 346.1L480.9 356.9L478.7 368.2L477 379.4L476.4 390.1L477.5 400.5L481.3 410.3L487.5 417.3L494.2 421.9L500.6 424.9L506.1 427.2L510.3 428.9L512.6 429.8L513.5 429.7L513 430.7L511.8 433.2L509.5 436.7L506.5 440.6L503.2 444.5L499.8 448.2L496.7 451.5L494.5 454.1L511.5 465.9L512.7 463.5L514.9 460.2L517.9 456L521.2 451.1L524.4 445.7L527.1 439.9L528.8 433.5L528.5 426.3L525.8 419.2L521.2 414L516.2 410L511.4 406.5L507.4 403.2L505 400.3L504.2 398.3L504.5 396.9L505.8 392.9L508.1 385.9L511.4 377.1L515.3 367.7L519.6 358.2L523.8 349.4L527.5 341.7L530.4 336Z" fill="#5e7e45" stroke="#394a2a" stroke-width="2"/><ellipse cx="501" cy="464" rx="26.8" ry="7" fill="#5e7e45" stroke="#394a2a" stroke-width="2"/><path d="M476.2 462L464.2 468L480.2 469Z" fill="#5e7e45" stroke="#394a2a" stroke-width="1.5"/><path d="M348.8 327.2L349 331.8L349.3 338L349.5 345.3L349.6 353.3L349.7 361.7L349.8 370.1L349.7 378.1L349.6 385.3L349.2 392.2L348.6 399.4L347.8 406.7L347.1 413.8L346.3 420.5L345.6 426.5L345.1 431.6L344.8 435.5L356.7 437.3L357.5 433.5L358.6 428.6L359.8 422.6L361.1 415.9L362.4 408.8L363.7 401.4L364.9 394L365.9 386.8L367 379.4L368 371.2L368.9 362.7L369.8 354.2L370.6 346.1L371.3 338.8L372.1 332.8L372.7 328.3Z" fill="#5e7e45" stroke="#394a2a" stroke-width="2"/><path d="M350.8 436.4L341.8 445.4L355.8 443.4Z" fill="#5e7e45" stroke="#394a2a" stroke-width="1.5"/><ellipse cx="702.5" cy="360.6" rx="30.2" ry="26" fill="#e6dcc0" stroke="#8a7a52" stroke-width="2.5"/><ellipse cx="712.7" cy="363.1" rx="12.1" ry="10.3" fill="#eae1c9"/></g></svg>