<svg xmlns="http://www.w3.org/2000/svg" viewBox="0 0 820 540" role="img" aria-label="Diploallus, a hybrid dinosaur"><g transform="translate(448.9 470) scale(0.985) translate(-448.9 -470)"><defs><clipPath id="bod-mix-diplodocus-allosaurus"><path d="M790.6 325.8L780 323.3L769.4 320.8L758.8 318.4L748.3 316L737.9 313.7L727.6 311.4L717.3 309.2L707 307L696.9 304.8L686.8 302.7L676.7 300.6L666.7 298.6L656.8 296.6L647 294.7L637.2 292.8L627.4 290.9L617.8 289.1L608.2 287.3L598.6 285.6L589.1 283.9L579.7 282.2L570.3 280.6L561 279L551.9 275.4L542.9 271.7L533.9 267.9L524.9 264.2L516 260.6L508.7 257.1L501.9 253L493.3 248.9L484.7 244.8L475.8 242.8L466.8 241.8L457.7 240.9L448.7 240.2L439.7 239.5L430.6 239L421.6 238.6L412.5 238.3L403.5 239.6L394.5 241.1L385.5 242.8L376.5 244.5L367.6 246.3L358.7 248.3L349.9 250.3L350.7 252.7L343.3 253.3L330.2 252.8L317.5 252.6L305.3 252.6L293.5 252.7L282.1 253.1L271.5 252.6L261.9 250L252.7 247.6L243.9 245.4L235.5 243.4L227.4 241.6L219.8 240L212.5 238.5L205.6 237.3L199 236.3L192.8 235.5L186.9 234.8L181.3 234.4L176 234.2L171 234.2L166.2 236L161.9 238.2L158 240.7L154.4 243.6L151.4 246.9L149.1 250.6L147.7 254.6L147.7 257.8L159.7 263.9L161.4 263.7L162.5 264.8L163.5 265.9L164.6 267.1L166 268.2L167.9 269.3L170.1 270.5L172.8 271.7L176 271.5L179.8 271.5L184.1 271.7L188.9 272L194.2 272.6L200 273.3L206.3 274.3L213 275.4L220.1 276.8L227.8 278.3L235.8 280.1L244.3 282L253.2 284.2L262.5 286.5L271.6 291.3L280.8 297.4L290.4 303.7L300.4 310.2L310.8 316.9L321.5 323.8L338.8 332L356.4 333L364.5 333.8L372.5 334.7L380.4 335.7L388.3 336.8L396.2 338L404.1 339.3L411.9 340.7L419.7 340.6L427.5 340.6L435.4 340.6L443.2 340.8L451 341.1L458.9 341.5L466.7 341.9L474.7 341.5L482.9 339.3L491.2 337.2L501.3 335.4L511.7 332.9L520.7 330.3L529.8 327.8L539 325.4L548.3 323L557.7 320.8L566.9 320.8L576.3 320.8L585.7 320.8L595.2 320.9L604.8 321L614.5 321.2L624.2 321.4L634 321.7L643.9 322L653.8 322.3L663.8 322.7L673.9 323.1L684.1 323.6L694.3 324.1L704.7 324.7L715.1 325.3L725.5 325.9L736.1 326.6L746.7 327.3L757.4 328.1L768.1 328.9L778.9 329.8L789.8 330.7Z"/></clipPath><linearGradient id="gb-mix-diplodocus-allosaurus" x1="0" y1="0" x2="0" y2="1"><stop offset="0" stop-color="#82a068"/><stop offset="0.55" stop-color="#6b8f4e"/><stop offset="1" stop-color="#536f3d"/></linearGradient><linearGradient id="gl-mix-diplodocus-allosaurus" x1="0" y1="0" x2="0" y2="1"><stop offset="0" stop-color="#698d4d"/><stop offset="0.55" stop-color="#5e7e45"/><stop offset="1" stop-color="#526c3c"/></linearGradient><linearGradient id="gf-mix-diplodocus-allosaurus" x1="0" y1="0" x2="0" y2="1"><stop offset="0" stop-color="#628347"/><stop offset="0.55" stop-color="#597641"/><stop offset="1" stop-color="#506a3a"/></linearGradient><radialGradient id="sh-mix-diplodocus-allosaurus"><stop offset="0" stop-color="#23281e" stop-opacity="0.18"/><stop offset="0.7" stop-color="#23281e" stop-opacity="0.11"/><stop offset="1" stop-color="#23281e" stop-opacity="0"/></radialGradient></defs><line x1="60" y1="470" x2="780" y2="470" stroke="#b9b4a0" stroke-width="2"/><path d="M120 470l5 -9 M127 470l4 -6" stroke="#b9b4a0" stroke-width="1.5" fill="none"/><path d="M300 470l5 -9 M307 470l4 -6" stroke="#b9b4a0" stroke-width="1.5" fill="none"/><path d="M520 470l5 -9 M527 470l4 -6" stroke="#b9b4a0" stroke-width="1.5" fill="none"/><path d="M700 470l5 -9 M707 470l4 -6" stroke="#b9b4a0" stroke-width="1.5" fill="none"/><ellipse cx="472" cy="478" rx="292.8" ry="10" fill="url(#sh-mix-diplodocus-allosaurus)"/><path d="M514.7 287.1L514 293.9L512.5 303.3L510.2 314.8L507.8 327.7L505.6 341L503.9 354.3L503.3 366.8L504.3 378.4L507.4 388.9L512.6 397.6L518.7 404.4L524.9 409.9L530.6 414.4L535.2 418.2L538.3 421.1L539.9 423.3L539.5 425.6L538.2 428.7L536 432.1L533.1 435.7L529.9 439.3L526.5 442.6L523.4 445.8L521.2 448.4L536.8 459.6L538 457.4L540.2 454.5L543.2 450.5L546.6 445.9L549.9 440.6L552.7 434.7L554.4 428L554.1 420.7L552.1 413.4L548.3 407L543.7 401.3L539.1 395.8L535 390.5L531.9 385.4L530.1 380.6L529.7 375.8L530.8 368.9L533.2 359.2L536.5 348L540.4 336.1L544.7 324.4L548.8 313.6L552.5 304.2L555.3 297.4Z" fill="url(#gf-mix-diplodocus-allosaurus)" stroke="#455b32" stroke-width="1.8"/><ellipse cx="527" cy="461" rx="24.6" ry="6.5" fill="url(#gf-mix-diplodocus-allosaurus)" stroke="#455b32" stroke-width="2"/><path d="M519.6 456.8L518 463M530 456.8L528.4 463" fill="none" stroke="#394a2a" stroke-width="1.2" opacity="0.45"/><path d="M365.5 293.9L365.7 298.8L366 305.3L366.1 313L366.2 321.5L366.3 330.4L366.3 339.3L366.2 347.8L366.1 355.5L365.7 362.8L365 370.5L364.3 378.3L363.5 386L362.7 393.1L362 399.6L361.5 405L361.2 409.1L372.3 410.7L373.1 406.7L374.2 401.3L375.3 395L376.6 387.8L377.9 380.2L379.2 372.3L380.4 364.4L381.4 356.8L382.4 348.9L383.4 340.3L384.3 331.3L385.1 322.3L385.9 313.7L386.6 306L387.3 299.6L388 294.8Z" fill="url(#gf-mix-diplodocus-allosaurus)" stroke="#455b32" stroke-width="1.8"/><path d="M366.7 409.9L357.7 418.9L371.7 416.9Z" fill="url(#gf-mix-diplodocus-allosaurus)" stroke="#455b32" stroke-width="1.5"/><path d="M790.6 325.8L780 323.3L769.4 320.8L758.8 318.4L748.3 316L737.9 313.7L727.6 311.4L717.3 309.2L707 307L696.9 304.8L686.8 302.7L676.7 300.6L666.7 298.6L656.8 296.6L647 294.7L637.2 292.8L627.4 290.9L617.8 289.1L608.2 287.3L598.6 285.6L589.1 283.9L579.7 282.2L570.3 280.6L561 279L551.9 275.4L542.9 271.7L533.9 267.9L524.9 264.2L516 260.6L508.7 257.1L501.9 253L493.3 248.9L484.7 244.8L475.8 242.8L466.8 241.8L457.7 240.9L448.7 240.2L439.7 239.5L430.6 239L421.6 238.6L412.5 238.3L403.5 239.6L394.5 241.1L385.5 242.8L376.5 244.5L367.6 246.3L358.7 248.3L349.9 250.3L350.7 252.7L343.3 253.3L330.2 252.8L317.5 252.6L305.3 252.6L293.5 252.7L282.1 253.1L271.5 252.6L261.9 250L252.7 247.6L243.9 245.4L235.5 243.4L227.4 241.6L219.8 240L212.5 238.5L205.6 237.3L199 236.3L192.8 235.5L186.9 234.8L181.3 234.4L176 234.2L171 234.2L166.2 236L161.9 238.2L158 240.7L154.4 243.6L151.4 246.9L149.1 250.6L147.7 254.6L147.7 257.8L159.7 263.9L161.4 263.7L162.5 264.8L163.5 265.9L164.6 267.1L166 268.2L167.9 269.3L170.1 270.5L172.8 271.7L176 271.5L179.8 271.5L184.1 271.7L188.9 272L194.2 272.6L200 273.3L206.3 274.3L213 275.4L220.1 276.8L227.8 278.3L235.8 280.1L244.3 282L253.2 284.2L262.5 286.5L271.6 291.3L280.8 297.4L290.4 303.7L300.4 310.2L310.8 316.9L321.5 323.8L338.8 332L356.4 333L364.5 333.8L372.5 334.7L380.4 335.7L388.3 336.8L396.2 338L404.1 339.3L411.9 340.7L419.7 340.6L427.5 340.6L435.4 340.6L443.2 340.8L451 341.1L458.9 341.5L466.7 341.9L474.7 341.5L482.9 339.3L491.2 337.2L501.3 335.4L511.7 332.9L520.7 330.3L529.8 327.8L539 325.4L548.3 323L557.7 320.8L566.9 320.8L576.3 320.8L585.7 320.8L595.2 320.9L604.8 321L614.5 321.2L624.2 321.4L634 321.7L643.9 322L653.8 322.3L663.8 322.7L673.9 323.1L684.1 323.6L694.3 324.1L704.7 324.7L715.1 325.3L725.5 325.9L736.1 326.6L746.7 327.3L757.4 328.1L768.1 328.9L778.9 329.8L789.8 330.7Z" fill="url(#gb-mix-diplodocus-allosaurus)" stroke="#394a2a" stroke-width="3" stroke-linejoin="round"/><g clip-path="url(#bod-mix-diplodocus-allosaurus)"><path d="M757.3 328.3L736 326.9L715 325.6L694.3 324.5L673.9 323.6L653.7 322.8L633.9 322.2L614.4 321.8L595.2 321.6L576.2 321.5L557.6 321.6L538.9 326.4L520.7 331.7L501.2 337L482.7 341.1L466.6 343.9L450.9 343.1L435.3 342.7L419.7 342.6L404.1 341.3L388.4 338.7L372.6 336.5L356.6 334.6L321.1 325.2L300.1 311.4L280.6 298.3L262.3 287.2L264.1 280.4L283.1 289.4L303.5 299.8L325.4 311.1L355.3 318.1L371.6 318.8L387.8 319.9L404 321.4L420.1 322.2L436.1 322.4L452.2 323.1L468.4 324.1L484.8 323L502.6 321.3L521.5 318.5L539.7 315.7L558.3 313.3L576.9 313.8L595.8 314.5L615 315.4L634.6 316.5L654.4 317.7L674.4 319.1L694.8 320.6L715.5 322.4L736.4 324.3L757.6 326.4Z" fill="#475d34" opacity="0.2"/><path d="M561.1 278.2L543 270.6L525 262.9L508.8 255.5L493.6 247.1L476 240.8L457.9 238.9L439.8 237.5L421.6 236.6L403.5 237.6L385.4 240.9L367.5 244.5L349.8 248.7L343.7 251.9L317.9 251.4L293.7 251.8L271.7 251.9L252.9 246.9L235.6 242.7L219.9 239.3L205.7 236.6L192.9 234.7L181.4 233.7L170.9 233.5L161.8 237.6L154.2 243.1L148.8 250.3L150.7 252.3L155.6 246.4L162.6 241.9L171.2 238.7L181.1 238.9L192.3 239.8L204.9 241.6L219 244.2L234.6 247.6L251.7 251.7L270.4 256.7L292 258.1L315.5 259.5L340.7 261.7L350.7 260.2L368.2 256.9L385.8 254L403.5 251.6L421.4 250.8L439.2 251.7L456.9 252.9L474.7 254.7L492.1 259.7L507.8 266.5L524.4 272.2L542.4 278.1L560.6 284Z" fill="#b4c59f" opacity="0.26"/></g><g clip-path="url(#bod-mix-diplodocus-allosaurus)"><g fill="none" stroke="#394a2a" stroke-width="1.2" opacity="0.2"><path d="M292 279.9Q284.8 283.4 280.5 276.6"/><path d="M332.7 302.8Q327.2 305.3 324.1 300.2"/><path d="M261.2 270.4Q256 273.1 252.7 268.2"/><path d="M393.5 304.6Q387.5 310.3 381.3 305"/><path d="M408.3 298.3Q403.9 302.3 399.4 298.3"/><path d="M565.5 295.7Q559.3 300.5 553.9 294.8"/><path d="M443.8 279.6Q437.8 284.5 432.2 279.1"/><path d="M347.2 306.8Q342 310.2 338.1 305.4"/><path d="M519 313.5Q512.6 318.6 506.9 312.8"/><path d="M253.3 263Q248.3 265.8 245 261"/><path d="M246.3 261.2Q239.3 265 234.7 258.5"/><path d="M366.8 283.7Q361.5 289.2 355.5 284.5"/><path d="M273.6 267.7Q266.5 271.3 262.2 264.7"/><path d="M451.5 278.4Q446.4 282.6 441.8 277.9"/></g><g fill="none" stroke="#394a2a" stroke-linecap="round"><path d="M268.4 264.5L249.8 259.7L232.8 255.6L224.9 253.9L210.3 251.1L203.6 249.9L191.4 248.3L185.9 247.7L176 247.3L171.6 247.3" stroke-width="1.5" opacity="0.3"/><path d="M265.5 275.3L247.1 270.7L238.5 268.6L230.3 266.8L215.2 263.7L208.3 262.5L195.8 260.6L190.2 260L185 259.5" stroke-width="1.3" opacity="0.26"/><path d="M506.3 282.9L489.9 278.7L472.8 275.5L446.9 273.4L429.6 272.5L412.3 272.1L395 273.1L377.8 274.6L360.6 276.5" stroke-width="1.5" opacity="0.28"/><path d="M485.7 314.9L469.2 315.2L452.9 314.1L428.4 313.1L412.1 313L395.8 311.9L371.2 310.8L354.7 310.7L327.4 304.7" stroke-width="1.4" opacity="0.26"/><path d="M747.7 320L726.8 316.5L706.2 313.2L685.8 310L665.7 307L645.9 304.2L626.3 301.6L607 299.1L587.9 296.8" stroke-width="1.3" opacity="0.28"/><path d="M736.7 322.1L715.8 319.6L695.2 317.4L685 316.3L664.8 314.3L644.9 312.4L635.1 311.5L615.6 309.9L606 309.2" stroke-width="1.3" opacity="0.24"/><path d="M475.8 303.1A27.6 27.6 0 0 1 528 296.5" stroke-width="1.6" opacity="0.3"/><path d="M328.3 298.7A26.2 26.2 0 0 1 374 292.9" stroke-width="1.4" opacity="0.26"/></g></g><path d="M179.9 268.5L176 268.5L169.8 267.5L167.3 266.4L163.4 264.3L161.9 263.4L158.9 262.1" fill="none" stroke="#394a2a" stroke-width="2" opacity="0.7"/><path d="M184.3 268.7Q185.7 263.8 190 260.1" fill="none" stroke="#394a2a" stroke-width="1.6" opacity="0.45"/><path d="M155.4 253.5Q151.7 253.4 151.6 257.1" fill="none" stroke="#394a2a" stroke-width="1.6" opacity="0.75"/><g opacity="1"><path d="M176 269L174.4 274.8L172.7 269.2Z" fill="#f6f2e4" stroke="#8a7a52" stroke-width="0.8"/><path d="M169.8 268L168.6 271.5L167.4 266.8Z" fill="#f6f2e4" stroke="#8a7a52" stroke-width="0.8"/><path d="M167.4 266.8L165.5 271.5L163.6 264.8Z" fill="#f6f2e4" stroke="#8a7a52" stroke-width="0.8"/><path d="M163.6 264.8L162.9 268.4L162.1 263.8Z" fill="#f6f2e4" stroke="#8a7a52" stroke-width="0.8"/><path d="M160.8 263L160.1 268.3L159.3 262.3Z" fill="#f6f2e4" stroke="#8a7a52" stroke-width="0.8"/></g><circle cx="167.6" cy="247.7" r="3.8" fill="#fdfaef" stroke="#394a2a" stroke-width="1.5"/><circle cx="167.1" cy="247.7" r="2.4" fill="#c9983d"/><circle cx="166.9" cy="247.7" r="1.3" fill="#1c1a14"/><circle cx="166.3" cy="246.6" r="0.8" fill="#fdfaef" opacity="0.9"/><path d="M172.4 239.7Q166.3 239.8 160.2 243.8" fill="none" stroke="#394a2a" stroke-width="2.2" stroke-linecap="round"/><path d="M488.7 293.1L488 299.9L486.5 309.3L484.2 320.8L481.8 333.7L479.6 347L477.9 360.3L477.3 372.8L478.3 384.4L481.4 394.9L486.6 403.6L492.7 410.4L498.9 415.9L504.6 420.4L509.2 424.2L512.3 427.1L513.9 429.3L513.5 431.6L512.2 434.7L510 438.1L507.1 441.7L503.9 445.3L500.5 448.6L497.4 451.8L495.2 454.4L510.8 465.6L512 463.4L514.2 460.5L517.2 456.5L520.6 451.9L523.9 446.6L526.7 440.7L528.4 434L528.1 426.7L526.1 419.4L522.3 413L517.7 407.3L513.1 401.8L509 396.5L505.9 391.4L504.1 386.6L503.7 381.8L504.8 374.9L507.2 365.2L510.5 354L514.4 342.1L518.7 330.4L522.8 319.6L526.5 310.2L529.3 303.4Z" fill="url(#gl-mix-diplodocus-allosaurus)" stroke="#394a2a" stroke-width="2.4"/><ellipse cx="501" cy="464" rx="25.6" ry="7" fill="url(#gl-mix-diplodocus-allosaurus)" stroke="#394a2a" stroke-width="2"/><path d="M493.3 459.5L491.7 466.1M504.1 459.5L502.5 466.1" fill="none" stroke="#394a2a" stroke-width="1.2" opacity="0.45"/><path d="M477.4 462L465.4 468L481.4 469Z" fill="url(#gl-mix-diplodocus-allosaurus)" stroke="#394a2a" stroke-width="1.5"/><path d="M339.5 299.9L339.7 304.8L340 311.3L340.1 319L340.2 327.5L340.3 336.4L340.3 345.3L340.2 353.8L340.1 361.5L339.7 368.8L339 376.5L338.3 384.3L337.5 392L336.7 399.1L336 405.6L335.5 411L335.2 415.1L346.3 416.7L347.1 412.7L348.2 407.3L349.3 401L350.6 393.8L351.9 386.2L353.2 378.3L354.4 370.4L355.4 362.8L356.4 354.9L357.4 346.3L358.3 337.3L359.1 328.3L359.9 319.7L360.6 312L361.3 305.6L362 300.8Z" fill="url(#gl-mix-diplodocus-allosaurus)" stroke="#394a2a" stroke-width="2.4"/><path d="M340.7 415.9L331.7 424.9L345.7 422.9Z" fill="url(#gl-mix-diplodocus-allosaurus)" stroke="#394a2a" stroke-width="1.5"/></g></svg>