<svg xmlns="http://www.w3.org/2000/svg" viewBox="0 0 820 540" role="img" aria-label="Tyrannoceratops, a hybrid dinosaur"><g transform="translate(455 470) scale(0.985) translate(-455 -470)"><defs><clipPath id="bod-mix-rex-triceratops"><path d="M732.8 366.4L724.5 362.3L716.3 358.2L708.1 354.2L699.9 350.2L691.8 346.4L683.7 342.6L675.7 339L667.7 335.4L659.7 331.8L651.8 328.4L643.9 325L636.1 321.8L628.3 318.6L620.6 315.5L612.8 312.4L605.2 309.5L597.5 306.6L589.9 303.8L582.4 301.1L574.8 298.5L567.3 296L559.9 293.5L552.4 291.1L545.4 287.1L538.4 283L531.3 278.9L524.3 274.9L517.2 271L511.2 267.4L504.6 263.3L496.9 259.2L489.1 255.2L481 253L472.8 251.8L464.5 250.8L456.3 249.8L448 249L439.7 248.4L431.5 247.9L423.2 247.5L414.9 248.6L406.6 249.8L398.4 251.2L390.3 252.8L382.1 254.4L374 256.2L366 258.1L370.1 260.7L378.9 266L372.4 264.7L365.9 263.7L359.5 262.9L353.2 262.4L347.1 262.1L341.5 261.1L336.9 258.5L332.3 256L327.6 253.7L322.9 251.5L318.2 249.6L311.6 246.2L305.6 243.4L300.3 241.3L295.8 239.8L291.9 238.9L288.8 238.8L286 238.5L283.4 238.6L281.1 239.3L279 240.4L277.2 242L275.5 244L274 246.9L272.3 249.5L270.5 252L268.6 254.3L266.5 256.4L264.3 258.4L261.4 260L258.6 261.6L256.1 263.2L253.7 264.7L251.4 266.2L249.4 267.8L247.6 268.9L246.1 270.2L245 271.4L244.3 272.6L243.9 273.9L243.8 275.2L244.8 277L246 278.5L247.5 279.7L249.1 280.5L250.9 281L252.9 281.1L258.5 281.4L263.9 281.8L269.2 282.3L274.3 283L279.2 283.8L284 284.7L279.1 288.8L274.2 292.4L269.2 295.7L264.2 298.5L259.2 300.9L254.1 303L253.1 304L252.5 305L252.5 305.9L253.1 306.8L254.1 307.5L255.7 308.2L263.4 306.3L270.8 304.4L277.9 302.3L284.5 300.2L290.8 297.9L296.7 295.6L299 295.2L300.8 294.8L302.3 294.5L303.3 294.2L304 293.9L304.3 293.6L304.3 293.6L307.8 294.3L311.3 295.3L314.9 296.4L318.6 297.6L322.4 299L325.3 302.5L327.7 306.9L330 311.4L332.3 316L334.5 320.8L336.7 325.6L354.5 337.3L373.6 338.3L380.5 338.9L387.5 339.6L394.4 340.5L401.2 341.4L408 342.5L414.8 343.7L421.5 344.9L428.3 344.8L435 344.9L441.8 345.1L448.6 345.4L455.3 345.8L462.1 346.4L468.9 347L475.8 346.8L483.1 345.1L490.4 343.5L498.8 342.3L506.9 340.6L514.1 338.9L521.4 337.3L528.8 335.8L536.4 334.3L544 333.2L551.4 333.9L558.8 334.6L566.3 335.5L573.9 336.4L581.5 337.4L589.2 338.6L597 339.8L604.9 341.1L612.8 342.4L620.8 343.9L628.9 345.5L637 347.1L645.2 348.8L653.5 350.7L661.9 352.6L670.3 354.6L678.7 356.7L687.3 358.8L695.9 361.1L704.6 363.5L713.3 365.9L722.1 368.5L731 371.1Z"/></clipPath><linearGradient id="gb-mix-rex-triceratops" x1="0" y1="0" x2="0" y2="1"><stop offset="0" stop-color="#82a068"/><stop offset="0.55" stop-color="#6b8f4e"/><stop offset="1" stop-color="#536f3d"/></linearGradient><linearGradient id="gl-mix-rex-triceratops" x1="0" y1="0" x2="0" y2="1"><stop offset="0" stop-color="#698d4d"/><stop offset="0.55" stop-color="#5e7e45"/><stop offset="1" stop-color="#526c3c"/></linearGradient><linearGradient id="gf-mix-rex-triceratops" x1="0" y1="0" x2="0" y2="1"><stop offset="0" stop-color="#628347"/><stop offset="0.55" stop-color="#597641"/><stop offset="1" stop-color="#506a3a"/></linearGradient><linearGradient id="sc-mix-rex-triceratops" x1="0" y1="0" x2="0" y2="1"><stop offset="0" stop-color="#e1b768"/><stop offset="0.55" stop-color="#d9a441"/><stop offset="1" stop-color="#b18736"/></linearGradient><linearGradient id="bn-mix-rex-triceratops" x1="0" y1="0" x2="0" y2="1"><stop offset="0" stop-color="#eee7d1"/><stop offset="0.55" stop-color="#e6dcc0"/><stop offset="1" stop-color="#c4bca3"/></linearGradient><radialGradient id="sh-mix-rex-triceratops"><stop offset="0" stop-color="#23281e" stop-opacity="0.18"/><stop offset="0.7" stop-color="#23281e" stop-opacity="0.11"/><stop offset="1" stop-color="#23281e" stop-opacity="0"/></radialGradient></defs><line x1="60" y1="470" x2="780" y2="470" stroke="#b9b4a0" stroke-width="2"/><path d="M120 470l5 -9 M127 470l4 -6" stroke="#b9b4a0" stroke-width="1.5" fill="none"/><path d="M300 470l5 -9 M307 470l4 -6" stroke="#b9b4a0" stroke-width="1.5" fill="none"/><path d="M520 470l5 -9 M527 470l4 -6" stroke="#b9b4a0" stroke-width="1.5" fill="none"/><path d="M700 470l5 -9 M707 470l4 -6" stroke="#b9b4a0" stroke-width="1.5" fill="none"/><ellipse cx="489.4" cy="478" rx="223.1" ry="10" fill="url(#sh-mix-rex-triceratops)"/><path d="M515.9 286.2L515.3 292L513.5 300.1L510.8 310.2L507.8 321.5L504.9 333.5L502.7 345.6L501.7 357.5L502.5 368.9L505.1 379.5L509.9 388.6L515.6 396.3L521.7 403L527.4 408.9L532.3 414.1L535.7 418.3L537.5 421.4L537.4 424.3L536.4 427.5L534.6 431L532.2 434.6L529.3 438.1L526.4 441.3L523.7 444.5L521.7 447.2L536.3 456.8L537.4 454.8L539.5 452.1L542.4 448.4L545.6 443.9L548.7 438.7L551.3 432.8L552.8 426L552.5 418.6L550.4 410.9L546.7 403.8L542.1 397L537.3 390.3L533 383.8L529.7 377.7L527.8 372.2L527.5 367.5L529.5 361.6L532.8 353.7L537.3 344.7L542.4 335.2L547.9 325.8L553.3 317.2L558.2 309.6L562.1 303.8Z" fill="url(#gf-mix-rex-triceratops)" stroke="#455b32" stroke-width="1.8"/><path d="M533 457.7L517 463.7Q514.5 467 518.4 468.3L535 464.3Z" fill="url(#gf-mix-rex-triceratops)" stroke="#455b32" stroke-width="1.5" stroke-linejoin="round"/><path d="M517.3 464.5L513.4 467.3L518.2 467.5Z" fill="#455b32"/><path d="M529.9 455.4L510.4 462.5Q507.7 466.1 512 467.5L532.1 462.6Z" fill="url(#gf-mix-rex-triceratops)" stroke="#455b32" stroke-width="1.5" stroke-linejoin="round"/><path d="M510.7 463.5L506.9 466.3L511.7 466.5Z" fill="#455b32"/><path d="M534.6 464.6L541.5 467.4Q545.2 467 543.6 463.6L537.4 459.4Z" fill="url(#gf-mix-rex-triceratops)" stroke="#455b32" stroke-width="1.5" stroke-linejoin="round"/><path d="M541.8 466.9L546.5 467.6L543.3 464.1Z" fill="#455b32"/><path d="M405.3 294.4L405 298.8L404.7 304.7L404.6 311.9L404.5 320L404.3 328.5L404 337L403.3 345.3L402.3 352.9L401.3 360.3L399.8 367.9L398 375.6L396 382.9L394.1 389.8L392.2 395.9L390.7 401L389.6 404.8L380.9 402.8L381.7 398.8L382.9 393.5L384.3 387.3L385.8 380.4L387.3 373.2L388.6 365.8L389.6 358.6L390.2 351.9L389.9 345L389.3 337.2L388.4 329.1L387.4 321L386.2 313.2L385.1 306.1L384.1 300.1L383.2 295.6Z" fill="url(#gf-mix-rex-triceratops)" stroke="#455b32" stroke-width="1.8"/><path d="M381.3 397.9L377.5 409.5Q377.4 413.2 381 412.2L391.2 405.7Z" fill="url(#gf-mix-rex-triceratops)" stroke="#455b32" stroke-width="1.5" stroke-linejoin="round"/><path d="M378 409.8L376.5 414.4L380.5 411.8Z" fill="#455b32"/><path d="M383.8 402.1L383.6 411.2Q384.4 414.2 387 412.4L392.8 405.5Z" fill="url(#gf-mix-rex-triceratops)" stroke="#455b32" stroke-width="1.5" stroke-linejoin="round"/><path d="M383.8 411.2L383.7 416L386.8 412.4Z" fill="#455b32"/><g transform="rotate(-24 344.4 277.7)"><ellipse cx="344.4" cy="277.7" rx="46.4" ry="62.7" fill="url(#sc-mix-rex-triceratops)" stroke="#93712e" stroke-width="2.2"/><circle cx="298.5" cy="286.4" r="2.9" fill="#d9a441" stroke="#93712e" stroke-width="1.2"/><circle cx="300.8" cy="256.3" r="3.9" fill="#d9a441" stroke="#93712e" stroke-width="1.2"/><circle cx="313.4" cy="231.1" r="1.8" fill="#d9a441" stroke="#93712e" stroke-width="1.2"/><circle cx="333.2" cy="216.9" r="2.9" fill="#d9a441" stroke="#93712e" stroke-width="1.2"/><circle cx="355.7" cy="216.9" r="3.9" fill="#d9a441" stroke="#93712e" stroke-width="1.2"/><circle cx="375.5" cy="231.1" r="1.8" fill="#d9a441" stroke="#93712e" stroke-width="1.2"/><circle cx="388" cy="256.3" r="2.9" fill="#d9a441" stroke="#93712e" stroke-width="1.2"/><circle cx="390.4" cy="286.4" r="3.9" fill="#d9a441" stroke="#93712e" stroke-width="1.2"/><ellipse cx="344.4" cy="277.7" rx="27.6" ry="38.9" fill="#bf913a"/><path d="M333.2 270L308.4 254.1" stroke="#997530" stroke-width="1.6" opacity="0.4"/><path d="M337.8 262.8L323.2 232" stroke="#997530" stroke-width="1.6" opacity="0.4"/><path d="M344.4 260.1L344.4 223.8" stroke="#997530" stroke-width="1.6" opacity="0.4"/><path d="M351.1 262.8L365.7 232" stroke="#997530" stroke-width="1.6" opacity="0.4"/><path d="M355.7 270L380.5 254.1" stroke="#997530" stroke-width="1.6" opacity="0.4"/></g><path d="M296.2 241Q292.2 211.8 263.3 185.2Q282.2 212.9 282.3 242.5Z" fill="url(#bn-mix-rex-triceratops)" stroke="#8a7a52" stroke-width="1.5" stroke-linejoin="round"/><path d="M290.1 228.4Q283.3 228.9 278.5 233.7" fill="none" stroke="#8a7a52" stroke-width="1.1" opacity="0.5"/><path d="M285.3 220.2Q279.4 220.3 275.4 224.7" fill="none" stroke="#8a7a52" stroke-width="1.1" opacity="0.5"/><path d="M308.7 244Q305.4 221.4 284.4 200.7Q295.4 222.4 294.8 245.4Z" fill="url(#bn-mix-rex-triceratops)" stroke="#8a7a52" stroke-width="1.5" stroke-linejoin="round"/><path d="M304.4 233.9Q297.5 234 292.5 238.6" fill="none" stroke="#8a7a52" stroke-width="1.1" opacity="0.5"/><path d="M300.8 227.4Q294.9 227.2 290.7 231.4" fill="none" stroke="#8a7a52" stroke-width="1.1" opacity="0.5"/><path d="M268.7 262.3Q266.6 252 256.4 242.5Q256.6 253 254.7 263.7Z" fill="url(#bn-mix-rex-triceratops)" stroke="#8a7a52" stroke-width="1.5" stroke-linejoin="round"/><path d="M266.8 257.3Q260 256.6 254.4 260.5" fill="none" stroke="#8a7a52" stroke-width="1.1" opacity="0.5"/><path d="M732.8 366.4L724.5 362.3L716.3 358.2L708.1 354.2L699.9 350.2L691.8 346.4L683.7 342.6L675.7 339L667.7 335.4L659.7 331.8L651.8 328.4L643.9 325L636.1 321.8L628.3 318.6L620.6 315.5L612.8 312.4L605.2 309.5L597.5 306.6L589.9 303.8L582.4 301.1L574.8 298.5L567.3 296L559.9 293.5L552.4 291.1L545.4 287.1L538.4 283L531.3 278.9L524.3 274.9L517.2 271L511.2 267.4L504.6 263.3L496.9 259.2L489.1 255.2L481 253L472.8 251.8L464.5 250.8L456.3 249.8L448 249L439.7 248.4L431.5 247.9L423.2 247.5L414.9 248.6L406.6 249.8L398.4 251.2L390.3 252.8L382.1 254.4L374 256.2L366 258.1L370.1 260.7L378.9 266L372.4 264.7L365.9 263.7L359.5 262.9L353.2 262.4L347.1 262.1L341.5 261.1L336.9 258.5L332.3 256L327.6 253.7L322.9 251.5L318.2 249.6L311.6 246.2L305.6 243.4L300.3 241.3L295.8 239.8L291.9 238.9L288.8 238.8L286 238.5L283.4 238.6L281.1 239.3L279 240.4L277.2 242L275.5 244L274 246.9L272.3 249.5L270.5 252L268.6 254.3L266.5 256.4L264.3 258.4L261.4 260L258.6 261.6L256.1 263.2L253.7 264.7L251.4 266.2L249.4 267.8L247.6 268.9L246.1 270.2L245 271.4L244.3 272.6L243.9 273.9L243.8 275.2L244.8 277L246 278.5L247.5 279.7L249.1 280.5L250.9 281L252.9 281.1L258.5 281.4L263.9 281.8L269.2 282.3L274.3 283L279.2 283.8L284 284.7L279.1 288.8L274.2 292.4L269.2 295.7L264.2 298.5L259.2 300.9L254.1 303L253.1 304L252.5 305L252.5 305.9L253.1 306.8L254.1 307.5L255.7 308.2L263.4 306.3L270.8 304.4L277.9 302.3L284.5 300.2L290.8 297.9L296.7 295.6L299 295.2L300.8 294.8L302.3 294.5L303.3 294.2L304 293.9L304.3 293.6L304.3 293.6L307.8 294.3L311.3 295.3L314.9 296.4L318.6 297.6L322.4 299L325.3 302.5L327.7 306.9L330 311.4L332.3 316L334.5 320.8L336.7 325.6L354.5 337.3L373.6 338.3L380.5 338.9L387.5 339.6L394.4 340.5L401.2 341.4L408 342.5L414.8 343.7L421.5 344.9L428.3 344.8L435 344.9L441.8 345.1L448.6 345.4L455.3 345.8L462.1 346.4L468.9 347L475.8 346.8L483.1 345.1L490.4 343.5L498.8 342.3L506.9 340.6L514.1 338.9L521.4 337.3L528.8 335.8L536.4 334.3L544 333.2L551.4 333.9L558.8 334.6L566.3 335.5L573.9 336.4L581.5 337.4L589.2 338.6L597 339.8L604.9 341.1L612.8 342.4L620.8 343.9L628.9 345.5L637 347.1L645.2 348.8L653.5 350.7L661.9 352.6L670.3 354.6L678.7 356.7L687.3 358.8L695.9 361.1L704.6 363.5L713.3 365.9L722.1 368.5L731 371.1Z" fill="url(#gb-mix-rex-triceratops)" stroke="#394a2a" stroke-width="3" stroke-linejoin="round"/><g clip-path="url(#bod-mix-rex-triceratops)"><path d="M704.5 363.7L687.2 359.1L670.2 354.9L653.4 351L636.9 347.5L620.7 344.4L604.7 341.6L589.1 339.2L573.7 337.1L558.6 335.4L543.8 334L528.6 336.8L513.9 340.2L498.6 343.8L482.8 346.9L468.7 348.9L455.2 347.7L441.7 347L428.2 346.8L414.8 345.6L401.3 343.2L387.6 341.3L373.7 339.9L335.9 326.8L331.6 317.1L327.2 307.8L322.1 299.8L325.9 292.2L332.3 298.9L338.4 306.6L344.3 314.9L372.2 323.9L386.5 324.3L400.7 325.2L414.8 326.5L428.9 327.4L442.9 327.8L457 328.7L471.1 330.1L485.6 329.7L501.1 328.8L515.9 327.4L530.5 326.3L545.5 325.6L560.3 327.7L575.4 330.1L590.7 332.8L606.3 335.9L622.2 339.3L638.3 343.1L654.6 347.3L671.2 351.8L688.1 356.6L705.2 361.8Z" fill="#475d34" opacity="0.2"/><path d="M552.6 290.3L538.6 281.9L531.5 277.8L524.5 273.7L511.4 265.9L504.8 261.7L489.3 253.3L481.2 251.1L464.7 248.9L456.4 247.9L448.1 247.1L431.5 245.9L423.2 245.5L406.6 248L398.4 249.4L390.2 251L373.9 254.6L365.8 256.5L379.8 264.8L373.1 263.6L360.1 262L353.7 261.5L347.5 261.3L337.2 257.7L332.6 255.2L323.2 250.7L318.5 248.7L316.6 254.9L321.1 256.7L330.2 260.8L334.7 263.2L344.4 266.9L350.1 267.7L355.9 268.7L367.8 271.4L373.9 273.1L366.9 267.7L374.8 266.1L390.8 263.3L398.8 262.1L406.8 260.9L423 259.2L431.1 259.5L447.3 260.6L455.3 261.3L463.4 262.2L479.5 264.3L487.5 266.2L502.9 272.9L509.7 276.3L523.1 282.6L530.1 285.9L537.2 289.3L551.4 296.2Z" fill="#b4c59f" opacity="0.26"/></g><g clip-path="url(#bod-mix-rex-triceratops)"><g fill="none" stroke="#394a2a" stroke-width="1.2" opacity="0.2"><path d="M342.2 289.8Q336.8 291 335.1 285.8"/><path d="M352.5 308.5Q348.5 308.9 347.7 305.1"/><path d="M329.2 281.8Q325.5 283 323.9 279.4"/><path d="M404.5 310.6Q400.4 314.5 396.1 310.8"/><path d="M417.8 304.5Q414.8 307.2 411.9 304.5"/><path d="M553.1 308.2Q548.5 311 545.3 306.7"/><path d="M449.5 287.1Q445.3 290.4 441.6 286.6"/><path d="M362.6 312.9Q359 315 356.5 311.6"/><path d="M513.8 322.2Q509.2 325.3 505.6 321"/><path d="M327.6 274Q324 275.2 322.4 271.8"/><path d="M324.6 272.5Q319.5 274.4 317 269.5"/><path d="M380.6 290.6Q377 294.3 372.9 291.2"/><path d="M337.4 278.1Q332.2 279.6 330.2 274.5"/><path d="M456.6 286.2Q453.1 288.8 450.1 285.7"/><path d="M454.9 307.2Q451.4 309.8 448.4 306.6"/><path d="M442 275.9Q438.3 278.9 434.8 275.6"/><path d="M323.6 286.2Q318.5 287.9 316.3 283.1"/><path d="M567 316.5Q562.2 319.2 559 314.7"/><path d="M352.7 280.9Q348 281.8 346.7 277.2"/><path d="M509.5 300.1Q505.3 302.8 502.2 298.9"/><path d="M357.6 284.7Q351.8 285.6 350.3 280"/><path d="M551.1 313.9Q547.4 316.1 544.9 312.7"/></g><g fill="none" stroke="#394a2a" stroke-linecap="round"><path d="M334.8 274.4L326.2 270.1L317.6 266.5L313.4 265L304.9 262.4L300.6 261.4L292.1 260.6L287.9 260.6L279.7 261.2L275.7 261.7" stroke-width="1.5" opacity="0.3"/><path d="M328.7 286.5L320.6 283L316.7 281.5L312.8 280.2L305.1 278.1L301.3 277.2L294.1 275.7L290.5 274.7L287 274" stroke-width="1.3" opacity="0.26"/><path d="M507.1 292.1L492.3 287.5L477 284L453.7 281.4L438.2 280.2L422.6 279.6L407.1 280.4L391.6 281.7L376.2 283.5" stroke-width="1.5" opacity="0.28"/><path d="M486.8 321.9L472.2 321.6L457.8 320.2L436.3 318.9L422 318.6L407.7 317.5L386 316.6L371.5 316.7L348.1 309.5" stroke-width="1.4" opacity="0.26"/><path d="M698.5 354.1L682 347.5L665.6 341.4L649.5 335.6L633.6 330.1L617.8 324.9L602.3 320.1L587 315.6L571.8 311.4" stroke-width="1.3" opacity="0.28"/><path d="M688.9 354.5L672.2 349.1L655.7 344.1L647.5 341.7L631.4 337.2L615.5 333L607.7 331L592.1 327.4L584.5 325.7" stroke-width="1.3" opacity="0.24"/><path d="M478.4 312.1A25.1 25.1 0 0 1 525.7 306.1" stroke-width="1.6" opacity="0.3"/><path d="M349.2 306.7A22.6 22.6 0 0 1 388.6 301.7" stroke-width="1.4" opacity="0.26"/></g></g><path d="M284 284.7L279.2 283.8L274.3 283L269.2 282.3L263.9 281.8L258.5 281.4L252.9 281.1L250.9 281L249.1 280.5L247.5 279.7L246 278.5L244.8 277L243.8 275.2L256.1 301.9L260 300.1L264.1 297.8L268.6 295.1L273.4 292.1L278.6 288.6L284 284.7Z" fill="#5a3138"/><path d="M283 284.8Q285 280.1 288.1 275.8" fill="none" stroke="#394a2a" stroke-width="1.6" opacity="0.45"/><path d="M256.3 268Q253.4 265.7 251.1 268.6" fill="none" stroke="#394a2a" stroke-width="1.6" opacity="0.75"/><g opacity="1"><path d="M250.7 279.9L249 286.8L246 280.4Z" fill="#f6f2e4" stroke="#8a7a52" stroke-width="0.8"/><path d="M256.6 280.9L254.7 285.9L251.8 281.4Z" fill="#f6f2e4" stroke="#8a7a52" stroke-width="0.8"/><path d="M262.6 281.3L260.9 288.1L257.8 281.8Z" fill="#f6f2e4" stroke="#8a7a52" stroke-width="0.8"/><path d="M268.6 281.8L266.7 286.8L263.8 282.3Z" fill="#f6f2e4" stroke="#8a7a52" stroke-width="0.8"/><path d="M274.5 282.5L272.8 289.3L269.7 283Z" fill="#f6f2e4" stroke="#8a7a52" stroke-width="0.8"/><path d="M277.7 291.1L275.2 286.7L273.7 291.5Z" fill="#f6f2e4" stroke="#8a7a52" stroke-width="0.8"/><path d="M271.9 295L269.5 291.5L267.9 295.4Z" fill="#f6f2e4" stroke="#8a7a52" stroke-width="0.8"/><path d="M265.8 298.5L263.3 294.1L261.8 298.9Z" fill="#f6f2e4" stroke="#8a7a52" stroke-width="0.8"/></g><ellipse cx="279.9" cy="263.1" rx="10.7" ry="8" fill="#394a2a" opacity="0.1"/><circle cx="279.1" cy="263.2" r="5.3" fill="#fdfaef" stroke="#394a2a" stroke-width="1.5"/><circle cx="278.5" cy="263.2" r="3.3" fill="#c9983d"/><circle cx="278.1" cy="263.2" r="1.8" fill="#1c1a14"/><circle cx="277.3" cy="261.6" r="0.9" fill="#fdfaef" opacity="0.9"/><path d="M286 251.8Q277.3 250.8 268.3 257.6" fill="none" stroke="#394a2a" stroke-width="2.2" stroke-linecap="round"/><path d="M489.9 292.2L489.3 298L487.5 306.1L484.8 316.2L481.8 327.5L478.9 339.5L476.7 351.6L475.7 363.5L476.5 374.9L479.1 385.5L483.9 394.6L489.6 402.3L495.7 409L501.4 414.9L506.3 420.1L509.7 424.3L511.5 427.4L511.4 430.3L510.4 433.5L508.6 437L506.2 440.6L503.3 444.1L500.4 447.3L497.7 450.5L495.7 453.2L510.3 462.8L511.4 460.8L513.5 458.1L516.4 454.4L519.6 449.9L522.7 444.7L525.3 438.8L526.8 432L526.5 424.6L524.4 416.9L520.7 409.8L516.1 403L511.3 396.3L507 389.8L503.7 383.7L501.8 378.2L501.5 373.5L503.5 367.6L506.8 359.7L511.3 350.7L516.4 341.2L521.9 331.8L527.3 323.2L532.2 315.6L536.1 309.8Z" fill="url(#gl-mix-rex-triceratops)" stroke="#394a2a" stroke-width="2.4"/><g clip-path="url(#bod-mix-rex-triceratops)"><path d="M489.9 292.2L489.3 298L487.5 306.1L484.8 316.2L481.8 327.5L478.9 339.5L476.7 351.6L475.7 363.5L476.5 374.9L479.1 385.5L483.9 394.6L489.6 402.3L495.7 409L501.4 414.9L506.3 420.1L509.7 424.3L511.5 427.4L511.4 430.3L510.4 433.5L508.6 437L506.2 440.6L503.3 444.1L500.4 447.3L497.7 450.5L495.7 453.2L510.3 462.8L511.4 460.8L513.5 458.1L516.4 454.4L519.6 449.9L522.7 444.7L525.3 438.8L526.8 432L526.5 424.6L524.4 416.9L520.7 409.8L516.1 403L511.3 396.3L507 389.8L503.7 383.7L501.8 378.2L501.5 373.5L503.5 367.6L506.8 359.7L511.3 350.7L516.4 341.2L521.9 331.8L527.3 323.2L532.2 315.6L536.1 309.8Z" fill="url(#gl-mix-rex-triceratops)"/></g><path d="M507 460.7L491 466.7Q488.5 470 492.4 471.3L509 467.3Z" fill="url(#gl-mix-rex-triceratops)" stroke="#394a2a" stroke-width="1.5" stroke-linejoin="round"/><path d="M491.3 467.5L487.4 470.3L492.2 470.5Z" fill="#394a2a"/><path d="M503.9 458.4L484.4 465.5Q481.7 469.1 486 470.5L506.1 465.6Z" fill="url(#gl-mix-rex-triceratops)" stroke="#394a2a" stroke-width="1.5" stroke-linejoin="round"/><path d="M484.7 466.5L480.9 469.3L485.7 469.5Z" fill="#394a2a"/><path d="M508.6 467.6L515.5 470.4Q519.2 470 517.6 466.6L511.4 462.4Z" fill="url(#gl-mix-rex-triceratops)" stroke="#394a2a" stroke-width="1.5" stroke-linejoin="round"/><path d="M515.8 469.9L520.5 470.6L517.3 467.1Z" fill="#394a2a"/><path d="M379.3 300.4L379 304.8L378.7 310.7L378.6 317.9L378.5 326L378.3 334.5L378 343L377.3 351.3L376.3 358.9L375.3 366.3L373.8 373.9L372 381.6L370 388.9L368.1 395.8L366.2 401.9L364.7 407L363.6 410.8L354.9 408.8L355.7 404.8L356.9 399.5L358.3 393.3L359.8 386.4L361.3 379.2L362.6 371.8L363.6 364.6L364.2 357.9L363.9 351L363.3 343.2L362.4 335.1L361.4 327L360.2 319.2L359.1 312.1L358.1 306.1L357.2 301.6Z" fill="url(#gl-mix-rex-triceratops)" stroke="#394a2a" stroke-width="2.4"/><g clip-path="url(#bod-mix-rex-triceratops)"><path d="M379.3 300.4L379 304.8L378.7 310.7L378.6 317.9L378.5 326L378.3 334.5L378 343L377.3 351.3L376.3 358.9L375.3 366.3L373.8 373.9L372 381.6L370 388.9L368.1 395.8L366.2 401.9L364.7 407L363.6 410.8L354.9 408.8L355.7 404.8L356.9 399.5L358.3 393.3L359.8 386.4L361.3 379.2L362.6 371.8L363.6 364.6L364.2 357.9L363.9 351L363.3 343.2L362.4 335.1L361.4 327L360.2 319.2L359.1 312.1L358.1 306.1L357.2 301.6Z" fill="url(#gl-mix-rex-triceratops)"/></g><path d="M355.3 403.9L351.5 415.5Q351.4 419.2 355 418.2L365.2 411.7Z" fill="url(#gl-mix-rex-triceratops)" stroke="#394a2a" stroke-width="1.5" stroke-linejoin="round"/><path d="M352 415.8L350.5 420.4L354.5 417.8Z" fill="#394a2a"/><path d="M357.8 408.1L357.6 417.2Q358.4 420.2 361 418.4L366.8 411.5Z" fill="url(#gl-mix-rex-triceratops)" stroke="#394a2a" stroke-width="1.5" stroke-linejoin="round"/><path d="M357.8 417.2L357.7 422L360.8 418.4Z" fill="#394a2a"/></g></svg>