<svg xmlns="http://www.w3.org/2000/svg" viewBox="210 121.3 383 266.4" role="img" aria-label="Brachiosaurus back"><defs><clipPath id="bod-part-brachiosaurus-back"><path d="M772.6 325.8L762.6 323.6L752.7 321.4L742.8 319.3L733 317.2L723.2 315.1L713.5 313.1L703.8 311.1L694.3 309.2L684.7 307.2L675.3 305.4L665.8 303.5L656.5 301.7L647.2 299.9L638 298.1L628.8 296.4L619.6 294.7L610.6 293.1L601.6 291.5L592.6 289.9L583.7 288.3L574.9 286.8L566.1 285.3L557.4 283.9L548.9 279.6L540.5 275L532.1 270.5L523.8 265.9L515.4 261.4L517.5 258.7L518.3 253.7L510.9 245.5L503.4 237.3L494.7 231.5L485.5 226.9L476.3 222.5L467.1 218.1L457.8 213.8L448.6 209.6L439.3 205.5L430.1 201.5L420.3 198.9L410.5 196.4L400.8 194L391.1 191.7L381.3 189.5L371.6 187.4L361.9 185.4L366.1 190.3L348 180.1L326 167.7L304.8 156.1L284.4 145.3L264.9 135.4L246.1 126.3L229.3 116.8L215.2 105.6L202 95.2L189.6 85.7L177.9 76.9L167 69L156.9 61.8L147.6 55.4L138.9 49.8L131.1 44.9L123.8 40.9L117.2 37.5L111.1 34.9L105.1 33L98.7 31.9L90.9 32.7L82 37.9L79.7 44.7L77.8 50.4L76.4 55.1L75.5 58.8L75.1 61.4L75.2 62.9L75.2 64L75.6 64.9L76.1 65.7L77 66.2L78 66.6L79.4 66.8L81.2 66.8L82.9 66.9L84.5 67.1L86 67.4L87.4 67.7L88.8 68.2L90 69L91.1 69.7L92.3 70.3L93.4 70.9L94.5 71.4L95.5 71.9L96.4 72.3L97.2 72.6L98 72.8L98.8 72.9L99.6 72.8L100.4 72.5L101.5 71.8L102.6 71L103.5 70.2L104.3 69.4L105 68.5L105.6 67.6L106.4 65.6L107.2 63.6L107.7 61.6L108.2 59.5L108.4 57.5L108.6 55.5L108.4 53.2L108.2 51.2L108 49.5L107.7 48.2L107.4 47.3L107 46.7L106.7 46.9L106.4 47.9L106 49.7L105.4 52.3L104.8 55.6L104 59.8L104 59.8L98.6 63.1L95.9 63.6L96.3 63.9L98.7 65L102.5 66.9L107.4 69.8L113.3 73.5L120.2 78.2L128 83.6L136.6 90L146.1 97.1L156.4 105.1L167.5 114L179.5 123.6L192.3 134.1L205.9 145.4L218.2 160L230.3 176.6L243.2 194L256.9 212.1L271.3 231.1L286.6 250.9L307.3 274.5L329.2 285.2L337.3 289.1L345.3 293.1L353.2 297.1L361.2 301.3L369.2 305.5L377.1 309.8L385.1 314.1L393.5 317.3L402 320.6L410.4 323.9L418.9 327.3L427.4 330.9L435.9 334.5L444.4 338.2L453.5 340.8L463.7 341.3L474 341.9L492.5 345.9L511.2 344L519.7 340.4L528.2 336.8L536.9 333.3L545.6 329.8L554.4 326.7L563.1 326.5L571.9 326.3L580.7 326.1L589.6 326L598.6 326L607.6 325.9L616.8 325.9L625.9 326L635.2 326.1L644.5 326.2L653.9 326.3L663.4 326.5L672.9 326.7L682.5 326.9L692.2 327.2L701.9 327.5L711.7 327.9L721.6 328.3L731.5 328.7L741.5 329.2L751.6 329.7L761.7 330.2L771.9 330.7Z"/></clipPath><linearGradient id="gb-part-brachiosaurus-back" x1="0" y1="0" x2="0" y2="1"><stop offset="0" stop-color="#82a068"/><stop offset="0.55" stop-color="#6b8f4e"/><stop offset="1" stop-color="#536f3d"/></linearGradient><linearGradient id="gl-part-brachiosaurus-back" x1="0" y1="0" x2="0" y2="1"><stop offset="0" stop-color="#698d4d"/><stop offset="0.55" stop-color="#5e7e45"/><stop offset="1" stop-color="#526c3c"/></linearGradient><linearGradient id="gf-part-brachiosaurus-back" x1="0" y1="0" x2="0" y2="1"><stop offset="0" stop-color="#628347"/><stop offset="0.55" stop-color="#597641"/><stop offset="1" stop-color="#506a3a"/></linearGradient></defs><path d="M512.9 282.2L512.5 288.2L510.9 296.5L508.4 306.8L505.5 318.5L502.8 330.8L500.8 343.3L499.9 355.6L500.9 367.5L503.6 378.6L508.5 388.1L514.4 396.1L520.6 403L526.4 409.1L531.3 414.4L534.8 418.6L536.6 421.6L536.4 424.3L535.5 427.3L533.7 430.6L531.3 434L528.5 437.4L525.6 440.7L522.8 443.8L520.8 446.5L537.2 457.5L538.3 455.5L540.3 452.8L543.2 449.1L546.4 444.6L549.6 439.3L552.2 433.2L553.8 426.2L553.4 418.4L551.4 410.4L547.6 403L543.1 395.9L538.4 389L534.2 382.3L531 376L529.3 370.6L529.1 366L531.3 360.2L534.8 352.3L539.4 343.2L544.7 333.6L550.4 324.2L555.9 315.4L561 307.6L565.1 301.8Z" fill="url(#gf-part-brachiosaurus-back)" stroke="#455b32" stroke-width="1.8"/><path d="M533 457.7L516.7 463.7Q514.2 467 518.1 468.3L535 464.3Z" fill="url(#gf-part-brachiosaurus-back)" stroke="#455b32" stroke-width="1.5" stroke-linejoin="round"/><path d="M517 464.5L513.1 467.3L517.9 467.5Z" fill="#455b32"/><path d="M529.9 455.4L510 462.5Q507.2 466 511.5 467.5L532.1 462.6Z" fill="url(#gf-part-brachiosaurus-back)" stroke="#455b32" stroke-width="1.5" stroke-linejoin="round"/><path d="M510.3 463.5L506.4 466.3L511.2 466.5Z" fill="#455b32"/><path d="M534.6 464.7L541.7 467.5Q545.4 466.9 543.7 463.5L537.4 459.3Z" fill="url(#gf-part-brachiosaurus-back)" stroke="#455b32" stroke-width="1.5" stroke-linejoin="round"/><path d="M542 466.9L546.7 467.6L543.5 464.1Z" fill="#455b32"/><path d="M387.9 227.9L387.1 236.8L386.4 248.8L385.8 263.1L385.3 279L384.6 295.8L383.8 312.8L382.7 329.3L381.3 344.5L380.1 359.6L378.4 375.4L376.5 391.5L374.4 407.2L372.3 422L370.3 435.2L368.6 446.3L367.4 454.6L352.1 452.9L352.7 444.4L353.7 433.2L354.9 419.9L356.3 405.2L357.6 389.5L358.8 373.7L359.7 358.2L360.2 343.7L359.5 329L358.4 313L357 296.4L355.5 279.8L354 264.1L352.4 250L350.9 238L349.5 229Z" fill="url(#gf-part-brachiosaurus-back)" stroke="#455b32" stroke-width="1.8"/><ellipse cx="356.7" cy="462" rx="19.4" ry="5.5" fill="url(#gf-part-brachiosaurus-back)" stroke="#455b32" stroke-width="2"/><path d="M350.9 458.4L349.3 463.7M359.1 458.4L357.5 463.7" fill="none" stroke="#455b32" stroke-width="1.2" opacity="0.45"/><path d="M772.6 325.8L762.6 323.6L752.7 321.4L742.8 319.3L733 317.2L723.2 315.1L713.5 313.1L703.8 311.1L694.3 309.2L684.7 307.2L675.3 305.4L665.8 303.5L656.5 301.7L647.2 299.9L638 298.1L628.8 296.4L619.6 294.7L610.6 293.1L601.6 291.5L592.6 289.9L583.7 288.3L574.9 286.8L566.1 285.3L557.4 283.9L548.9 279.6L540.5 275L532.1 270.5L523.8 265.9L515.4 261.4L517.5 258.7L518.3 253.7L510.9 245.5L503.4 237.3L494.7 231.5L485.5 226.9L476.3 222.5L467.1 218.1L457.8 213.8L448.6 209.6L439.3 205.5L430.1 201.5L420.3 198.9L410.5 196.4L400.8 194L391.1 191.7L381.3 189.5L371.6 187.4L361.9 185.4L366.1 190.3L348 180.1L326 167.7L304.8 156.1L284.4 145.3L264.9 135.4L246.1 126.3L229.3 116.8L215.2 105.6L202 95.2L189.6 85.7L177.9 76.9L167 69L156.9 61.8L147.6 55.4L138.9 49.8L131.1 44.9L123.8 40.9L117.2 37.5L111.1 34.9L105.1 33L98.7 31.9L90.9 32.7L82 37.9L79.7 44.7L77.8 50.4L76.4 55.1L75.5 58.8L75.1 61.4L75.2 62.9L75.2 64L75.6 64.9L76.1 65.7L77 66.2L78 66.6L79.4 66.8L81.2 66.8L82.9 66.9L84.5 67.1L86 67.4L87.4 67.7L88.8 68.2L90 69L91.1 69.7L92.3 70.3L93.4 70.9L94.5 71.4L95.5 71.9L96.4 72.3L97.2 72.6L98 72.8L98.8 72.9L99.6 72.8L100.4 72.5L101.5 71.8L102.6 71L103.5 70.2L104.3 69.4L105 68.5L105.6 67.6L106.4 65.6L107.2 63.6L107.7 61.6L108.2 59.5L108.4 57.5L108.6 55.5L108.4 53.2L108.2 51.2L108 49.5L107.7 48.2L107.4 47.3L107 46.7L106.7 46.9L106.4 47.9L106 49.7L105.4 52.3L104.8 55.6L104 59.8L104 59.8L98.6 63.1L95.9 63.6L96.3 63.9L98.7 65L102.5 66.9L107.4 69.8L113.3 73.5L120.2 78.2L128 83.6L136.6 90L146.1 97.1L156.4 105.1L167.5 114L179.5 123.6L192.3 134.1L205.9 145.4L218.2 160L230.3 176.6L243.2 194L256.9 212.1L271.3 231.1L286.6 250.9L307.3 274.5L329.2 285.2L337.3 289.1L345.3 293.1L353.2 297.1L361.2 301.3L369.2 305.5L377.1 309.8L385.1 314.1L393.5 317.3L402 320.6L410.4 323.9L418.9 327.3L427.4 330.9L435.9 334.5L444.4 338.2L453.5 340.8L463.7 341.3L474 341.9L492.5 345.9L511.2 344L519.7 340.4L528.2 336.8L536.9 333.3L545.6 329.8L554.4 326.7L563.1 326.5L571.9 326.3L580.7 326.1L589.6 326L598.6 326L607.6 325.9L616.8 325.9L625.9 326L635.2 326.1L644.5 326.2L653.9 326.3L663.4 326.5L672.9 326.7L682.5 326.9L692.2 327.2L701.9 327.5L711.7 327.9L721.6 328.3L731.5 328.7L741.5 329.2L751.6 329.7L761.7 330.2L771.9 330.7Z" fill="url(#gb-part-brachiosaurus-back)" stroke="#394a2a" stroke-width="3" stroke-linejoin="round"/><g clip-path="url(#bod-part-brachiosaurus-back)"><path d="M741.5 329.4L721.5 328.5L701.9 327.9L682.4 327.3L663.3 326.9L644.5 326.7L625.9 326.6L607.6 326.6L589.6 326.8L571.8 327.1L554.4 327.5L536.8 334.4L519.6 341.8L492 347.6L462.7 343.2L443.4 340.3L426.4 333L409.5 326.1L392.6 319.5L376.3 312L360.4 303.4L344.5 295.2L328.6 287.2L285.4 252.3L255.9 213.3L229.6 177.4L205.4 145.9L210.1 140.2L236.5 169.2L265.5 202.1L297.6 238.2L335.1 267.2L351.7 274.4L368.3 282L384.9 289.8L401.8 297.2L419 304.1L436.2 311.4L453.5 319L472.2 324.1L497 330.2L520.4 327L537.5 322.8L555 319L572.4 319.2L590.2 319.5L608.2 320L626.5 320.7L645 321.4L663.8 322.3L682.9 323.4L702.2 324.6L721.9 325.9L741.7 327.4Z" fill="#475d34" opacity="0.2"/><path d="M557.5 283L540.6 273.8L523.8 264.4L518 256.9L511.8 243.5L504.4 235.2L486.5 224.8L468 215.9L449.5 207.4L431 199.3L411.4 194.2L401.6 191.8L382.1 187.4L362.6 183.4L349.2 178.7L305.7 155L265.5 134.6L229.7 116.2L215.7 105L190 85.1L167.4 68.4L147.9 54.8L131.4 44.4L117.5 36.9L105.3 32.3L98.8 31.3L81.6 37.4L84.7 40.5L98.4 35.7L104.1 36.7L115.5 41L128.9 48.4L145.2 58.8L164.5 72.3L186.9 89.1L212.5 109L226.5 120.2L260.7 140.3L299 162.8L340.6 188.6L358 197.4L377 201.9L396 206.8L405.6 209.5L424.7 215L443 222.9L461.3 231.2L479.6 239.8L497.4 249.7L505.2 257L514.5 269.2L523.3 274.9L540.1 282L557 289Z" fill="#b4c59f" opacity="0.26"/></g><g clip-path="url(#bod-part-brachiosaurus-back)"><g fill="none" stroke="#394a2a" stroke-width="1.2" opacity="0.2"><path d="M249.7 162.7Q241.7 163 240.6 155.1"/><path d="M309.4 231.5Q303.3 231.6 302.6 225.6"/><path d="M205.7 124.5Q199.8 124.8 198.8 118.9"/><path d="M380.4 266.9Q372.8 269.9 369 262.6"/><path d="M399.1 265.8Q393.4 267.9 390.7 262.5"/><path d="M562.1 300.9Q555.9 305.7 550.4 300.1"/><path d="M444.5 259.4Q437.1 261.9 433.9 254.8"/><path d="M330.3 249.7Q324.1 250.4 322.7 244.4"/><path d="M518.4 321.7Q512.1 326.9 506.3 321.1"/><path d="M195.9 109.8Q190.2 110.1 189.2 104.5"/><path d="M185.1 101.1Q177.1 101.7 175.7 93.8"/><path d="M362.6 231.8Q355.6 234.9 351.8 228.2"/><path d="M224.4 132Q216.5 132.4 215.3 124.5"/><path d="M453.4 261.3Q447.1 263.4 444.4 257.4"/></g><g fill="none" stroke="#394a2a" stroke-linecap="round"><path d="M221.1 126.8L194.1 105.2L170.4 86.8L159.7 78.8L140.7 65.3L132.4 59.7L118.1 51L112.1 47.8L102 43.8L97.8 43" stroke-width="1.5" opacity="0.3"/><path d="M213.6 135.9L186.9 114.2L174.8 104.6L163.5 95.8L143.3 80.7L134.4 74.3L119.2 64.1L112.8 60.2L107.3 57.2" stroke-width="1.3" opacity="0.26"/><path d="M509.2 287.5L495.3 277.1L478.1 266.7L451.2 254.2L433.2 246.2L415.2 238.7L396.9 232.4L378.6 226.5L360.3 220.9" stroke-width="1.5" opacity="0.28"/><path d="M476.4 315.4L458 309.4L440.6 301.6L414.6 290.6L397.2 283.7L380.3 276L355 265.1L338.1 258.3L303.2 231.8" stroke-width="1.4" opacity="0.26"/><path d="M732.5 321.2L712.9 318.3L693.5 315.5L674.4 312.8L655.6 310.3L637 307.9L618.6 305.7L600.5 303.5L582.7 301.6" stroke-width="1.3" opacity="0.28"/><path d="M722.1 323.7L702.6 321.8L683.3 320L673.7 319.2L654.8 317.7L636.2 316.3L626.9 315.6L608.7 314.4L599.6 313.9" stroke-width="1.3" opacity="0.24"/><path d="M475.2 309A28.3 28.3 0 0 1 528.6 302.2" stroke-width="1.6" opacity="0.3"/><path d="M312.4 235.6A34.8 34.8 0 0 1 372.9 228" stroke-width="1.4" opacity="0.26"/></g></g><path d="M102.2 71L102.7 70.3L103.1 69.5L103.2 68.8L103.1 68L102.8 65.8L102.6 63.7L102.5 61.7L102.5 59.6L102.6 57.7L102.7 55.7" fill="none" stroke="#394a2a" stroke-width="2" opacity="0.65"/><path d="M103.1 56.6Q98 56 93 54.2" fill="none" stroke="#394a2a" stroke-width="1.6" opacity="0.45"/><path d="M94.5 67.8Q93.1 71.2 96.5 72.6" fill="none" stroke="#394a2a" stroke-width="1.6" opacity="0.75"/><ellipse cx="90.2" cy="61.2" rx="7" ry="5.3" fill="#394a2a" opacity="0.1"/><circle cx="90.4" cy="61.7" r="3.5" fill="#fdfaef" stroke="#394a2a" stroke-width="1.5"/><circle cx="90" cy="61.7" r="2.2" fill="#c9983d"/><circle cx="89.8" cy="61.7" r="1.2" fill="#1c1a14"/><circle cx="89.2" cy="60.7" r="0.8" fill="#fdfaef" opacity="0.9"/><path d="M82 59.5Q82.9 65.1 88.9 69.5" fill="none" stroke="#394a2a" stroke-width="2.2" stroke-linecap="round"/><path d="M486.9 288.2L486.5 294.2L484.9 302.5L482.4 312.8L479.5 324.5L476.8 336.8L474.8 349.3L473.9 361.6L474.9 373.5L477.6 384.6L482.5 394.1L488.4 402.1L494.6 409L500.4 415.1L505.3 420.4L508.8 424.6L510.6 427.6L510.4 430.3L509.5 433.3L507.7 436.6L505.3 440L502.5 443.4L499.6 446.7L496.8 449.8L494.8 452.5L511.2 463.5L512.3 461.5L514.3 458.8L517.2 455.1L520.4 450.6L523.6 445.3L526.2 439.2L527.8 432.2L527.4 424.4L525.4 416.4L521.6 409L517.1 401.9L512.4 395L508.2 388.3L505 382L503.3 376.6L503.1 372L505.3 366.2L508.8 358.3L513.4 349.2L518.7 339.6L524.4 330.2L529.9 321.4L535 313.6L539.1 307.8Z" fill="url(#gl-part-brachiosaurus-back)" stroke="#394a2a" stroke-width="2.4"/><g clip-path="url(#bod-part-brachiosaurus-back)"><path d="M486.9 288.2L486.5 294.2L484.9 302.5L482.4 312.8L479.5 324.5L476.8 336.8L474.8 349.3L473.9 361.6L474.9 373.5L477.6 384.6L482.5 394.1L488.4 402.1L494.6 409L500.4 415.1L505.3 420.4L508.8 424.6L510.6 427.6L510.4 430.3L509.5 433.3L507.7 436.6L505.3 440L502.5 443.4L499.6 446.7L496.8 449.8L494.8 452.5L511.2 463.5L512.3 461.5L514.3 458.8L517.2 455.1L520.4 450.6L523.6 445.3L526.2 439.2L527.8 432.2L527.4 424.4L525.4 416.4L521.6 409L517.1 401.9L512.4 395L508.2 388.3L505 382L503.3 376.6L503.1 372L505.3 366.2L508.8 358.3L513.4 349.2L518.7 339.6L524.4 330.2L529.9 321.4L535 313.6L539.1 307.8Z" fill="url(#gl-part-brachiosaurus-back)"/></g><path d="M507 460.7L490.7 466.7Q488.2 470 492.1 471.3L509 467.3Z" fill="url(#gl-part-brachiosaurus-back)" stroke="#394a2a" stroke-width="1.5" stroke-linejoin="round"/><path d="M491 467.5L487.1 470.3L491.9 470.5Z" fill="#394a2a"/><path d="M503.9 458.4L484 465.5Q481.2 469 485.5 470.5L506.1 465.6Z" fill="url(#gl-part-brachiosaurus-back)" stroke="#394a2a" stroke-width="1.5" stroke-linejoin="round"/><path d="M484.3 466.5L480.4 469.3L485.2 469.5Z" fill="#394a2a"/><path d="M508.6 467.7L515.7 470.5Q519.4 469.9 517.7 466.5L511.4 462.3Z" fill="url(#gl-part-brachiosaurus-back)" stroke="#394a2a" stroke-width="1.5" stroke-linejoin="round"/><path d="M516 469.9L520.7 470.6L517.5 467.1Z" fill="#394a2a"/><path d="M361.9 233.9L361.1 242.8L360.4 254.8L359.8 269.1L359.3 285L358.6 301.8L357.8 318.8L356.7 335.3L355.3 350.5L354.1 365.6L352.4 381.4L350.5 397.5L348.4 413.2L346.3 428L344.3 441.2L342.6 452.3L341.4 460.6L326.1 458.9L326.7 450.4L327.7 439.2L328.9 425.9L330.3 411.2L331.6 395.5L332.8 379.7L333.7 364.2L334.2 349.7L333.5 335L332.4 319L331 302.4L329.5 285.8L328 270.1L326.4 256L324.9 244L323.5 235Z" fill="url(#gl-part-brachiosaurus-back)" stroke="#394a2a" stroke-width="2.4"/><g clip-path="url(#bod-part-brachiosaurus-back)"><path d="M361.9 233.9L361.1 242.8L360.4 254.8L359.8 269.1L359.3 285L358.6 301.8L357.8 318.8L356.7 335.3L355.3 350.5L354.1 365.6L352.4 381.4L350.5 397.5L348.4 413.2L346.3 428L344.3 441.2L342.6 452.3L341.4 460.6L326.1 458.9L326.7 450.4L327.7 439.2L328.9 425.9L330.3 411.2L331.6 395.5L332.8 379.7L333.7 364.2L334.2 349.7L333.5 335L332.4 319L331 302.4L329.5 285.8L328 270.1L326.4 256L324.9 244L323.5 235Z" fill="url(#gl-part-brachiosaurus-back)"/></g><ellipse cx="330.7" cy="465" rx="20.4" ry="6" fill="url(#gl-part-brachiosaurus-back)" stroke="#394a2a" stroke-width="2"/><path d="M324.6 461.1L323 466.8M333.2 461.1L331.6 466.8" fill="none" stroke="#394a2a" stroke-width="1.2" opacity="0.45"/></svg>