<svg xmlns="http://www.w3.org/2000/svg" viewBox="464.4 241.6 366.3 128.6" role="img" aria-label="Diplodocus tail"><defs><clipPath id="bod-part-diplodocus-tail"><path d="M804.4 317.8L793.2 316.1L782 314.4L770.8 312.8L759.8 311.2L748.8 309.6L737.9 308L727.1 306.4L716.3 304.9L705.6 303.4L694.9 301.9L684.4 300.5L673.9 299L663.4 297.6L653.1 296.3L642.8 294.9L632.5 293.6L622.4 292.3L612.3 291L602.3 289.7L592.3 288.5L582.4 287.2L572.6 286L562.8 284.9L553.3 280.8L543.8 276.3L534.3 272L524.9 267.6L515.6 263.2L506.2 258.9L496.8 254.6L487.5 250.5L478 246.3L468.5 244.8L459 244.7L449.5 244.6L440 244.6L430.5 244.6L421 244.7L411.5 244.9L402 245.2L392.5 247.1L383.1 249.2L373.8 251.3L364.4 253.5L355.1 255.7L345.8 258.1L336.5 260.5L336.4 262.7L321.5 264.2L303 265.7L285.1 267.3L268.1 269.2L251.8 271.1L236.2 273.3L221.7 274.2L208.3 272.4L195.6 270.7L183.7 269.2L172.5 267.9L162.1 266.7L152.3 265.7L143.3 264.9L135 264.2L127.4 263.7L120.4 263.3L114.2 263.2L108.6 263.1L103.6 263.3L99.2 263.7L95 264.3L90.9 265.4L85.8 267.8L81.1 275.6L82.3 285.1L86.5 288.9L90.3 290.1L93.8 290.4L100.4 280.5L99.5 277.9L100.3 276.5L103.1 278L104.3 285.6L101.1 291.8L99.1 293L99.3 293.1L101.1 293.1L104.1 293.2L107.9 293.4L112.7 293.8L118.3 294.3L124.7 295L131.8 295.9L139.8 296.9L148.5 298.1L157.9 299.4L168.1 301L179.1 302.6L190.8 304.5L203.2 306.5L216.4 308.7L229.9 313.9L243.9 320.7L258.6 327.7L274 334.8L290.2 342.1L307 349.6L329.1 357.4L347.1 357.6L355.9 358.1L364.8 358.6L373.6 359.2L382.3 359.9L391.1 360.7L399.8 361.5L408.6 362.3L417.2 361.6L425.8 361L434.4 360.5L443 360L451.7 359.6L460.3 359.2L468.9 358.9L477.6 357.4L486.3 353.4L495 349.5L503.8 345.7L513.1 341.9L522.5 338.2L532 334.5L541.7 330.8L551.4 327.1L561.2 323.8L570.9 323.5L580.7 323.2L590.6 323L600.6 322.7L610.6 322.5L620.7 322.3L630.9 322.2L641.2 322L651.5 321.9L661.9 321.8L672.4 321.7L683 321.7L693.6 321.7L704.3 321.7L715.1 321.7L725.9 321.7L736.9 321.8L747.9 321.9L758.9 322L770.1 322.2L781.3 322.4L792.6 322.5L804 322.8Z"/></clipPath><linearGradient id="gb-part-diplodocus-tail" x1="0" y1="0" x2="0" y2="1"><stop offset="0" stop-color="#82a068"/><stop offset="0.55" stop-color="#6b8f4e"/><stop offset="1" stop-color="#536f3d"/></linearGradient><linearGradient id="gl-part-diplodocus-tail" x1="0" y1="0" x2="0" y2="1"><stop offset="0" stop-color="#698d4d"/><stop offset="0.55" stop-color="#5e7e45"/><stop offset="1" stop-color="#526c3c"/></linearGradient><linearGradient id="gf-part-diplodocus-tail" x1="0" y1="0" x2="0" y2="1"><stop offset="0" stop-color="#628347"/><stop offset="0.55" stop-color="#597641"/><stop offset="1" stop-color="#506a3a"/></linearGradient></defs><path d="M513.3 292.6L512.8 299.2L511.2 308.2L509.1 319.5L506.7 331.9L504.5 344.9L502.9 357.8L502.4 370.1L503.4 381.6L506.7 392L512.2 400.5L518.4 407L524.7 412L530.4 416.1L535 419.4L537.9 421.8L539.4 423.4L539 425.4L537.7 428.2L535.5 431.6L532.6 435.2L529.3 438.8L526 442.2L522.9 445.4L520.6 448L537.4 460L538.6 457.8L540.7 454.8L543.7 450.7L547.1 446L550.4 440.6L553.2 434.7L554.9 428L554.6 420.6L552.5 413.2L548.5 406.9L543.9 401.5L539.3 396.4L535.2 391.4L532.3 386.8L530.8 382.7L530.6 378.7L531.8 372.4L534.2 363.3L537.5 352.6L541.5 341.3L545.8 330L550 319.6L553.8 310.6L556.7 303.9Z" fill="url(#gf-part-diplodocus-tail)" stroke="#455b32" stroke-width="1.8"/><ellipse cx="527" cy="461" rx="25.8" ry="6.5" fill="url(#gf-part-diplodocus-tail)" stroke="#455b32" stroke-width="2"/><path d="M519.3 456.8L517.7 463M530.1 456.8L528.5 463" fill="none" stroke="#394a2a" stroke-width="1.2" opacity="0.45"/><path d="M349.7 311.5L350.1 317.5L350.5 325.5L350.8 334.9L351.1 345.4L351.3 356.3L351.4 367.3L351.5 377.8L351.5 387.3L351.2 396.5L350.6 406.3L349.9 416.1L349.2 425.8L348.6 434.9L348 443L347.5 449.9L347.3 455.2L362.2 456.8L363.1 451.7L364.2 444.9L365.5 436.8L366.8 427.7L368.2 418L369.6 408.1L370.8 398.2L371.9 388.7L373.1 379L374.2 368.3L375.3 357.2L376.2 346.2L377.2 335.7L378.1 326.3L378.9 318.4L379.7 312.6Z" fill="url(#gf-part-diplodocus-tail)" stroke="#455b32" stroke-width="1.8"/><ellipse cx="352.7" cy="462" rx="18.5" ry="5.5" fill="url(#gf-part-diplodocus-tail)" stroke="#455b32" stroke-width="2"/><path d="M347.2 458.4L345.6 463.7M354.9 458.4L353.3 463.7" fill="none" stroke="#394a2a" stroke-width="1.2" opacity="0.45"/><path d="M804.4 317.8L793.2 316.1L782 314.4L770.8 312.8L759.8 311.2L748.8 309.6L737.9 308L727.1 306.4L716.3 304.9L705.6 303.4L694.9 301.9L684.4 300.5L673.9 299L663.4 297.6L653.1 296.3L642.8 294.9L632.5 293.6L622.4 292.3L612.3 291L602.3 289.7L592.3 288.5L582.4 287.2L572.6 286L562.8 284.9L553.3 280.8L543.8 276.3L534.3 272L524.9 267.6L515.6 263.2L506.2 258.9L496.8 254.6L487.5 250.5L478 246.3L468.5 244.8L459 244.7L449.5 244.6L440 244.6L430.5 244.6L421 244.7L411.5 244.9L402 245.2L392.5 247.1L383.1 249.2L373.8 251.3L364.4 253.5L355.1 255.7L345.8 258.1L336.5 260.5L336.4 262.7L321.5 264.2L303 265.7L285.1 267.3L268.1 269.2L251.8 271.1L236.2 273.3L221.7 274.2L208.3 272.4L195.6 270.7L183.7 269.2L172.5 267.9L162.1 266.7L152.3 265.7L143.3 264.9L135 264.2L127.4 263.7L120.4 263.3L114.2 263.2L108.6 263.1L103.6 263.3L99.2 263.7L95 264.3L90.9 265.4L85.8 267.8L81.1 275.6L82.3 285.1L86.5 288.9L90.3 290.1L93.8 290.4L100.4 280.5L99.5 277.9L100.3 276.5L103.1 278L104.3 285.6L101.1 291.8L99.1 293L99.3 293.1L101.1 293.1L104.1 293.2L107.9 293.4L112.7 293.8L118.3 294.3L124.7 295L131.8 295.9L139.8 296.9L148.5 298.1L157.9 299.4L168.1 301L179.1 302.6L190.8 304.5L203.2 306.5L216.4 308.7L229.9 313.9L243.9 320.7L258.6 327.7L274 334.8L290.2 342.1L307 349.6L329.1 357.4L347.1 357.6L355.9 358.1L364.8 358.6L373.6 359.2L382.3 359.9L391.1 360.7L399.8 361.5L408.6 362.3L417.2 361.6L425.8 361L434.4 360.5L443 360L451.7 359.6L460.3 359.2L468.9 358.9L477.6 357.4L486.3 353.4L495 349.5L503.8 345.7L513.1 341.9L522.5 338.2L532 334.5L541.7 330.8L551.4 327.1L561.2 323.8L570.9 323.5L580.7 323.2L590.6 323L600.6 322.7L610.6 322.5L620.7 322.3L630.9 322.2L641.2 322L651.5 321.9L661.9 321.8L672.4 321.7L683 321.7L693.6 321.7L704.3 321.7L715.1 321.7L725.9 321.7L736.9 321.8L747.9 321.9L758.9 322L770.1 322.2L781.3 322.4L792.6 322.5L804 322.8Z" fill="url(#gb-part-diplodocus-tail)" stroke="#394a2a" stroke-width="3" stroke-linejoin="round"/><g clip-path="url(#bod-part-diplodocus-tail)"><path d="M770.1 322.4L747.8 322.2L725.9 322L704.3 322L682.9 322.1L661.9 322.3L641.1 322.6L620.7 322.9L600.5 323.4L580.7 324L561.1 324.6L541.6 331.9L522.5 339.6L503.8 347.4L486.2 355.5L468.9 361.2L451.7 361.9L434.5 362.8L417.3 364L400 363.8L382.5 362.1L365 360.7L347.3 359.5L306.7 351.3L273.8 336.2L243.7 321.7L216.3 309.4L217.4 302.5L245.3 311.8L276 322.7L309.6 334.2L345.2 340.1L363 340.1L380.8 340.4L398.5 340.9L416.1 340.6L433.7 339.6L451.3 338.9L468.9 338.4L486.5 334.9L504.3 330.1L522.9 325.5L542 321L561.5 316.8L581 316.8L600.9 316.8L621 316.9L641.5 317.1L662.2 317.5L683.2 317.9L704.5 318.4L726.1 319L748 319.7L770.2 320.5Z" fill="#475d34" opacity="0.2"/><path d="M562.9 284.1L543.8 275.3L525 266.2L506.2 257.2L487.5 248.4L468.5 242.5L449.5 242.3L430.4 242.3L411.4 242.6L392.4 244.8L373.6 249.1L354.9 253.7L336.3 258.5L321.8 262.5L285.4 266L252 270.2L221.8 273.5L195.7 270L172.6 267.2L152.4 265.1L135 263.6L120.5 262.7L108.6 262.5L99.1 263.1L90.7 264.8L80.7 275.4L86.3 289.2L88.2 287.4L83.9 276.8L91.9 268.7L99.4 267.2L108.5 266.8L120.2 267.1L134.6 268L151.9 269.6L172 271.9L195.1 274.8L221.1 278.3L250.8 277.1L283.8 275.4L319.8 274.5L337.8 272.1L356.2 268.1L374.8 264.3L393.4 260.9L412.2 258.9L431 258.5L449.8 258.4L468.6 258.5L487.3 262.8L505.9 269.3L524.6 276.1L543.5 282.9L562.6 289.6Z" fill="#b4c59f" opacity="0.26"/></g><g clip-path="url(#bod-part-diplodocus-tail)"><g fill="none" stroke="#394a2a" stroke-width="1.2" opacity="0.2"><path d="M253.2 300.4Q246.4 304.7 241.4 298.5"/><path d="M316 323.4Q310.9 326.6 307.2 321.9"/><path d="M209.8 292.3Q204.9 295.6 201.1 291"/><path d="M385.5 322.5Q379.9 328.4 373.3 323.4"/><path d="M401.3 314.2Q397.1 318.5 392.4 314.7"/><path d="M568 300.2Q562 305.2 556.4 299.7"/><path d="M437.8 290Q432.2 295.4 426.2 290.4"/><path d="M336.1 326.8Q331.1 330.6 326.8 326.1"/><path d="M519.8 320.6Q513.6 325.9 507.7 320.3"/><path d="M197.9 285.5Q193.1 288.7 189.4 284.2"/><path d="M187.7 283.9Q181.1 288.4 175.9 282.3"/><path d="M355.7 299.4Q350.5 305.1 344.4 300.5"/><path d="M225.4 288.9Q218.8 293.3 213.7 287.1"/><path d="M446 288Q441.3 292.5 436.3 288.3"/></g><g fill="none" stroke="#394a2a" stroke-linecap="round"><path d="M219.8 286.3L193.9 282.5L171 279.5L160.6 278.2L142.1 276.1L133.9 275.3L119.7 274.2L113.7 273.9L103.8 273.8L99.9 274" stroke-width="1.5" opacity="0.3"/><path d="M218.2 297.3L192.4 293.3L180.6 291.6L169.6 290L149.7 287.4L140.9 286.3L125.6 284.7L119 284.1L113.2 283.7" stroke-width="1.3" opacity="0.26"/><path d="M505.4 287.5L487.1 284.4L468.7 282.5L441 282.7L422.6 283.1L404.1 283.9L385.8 286L367.4 288.4L349.1 291.1" stroke-width="1.5" opacity="0.28"/><path d="M486.6 325.6L468.8 328.1L451.1 328.5L424.5 329.6L406.8 330.7L389 330.6L362.1 330.8L344.2 331.4L310.9 326.5" stroke-width="1.4" opacity="0.26"/><path d="M759.5 315L737.5 312.8L715.9 310.8L694.5 308.8L673.4 307L652.5 305.2L632 303.6L611.7 302L591.7 300.5" stroke-width="1.3" opacity="0.28"/><path d="M748.2 317.6L726.3 316.4L704.7 315.3L694.1 314.8L672.9 313.8L652.1 312.9L641.7 312.5L621.3 311.8L611.2 311.5" stroke-width="1.3" opacity="0.24"/><path d="M474 308.7A29.6 29.6 0 0 1 529.8 301.7" stroke-width="1.6" opacity="0.3"/><path d="M310.1 313.9A33 33 0 0 1 367.4 306.7" stroke-width="1.4" opacity="0.26"/></g></g><path d="M108 290.4L104 290.2L98.9 290.2L98.2 290.1L101.6 284.4L100.3 279L97.7 280.3" fill="none" stroke="#394a2a" stroke-width="2" opacity="0.7"/><path d="M112.9 290.8Q114.1 285.9 118.3 282.1" fill="none" stroke="#394a2a" stroke-width="1.6" opacity="0.45"/><path d="M89.4 282.9Q89.2 286.6 92.8 286.7" fill="none" stroke="#394a2a" stroke-width="1.6" opacity="0.75"/><circle cx="89" cy="279" r="3.5" fill="#fdfaef" stroke="#394a2a" stroke-width="1.5"/><circle cx="88.6" cy="279" r="2.2" fill="#c9983d"/><circle cx="88.4" cy="279" r="1.2" fill="#1c1a14"/><circle cx="87.8" cy="278" r="0.8" fill="#fdfaef" opacity="0.9"/><path d="M84.8 271.5Q82.1 276.4 82.5 283.1" fill="none" stroke="#394a2a" stroke-width="2.2" stroke-linecap="round"/><path d="M487.3 298.6L486.8 305.2L485.2 314.2L483.1 325.5L480.7 337.9L478.5 350.9L476.9 363.8L476.4 376.1L477.4 387.6L480.7 398L486.2 406.5L492.4 413L498.7 418L504.4 422.1L509 425.4L511.9 427.8L513.4 429.4L513 431.4L511.7 434.2L509.5 437.6L506.6 441.2L503.3 444.8L500 448.2L496.9 451.4L494.6 454L511.4 466L512.6 463.8L514.7 460.8L517.7 456.7L521.1 452L524.4 446.6L527.2 440.7L528.9 434L528.6 426.6L526.5 419.2L522.5 412.9L517.9 407.5L513.3 402.4L509.2 397.4L506.3 392.8L504.8 388.7L504.6 384.7L505.8 378.4L508.2 369.3L511.5 358.6L515.5 347.3L519.8 336L524 325.6L527.8 316.6L530.7 309.9Z" fill="url(#gl-part-diplodocus-tail)" stroke="#394a2a" stroke-width="2.4"/><ellipse cx="501" cy="464" rx="26.8" ry="7" fill="url(#gl-part-diplodocus-tail)" stroke="#394a2a" stroke-width="2"/><path d="M493 459.5L491.4 466.1M504.2 459.5L502.6 466.1" fill="none" stroke="#394a2a" stroke-width="1.2" opacity="0.45"/><path d="M476.2 462L464.2 468L480.2 469Z" fill="url(#gl-part-diplodocus-tail)" stroke="#394a2a" stroke-width="1.5"/><path d="M323.7 317.5L324.1 323.5L324.5 331.5L324.8 340.9L325.1 351.4L325.3 362.3L325.4 373.3L325.5 383.8L325.5 393.3L325.2 402.5L324.6 412.3L323.9 422.1L323.2 431.8L322.6 440.9L322 449L321.5 455.9L321.3 461.2L336.2 462.8L337.1 457.7L338.2 450.9L339.5 442.8L340.8 433.7L342.2 424L343.6 414.1L344.8 404.2L345.9 394.7L347.1 385L348.2 374.3L349.3 363.2L350.2 352.2L351.2 341.7L352.1 332.3L352.9 324.4L353.7 318.6Z" fill="url(#gl-part-diplodocus-tail)" stroke="#394a2a" stroke-width="2.4"/><ellipse cx="326.7" cy="465" rx="19.5" ry="6" fill="url(#gl-part-diplodocus-tail)" stroke="#394a2a" stroke-width="2"/><path d="M320.9 461.1L319.3 466.8M329.1 461.1L327.5 466.8" fill="none" stroke="#394a2a" stroke-width="1.2" opacity="0.45"/></svg>