<svg xmlns="http://www.w3.org/2000/svg" viewBox="458.9 241.8 296 144.9" role="img" aria-label="Iguanodon tail"><path d="M513.3 292.6L512.8 299.2L511.2 308.2L509.1 319.5L506.7 331.9L504.5 344.9L502.9 357.8L502.4 370.1L503.4 381.6L506.7 392L512.2 400.5L518.4 407L524.7 412L530.4 416.1L535 419.4L537.9 421.8L539.4 423.4L539 425.4L537.7 428.2L535.5 431.6L532.6 435.2L529.3 438.8L526 442.2L522.9 445.4L520.6 448L537.4 460L538.6 457.8L540.7 454.8L543.7 450.7L547.1 446L550.4 440.6L553.2 434.7L554.9 428L554.6 420.6L552.5 413.2L548.5 406.9L543.9 401.5L539.3 396.4L535.2 391.4L532.3 386.8L530.8 382.7L530.6 378.7L531.8 372.4L534.2 363.3L537.5 352.6L541.5 341.3L545.8 330L550 319.6L553.8 310.6L556.7 303.9Z" fill="#486035" stroke="#3e512d" stroke-width="2"/><ellipse cx="527" cy="461" rx="25.8" ry="6.5" fill="#486035" stroke="#3e512d" stroke-width="2"/><path d="M369.8 274.9L370 281.8L370.2 291L370.3 301.9L370.5 314L370.5 326.7L370.5 339.5L370.4 351.8L370.3 363L369.8 373.8L369.2 385.3L368.4 397L367.6 408.4L366.8 419.2L366.1 428.8L365.6 436.9L365.3 443.1L376.2 444.1L377 438L378.1 430L379.2 420.4L380.5 409.6L381.8 398.2L383.1 386.5L384.2 374.9L385.2 363.8L386.2 352.5L387.2 340.2L388.1 327.3L388.9 314.5L389.7 302.4L390.4 291.5L391.1 282.3L391.7 275.5Z" fill="#486035" stroke="#3e512d" stroke-width="2"/><ellipse cx="368.7" cy="462" rx="14.9" ry="5.5" fill="#486035" stroke="#3e512d" stroke-width="2"/><defs><clipPath id="bod-part-iguanodon-tail"><path d="M729.1 349.9L721 346.3L712.8 342.8L704.8 339.4L696.7 336L688.7 332.7L680.7 329.4L672.8 326.2L664.9 323.1L657.1 320.1L649.3 317.1L641.5 314.1L633.8 311.3L626.1 308.5L618.5 305.7L610.9 303.1L603.3 300.4L595.8 297.9L588.3 295.4L580.8 293L573.4 290.6L566 288.4L558.7 286.1L551.4 284L544.4 280.1L537.4 276L530.5 272L523.5 268.1L516.5 264.2L514.1 261.2L509.9 256.6L502 251.1L493.9 245.7L485.4 242.2L476.5 239.8L467.7 237.4L458.8 235.2L450 233.1L441.1 231.1L432.2 229.2L423.3 227.5L414.2 227.4L405 227.5L396 227.7L386.9 228L377.9 228.5L368.9 229.1L360 229.9L362.8 233L368.2 238.3L360.5 236.7L352.9 235.3L345.5 234.3L338.2 233.5L331.1 233L324.8 231.8L319.9 228.7L315 225.8L310.1 223.1L305.2 220.6L300.4 218.4L295.5 216.3L290.7 214.5L285.8 212.9L281 211.5L276 210.9L271.1 211.1L266.2 211.7L261.5 212.5L256.9 213.6L252.5 215L248.2 216.6L244.2 218.5L240.3 220.6L236.7 222.9L233.3 225.5L230.1 228.2L227.4 231L236.6 246.4L239.8 245.6L242.7 245.3L245.5 245.1L248.2 245.2L250.9 245.5L253.5 245.9L256.1 246.5L258.7 247.3L261.2 248.2L263.8 249.3L266.4 250.5L269 251.9L271.8 252.8L274.8 253.4L278 254.2L281.4 255.1L284.9 256.3L288.6 257.7L292.4 259.3L296.3 261.1L300.4 263.1L304.5 265.4L307.5 269.9L309.9 275.6L312.2 281.4L314.5 287.4L316.8 293.5L319.1 299.7L334.7 313.3L354 317.5L361.5 319.5L368.9 321.6L376.4 323.7L383.8 326L391.1 328.4L398.5 330.9L405.8 333.4L413.3 334.5L420.9 335.7L428.5 337L436 338.4L443.6 339.9L451.2 341.5L458.8 343.2L466.7 344.2L475.2 343.5L483.7 342.9L495.9 343.4L507.4 341.9L514.4 339.8L521.6 337.7L528.9 335.7L536.3 333.8L543.7 332.1L551 332.3L558.3 332.6L565.7 333L573.1 333.4L580.7 333.9L588.3 334.5L595.9 335.1L603.7 335.8L611.5 336.6L619.3 337.4L627.3 338.3L635.3 339.3L643.4 340.3L651.5 341.5L659.7 342.6L668 343.9L676.3 345.2L684.7 346.6L693.2 348.1L701.7 349.6L710.3 351.2L718.9 352.9L727.6 354.6Z"/></clipPath></defs><path d="M729.1 349.9L721 346.3L712.8 342.8L704.8 339.4L696.7 336L688.7 332.7L680.7 329.4L672.8 326.2L664.9 323.1L657.1 320.1L649.3 317.1L641.5 314.1L633.8 311.3L626.1 308.5L618.5 305.7L610.9 303.1L603.3 300.4L595.8 297.9L588.3 295.4L580.8 293L573.4 290.6L566 288.4L558.7 286.1L551.4 284L544.4 280.1L537.4 276L530.5 272L523.5 268.1L516.5 264.2L514.1 261.2L509.9 256.6L502 251.1L493.9 245.7L485.4 242.2L476.5 239.8L467.7 237.4L458.8 235.2L450 233.1L441.1 231.1L432.2 229.2L423.3 227.5L414.2 227.4L405 227.5L396 227.7L386.9 228L377.9 228.5L368.9 229.1L360 229.9L362.8 233L368.2 238.3L360.5 236.7L352.9 235.3L345.5 234.3L338.2 233.5L331.1 233L324.8 231.8L319.9 228.7L315 225.8L310.1 223.1L305.2 220.6L300.4 218.4L295.5 216.3L290.7 214.5L285.8 212.9L281 211.5L276 210.9L271.1 211.1L266.2 211.7L261.5 212.5L256.9 213.6L252.5 215L248.2 216.6L244.2 218.5L240.3 220.6L236.7 222.9L233.3 225.5L230.1 228.2L227.4 231L236.6 246.4L239.8 245.6L242.7 245.3L245.5 245.1L248.2 245.2L250.9 245.5L253.5 245.9L256.1 246.5L258.7 247.3L261.2 248.2L263.8 249.3L266.4 250.5L269 251.9L271.8 252.8L274.8 253.4L278 254.2L281.4 255.1L284.9 256.3L288.6 257.7L292.4 259.3L296.3 261.1L300.4 263.1L304.5 265.4L307.5 269.9L309.9 275.6L312.2 281.4L314.5 287.4L316.8 293.5L319.1 299.7L334.7 313.3L354 317.5L361.5 319.5L368.9 321.6L376.4 323.7L383.8 326L391.1 328.4L398.5 330.9L405.8 333.4L413.3 334.5L420.9 335.7L428.5 337L436 338.4L443.6 339.9L451.2 341.5L458.8 343.2L466.7 344.2L475.2 343.5L483.7 342.9L495.9 343.4L507.4 341.9L514.4 339.8L521.6 337.7L528.9 335.7L536.3 333.8L543.7 332.1L551 332.3L558.3 332.6L565.7 333L573.1 333.4L580.7 333.9L588.3 334.5L595.9 335.1L603.7 335.8L611.5 336.6L619.3 337.4L627.3 338.3L635.3 339.3L643.4 340.3L651.5 341.5L659.7 342.6L668 343.9L676.3 345.2L684.7 346.6L693.2 348.1L701.7 349.6L710.3 351.2L718.9 352.9L727.6 354.6Z" fill="#6b8f4e" stroke="#394a2a" stroke-width="2.5" stroke-linejoin="round"/><path d="M264 246.3L261.2 245.2L255.8 243.5L253 243L247.3 242.3L244.4 242.3L238.3 243" fill="none" stroke="#394a2a" stroke-width="2" opacity="0.7"/><circle cx="269.5" cy="224.5" r="4.4" fill="#fdfaef" stroke="#394a2a" stroke-width="1.5"/><circle cx="268.4" cy="224.5" r="2" fill="#1c1a14"/><path d="M487.3 298.6L486.8 305.2L485.2 314.2L483.1 325.5L480.7 337.9L478.5 350.9L476.9 363.8L476.4 376.1L477.4 387.6L480.7 398L486.2 406.5L492.4 413L498.7 418L504.4 422.1L509 425.4L511.9 427.8L513.4 429.4L513 431.4L511.7 434.2L509.5 437.6L506.6 441.2L503.3 444.8L500 448.2L496.9 451.4L494.6 454L511.4 466L512.6 463.8L514.7 460.8L517.7 456.7L521.1 452L524.4 446.6L527.2 440.7L528.9 434L528.6 426.6L526.5 419.2L522.5 412.9L517.9 407.5L513.3 402.4L509.2 397.4L506.3 392.8L504.8 388.7L504.6 384.7L505.8 378.4L508.2 369.3L511.5 358.6L515.5 347.3L519.8 336L524 325.6L527.8 316.6L530.7 309.9Z" fill="#5e7e45" stroke="#394a2a" stroke-width="2"/><ellipse cx="501" cy="464" rx="26.8" ry="7" fill="#5e7e45" stroke="#394a2a" stroke-width="2"/><path d="M476.2 462L464.2 468L480.2 469Z" fill="#5e7e45" stroke="#394a2a" stroke-width="1.5"/><path d="M343.8 280.9L344 287.8L344.2 297L344.3 307.9L344.5 320L344.5 332.7L344.5 345.5L344.4 357.8L344.3 369L343.8 379.8L343.2 391.3L342.4 403L341.6 414.4L340.8 425.2L340.1 434.8L339.6 442.9L339.3 449.1L350.2 450.1L351 444L352.1 436L353.2 426.4L354.5 415.6L355.8 404.2L357.1 392.5L358.2 380.9L359.2 369.8L360.2 358.5L361.2 346.2L362.1 333.3L362.9 320.5L363.7 308.4L364.4 297.5L365.1 288.3L365.7 281.5Z" fill="#5e7e45" stroke="#394a2a" stroke-width="2"/><ellipse cx="342.7" cy="465" rx="15.9" ry="6" fill="#5e7e45" stroke="#394a2a" stroke-width="2"/></svg>