<svg xmlns="http://www.w3.org/2000/svg" viewBox="459.4 266.9 241.6 168" role="img" aria-label="Triceratops tail"><defs><clipPath id="bod-part-triceratops-tail"><path d="M675.9 398.3L669.8 393.6L663.8 389L657.8 384.5L651.8 380.1L645.8 375.7L639.9 371.5L634 367.4L628.1 363.4L622.3 359.5L616.4 355.6L610.6 351.9L604.9 348.3L599.1 344.7L593.4 341.3L587.7 338L582 334.7L576.3 331.6L570.7 328.5L565.1 325.6L559.5 322.7L553.9 319.9L548.3 317.3L542.8 314.7L538 309.6L533.3 304.3L528.6 299.1L523.7 293.9L518.7 288.8L509.6 283.1L499.1 278.9L491.8 275L484.4 271.2L476.9 269.8L469.4 269.7L462 269.6L454.5 269.6L447 269.7L439.5 269.9L432 270.1L424.5 270.4L417.2 272.3L409.8 274.4L402.5 276.5L395.2 278.7L388 280.9L380.7 283.3L373.6 285.7L371.6 287.7L380 290.9L375.7 292.7L371.5 294.7L367.3 296.8L363.3 298.9L359.3 301.1L355.5 302.4L352 301.5L345.5 298.5L339.5 296.1L334.2 294.2L329.5 292.9L325.4 292.2L321.9 292L318.8 291.6L315.9 291.8L313.3 292.4L310.9 293.6L308.7 295.3L306.8 297.5L305 300.5L303 303.5L300.9 306.4L298.7 309.2L296.3 311.8L293.8 314.4L290.5 316.1L287.3 317.7L284.3 319.4L281.6 320.9L279 322.5L276.6 324L274.5 325.2L272.8 326.4L271.5 327.5L270.7 328.7L270.2 329.9L270.1 331.2L271 333.6L272.1 335.7L273.4 337.6L275 339.2L276.7 340.5L278.7 341.5L283.5 343.8L288.6 345.9L293.7 347.7L299 349.3L304.5 350.6L310 351.6L316.8 352.4L322.6 352.8L327.5 353.1L331.5 353.2L334.4 353L336.5 352.6L337.4 352.4L338.6 352L340.1 351.5L341.9 351L344 350.4L346.3 349.6L346.3 349.6L349.1 349.6L351.4 351.7L353.4 354.9L355.3 358.2L357 361.5L358.6 364.7L360 368L373.9 372.7L385.9 372.7L392.7 373.2L399.3 373.7L406 374.3L412.6 375L419.3 375.8L425.8 376.6L432.4 377.5L438.8 376.8L445.2 376.2L451.7 375.7L458.1 375.2L464.5 374.8L471 374.5L477.4 374.2L483.9 372.8L490.4 369.2L497 365.6L500.4 361.8L501.8 358.6L507.5 356.1L513.4 353.8L519.4 351.7L525.6 349.7L531.8 348.1L537.3 349.2L542.9 350.5L548.5 351.9L554.2 353.4L559.9 354.9L565.7 356.7L571.6 358.5L577.5 360.4L583.5 362.4L589.6 364.6L595.7 366.8L601.8 369.2L608.1 371.7L614.3 374.2L620.7 376.9L627 379.7L633.5 382.7L640 385.7L646.5 388.8L653.1 392.1L659.7 395.4L666.4 398.9L673.2 402.5Z"/></clipPath><linearGradient id="gb-part-triceratops-tail" x1="0" y1="0" x2="0" y2="1"><stop offset="0" stop-color="#82a068"/><stop offset="0.55" stop-color="#6b8f4e"/><stop offset="1" stop-color="#536f3d"/></linearGradient><linearGradient id="gl-part-triceratops-tail" x1="0" y1="0" x2="0" y2="1"><stop offset="0" stop-color="#698d4d"/><stop offset="0.55" stop-color="#5e7e45"/><stop offset="1" stop-color="#526c3c"/></linearGradient><linearGradient id="gf-part-triceratops-tail" x1="0" y1="0" x2="0" y2="1"><stop offset="0" stop-color="#628347"/><stop offset="0.55" stop-color="#597641"/><stop offset="1" stop-color="#506a3a"/></linearGradient><linearGradient id="sc-part-triceratops-tail" x1="0" y1="0" x2="0" y2="1"><stop offset="0" stop-color="#e1b768"/><stop offset="0.55" stop-color="#d9a441"/><stop offset="1" stop-color="#b18736"/></linearGradient><linearGradient id="bn-part-triceratops-tail" x1="0" y1="0" x2="0" y2="1"><stop offset="0" stop-color="#eee7d1"/><stop offset="0.55" stop-color="#e6dcc0"/><stop offset="1" stop-color="#c4bca3"/></linearGradient></defs><path d="M518 304L517.3 309.3L515.4 316.7L512.5 325.9L509.4 336.2L506.4 347.1L504 358L502.8 368.7L503.5 379.2L506.2 388.8L511.2 396.6L517.1 402.9L523.1 408L528.7 412.5L533.4 416.3L536.6 419.3L538.1 421.5L538 423.8L537 426.9L535.2 430.6L532.6 434.4L529.7 438.2L526.8 441.7L524.1 445L522.2 447.6L535.8 456.4L537 454.2L539.1 451.3L542 447.4L545.1 442.8L548.2 437.6L550.7 431.9L552.2 425.5L551.9 418.5L549.6 411.5L545.5 405.4L540.8 399.9L535.9 394.6L531.6 389.5L528.4 384.8L526.7 380.8L526.5 377.7L528.4 373.1L531.5 366.4L535.8 358.4L540.9 349.9L546.2 341.6L551.5 333.8L556.3 327L560 321.9Z" fill="url(#gf-part-triceratops-tail)" stroke="#455b32" stroke-width="1.8"/><path d="M533 457.8L517.2 463.7Q514.7 467 518.6 468.3L535 464.2Z" fill="url(#gf-part-triceratops-tail)" stroke="#455b32" stroke-width="1.5" stroke-linejoin="round"/><path d="M517.4 464.5L513.6 467.3L518.4 467.5Z" fill="#455b32"/><path d="M529.9 455.4L510.7 462.5Q508 466.1 512.3 467.5L532.1 462.6Z" fill="url(#gf-part-triceratops-tail)" stroke="#455b32" stroke-width="1.5" stroke-linejoin="round"/><path d="M511 463.5L507.2 466.3L512 466.5Z" fill="#455b32"/><path d="M534.6 464.6L541.3 467.4Q545.1 467 543.5 463.6L537.4 459.4Z" fill="url(#gf-part-triceratops-tail)" stroke="#455b32" stroke-width="1.5" stroke-linejoin="round"/><path d="M541.6 466.9L546.4 467.7L543.2 464.1Z" fill="#455b32"/><path d="M420.4 325.5L419.7 330.7L419.3 337.7L418.9 346.2L418.5 355.7L418.1 365.7L417.5 375.8L416.6 385.6L415.3 394.7L414.2 403.5L412.6 412.7L410.7 421.9L408.7 430.8L406.6 439.1L404.7 446.5L403.1 452.6L401.9 457.2L389.7 454.8L390.3 449.9L391.4 443.6L392.7 436.1L394.1 427.8L395.6 419.1L396.8 410.2L397.7 401.6L398.2 393.5L397.7 385.2L396.8 376.1L395.7 366.5L394.4 356.9L393 347.7L391.6 339.4L390.3 332.3L389.2 326.9Z" fill="url(#gf-part-triceratops-tail)" stroke="#455b32" stroke-width="1.8"/><ellipse cx="392.8" cy="462" rx="16.7" ry="5.5" fill="url(#gf-part-triceratops-tail)" stroke="#455b32" stroke-width="2"/><path d="M387.8 458.4L386.2 463.7M394.8 458.4L393.2 463.7" fill="none" stroke="#455b32" stroke-width="1.2" opacity="0.45"/><g transform="rotate(-24 359.7 319)"><ellipse cx="359.7" cy="319" rx="48.8" ry="66" fill="url(#sc-part-triceratops-tail)" stroke="#93712e" stroke-width="2.2"/><circle cx="311.4" cy="328.2" r="3" fill="#d9a441" stroke="#93712e" stroke-width="1.2"/><circle cx="313.8" cy="296.5" r="4.1" fill="#d9a441" stroke="#93712e" stroke-width="1.2"/><circle cx="327.1" cy="270" r="1.9" fill="#d9a441" stroke="#93712e" stroke-width="1.2"/><circle cx="347.9" cy="255" r="3" fill="#d9a441" stroke="#93712e" stroke-width="1.2"/><circle cx="371.6" cy="255" r="4.1" fill="#d9a441" stroke="#93712e" stroke-width="1.2"/><circle cx="392.4" cy="270" r="1.9" fill="#d9a441" stroke="#93712e" stroke-width="1.2"/><circle cx="405.6" cy="296.5" r="3" fill="#d9a441" stroke="#93712e" stroke-width="1.2"/><circle cx="408.1" cy="328.2" r="4.1" fill="#d9a441" stroke="#93712e" stroke-width="1.2"/><ellipse cx="359.7" cy="319" rx="29" ry="40.9" fill="#bf913a"/><path d="M347.9 310.9L321.8 294.2" stroke="#997530" stroke-width="1.6" opacity="0.4"/><path d="M352.7 303.4L337.4 270.9" stroke="#997530" stroke-width="1.6" opacity="0.4"/><path d="M359.7 300.6L359.7 262.3" stroke="#997530" stroke-width="1.6" opacity="0.4"/><path d="M366.7 303.4L382.1 270.9" stroke="#997530" stroke-width="1.6" opacity="0.4"/><path d="M371.6 310.9L397.7 294.2" stroke="#997530" stroke-width="1.6" opacity="0.4"/></g><path d="M326.9 294.1Q323.3 263.3 293.8 234.7Q313.4 264.2 312.9 295.3Z" fill="url(#bn-part-triceratops-tail)" stroke="#8a7a52" stroke-width="1.5" stroke-linejoin="round"/><path d="M320.8 280.8Q314 281.1 309.1 285.9" fill="none" stroke="#8a7a52" stroke-width="1.1" opacity="0.5"/><path d="M316 272.1Q310 272 306 276.4" fill="none" stroke="#8a7a52" stroke-width="1.1" opacity="0.5"/><path d="M340.7 296.4Q337.7 272.6 316.3 250.3Q327.7 273.4 326.7 297.6Z" fill="url(#bn-part-triceratops-tail)" stroke="#8a7a52" stroke-width="1.5" stroke-linejoin="round"/><path d="M336.3 285.8Q329.5 285.8 324.3 290.2" fill="none" stroke="#8a7a52" stroke-width="1.1" opacity="0.5"/><path d="M332.8 278.9Q326.8 278.6 322.6 282.7" fill="none" stroke="#8a7a52" stroke-width="1.1" opacity="0.5"/><path d="M297.6 318.6Q295.7 307.7 285.5 297.5Q285.7 308.5 283.6 319.7Z" fill="url(#bn-part-triceratops-tail)" stroke="#8a7a52" stroke-width="1.5" stroke-linejoin="round"/><path d="M295.8 313.4Q289 312.5 283.4 316.3" fill="none" stroke="#8a7a52" stroke-width="1.1" opacity="0.5"/><path d="M675.9 398.3L669.8 393.6L663.8 389L657.8 384.5L651.8 380.1L645.8 375.7L639.9 371.5L634 367.4L628.1 363.4L622.3 359.5L616.4 355.6L610.6 351.9L604.9 348.3L599.1 344.7L593.4 341.3L587.7 338L582 334.7L576.3 331.6L570.7 328.5L565.1 325.6L559.5 322.7L553.9 319.9L548.3 317.3L542.8 314.7L538 309.6L533.3 304.3L528.6 299.1L523.7 293.9L518.7 288.8L509.6 283.1L499.1 278.9L491.8 275L484.4 271.2L476.9 269.8L469.4 269.7L462 269.6L454.5 269.6L447 269.7L439.5 269.9L432 270.1L424.5 270.4L417.2 272.3L409.8 274.4L402.5 276.5L395.2 278.7L388 280.9L380.7 283.3L373.6 285.7L371.6 287.7L380 290.9L375.7 292.7L371.5 294.7L367.3 296.8L363.3 298.9L359.3 301.1L355.5 302.4L352 301.5L345.5 298.5L339.5 296.1L334.2 294.2L329.5 292.9L325.4 292.2L321.9 292L318.8 291.6L315.9 291.8L313.3 292.4L310.9 293.6L308.7 295.3L306.8 297.5L305 300.5L303 303.5L300.9 306.4L298.7 309.2L296.3 311.8L293.8 314.4L290.5 316.1L287.3 317.7L284.3 319.4L281.6 320.9L279 322.5L276.6 324L274.5 325.2L272.8 326.4L271.5 327.5L270.7 328.7L270.2 329.9L270.1 331.2L271 333.6L272.1 335.7L273.4 337.6L275 339.2L276.7 340.5L278.7 341.5L283.5 343.8L288.6 345.9L293.7 347.7L299 349.3L304.5 350.6L310 351.6L316.8 352.4L322.6 352.8L327.5 353.1L331.5 353.2L334.4 353L336.5 352.6L337.4 352.4L338.6 352L340.1 351.5L341.9 351L344 350.4L346.3 349.6L346.3 349.6L349.1 349.6L351.4 351.7L353.4 354.9L355.3 358.2L357 361.5L358.6 364.7L360 368L373.9 372.7L385.9 372.7L392.7 373.2L399.3 373.7L406 374.3L412.6 375L419.3 375.8L425.8 376.6L432.4 377.5L438.8 376.8L445.2 376.2L451.7 375.7L458.1 375.2L464.5 374.8L471 374.5L477.4 374.2L483.9 372.8L490.4 369.2L497 365.6L500.4 361.8L501.8 358.6L507.5 356.1L513.4 353.8L519.4 351.7L525.6 349.7L531.8 348.1L537.3 349.2L542.9 350.5L548.5 351.9L554.2 353.4L559.9 354.9L565.7 356.7L571.6 358.5L577.5 360.4L583.5 362.4L589.6 364.6L595.7 366.8L601.8 369.2L608.1 371.7L614.3 374.2L620.7 376.9L627 379.7L633.5 382.7L640 385.7L646.5 388.8L653.1 392.1L659.7 395.4L666.4 398.9L673.2 402.5Z" fill="url(#gb-part-triceratops-tail)" stroke="#394a2a" stroke-width="3" stroke-linejoin="round"/><g clip-path="url(#bod-part-triceratops-tail)"><path d="M653 392.2L639.8 385.9L626.9 380L614.2 374.5L601.7 369.5L589.4 365L577.3 360.8L565.5 357.2L554 353.9L542.7 351.1L531.6 348.7L519.1 352.6L507.2 357.4L500.2 363.4L490.3 371.1L477.4 376.3L464.6 376.9L451.8 377.8L438.9 378.9L426 378.7L412.9 377L399.6 375.6L386.2 374.4L359.6 369.6L356.8 362.8L353.3 356.1L348.9 350.5L350.2 341.1L355.2 344.9L359.6 349.4L363.6 354.1L383.7 357L397.3 357L410.8 357.3L424.3 357.9L437.6 357.6L450.8 356.6L464.1 355.9L477.3 355.4L490.6 352.2L502 347.6L510.4 344.9L521.9 343.2L533.8 342.1L544.9 345L556.1 348.4L567.6 352.1L579.4 356.3L591.3 361L603.4 366.1L615.8 371.6L628.3 377.5L641 383.9L653.9 390.7Z" fill="#475d34" opacity="0.2"/><path d="M543 314.1L538.3 308.8L528.9 298L524 292.6L519.1 287.4L499.2 277.2L491.8 273.1L484.4 269.2L476.9 267.7L461.9 267.5L454.4 267.5L446.9 267.6L431.9 267.9L424.4 268.2L417 270.2L402.3 274.5L395 276.8L387.7 279.1L380.5 281.5L371.6 286L380.4 289.3L376.1 291.3L367.6 295.5L363.5 297.8L359.4 300.1L352.1 300.6L348.6 299.7L347.9 306.6L351.3 307.3L358.3 307.2L362.1 305.6L365.9 304.1L373.7 301.4L377.6 300.1L371.9 297.9L382.2 294.1L389.3 292.1L396.5 290.2L403.7 288.3L418.2 284.8L425.5 283.2L432.8 282.9L447.6 282.4L454.9 282.3L462.3 282.2L477 282.3L484.3 283.4L491.6 286.3L498.9 289.3L516.7 297.2L521.8 301.4L526.7 305.6L536.6 314.4L541.5 318.7Z" fill="#b4c59f" opacity="0.26"/></g><g clip-path="url(#bod-part-triceratops-tail)"><g fill="none" stroke="#394a2a" stroke-width="1.2" opacity="0.2"><path d="M361.7 331.6Q357 334.5 353.7 330.2"/><path d="M369.2 344.4Q365.6 346.2 363.4 342.9"/><path d="M351.7 329.1Q348.5 331.3 345.9 328.4"/><path d="M413.4 341.1Q409.6 345.2 405 341.9"/><path d="M425.2 333.5Q422.5 336.4 419.3 333.9"/><path d="M542.3 328.9Q537.4 331.1 534.7 326.4"/><path d="M452.8 311.2Q449 315 444.9 311.6"/><path d="M376.3 344.8Q373.3 347.7 370.1 345"/><path d="M510.5 340.5Q505.6 343.1 502.4 338.5"/><path d="M349.2 321.5Q346.2 323.8 343.6 321"/><path d="M347.2 321.1Q342.9 324.4 339.1 320.4"/><path d="M389.6 320.4Q386.2 324.4 381.9 321.5"/><path d="M356.9 321.9Q352.4 324.9 348.9 320.8"/><path d="M459.1 309.4Q455.9 312.4 452.6 309.6"/><path d="M459.9 332.6Q456.7 335.6 453.4 332.8"/><path d="M444.7 299.8Q441.3 303.2 437.6 300.2"/><path d="M348.9 335.9Q344.6 339.1 341 335.1"/><path d="M552.2 336.9Q547 339 544.4 334.1"/><path d="M366.8 317.9Q362.7 320.3 359.9 316.5"/><path d="M509.3 317.3Q505.3 320.2 502 316.4"/><path d="M370.6 319.3Q365.5 322.3 362.1 317.5"/><path d="M540 333.3Q536.1 335 534 331.3"/></g><g fill="none" stroke="#394a2a" stroke-linecap="round"><path d="M353.2 318.9L346.7 317.9L340.1 317.1L336.7 316.8L329.7 316.7L326.1 317.1L319 318.1L315.4 318.6L308 319.9L304.3 320.6" stroke-width="1.5" opacity="0.3"/><path d="M351.2 334L345.2 333.6L342.1 333.4L339 333.3L332.6 333.3L329.4 332.9L322.8 331.9L319.4 331.5L315.9 331.1" stroke-width="1.3" opacity="0.26"/><path d="M506.6 309.1L491.3 306.1L477.1 304.3L455.7 304.5L441.4 305L427.1 305.7L412.9 307.8L398.8 310.3L384.7 312.9" stroke-width="1.5" opacity="0.28"/><path d="M490.8 343.7L477.3 346L463.8 346.4L443.7 347.5L430.3 348.5L416.7 348.4L396.3 348.7L382.6 349.2L365.4 347.2" stroke-width="1.4" opacity="0.26"/><path d="M649.9 383.1L637.6 375.4L625.5 368.1L613.5 361.2L601.7 354.8L589.9 348.7L578.4 343L566.9 337.8L555.6 332.9" stroke-width="1.3" opacity="0.28"/><path d="M642 382.2L629.5 375.4L617.1 369.1L611 366.1L598.9 360.3L587 355L581.1 352.5L569.5 347.9L563.7 345.7" stroke-width="1.3" opacity="0.24"/><path d="M480.3 330.1A23.1 23.1 0 0 1 523.9 324.6" stroke-width="1.6" opacity="0.3"/><path d="M353.5 335.4A29.4 29.4 0 0 1 404.6 328.9" stroke-width="1.4" opacity="0.26"/></g></g><path d="M272.5 334.5L274 335.7L275.8 336.5L277.9 337L280.1 337.2L286.4 337.6L292.6 338.2L298.5 338.9L304.3 339.7L309.8 340.6L315.2 341.7" fill="none" stroke="#394a2a" stroke-width="2" opacity="0.65"/><path d="M314.2 341.8Q316.3 337.1 319.5 332.8" fill="none" stroke="#394a2a" stroke-width="1.6" opacity="0.45"/><path d="M284 323.1Q281.2 320.8 278.8 323.6" fill="none" stroke="#394a2a" stroke-width="1.6" opacity="0.75"/><ellipse cx="311.2" cy="318.2" rx="11.6" ry="8.7" fill="#394a2a" opacity="0.1"/><circle cx="310.3" cy="318.3" r="5.8" fill="#fdfaef" stroke="#394a2a" stroke-width="1.5"/><circle cx="309.6" cy="318.3" r="3.6" fill="#c9983d"/><circle cx="309.3" cy="318.3" r="2" fill="#1c1a14"/><circle cx="308.3" cy="316.6" r="0.9" fill="#fdfaef" opacity="0.9"/><path d="M318 306.1Q308.6 304.8 298.7 312" fill="none" stroke="#394a2a" stroke-width="2.2" stroke-linecap="round"/><path d="M492 310L491.3 315.3L489.4 322.7L486.5 331.9L483.4 342.2L480.4 353.1L478 364L476.8 374.7L477.5 385.2L480.2 394.8L485.2 402.6L491.1 408.9L497.1 414L502.7 418.5L507.4 422.3L510.6 425.3L512.1 427.5L512 429.8L511 432.9L509.2 436.6L506.6 440.4L503.7 444.2L500.8 447.7L498.1 451L496.2 453.6L509.8 462.4L511 460.2L513.1 457.3L516 453.4L519.1 448.8L522.2 443.6L524.7 437.9L526.2 431.5L525.9 424.5L523.6 417.5L519.5 411.4L514.8 405.9L509.9 400.6L505.6 395.5L502.4 390.8L500.7 386.8L500.5 383.7L502.4 379.1L505.5 372.4L509.8 364.4L514.9 355.9L520.2 347.6L525.5 339.8L530.3 333L534 327.9Z" fill="url(#gl-part-triceratops-tail)" stroke="#394a2a" stroke-width="2.4"/><g clip-path="url(#bod-part-triceratops-tail)"><path d="M492 310L491.3 315.3L489.4 322.7L486.5 331.9L483.4 342.2L480.4 353.1L478 364L476.8 374.7L477.5 385.2L480.2 394.8L485.2 402.6L491.1 408.9L497.1 414L502.7 418.5L507.4 422.3L510.6 425.3L512.1 427.5L512 429.8L511 432.9L509.2 436.6L506.6 440.4L503.7 444.2L500.8 447.7L498.1 451L496.2 453.6L509.8 462.4L511 460.2L513.1 457.3L516 453.4L519.1 448.8L522.2 443.6L524.7 437.9L526.2 431.5L525.9 424.5L523.6 417.5L519.5 411.4L514.8 405.9L509.9 400.6L505.6 395.5L502.4 390.8L500.7 386.8L500.5 383.7L502.4 379.1L505.5 372.4L509.8 364.4L514.9 355.9L520.2 347.6L525.5 339.8L530.3 333L534 327.9Z" fill="url(#gl-part-triceratops-tail)"/></g><path d="M507 460.8L491.2 466.7Q488.7 470 492.6 471.3L509 467.2Z" fill="url(#gl-part-triceratops-tail)" stroke="#394a2a" stroke-width="1.5" stroke-linejoin="round"/><path d="M491.4 467.5L487.6 470.3L492.4 470.5Z" fill="#394a2a"/><path d="M503.9 458.4L484.7 465.5Q482 469.1 486.3 470.5L506.1 465.6Z" fill="url(#gl-part-triceratops-tail)" stroke="#394a2a" stroke-width="1.5" stroke-linejoin="round"/><path d="M485 466.5L481.2 469.3L486 469.5Z" fill="#394a2a"/><path d="M508.6 467.6L515.3 470.4Q519.1 470 517.5 466.6L511.4 462.4Z" fill="url(#gl-part-triceratops-tail)" stroke="#394a2a" stroke-width="1.5" stroke-linejoin="round"/><path d="M515.6 469.9L520.4 470.7L517.2 467.1Z" fill="#394a2a"/><path d="M394.4 331.5L393.7 336.7L393.3 343.7L392.9 352.2L392.5 361.7L392.1 371.7L391.5 381.8L390.6 391.6L389.3 400.7L388.2 409.5L386.6 418.7L384.7 427.9L382.7 436.8L380.6 445.1L378.7 452.5L377.1 458.6L375.9 463.2L363.7 460.8L364.3 455.9L365.4 449.6L366.7 442.1L368.1 433.8L369.6 425.1L370.8 416.2L371.7 407.6L372.2 399.5L371.7 391.2L370.8 382.1L369.7 372.5L368.4 362.9L367 353.7L365.6 345.4L364.3 338.3L363.2 332.9Z" fill="url(#gl-part-triceratops-tail)" stroke="#394a2a" stroke-width="2.4"/><g clip-path="url(#bod-part-triceratops-tail)"><path d="M394.4 331.5L393.7 336.7L393.3 343.7L392.9 352.2L392.5 361.7L392.1 371.7L391.5 381.8L390.6 391.6L389.3 400.7L388.2 409.5L386.6 418.7L384.7 427.9L382.7 436.8L380.6 445.1L378.7 452.5L377.1 458.6L375.9 463.2L363.7 460.8L364.3 455.9L365.4 449.6L366.7 442.1L368.1 433.8L369.6 425.1L370.8 416.2L371.7 407.6L372.2 399.5L371.7 391.2L370.8 382.1L369.7 372.5L368.4 362.9L367 353.7L365.6 345.4L364.3 338.3L363.2 332.9Z" fill="url(#gl-part-triceratops-tail)"/></g><ellipse cx="366.8" cy="465" rx="17.7" ry="6" fill="url(#gl-part-triceratops-tail)" stroke="#394a2a" stroke-width="2"/><path d="M361.5 461.1L359.9 466.8M368.9 461.1L367.3 466.8" fill="none" stroke="#394a2a" stroke-width="1.2" opacity="0.45"/></svg>