<svg xmlns="http://www.w3.org/2000/svg" viewBox="208.3 104.1 384.7 283.5" role="img" aria-label="Brachiosaurus back"><defs><clipPath id="bod-part-brachiosaurus-back"><path d="M772.6 325.8L762.6 323.6L752.7 321.4L742.8 319.3L733 317.2L723.2 315.1L713.5 313.1L703.8 311.1L694.3 309.2L684.7 307.2L675.3 305.4L665.8 303.5L656.5 301.7L647.2 299.9L638 298.1L628.8 296.4L619.6 294.7L610.6 293.1L601.6 291.5L592.6 289.9L583.7 288.3L574.9 286.8L566.1 285.3L557.4 283.9L548.9 279.6L540.5 275L532.1 270.5L523.8 265.9L515.4 261.4L518.4 259L520 254.1L512.9 245.6L505.8 237.2L497.4 231L488.5 225.9L479.5 220.9L470.6 216L461.6 211.1L452.6 206.2L443.7 201.4L434.7 196.6L425.3 192.8L415.8 189L406.4 185.3L397 181.7L387.6 178.1L378.1 174.5L368.7 171L369.1 173.3L349.7 162.7L327.3 150.6L305.8 139.3L285.2 128.9L265.3 119.3L246.3 110.5L229.3 101.3L215.2 90.1L202 79.7L189.6 70.2L177.9 61.4L167 53.4L156.9 46.3L147.6 39.9L138.9 34.3L131.1 29.4L123.8 25.3L117.2 22L111.1 19.4L105.1 17.4L98.7 16.4L90.9 17.1L82 22.4L79.7 29.2L77.8 34.9L76.4 39.6L75.5 43.3L75.1 45.9L75.2 47.4L75.2 48.5L75.6 49.4L76.1 50.1L77 50.7L78 51.1L79.4 51.3L81.2 51.3L82.9 51.4L84.5 51.6L86 51.9L87.4 52.2L88.8 52.7L90 53.4L91.1 54.1L92.3 54.8L93.4 55.4L94.5 55.9L95.5 56.4L96.4 56.8L97.2 57.1L98 57.3L98.8 57.3L99.6 57.2L100.4 57L101.3 56.4L102.2 55.7L103 55L103.7 54.2L104.4 53.4L105.1 52.5L106.1 50.4L106.9 48.2L107.6 46.1L108.1 44.1L108.4 42L108.6 40L108.4 37.6L108.2 35.6L108 34L107.7 32.7L107.4 31.8L107 31.2L106.7 31.4L106.4 32.4L106 34.1L105.4 36.7L104.8 40.1L104 44.3L104 44.3L98.6 47.6L95.9 48.1L96.3 48.4L98.7 49.4L102.5 51.4L107.4 54.3L113.3 58L120.2 62.6L128 68.1L136.6 74.4L146.1 81.6L156.4 89.6L167.5 98.4L179.5 108.1L192.3 118.6L205.9 129.8L218 144.7L229.8 161.6L242.4 179.4L255.8 197.9L270 217.2L284.9 237.3L304.4 260.5L322.4 271L330.7 275.7L339 280.5L347.3 285.4L355.6 290.2L363.9 295.2L372.2 300.1L380.5 305.1L389.2 309.2L398 313.4L406.7 317.6L415.5 321.9L424.2 326.2L433 330.5L441.7 334.9L451.1 338.3L461.7 339.4L472.3 340.6L491.6 345.6L511.2 344L519.7 340.4L528.2 336.8L536.9 333.3L545.6 329.8L554.4 326.7L563.1 326.5L571.9 326.3L580.7 326.1L589.6 326L598.6 326L607.6 325.9L616.8 325.9L625.9 326L635.2 326.1L644.5 326.2L653.9 326.3L663.4 326.5L672.9 326.7L682.5 326.9L692.2 327.2L701.9 327.5L711.7 327.9L721.6 328.3L731.5 328.7L741.5 329.2L751.6 329.7L761.7 330.2L771.9 330.7Z"/></clipPath><path id="sil-part-brachiosaurus-back" d="M772.6 325.8L762.6 323.6L752.7 321.4L742.8 319.3L733 317.2L723.2 315.1L713.5 313.1L703.8 311.1L694.3 309.2L684.7 307.2L675.3 305.4L665.8 303.5L656.5 301.7L647.2 299.9L638 298.1L628.8 296.4L619.6 294.7L610.6 293.1L601.6 291.5L592.6 289.9L583.7 288.3L574.9 286.8L566.1 285.3L557.4 283.9L548.9 279.6L540.5 275L532.1 270.5L523.8 265.9L515.4 261.4L518.4 259L520 254.1L512.9 245.6L505.8 237.2L497.4 231L488.5 225.9L479.5 220.9L470.6 216L461.6 211.1L452.6 206.2L443.7 201.4L434.7 196.6L425.3 192.8L415.8 189L406.4 185.3L397 181.7L387.6 178.1L378.1 174.5L368.7 171L369.1 173.3L349.7 162.7L327.3 150.6L305.8 139.3L285.2 128.9L265.3 119.3L246.3 110.5L229.3 101.3L215.2 90.1L202 79.7L189.6 70.2L177.9 61.4L167 53.4L156.9 46.3L147.6 39.9L138.9 34.3L131.1 29.4L123.8 25.3L117.2 22L111.1 19.4L105.1 17.4L98.7 16.4L90.9 17.1L82 22.4L79.7 29.2L77.8 34.9L76.4 39.6L75.5 43.3L75.1 45.9L75.2 47.4L75.2 48.5L75.6 49.4L76.1 50.1L77 50.7L78 51.1L79.4 51.3L81.2 51.3L82.9 51.4L84.5 51.6L86 51.9L87.4 52.2L88.8 52.7L90 53.4L91.1 54.1L92.3 54.8L93.4 55.4L94.5 55.9L95.5 56.4L96.4 56.8L97.2 57.1L98 57.3L98.8 57.3L99.6 57.2L100.4 57L101.3 56.4L102.2 55.7L103 55L103.7 54.2L104.4 53.4L105.1 52.5L106.1 50.4L106.9 48.2L107.6 46.1L108.1 44.1L108.4 42L108.6 40L108.4 37.6L108.2 35.6L108 34L107.7 32.7L107.4 31.8L107 31.2L106.7 31.4L106.4 32.4L106 34.1L105.4 36.7L104.8 40.1L104 44.3L104 44.3L98.6 47.6L95.9 48.1L96.3 48.4L98.7 49.4L102.5 51.4L107.4 54.3L113.3 58L120.2 62.6L128 68.1L136.6 74.4L146.1 81.6L156.4 89.6L167.5 98.4L179.5 108.1L192.3 118.6L205.9 129.8L218 144.7L229.8 161.6L242.4 179.4L255.8 197.9L270 217.2L284.9 237.3L304.4 260.5L322.4 271L330.7 275.7L339 280.5L347.3 285.4L355.6 290.2L363.9 295.2L372.2 300.1L380.5 305.1L389.2 309.2L398 313.4L406.7 317.6L415.5 321.9L424.2 326.2L433 330.5L441.7 334.9L451.1 338.3L461.7 339.4L472.3 340.6L491.6 345.6L511.2 344L519.7 340.4L528.2 336.8L536.9 333.3L545.6 329.8L554.4 326.7L563.1 326.5L571.9 326.3L580.7 326.1L589.6 326L598.6 326L607.6 325.9L616.8 325.9L625.9 326L635.2 326.1L644.5 326.2L653.9 326.3L663.4 326.5L672.9 326.7L682.5 326.9L692.2 327.2L701.9 327.5L711.7 327.9L721.6 328.3L731.5 328.7L741.5 329.2L751.6 329.7L761.7 330.2L771.9 330.7Z"/><linearGradient id="gb-part-brachiosaurus-back" gradientUnits="userSpaceOnUse" x1="0" y1="16.3" x2="0" y2="347.6"><stop offset="0" stop-color="#5e7e45"/><stop offset="0.52" stop-color="#6b8f4e"/><stop offset="1" stop-color="#b4c199"/></linearGradient><linearGradient id="gl-part-brachiosaurus-back" gradientUnits="userSpaceOnUse" x1="0" y1="16.3" x2="0" y2="470"><stop offset="0" stop-color="#5e7e45"/><stop offset="0.38" stop-color="#6b8f4e"/><stop offset="0.73" stop-color="#b4c199"/><stop offset="0.86" stop-color="#698d4d"/><stop offset="1" stop-color="#618147"/></linearGradient><linearGradient id="gf-part-brachiosaurus-back" gradientUnits="userSpaceOnUse" x1="0" y1="16.3" x2="0" y2="470"><stop offset="0" stop-color="#506a3a"/><stop offset="0.38" stop-color="#5c7b43"/><stop offset="0.73" stop-color="#9aa582"/><stop offset="0.86" stop-color="#5b7942"/><stop offset="1" stop-color="#526d3c"/></linearGradient><radialGradient id="wl-part-brachiosaurus-back" gradientUnits="userSpaceOnUse" cx="355" cy="102.5" r="433.8"><stop offset="0" stop-color="#d8dfc8" stop-opacity="0.3"/><stop offset="0.55" stop-color="#d8dfc8" stop-opacity="0.1"/><stop offset="1" stop-color="#d8dfc8" stop-opacity="0"/></radialGradient><radialGradient id="ao-part-brachiosaurus-back"><stop offset="0" stop-color="#394a2a" stop-opacity="1"/><stop offset="0.6" stop-color="#394a2a" stop-opacity="0.5"/><stop offset="1" stop-color="#394a2a" stop-opacity="0"/></radialGradient></defs><path d="M507.8 289.2L509.1 295.3L510.2 303.4L511.2 313.1L512 323.9L512.9 335.4L513.8 347.2L514.9 358.7L516.3 369.6L516.5 380.4L516.9 391.9L517.4 403.6L518.1 415.1L518.8 426L519.5 435.9L520 444.2L520.4 450.6L520.1 454.6L519.8 456.4L520.1 455L528.1 448.4L538 451L538.9 451.6L534.1 447.6L522.5 448.4Q513.6 460.1 511.8 461.4Q508 461.8 507.6 463.6Q500.4 463.1 493.8 463.4Q489.2 463.8 490.6 466L542.2 466Q546.8 464.4 541.3 459.9L535.5 469.3L524.3 469.9L520.2 466.6L521.8 468.2L532.5 471.3L541.3 463.9L542.3 459.7L542.5 455.9L542.5 450.9L542.9 443.9L543.1 435.3L543.2 425.3L543.3 414.4L543.4 403.1L543.6 391.6L544 380.7L544.6 370.6L547 360.6L549.6 349.9L552.5 338.9L555.4 328.1L558.3 317.8L561.2 308.6L563.9 300.7L566.4 294.8Z" fill="url(#gf-part-brachiosaurus-back)" stroke="#597641" stroke-width="1" stroke-linejoin="round"/><path d="M490.8 462.1L490.2 465.8L493.5 467.5Z" fill="#455b32"/><path d="M508.3 460.4L508 463.6L511 464.9Z" fill="#455b32"/><path d="M523.6 462.5L523.6 465.1L526.1 465.9Z" fill="#455b32"/><path d="M501.4 463.1L499.8 465.2M519.6 462.6L517.6 465.2" stroke="#455b32" stroke-width="1" opacity="0.35" fill="none"/><path d="M387.9 212.5L387.1 222.6L386.5 236L385.9 252.1L385.3 270L384.7 288.8L384 307.7L383.1 326L382 342.6L381.3 358.9L380.3 375.9L379.1 393.1L377.9 409.9L376.6 425.7L375.4 439.7L374.3 451.5L373.5 460.5Q353.5 460.1 353.6 461.5Q349.8 461.9 349.4 463.7Q344.9 463 341 463.4Q336.4 463.8 337.8 466L373.1 466Q377.7 464.4 373.5 461L355.6 459.4L355.9 450.4L356.4 438.5L357 424.4L357.8 408.7L358.5 392L359.1 374.9L359.5 358.2L359.6 342.3L358.7 325.9L357.6 308L356.3 289.3L355 270.7L353.5 252.9L352.1 236.9L350.8 223.4L349.5 213.3Z" fill="url(#gf-part-brachiosaurus-back)" stroke="#597641" stroke-width="1" stroke-linejoin="round"/><path d="M338.1 462L337.5 465.7L340.8 467.6Z" fill="#455b32"/><path d="M350.1 460.4L349.8 463.6L352.7 465Z" fill="#455b32"/><path d="M360.4 462.5L360.6 465.1L363 465.9Z" fill="#455b32"/><path d="M345.9 463.2L344.3 465.2M358.1 462.6L356.7 465.2" stroke="#455b32" stroke-width="1" opacity="0.35" fill="none"/><use href="#sil-part-brachiosaurus-back" fill="url(#gb-part-brachiosaurus-back)" stroke="#526d3c" stroke-width="1.2" stroke-linejoin="round"/><g clip-path="url(#bod-part-brachiosaurus-back)" fill="#cd9b3e"><path d="M546.1 284.7a2.5 2.5 0 1 0 5 0a2.5 2.5 0 1 0 -5 0M418.4 201.8a2.4 2.4 0 1 0 4.8 0a2.4 2.4 0 1 0 -4.8 0M509.4 266.5a3.8 3.8 0 1 0 7.6 0a3.8 3.8 0 1 0 -7.6 0M98.8 30.2a2.7 2.7 0 1 0 5.4 0a2.7 2.7 0 1 0 -5.4 0M710 322.7a2.3 2.3 0 1 0 4.6 0a2.3 2.3 0 1 0 -4.6 0M103.1 33.5a2.1 2.1 0 1 0 4.2 0a2.1 2.1 0 1 0 -4.2 0M460.6 228.5a3.4 3.4 0 1 0 6.8 0a3.4 3.4 0 1 0 -6.8 0M669.7 315.7a4.4 4.4 0 1 0 8.8 0a4.4 4.4 0 1 0 -8.8 0M607.2 298.3a2.9 2.9 0 1 0 5.8 0a2.9 2.9 0 1 0 -5.8 0M570 304.3a3.6 3.6 0 1 0 7.2 0a3.6 3.6 0 1 0 -7.2 0M660.7 318.4a3.5 3.5 0 1 0 7 0a3.5 3.5 0 1 0 -7 0M333.6 176.6a4 4 0 1 0 8 0a4 4 0 1 0 -8 0M418.9 199.7a2.9 2.9 0 1 0 5.8 0a2.9 2.9 0 1 0 -5.8 0M405.7 204.5a2.5 2.5 0 1 0 5 0a2.5 2.5 0 1 0 -5 0M669.2 315.6a4.9 4.9 0 1 0 9.8 0a4.9 4.9 0 1 0 -9.8 0M477.1 242.3a2.7 2.7 0 1 0 5.4 0a2.7 2.7 0 1 0 -5.4 0M481.3 233.9a2.9 2.9 0 1 0 5.8 0a2.9 2.9 0 1 0 -5.8 0M502.4 258.2a3.6 3.6 0 1 0 7.2 0a3.6 3.6 0 1 0 -7.2 0M463.1 226.1a2.2 2.2 0 1 0 4.4 0a2.2 2.2 0 1 0 -4.4 0M534.7 291.1a4.8 4.8 0 1 0 9.6 0a4.8 4.8 0 1 0 -9.6 0M406.1 200.4a4.1 4.1 0 1 0 8.2 0a4.1 4.1 0 1 0 -8.2 0M155.5 64.3a3.4 3.4 0 1 0 6.8 0a3.4 3.4 0 1 0 -6.8 0M126.5 47.9a3.4 3.4 0 1 0 6.8 0a3.4 3.4 0 1 0 -6.8 0M679.4 317.2a4.2 4.2 0 1 0 8.4 0a4.2 4.2 0 1 0 -8.4 0M543.9 288.8a4.4 4.4 0 1 0 8.8 0a4.4 4.4 0 1 0 -8.8 0" opacity="0.3"/><path d="M595.1 313.9a4.5 4.5 0 1 0 9 0a4.5 4.5 0 1 0 -9 0M105.1 40.1a3 3 0 1 0 6 0a3 3 0 1 0 -6 0M578.2 309.5a3.8 3.8 0 1 0 7.6 0a3.8 3.8 0 1 0 -7.6 0M432.2 238.1a4.2 4.2 0 1 0 8.4 0a4.2 4.2 0 1 0 -8.4 0M642.2 317a3.3 3.3 0 1 0 6.6 0a3.3 3.3 0 1 0 -6.6 0M487.8 265.7a2.5 2.5 0 1 0 5 0a2.5 2.5 0 1 0 -5 0M99.6 38.9a3.4 3.4 0 1 0 6.8 0a3.4 3.4 0 1 0 -6.8 0M172.7 88.5a2.5 2.5 0 1 0 5 0a2.5 2.5 0 1 0 -5 0M138.9 64.6a4.8 4.8 0 1 0 9.6 0a4.8 4.8 0 1 0 -9.6 0M699.4 321.8a3.2 3.2 0 1 0 6.4 0a3.2 3.2 0 1 0 -6.4 0M454.7 239.4a3.7 3.7 0 1 0 7.4 0a3.7 3.7 0 1 0 -7.4 0M150.6 71.7a2.8 2.8 0 1 0 5.6 0a2.8 2.8 0 1 0 -5.6 0M361.4 200.9a4.4 4.4 0 1 0 8.8 0a4.4 4.4 0 1 0 -8.8 0M302.3 177.1a2.2 2.2 0 1 0 4.4 0a2.2 2.2 0 1 0 -4.4 0M380 209.3a3.7 3.7 0 1 0 7.4 0a3.7 3.7 0 1 0 -7.4 0M369.7 206.3a4.5 4.5 0 1 0 9 0a4.5 4.5 0 1 0 -9 0M717.9 323.7a4.2 4.2 0 1 0 8.4 0a4.2 4.2 0 1 0 -8.4 0M356.9 190a3 3 0 1 0 6 0a3 3 0 1 0 -6 0M228.4 127.5a3.9 3.9 0 1 0 7.8 0a3.9 3.9 0 1 0 -7.8 0M140.3 64.6a3.4 3.4 0 1 0 6.8 0a3.4 3.4 0 1 0 -6.8 0" opacity="0.19"/><path d="M237.6 146.8a4.7 4.7 0 1 0 9.4 0a4.7 4.7 0 1 0 -9.4 0M553.1 311.7a2.4 2.4 0 1 0 4.8 0a2.4 2.4 0 1 0 -4.8 0M98.6 38.9a4.4 4.4 0 1 0 8.8 0a4.4 4.4 0 1 0 -8.8 0M498 312a4 4 0 1 0 8 0a4 4 0 1 0 -8 0M273.7 171.6a4.6 4.6 0 1 0 9.2 0a4.6 4.6 0 1 0 -9.2 0M524.8 309.7a5 5 0 1 0 10 0a5 5 0 1 0 -10 0M669.1 319.2a4.6 4.6 0 1 0 9.2 0a4.6 4.6 0 1 0 -9.2 0M456.5 260.9a2 2 0 1 0 4 0a2 2 0 1 0 -4 0M501.8 302.2a3.2 3.2 0 1 0 6.4 0a3.2 3.2 0 1 0 -6.4 0M660.6 318.4a3.6 3.6 0 1 0 7.2 0a3.6 3.6 0 1 0 -7.2 0M679.2 320a4.1 4.1 0 1 0 8.2 0a4.1 4.1 0 1 0 -8.2 0M615.3 315a2.5 2.5 0 1 0 5 0a2.5 2.5 0 1 0 -5 0M478.3 282.7a2.8 2.8 0 1 0 5.6 0a2.8 2.8 0 1 0 -5.6 0M110.8 44.1a2.3 2.3 0 1 0 4.6 0a2.3 2.3 0 1 0 -4.6 0M103.4 41.1a4.2 4.2 0 1 0 8.4 0a4.2 4.2 0 1 0 -8.4 0" opacity="0.1"/></g><g clip-path="url(#bod-part-brachiosaurus-back)"><g fill="none" stroke="#3e512d" stroke-width="1.1" opacity="0.18"><path d="M249.6 147.3Q241.6 147.6 240.5 139.6"/><path d="M308.7 216.7Q302.7 216.8 302 210.8"/><path d="M205.7 108.9Q199.8 109.3 198.8 103.4"/><path d="M378.4 257.2Q370.5 259.5 367.4 251.9"/><path d="M398 257.9Q392.2 259.6 390 254"/><path d="M562.1 300.9Q555.9 305.7 550.4 300.1"/><path d="M445.2 255.6Q437.6 257.6 434.8 250.3"/><path d="M329.2 234.8Q323 235.4 321.8 229.3"/><path d="M518.4 321.7Q512.1 326.9 506.3 321.1"/><path d="M195.9 94.3Q190.2 94.6 189.2 88.9"/><path d="M185.1 85.6Q177.1 86.2 175.7 78.2"/><path d="M363.4 219.3Q356.1 221.6 353.1 214.5"/><path d="M224.4 116.5Q216.5 116.8 215.3 109"/><path d="M454.1 258.2Q447.7 259.8 445.4 253.7"/></g><g fill="none" stroke="#3e512d" stroke-linecap="round"><path d="M221.1 111.3L194.1 89.6L170.4 71.3L159.7 63.3L140.7 49.8L132.4 44.2L118.1 35.5L112.1 32.3L102 28.3L97.8 27.5" stroke-width="1" opacity="0.18"/><path d="M213.6 120.4L186.9 98.7L174.8 89.1L163.5 80.3L143.3 65.1L134.4 58.8L119.2 48.6L112.8 44.7L107.3 41.7" stroke-width="1" opacity="0.15"/><path d="M509.6 287.6L496 276.6L479 265.3L452.4 250.9L434.6 241.6L416.8 232.4L398.7 224.1L380.6 215.9L362.5 207.9" stroke-width="1" opacity="0.17"/><path d="M475.5 314.1L456.8 306.9L439.1 297.8L412.7 284.5L395.1 275.8L377.9 266.5L352.1 252.9L334.9 244L302.4 217.2" stroke-width="1.1" opacity="0.15"/><path d="M732.5 321.2L712.9 318.3L693.5 315.5L674.4 312.8L655.6 310.3L637 307.9L618.6 305.7L600.5 303.5L582.7 301.6" stroke-width="1" opacity="0.17"/><path d="M722.1 323.7L702.6 321.8L683.3 320L673.7 319.2L654.8 317.7L636.2 316.3L626.9 315.6L608.7 314.4L599.6 313.9" stroke-width="1" opacity="0.14"/></g></g><use href="#sil-part-brachiosaurus-back" fill="none" stroke="#394a2a" stroke-width="10" opacity="0.24" clip-path="url(#bod-part-brachiosaurus-back)"/><path d="M101 56.4L101.6 55.8L102 55.2L102.3 54.7L102.5 54.2L102.6 53.7L102.6 53.3L102.6 52.9L102.6 52.5L102.5 52.2L102.5 51.8L102.4 51.5" fill="none" stroke="#3e512d" stroke-width="1.5" opacity="0.72" stroke-linecap="round"/><path d="M102.6 52.1Q103 50.1 104 49" fill="none" stroke="#3e512d" stroke-width="1.2" opacity="0.45"/><path d="M96.7 55.3Q96.2 56.6 97.4 57.1" fill="none" stroke="#3e512d" stroke-width="1.3" opacity="0.72"/><ellipse cx="88.3" cy="43" rx="4.5" ry="3.4" fill="#3e512d" opacity="0.14"/><circle cx="88.4" cy="43.4" r="3.2" fill="#fdfaef" stroke="#3e512d" stroke-width="1.2"/><circle cx="88" cy="43.4" r="2" fill="#c9983d"/><circle cx="87.9" cy="43.4" r="1.1" fill="#1c1a14"/><circle cx="87.8" cy="44.9" r="0.8" fill="#fdfaef" opacity="0.9"/><path d="M81 41.3Q82.1 46.6 85.4 51.1" fill="none" stroke="#3e512d" stroke-width="1.55" stroke-linecap="round" opacity="0.8"/><path d="M481.8 295.2L483.1 301.3L484.2 309.4L485.2 319.1L486 329.9L486.9 341.4L487.8 353.2L488.9 364.7L490.3 375.6L490.5 386.4L490.9 397.9L491.4 409.7L492.1 421.3L492.8 432.2L493.5 442.1L494 450.4L494.4 456.6L494.1 460.3L493.9 461.4L495.8 457.1L496.2 472.7L493.2 468.8L492.5 467.4L492.9 468.5L497.1 472.7Q487.6 463.1 485.8 464.4Q482 464.8 481.6 466.6Q474.4 466.1 467.8 466.4Q463.2 466.8 464.6 469L516.2 469Q520.8 467.4 515.3 462.9L508.9 451.1L513.5 455.5L514.6 458.1L514.6 458.5L512.4 456L513.6 471.7L516.2 465.5L516.5 461.7L516.5 456.9L516.9 450.1L517.1 441.5L517.2 431.6L517.3 420.6L517.4 409.2L517.6 397.7L518 386.7L518.6 376.6L521 366.6L523.6 355.9L526.5 344.9L529.4 334.1L532.3 323.8L535.2 314.6L537.9 306.7L540.4 300.8Z" fill="url(#gl-part-brachiosaurus-back)" stroke="#526d3c" stroke-width="1.2" stroke-linejoin="round"/><g clip-path="url(#bod-part-brachiosaurus-back)"><path d="M481.8 295.2L483.1 301.3L484.2 309.4L485.2 319.1L486 329.9L486.9 341.4L487.8 353.2L488.9 364.7L490.3 375.6L490.5 386.4L490.9 397.9L491.4 409.7L492.1 421.3L492.8 432.2L493.5 442.1L494 450.4L494.4 456.6L494.1 460.3L493.9 461.4L495.8 457.1L496.2 472.7L493.2 468.8L492.5 467.4L492.9 468.5L497.1 472.7Q487.6 463.1 485.8 464.4Q482 464.8 481.6 466.6Q474.4 466.1 467.8 466.4Q463.2 466.8 464.6 469L516.2 469Q520.8 467.4 515.3 462.9L508.9 451.1L513.5 455.5L514.6 458.1L514.6 458.5L512.4 456L513.6 471.7L516.2 465.5L516.5 461.7L516.5 456.9L516.9 450.1L517.1 441.5L517.2 431.6L517.3 420.6L517.4 409.2L517.6 397.7L518 386.7L518.6 376.6L521 366.6L523.6 355.9L526.5 344.9L529.4 334.1L532.3 323.8L535.2 314.6L537.9 306.7L540.4 300.8Z" fill="url(#gl-part-brachiosaurus-back)"/></g><path d="M464.8 465.1L464.2 468.8L467.5 470.5Z" fill="#3e512d"/><path d="M482.3 463.4L482 466.6L485 467.9Z" fill="#3e512d"/><path d="M497.6 465.5L497.6 468.1L500.1 468.9Z" fill="#3e512d"/><path d="M475.4 466.1L473.8 468.2M493.6 465.6L491.6 468.2" stroke="#3e512d" stroke-width="1" opacity="0.35" fill="none"/><path d="M361.9 218.5L361.1 228.4L360.5 241.7L359.9 257.7L359.3 275.3L358.7 293.9L358 312.7L357.1 330.7L356 347.1L355.3 363.2L354.3 380L353.1 397L351.9 413.6L350.6 429.1L349.4 443L348.3 454.7L347.5 463.5Q327.5 463.1 327.6 464.5Q323.8 464.9 323.4 466.7Q318.9 466 315 466.4Q310.4 466.8 311.8 469L347.1 469Q351.7 467.4 347.5 464L329.6 462.4L329.9 453.5L330.4 441.8L331 427.8L331.8 412.3L332.5 395.9L333.1 379L333.5 362.5L333.6 346.8L332.7 330.6L331.6 312.9L330.3 294.4L329 276L327.5 258.5L326.1 242.7L324.8 229.3L323.5 219.3Z" fill="url(#gl-part-brachiosaurus-back)" stroke="#526d3c" stroke-width="1.2" stroke-linejoin="round"/><g clip-path="url(#bod-part-brachiosaurus-back)"><path d="M361.9 218.5L361.1 228.4L360.5 241.7L359.9 257.7L359.3 275.3L358.7 293.9L358 312.7L357.1 330.7L356 347.1L355.3 363.2L354.3 380L353.1 397L351.9 413.6L350.6 429.1L349.4 443L348.3 454.7L347.5 463.5Q327.5 463.1 327.6 464.5Q323.8 464.9 323.4 466.7Q318.9 466 315 466.4Q310.4 466.8 311.8 469L347.1 469Q351.7 467.4 347.5 464L329.6 462.4L329.9 453.5L330.4 441.8L331 427.8L331.8 412.3L332.5 395.9L333.1 379L333.5 362.5L333.6 346.8L332.7 330.6L331.6 312.9L330.3 294.4L329 276L327.5 258.5L326.1 242.7L324.8 229.3L323.5 219.3Z" fill="url(#gl-part-brachiosaurus-back)"/></g><path d="M312.1 465L311.5 468.7L314.8 470.6Z" fill="#3e512d"/><path d="M324.1 463.4L323.8 466.6L326.7 468Z" fill="#3e512d"/><path d="M334.4 465.5L334.6 468.1L337 468.9Z" fill="#3e512d"/><path d="M319.9 466.2L318.3 468.2M332.1 465.6L330.7 468.2" stroke="#3e512d" stroke-width="1" opacity="0.35" fill="none"/><g clip-path="url(#bod-part-brachiosaurus-back)"><path d="M733 317L713.5 312.8L684.8 306.8L656.5 301.2L638 297.6L610.6 292.4L592.7 289.2L566.2 284.5L540.6 273.8L523.8 264.4L520.9 252.4L506.9 235.2L480.6 218.8L453.7 204.1L435.8 194.4L407.4 183.2L388.5 176L370.4 171.6L306.9 138.1L266 118.4L215.7 89.5L190 69.6L157.3 45.7L131.4 28.8L117.5 21.4L98.8 15.8L81.6 21.9L87.4 27.7L98 24.3L113.4 29.5L126.4 36.9L151.5 53.8L183.6 77.8L209 97.9L255.6 130.9L292.1 155.4L351.4 197.2L374.4 205.8L392.8 213.3L420.5 225.1L438.6 233.7L465.6 247.3L492.4 261.9L508.6 274.9L522.8 283.4L539.7 288.4L565.4 294.7L592 298L609.9 300.5L637.3 304.4L655.9 307.3L684.2 311.8L713.1 316.6L732.6 320Z" fill="#3e512d" opacity="0.04"/><path d="M733 317L713.5 312.8L684.8 306.8L656.5 301.2L638 297.6L610.6 292.4L592.7 289.2L566.2 284.5L540.6 273.8L523.8 264.4L520.9 252.4L506.9 235.2L480.6 218.8L453.7 204.1L435.8 194.4L407.4 183.2L388.5 176L370.4 171.6L306.9 138.1L266 118.4L215.7 89.5L190 69.6L157.3 45.7L131.4 28.8L117.5 21.4L98.8 15.8L81.6 21.9L84.9 25.2L98.4 20.5L115.3 25.9L128.7 33.3L154.1 50.2L186.4 74.2L211.8 94.3L259.9 125.8L298 148.5L358.6 187.4L379.5 195L397.9 202.9L425.5 215L443.3 224.4L470.1 238.8L496.6 254.1L512.1 268.4L523.1 278L539.9 284.2L565.7 291.6L592.2 295.2L610.2 297.8L637.6 302L656.1 305L684.4 309.9L713.3 315.1L732.8 318.7Z" fill="#3e512d" opacity="0.05"/><path d="M733 317L713.5 312.8L684.8 306.8L656.5 301.2L638 297.6L610.6 292.4L592.7 289.2L566.2 284.5L540.6 273.8L523.8 264.4L520.9 252.4L506.9 235.2L480.6 218.8L453.7 204.1L435.8 194.4L407.4 183.2L388.5 176L370.4 171.6L306.9 138.1L266 118.4L215.7 89.5L190 69.6L157.3 45.7L131.4 28.8L117.5 21.4L98.8 15.8L81.6 21.9L83.4 23.8L98.6 18.5L116.3 23.9L129.9 31.3L155.6 48.1L188.1 72L213.7 91.9L263 122L302.6 143.1L364.9 179L384.4 184.7L403.1 192.2L431.2 203.7L449.1 213.2L475.9 227.8L502.2 243.7L516.9 259.8L523.5 270.8L540.3 278.8L565.9 288L592.4 292.2L610.4 295.2L637.8 299.9L656.3 303.3L684.6 308.5L713.4 314.1L732.9 318Z" fill="#3e512d" opacity="0.06"/><path d="M741.5 329.4L721.5 328.5L701.9 327.9L682.4 327.3L663.3 326.9L644.5 326.7L625.9 326.6L607.6 326.6L589.6 326.8L571.8 327.1L554.4 327.5L536.8 334.4L519.6 341.8L491.1 347.3L460.7 341.3L440.6 337L423.1 328.3L405.6 319.7L388.1 311.4L371.1 302.3L354.6 292.3L338.1 282.6L321.5 273L283.6 238.8L254.8 199.1L229.1 162.5L205.4 130.4L210.3 124.4L236.6 153.6L265.3 186.8L297.2 223.1L331.2 252L348.2 261.1L365.3 270.3L382.3 279.7L399.6 288.7L417.1 297.4L434.7 306.2L452.3 315.2L471.4 321.6L496.7 329.1L520.4 326.2L537.6 322.2L555 318.5L572.5 318.8L590.2 319.2L608.2 319.7L626.5 320.4L645 321.2L663.8 322.1L682.9 323.2L702.3 324.4L721.9 325.8L741.8 327.3Z" fill="#b4c199" opacity="0.3"/><path d="M741.5 329.4L721.5 328.5L701.9 327.9L682.4 327.3L663.3 326.9L644.5 326.7L625.9 326.6L607.6 326.6L589.6 326.8L571.8 327.1L554.4 327.5L536.8 334.4L519.6 341.8L491.1 347.3L460.7 341.3L440.6 337L423.1 328.3L405.6 319.7L388.1 311.4L371.1 302.3L354.6 292.3L338.1 282.6L321.5 273L283.6 238.8L254.8 199.1L229.1 162.5L205.4 130.4L208.2 127L233.4 157.4L260.8 192L291.4 229.8L327.1 261L343.9 270.3L360.7 279.7L377.5 289.4L394.7 298.4L412.2 307L429.7 315.7L447.3 324.5L466.8 330L494.3 336.9L520.1 332.9L537.2 327.5L554.7 322.4L572.2 322.3L589.9 322.4L607.9 322.7L626.2 323L644.8 323.5L663.6 324.2L682.7 325L702.1 325.9L721.7 327L741.6 328.2Z" fill="#b4c199" opacity="0.18"/><path d="M731.7 327.1L711.9 325.8L692.5 324.7L673.2 323.7L654.3 322.9L644.9 322.5L626.3 321.8L608.1 321.3L590 321L572.3 320.8L554.8 320.7L537.4 325.1L520.2 329.9L495.4 333.5L468.9 326.3L449.5 320.4L432 311.4L414.4 302.7L405.6 298.4L388.1 289.9L371.2 280.3L354.3 270.8L337.4 261.5L313.4 248.3L278 207.9L248.4 172.3L222 139.9L226.5 134.4L255.3 164.2L287.2 197.2L323.8 234.3L345 245.4L362.2 254.3L379.5 263.3L396.7 272.6L414.4 281.2L423.2 285.6L440.8 294.6L458.4 303.7L477 311.3L499.6 319.6L520.9 318L538 315.8L555.3 313.8L572.8 314.4L590.5 315.2L608.5 316.1L626.8 317.1L645.3 318.3L654.7 318.9L673.6 320.3L692.8 321.8L712.2 323.5L731.9 325.3Z" fill="#394a2a" opacity="0.06"/><path d="M731.8 326.6L712 325.2L692.5 324L673.3 322.9L654.4 321.9L645 321.4L626.5 320.7L608.2 320L590.2 319.5L572.4 319.2L555 319L537.5 322.8L520.4 327L496.4 330L470.9 322.5L451.7 316.2L434.2 307.2L416.6 298.4L407.8 294.1L390.2 285.6L373.2 276.1L356.3 266.7L339.3 257.5L316 244.8L280.3 205.2L250.1 170.3L223.1 138.5L225.9 135.1L254.4 165.2L286 198.5L322.5 236.1L344 247.4L361.2 256.3L378.4 265.4L395.7 274.7L413.3 283.4L422.1 287.8L439.7 296.7L457.3 305.8L476 313.2L499.1 321.3L520.8 319.5L537.9 317L555.3 314.7L572.7 315.2L590.5 315.9L608.5 316.7L626.7 317.7L645.3 318.8L654.6 319.4L673.6 320.7L692.7 322.2L712.2 323.8L731.9 325.5Z" fill="#394a2a" opacity="0.06"/><path d="M731.8 326.2L712.1 324.6L692.6 323.3L673.4 322L654.5 320.9L645.1 320.4L626.6 319.5L608.3 318.7L590.3 318.1L572.6 317.6L555.1 317.3L537.7 320.5L520.6 324L497.5 326.5L473 318.8L454 312.1L436.4 303L418.8 294.2L410 289.8L392.4 281.2L375.3 271.8L358.2 262.5L341.2 253.5L318.6 241.3L282.6 202.5L251.8 168.3L224.2 137.2L225.4 135.8L253.6 166.2L284.9 199.9L321.2 237.8L343.1 249.4L360.2 258.4L377.4 267.6L394.6 276.9L412.2 285.5L421 289.9L438.6 298.8L456.2 307.9L475 315L498.6 323.1L520.7 321L537.8 318.1L555.2 315.5L572.7 316L590.4 316.6L608.4 317.4L626.7 318.3L645.2 319.3L654.6 319.9L673.5 321.1L692.7 322.5L712.2 324.1L731.9 325.7Z" fill="#394a2a" opacity="0.06"/><ellipse cx="503" cy="319" rx="77.1" ry="13.3" fill="url(#ao-part-brachiosaurus-back)" opacity="0.17"/><ellipse cx="529" cy="315.2" rx="60" ry="10.7" fill="url(#ao-part-brachiosaurus-back)" opacity="0.12"/><ellipse cx="342.7" cy="257.1" rx="66.4" ry="32.6" fill="url(#ao-part-brachiosaurus-back)" opacity="0.15"/><ellipse cx="368.7" cy="247.3" rx="53.8" ry="26" fill="url(#ao-part-brachiosaurus-back)" opacity="0.11"/><ellipse cx="107.9" cy="33.5" rx="18.8" ry="12.2" fill="url(#ao-part-brachiosaurus-back)" opacity="0.13"/><ellipse cx="539" cy="321.7" rx="47.4" ry="30.1" fill="url(#ao-part-brachiosaurus-back)" opacity="0.13"/><g fill="none" stroke="#3e512d" stroke-linecap="round"><path d="M475.2 309A28.3 28.3 0 0 1 528.6 302.2" stroke-width="1.2" opacity="0.18"/><path d="M312.4 220.1A34.8 34.8 0 0 1 372.9 212.5" stroke-width="1.1" opacity="0.16"/></g></g><use href="#sil-part-brachiosaurus-back" fill="url(#wl-part-brachiosaurus-back)"/></svg>