<svg xmlns="http://www.w3.org/2000/svg" viewBox="460.7 242.9 306.2 145.8" role="img" aria-label="Parasaurolophus tail"><defs><clipPath id="bod-part-parasaurolophus-tail"><path d="M741.1 351.9L732.5 348.2L723.9 344.5L715.4 340.9L706.9 337.4L698.5 334L690.1 330.6L681.7 327.3L673.4 324L665.1 320.8L656.9 317.7L648.7 314.7L640.6 311.7L632.5 308.7L624.5 305.9L616.4 303.1L608.5 300.4L600.5 297.7L592.6 295.2L584.8 292.6L577 290.2L569.2 287.8L561.5 285.5L553.8 283.2L546.3 279.7L538.9 276.2L531.5 272.7L524.1 269.2L516.7 265.8L512.7 263L508 259.1L500.1 254.5L492.1 250.1L483.8 247.2L475.3 245.1L466.8 243.2L458.2 241.5L449.7 239.8L441.1 238.3L432.5 236.9L424 235.6L415.2 235.8L406.5 236.2L397.8 236.8L389.2 237.4L380.6 238.2L372 239.2L363.5 240.2L367.8 243.6L372.7 248.4L364.8 246.2L357 244.4L349.4 242.8L341.9 241.6L334.6 240.7L328.2 239L323.1 235.6L318 232.4L312.9 229.4L307.9 226.6L302.8 224L297.8 221.7L290.8 218.4L284.6 215.7L279.2 213.7L274.6 212.3L270.8 211.5L267.8 211.4L265.3 211.3L262.9 211.6L260.8 212.2L258.9 213.2L257.2 214.6L255.8 216.4L254.4 218.8L253 221.1L251.3 223.3L249.6 225.3L247.8 227.1L245.8 228.9L243.1 230.3L240.6 231.8L238.3 233.2L236.1 234.6L234.1 236L232.3 237.3L230.6 238.4L229.3 239.4L228.3 240.5L227.7 241.6L227.3 242.7L227.3 243.7L228.1 245.1L229 246.4L230 247.6L231.3 248.8L232.7 249.9L234.2 250.9L238.4 252.7L242.7 254.2L247.1 255.5L251.5 256.5L256 257.3L260.6 257.9L266.1 258.1L270.9 258.2L274.8 258.1L278 258L280.4 257.7L282.1 257.3L282.6 257.2L283.1 257.1L283.5 257.1L283.8 257.3L284 257.5L284.1 257.8L284.1 257.8L288 259.1L292 260.5L296.2 262.3L300.5 264.2L304.9 266.4L309.5 268.8L312.8 273.6L315.5 279.4L318.1 285.4L320.8 291.6L323.4 297.9L326.1 304.4L341.7 318.3L361.9 321.9L369.1 323.3L376.4 324.9L383.6 326.6L390.8 328.4L397.9 330.3L405 332.2L412.1 334.3L419.3 335L426.5 335.8L433.8 336.8L441.1 337.8L448.3 339L455.6 340.2L462.9 341.6L470.4 342.3L478.3 341.7L486.2 341.2L497.3 341.5L508 340.4L515.4 338.8L522.9 337.3L530.4 335.8L538.1 334.4L545.9 333.3L553.5 333.5L561.2 333.8L569 334.2L576.9 334.6L584.8 335.1L592.8 335.7L600.9 336.4L609.1 337.1L617.3 337.9L625.6 338.8L633.9 339.7L642.4 340.7L650.9 341.8L659.4 343L668.1 344.2L676.8 345.5L685.6 346.9L694.4 348.3L703.3 349.8L712.3 351.4L721.3 353.1L730.4 354.8L739.6 356.6Z"/></clipPath><path id="sil-part-parasaurolophus-tail" d="M741.1 351.9L732.5 348.2L723.9 344.5L715.4 340.9L706.9 337.4L698.5 334L690.1 330.6L681.7 327.3L673.4 324L665.1 320.8L656.9 317.7L648.7 314.7L640.6 311.7L632.5 308.7L624.5 305.9L616.4 303.1L608.5 300.4L600.5 297.7L592.6 295.2L584.8 292.6L577 290.2L569.2 287.8L561.5 285.5L553.8 283.2L546.3 279.7L538.9 276.2L531.5 272.7L524.1 269.2L516.7 265.8L512.7 263L508 259.1L500.1 254.5L492.1 250.1L483.8 247.2L475.3 245.1L466.8 243.2L458.2 241.5L449.7 239.8L441.1 238.3L432.5 236.9L424 235.6L415.2 235.8L406.5 236.2L397.8 236.8L389.2 237.4L380.6 238.2L372 239.2L363.5 240.2L367.8 243.6L372.7 248.4L364.8 246.2L357 244.4L349.4 242.8L341.9 241.6L334.6 240.7L328.2 239L323.1 235.6L318 232.4L312.9 229.4L307.9 226.6L302.8 224L297.8 221.7L290.8 218.4L284.6 215.7L279.2 213.7L274.6 212.3L270.8 211.5L267.8 211.4L265.3 211.3L262.9 211.6L260.8 212.2L258.9 213.2L257.2 214.6L255.8 216.4L254.4 218.8L253 221.1L251.3 223.3L249.6 225.3L247.8 227.1L245.8 228.9L243.1 230.3L240.6 231.8L238.3 233.2L236.1 234.6L234.1 236L232.3 237.3L230.6 238.4L229.3 239.4L228.3 240.5L227.7 241.6L227.3 242.7L227.3 243.7L228.1 245.1L229 246.4L230 247.6L231.3 248.8L232.7 249.9L234.2 250.9L238.4 252.7L242.7 254.2L247.1 255.5L251.5 256.5L256 257.3L260.6 257.9L266.1 258.1L270.9 258.2L274.8 258.1L278 258L280.4 257.7L282.1 257.3L282.6 257.2L283.1 257.1L283.5 257.1L283.8 257.3L284 257.5L284.1 257.8L284.1 257.8L288 259.1L292 260.5L296.2 262.3L300.5 264.2L304.9 266.4L309.5 268.8L312.8 273.6L315.5 279.4L318.1 285.4L320.8 291.6L323.4 297.9L326.1 304.4L341.7 318.3L361.9 321.9L369.1 323.3L376.4 324.9L383.6 326.6L390.8 328.4L397.9 330.3L405 332.2L412.1 334.3L419.3 335L426.5 335.8L433.8 336.8L441.1 337.8L448.3 339L455.6 340.2L462.9 341.6L470.4 342.3L478.3 341.7L486.2 341.2L497.3 341.5L508 340.4L515.4 338.8L522.9 337.3L530.4 335.8L538.1 334.4L545.9 333.3L553.5 333.5L561.2 333.8L569 334.2L576.9 334.6L584.8 335.1L592.8 335.7L600.9 336.4L609.1 337.1L617.3 337.9L625.6 338.8L633.9 339.7L642.4 340.7L650.9 341.8L659.4 343L668.1 344.2L676.8 345.5L685.6 346.9L694.4 348.3L703.3 349.8L712.3 351.4L721.3 353.1L730.4 354.8L739.6 356.6Z"/><linearGradient id="gb-part-parasaurolophus-tail" gradientUnits="userSpaceOnUse" x1="0" y1="211.3" x2="0" y2="356.8"><stop offset="0" stop-color="#5e7e45"/><stop offset="0.52" stop-color="#6b8f4e"/><stop offset="1" stop-color="#b4c199"/></linearGradient><linearGradient id="gl-part-parasaurolophus-tail" gradientUnits="userSpaceOnUse" x1="0" y1="211.3" x2="0" y2="470"><stop offset="0" stop-color="#5e7e45"/><stop offset="0.29" stop-color="#6b8f4e"/><stop offset="0.56" stop-color="#b4c199"/><stop offset="0.69" stop-color="#698d4d"/><stop offset="1" stop-color="#618147"/></linearGradient><linearGradient id="gf-part-parasaurolophus-tail" gradientUnits="userSpaceOnUse" x1="0" y1="211.3" x2="0" y2="470"><stop offset="0" stop-color="#506a3a"/><stop offset="0.29" stop-color="#5c7b43"/><stop offset="0.56" stop-color="#9aa582"/><stop offset="0.69" stop-color="#5b7942"/><stop offset="1" stop-color="#526d3c"/></linearGradient><radialGradient id="wl-part-parasaurolophus-tail" gradientUnits="userSpaceOnUse" cx="433.5" cy="249.1" r="319.7"><stop offset="0" stop-color="#d8dfc8" stop-opacity="0.3"/><stop offset="0.55" stop-color="#d8dfc8" stop-opacity="0.1"/><stop offset="1" stop-color="#d8dfc8" stop-opacity="0"/></radialGradient><radialGradient id="ao-part-parasaurolophus-tail"><stop offset="0" stop-color="#394a2a" stop-opacity="1"/><stop offset="0.6" stop-color="#394a2a" stop-opacity="0.5"/><stop offset="1" stop-color="#394a2a" stop-opacity="0"/></radialGradient></defs><path d="M509.6 285.6L510.1 291.8L509.9 300.2L509.3 310.5L508.4 322.1L507.6 334.4L507.2 346.8L507.4 358.8L508.5 370.1L509.7 380.7L512 390.9L514.9 400.4L518.1 409.3L521.3 417.4L524 424.6L526.2 430.6L527.5 435.2L527.3 438.6L526.7 441.1L525.9 442.9L525 444.4L523.8 445.9L522.4 447.5L520.5 449.7L519.1 451.9Q514.8 459 513.1 459.9Q509.3 460.3 508.9 462.1Q502.3 464.3 496.2 463.4Q491.6 463.8 493 466L541.2 466Q545.8 464.4 540.3 458.3L538.9 462.8L539.1 462L539.8 460.9L541.4 458.6L543.4 455.4L545.4 451.2L547 446.1L547.8 440.2L547.7 433.6L547.2 426.3L545.9 418.5L544 410.4L542 402.1L540.2 393.7L538.7 385.4L538 377.5L538.1 370.1L540.4 362L543.4 352.5L547.1 342.2L551.2 331.7L555.5 321.6L559.6 312.2L563.4 304.1L566.6 298Z" fill="url(#gf-part-parasaurolophus-tail)" stroke="#597641" stroke-width="1" stroke-linejoin="round"/><path d="M493.5 462.6L490.5 466.8L495.7 467Z" fill="#455b32"/><path d="M509.8 459.3L507.6 463.1L512 463Z" fill="#455b32"/><path d="M524.1 462.8L522.6 466.1L526.2 465.6Z" fill="#455b32"/><path d="M503.3 463L501.7 465.2M520.2 462.6L518.3 465.2" stroke="#455b32" stroke-width="1" opacity="0.35" fill="none"/><path d="M397.5 276.4L397.2 281.5L397 288.3L396.9 296.5L396.8 305.7L396.6 315.3L396.3 325L395.7 334.4L394.7 343.1L393.6 351.6L392.1 360.3L390.3 369.1L388.4 377.7L386.5 385.7L384.6 392.9L383.1 398.8L382 403.3L373.5 401.5L374.3 396.9L375.4 390.8L376.8 383.6L378.4 375.6L379.9 367.1L381.2 358.5L382.2 350.1L382.8 342.3L382.6 334.2L382 325.2L381.1 315.9L380.1 306.5L379 297.6L377.9 289.5L376.8 282.6L376 277.5Z" fill="url(#gf-part-parasaurolophus-tail)" stroke="#597641" stroke-width="1"/><path d="M373.9 396.7L370 408.1Q369.9 411.8 373.5 410.8L383.6 404.2Z" fill="url(#gf-part-parasaurolophus-tail)" stroke="#597641" stroke-width="1.2" stroke-linejoin="round"/><path d="M370.5 408.4L369 413L373 410.4Z" fill="#455b32"/><path d="M376.4 400.8L376.1 409.8Q376.9 412.8 379.4 411L385.1 404.1Z" fill="url(#gf-part-parasaurolophus-tail)" stroke="#597641" stroke-width="1.2" stroke-linejoin="round"/><path d="M376.3 409.9L376.2 414.6L379.3 411Z" fill="#455b32"/><path d="M279.5 218.5Q268.7 141.5 371.8 138" fill="none" stroke="#526d3c" stroke-width="16.4" stroke-linecap="round"/><path d="M279.5 218.5Q268.7 141.5 371.8 138" fill="none" stroke="#7f9e65" stroke-width="13.8" stroke-linecap="round"/><path d="M279.5 218.5Q268.7 141.5 371.8 138" fill="none" stroke="#9cb385" stroke-width="3.6" stroke-linecap="round" opacity="0.6"/><circle cx="278.9" cy="195.8" r="5.8" fill="none" stroke="#526c3c" stroke-width="1" opacity="0.4"/><circle cx="283.2" cy="178.9" r="5.8" fill="none" stroke="#526c3c" stroke-width="1" opacity="0.4"/><use href="#sil-part-parasaurolophus-tail" fill="url(#gb-part-parasaurolophus-tail)" stroke="#526d3c" stroke-width="1.2" stroke-linejoin="round"/><g clip-path="url(#bod-part-parasaurolophus-tail)" fill="#cd9b3e"><path d="M565.8 292.8a2.5 2.5 0 1 0 5 0a2.5 2.5 0 1 0 -5 0M462.5 253.1a2.4 2.4 0 1 0 4.8 0a2.4 2.4 0 1 0 -4.8 0M525.8 286.7a3.8 3.8 0 1 0 7.6 0a3.8 3.8 0 1 0 -7.6 0M304.2 241.2a2.7 2.7 0 1 0 5.4 0a2.7 2.7 0 1 0 -5.4 0M684.8 341.2a2.3 2.3 0 1 0 4.6 0a2.3 2.3 0 1 0 -4.6 0M303.9 243a2.1 2.1 0 1 0 4.2 0a2.1 2.1 0 1 0 -4.2 0M485.5 263.8a3.4 3.4 0 1 0 6.8 0a3.4 3.4 0 1 0 -6.8 0M658.1 330.9a4.4 4.4 0 1 0 8.8 0a4.4 4.4 0 1 0 -8.8 0M612.4 308.2a2.9 2.9 0 1 0 5.8 0a2.9 2.9 0 1 0 -5.8 0M578 309.8a3.6 3.6 0 1 0 7.2 0a3.6 3.6 0 1 0 -7.2 0M649.5 333.4a3.5 3.5 0 1 0 7 0a3.5 3.5 0 1 0 -7 0M400.8 254.6a4 4 0 1 0 8 0a4 4 0 1 0 -8 0M462.4 250.8a2.9 2.9 0 1 0 5.8 0a2.9 2.9 0 1 0 -5.8 0M444.4 256.8a2.5 2.5 0 1 0 5 0a2.5 2.5 0 1 0 -5 0M657.7 330.8a4.9 4.9 0 1 0 9.8 0a4.9 4.9 0 1 0 -9.8 0M500.5 277a2.7 2.7 0 1 0 5.4 0a2.7 2.7 0 1 0 -5.4 0M502.7 267.8a2.9 2.9 0 1 0 5.8 0a2.9 2.9 0 1 0 -5.8 0M518.7 283.5a3.6 3.6 0 1 0 7.2 0a3.6 3.6 0 1 0 -7.2 0M495.1 265.6a2.2 2.2 0 1 0 4.4 0a2.2 2.2 0 1 0 -4.4 0M554.1 301.3a4.8 4.8 0 1 0 9.6 0a4.8 4.8 0 1 0 -9.6 0M451.9 254a4.1 4.1 0 1 0 8.2 0a4.1 4.1 0 1 0 -8.2 0" opacity="0.3"/><path d="M328.3 266.9a3.4 3.4 0 1 0 6.8 0a3.4 3.4 0 1 0 -6.8 0M317 262a3.4 3.4 0 1 0 6.8 0a3.4 3.4 0 1 0 -6.8 0M665.7 337.1a4.2 4.2 0 1 0 8.4 0a4.2 4.2 0 1 0 -8.4 0M560.7 311.5a4.4 4.4 0 1 0 8.8 0a4.4 4.4 0 1 0 -8.8 0M599.1 323.8a4.5 4.5 0 1 0 9 0a4.5 4.5 0 1 0 -9 0M305.2 250.1a3 3 0 1 0 6 0a3 3 0 1 0 -6 0M584.8 316a3.8 3.8 0 1 0 7.6 0a3.8 3.8 0 1 0 -7.6 0M471.9 282.1a4.2 4.2 0 1 0 8.4 0a4.2 4.2 0 1 0 -8.4 0M633 329.9a3.3 3.3 0 1 0 6.6 0a3.3 3.3 0 1 0 -6.6 0M510.4 298.1a2.5 2.5 0 1 0 5 0a2.5 2.5 0 1 0 -5 0M298.6 250.7a3.4 3.4 0 1 0 6.8 0a3.4 3.4 0 1 0 -6.8 0M344.2 268.8a2.5 2.5 0 1 0 5 0a2.5 2.5 0 1 0 -5 0M326.8 267a4.8 4.8 0 1 0 9.6 0a4.8 4.8 0 1 0 -9.6 0M675.3 339.1a3.2 3.2 0 1 0 6.4 0a3.2 3.2 0 1 0 -6.4 0M490 280.1a3.7 3.7 0 1 0 7.4 0a3.7 3.7 0 1 0 -7.4 0M326.3 270.5a2.8 2.8 0 1 0 5.6 0a2.8 2.8 0 1 0 -5.6 0M424.2 265.7a4.4 4.4 0 1 0 8.8 0a4.4 4.4 0 1 0 -8.8 0" opacity="0.19"/><path d="M391.3 293.3a2.2 2.2 0 1 0 4.4 0a2.2 2.2 0 1 0 -4.4 0M429.9 288.8a3.7 3.7 0 1 0 7.4 0a3.7 3.7 0 1 0 -7.4 0M421.1 288a4.5 4.5 0 1 0 9 0a4.5 4.5 0 1 0 -9 0M691.6 343.3a4.2 4.2 0 1 0 8.4 0a4.2 4.2 0 1 0 -8.4 0M408.1 274.9a3 3 0 1 0 6 0a3 3 0 1 0 -6 0M366.7 279.7a3.9 3.9 0 1 0 7.8 0a3.9 3.9 0 1 0 -7.8 0M321.3 266.2a3.4 3.4 0 1 0 6.8 0a3.4 3.4 0 1 0 -6.8 0M366 278.5a4.7 4.7 0 1 0 9.4 0a4.7 4.7 0 1 0 -9.4 0M569.4 318.8a2.4 2.4 0 1 0 4.8 0a2.4 2.4 0 1 0 -4.8 0M297.6 250.7a4.4 4.4 0 1 0 8.8 0a4.4 4.4 0 1 0 -8.8 0M529.4 314.9a4 4 0 1 0 8 0a4 4 0 1 0 -8 0M381.9 279.8a4.6 4.6 0 1 0 9.2 0a4.6 4.6 0 1 0 -9.2 0M551.3 316.7a5 5 0 1 0 10 0a5 5 0 1 0 -10 0" opacity="0.1"/></g><g clip-path="url(#bod-part-parasaurolophus-tail)"><g fill="none" stroke="#3e512d" stroke-width="1.1" opacity="0.18"><path d="M330.2 265.5Q324.7 266.2 323.5 260.9"/><path d="M343.1 288.6Q339.1 288.8 338.5 284.8"/><path d="M315.3 254.5Q311.5 255.3 310.3 251.5"/><path d="M397.3 297.5Q392.9 300.9 389 296.9"/><path d="M412.1 292.9Q408.9 295.2 406.3 292.2"/><path d="M554.6 303.3Q550.2 306.2 546.8 302"/><path d="M447.3 278.6Q442.9 281.5 439.5 277.3"/><path d="M353.1 294.9Q349.3 296.5 347.3 292.9"/><path d="M514.5 320.5Q509.9 323.7 506.2 319.6"/><path d="M313.1 247.1Q309.4 247.9 308.2 244.3"/><path d="M309.6 244.9Q304.3 246.3 302.3 241.2"/><path d="M374.7 274.6Q370.7 277.9 366.9 274.3"/><path d="M324.1 253.1Q318.7 254.1 317.2 248.9"/><path d="M454.9 278.4Q451.2 280.7 448.5 277.3"/><path d="M451.2 299.6Q447.5 301.9 444.8 298.4"/><path d="M440.5 266.4Q436.5 269.1 433.5 265.4"/><path d="M309 256.9Q303.8 258.1 302.1 253.1"/><path d="M569.2 311.9Q564.5 314.9 561.1 310.5"/><path d="M341.9 259.1Q337.1 259.6 336.1 254.9"/><path d="M509.7 297.4Q505.5 300 502.5 296"/><path d="M347.6 263.8Q341.7 264.3 340.7 258.5"/><path d="M552.7 310.1Q549.2 312.5 546.5 309.2"/></g><g fill="none" stroke="#3e512d" stroke-linecap="round"><path d="M321.6 249.5L311.9 243.5L302.3 238.5L297.6 236.3L288.4 232.6L283.9 231.2L275 229.1L270.6 228.6L262 228.5L257.9 228.8" stroke-width="1" opacity="0.18"/><path d="M315.6 259L306.3 253.7L301.7 251.4L297.3 249.3L288.6 245.9L284.5 244.5L276.5 242.5L272.7 241.6L269 240.7" stroke-width="1" opacity="0.15"/><path d="M507.6 288.9L492.9 283.3L476.9 278.3L452.6 273.3L436.3 270.5L420 268.1L403.7 267.3L387.3 266.9L371.1 266.9" stroke-width="1" opacity="0.17"/><path d="M484.2 318.1L468.6 316.1L453.3 313.1L430.5 309.5L415.3 307.6L400.2 304.9L377.5 301.5L362.3 299.8L338.7 289.3" stroke-width="1.1" opacity="0.15"/><path d="M705.6 341.8L688.5 336.3L671.5 331.1L654.8 326.1L638.3 321.5L621.9 317.1L605.8 313L589.9 309.1L574.2 305.6" stroke-width="1" opacity="0.17"/><path d="M695.8 343.3L678.5 339.1L661.4 335.2L653 333.4L636.3 329.9L619.8 326.7L611.6 325.2L595.5 322.4L587.6 321.1" stroke-width="1" opacity="0.14"/></g></g><use href="#sil-part-parasaurolophus-tail" fill="none" stroke="#394a2a" stroke-width="10" opacity="0.24" clip-path="url(#bod-part-parasaurolophus-tail)"/><path d="M228.3 244.7L229.2 245.6L230.2 246.3L231.2 246.8L232.2 247.2L233.2 247.4L234.2 247.5L235.1 247.5L236 247.5L236.9 247.5L237.7 247.5L238.5 247.5" fill="none" stroke="#3e512d" stroke-width="1.5" opacity="0.72" stroke-linecap="round"/><path d="M237.9 247.6Q239.7 248.4 240.6 249.6" fill="none" stroke="#3e512d" stroke-width="1.2" opacity="0.45"/><path d="M232.8 239.3Q231.4 238.2 230.3 239.6" fill="none" stroke="#3e512d" stroke-width="1.3" opacity="0.72"/><ellipse cx="268.5" cy="234" rx="5.1" ry="3.8" fill="#3e512d" opacity="0.14"/><circle cx="267.9" cy="234" r="3.6" fill="#fdfaef" stroke="#3e512d" stroke-width="1.2"/><circle cx="267.5" cy="234" r="2.3" fill="#c9983d"/><circle cx="267.3" cy="234" r="1.2" fill="#1c1a14"/><circle cx="266.5" cy="232.9" r="0.9" fill="#fdfaef" opacity="0.9"/><path d="M272.2 226.4Q266.1 226.3 260.4 228.7" fill="none" stroke="#3e512d" stroke-width="1.55" stroke-linecap="round" opacity="0.8"/><path d="M483.6 291.6L484.1 297.8L483.9 306.2L483.3 316.5L482.4 328.1L481.6 340.4L481.2 352.8L481.4 364.8L482.5 376.1L483.7 386.7L486 396.9L488.9 406.5L492.1 415.5L495.3 423.6L498.1 430.8L500.2 436.8L501.5 441.2L501.3 444.3L500.8 446.2L500.2 447.3L499.5 448.1L498.6 449L497.2 450.1L495.2 452.1L493.6 454.1Q488.8 462 487.1 462.9Q483.3 463.3 482.9 465.1Q476.3 467.3 470.2 466.4Q465.6 466.8 467 469L515.2 469Q519.8 467.4 514.3 461.3L512.4 466.6L512.4 466.2L512.9 465.5L514.6 463.6L516.9 460.7L519.2 456.7L520.9 451.7L521.8 446L521.7 439.6L521.2 432.4L519.9 424.7L518 416.6L516 408.3L514.2 399.8L512.7 391.5L512 383.5L512.1 376.1L514.4 368L517.4 358.5L521.1 348.2L525.2 337.7L529.5 327.6L533.6 318.2L537.4 310.1L540.6 304Z" fill="url(#gl-part-parasaurolophus-tail)" stroke="#526d3c" stroke-width="1.2" stroke-linejoin="round"/><g clip-path="url(#bod-part-parasaurolophus-tail)"><path d="M483.6 291.6L484.1 297.8L483.9 306.2L483.3 316.5L482.4 328.1L481.6 340.4L481.2 352.8L481.4 364.8L482.5 376.1L483.7 386.7L486 396.9L488.9 406.5L492.1 415.5L495.3 423.6L498.1 430.8L500.2 436.8L501.5 441.2L501.3 444.3L500.8 446.2L500.2 447.3L499.5 448.1L498.6 449L497.2 450.1L495.2 452.1L493.6 454.1Q488.8 462 487.1 462.9Q483.3 463.3 482.9 465.1Q476.3 467.3 470.2 466.4Q465.6 466.8 467 469L515.2 469Q519.8 467.4 514.3 461.3L512.4 466.6L512.4 466.2L512.9 465.5L514.6 463.6L516.9 460.7L519.2 456.7L520.9 451.7L521.8 446L521.7 439.6L521.2 432.4L519.9 424.7L518 416.6L516 408.3L514.2 399.8L512.7 391.5L512 383.5L512.1 376.1L514.4 368L517.4 358.5L521.1 348.2L525.2 337.7L529.5 327.6L533.6 318.2L537.4 310.1L540.6 304Z" fill="url(#gl-part-parasaurolophus-tail)"/></g><path d="M467.5 465.6L464.5 469.8L469.7 470Z" fill="#3e512d"/><path d="M483.8 462.3L481.6 466.1L486 466Z" fill="#3e512d"/><path d="M498.1 465.8L496.6 469.1L500.2 468.6Z" fill="#3e512d"/><path d="M477.3 466L475.7 468.2M494.2 465.6L492.3 468.2" stroke="#3e512d" stroke-width="1" opacity="0.35" fill="none"/><path d="M371.5 282.4L371.2 287.5L371 294.3L370.9 302.5L370.8 311.7L370.6 321.3L370.3 331L369.7 340.4L368.7 349.1L367.6 357.6L366.1 366.3L364.3 375.1L362.4 383.7L360.5 391.7L358.6 398.9L357.1 404.8L356 409.3L347.5 407.5L348.3 402.9L349.4 396.8L350.8 389.6L352.4 381.6L353.9 373.1L355.2 364.5L356.2 356.1L356.8 348.3L356.6 340.2L356 331.2L355.1 321.9L354.1 312.5L353 303.6L351.9 295.5L350.8 288.6L350 283.5Z" fill="url(#gl-part-parasaurolophus-tail)" stroke="#526d3c" stroke-width="1.2"/><g clip-path="url(#bod-part-parasaurolophus-tail)"><path d="M371.5 282.4L371.2 287.5L371 294.3L370.9 302.5L370.8 311.7L370.6 321.3L370.3 331L369.7 340.4L368.7 349.1L367.6 357.6L366.1 366.3L364.3 375.1L362.4 383.7L360.5 391.7L358.6 398.9L357.1 404.8L356 409.3L347.5 407.5L348.3 402.9L349.4 396.8L350.8 389.6L352.4 381.6L353.9 373.1L355.2 364.5L356.2 356.1L356.8 348.3L356.6 340.2L356 331.2L355.1 321.9L354.1 312.5L353 303.6L351.9 295.5L350.8 288.6L350 283.5Z" fill="url(#gl-part-parasaurolophus-tail)"/></g><path d="M347.9 402.7L344 414.1Q343.9 417.8 347.5 416.8L357.6 410.2Z" fill="url(#gl-part-parasaurolophus-tail)" stroke="#526d3c" stroke-width="1.2" stroke-linejoin="round"/><path d="M344.5 414.4L343 419L347 416.4Z" fill="#3e512d"/><path d="M350.4 406.8L350.1 415.8Q350.9 418.8 353.4 417L359.1 410.1Z" fill="url(#gl-part-parasaurolophus-tail)" stroke="#526d3c" stroke-width="1.2" stroke-linejoin="round"/><path d="M350.3 415.9L350.2 420.6L353.3 417Z" fill="#3e512d"/><g clip-path="url(#bod-part-parasaurolophus-tail)"><path d="M707 337.2L690.2 330.2L673.5 323.6L648.9 314.1L632.6 308.1L616.6 302.4L600.7 297L585 291.8L561.6 284.5L546.5 278.6L531.6 271.4L516.8 264.4L500.5 252.8L484.2 245.3L467.1 241.3L450 237.9L432.8 234.9L406.7 234.3L389.3 235.7L372.1 237.5L368.3 242.1L357.8 243.4L342.5 240.8L328.5 238.4L318.3 231.7L308.2 225.9L293 218.9L289.5 229.5L303.6 235.7L313.2 241L323 247.2L334.7 252L347.1 257.4L360.7 264L371.2 262L387.7 261.4L404.2 261.1L429.1 262.4L445.6 264.6L462.1 267.3L478.7 270.4L494.8 275.5L514.6 283.5L529.5 287.7L544.4 292.3L559.7 296.4L583 302.1L598.8 306.3L614.8 310.8L630.9 315.6L647.3 320.6L672.2 328.7L689 334.4L706 340.4Z" fill="#3e512d" opacity="0.04"/><path d="M707 337.2L690.2 330.2L673.5 323.6L648.9 314.1L632.6 308.1L616.6 302.4L600.7 297L585 291.8L561.6 284.5L546.5 278.6L531.6 271.4L516.8 264.4L500.5 252.8L484.2 245.3L467.1 241.3L450 237.9L432.8 234.9L406.7 234.3L389.3 235.7L372.1 237.5L368.3 242.1L357.8 243.4L342.5 240.8L328.5 238.4L318.3 231.7L308.2 225.9L293 218.9L291.1 224.8L305.6 231.4L315.4 237L325.4 243.5L337.9 247.4L351.3 251.8L363.6 255.6L371.5 253L388.2 252.3L405.1 252.1L430.3 253.5L447 256.3L463.6 259.5L480.3 263L496.5 269L515.3 278L530.1 283L545 288.3L560.3 292.8L583.6 298.9L599.4 303.2L615.4 307.9L631.6 312.9L647.9 318.2L672.7 326.7L689.5 332.7L706.4 339Z" fill="#3e512d" opacity="0.05"/><path d="M707 337.2L690.2 330.2L673.5 323.6L648.9 314.1L632.6 308.1L616.6 302.4L600.7 297L585 291.8L561.6 284.5L546.5 278.6L531.6 271.4L516.8 264.4L500.5 252.8L484.2 245.3L467.1 241.3L450 237.9L432.8 234.9L406.7 234.3L389.3 235.7L372.1 237.5L368.3 242.1L357.8 243.4L342.5 240.8L328.5 238.4L318.3 231.7L308.2 225.9L293 218.9L292 222L306.8 228.8L316.8 234.4L326.9 241L340.2 244L354.7 247.4L366.1 248.5L371.8 244.6L388.8 243.2L405.9 242.3L431.7 243.2L448.6 246.1L465.6 249.5L482.5 253.3L498.7 260.2L516.1 270.7L530.9 276.9L545.8 283.3L561 288.6L584.3 295.4L600 300.2L616 305.3L632.1 310.7L648.3 316.3L673.1 325.3L689.8 331.6L706.7 338.2Z" fill="#3e512d" opacity="0.06"/><path d="M712.2 351.6L694.3 348.6L676.7 345.9L659.3 343.4L642.2 341.2L625.4 339.4L608.9 337.8L592.7 336.5L576.7 335.5L561.1 334.7L545.7 334.3L530.3 337L515.2 340.2L497 343.1L477.8 343.4L462.5 343.5L448 340.9L433.5 338.7L419 337L404.8 334.2L390.6 330.2L376.3 326.6L361.8 323.5L325.1 305.5L320 292.5L314.9 280.2L309.1 269.4L313 263.2L320.5 272.2L327.6 282.6L334.9 293.8L362.2 306.4L377.2 308.4L392.1 311L406.9 313.9L421.8 316.3L436.8 318.3L451.8 320.8L466.9 323.6L482.4 325.1L500.3 326.6L517 325.6L532 324.5L547.4 323.8L562.8 325.1L578.4 326.6L594.3 328.5L610.5 330.6L626.9 333.1L643.6 335.8L660.5 338.8L677.7 342L695.2 345.6L712.9 349.4Z" fill="#b4c199" opacity="0.3"/><path d="M712.2 351.6L694.3 348.6L676.7 345.9L659.3 343.4L642.2 341.2L625.4 339.4L608.9 337.8L592.7 336.5L576.7 335.5L561.1 334.7L545.7 334.3L530.3 337L515.2 340.2L497 343.1L477.8 343.4L462.5 343.5L448 340.9L433.5 338.7L419 337L404.8 334.2L390.6 330.2L376.3 326.6L361.8 323.5L325.1 305.5L320 292.5L314.9 280.2L309.1 269.4L311.3 265.9L318.1 275.6L324.4 286.9L330.7 298.8L362 313.7L376.8 316.2L391.5 319.2L406 322.6L420.6 325.2L435.4 327.1L450.2 329.4L465 332.1L480.5 333L498.9 333.7L516.2 331.8L531.3 329.9L546.7 328.3L562 329.2L577.7 330.4L593.6 331.9L609.8 333.7L626.3 335.8L643 338.1L660 340.8L677.3 343.7L694.8 346.9L712.6 350.4Z" fill="#b4c199" opacity="0.18"/><path d="M703.8 348.1L686.2 344.6L668.8 341.4L651.7 338.4L634.9 335.8L626.5 334.6L610.1 332.3L593.9 330.4L578 328.7L562.4 327.4L547 326.3L531.6 327.5L516.6 329L499.5 330.5L481.3 329.5L465.8 328.4L450.9 325.6L436 323.2L428.6 322.2L413.7 320.4L399.1 317.1L384.4 314.1L369.5 311.6L345.3 307.8L329.2 290.7L322.5 279.5L315.9 268.9L319.4 263.7L327.5 272.7L335.8 282.4L349.5 295.9L370 298.1L385.3 299.8L400.5 302L415.6 304.7L430.9 306.6L438.6 307.7L453.9 310.2L469.2 313.3L484.8 315.5L501.9 318L518 317.9L533 317.9L548.3 318.3L563.6 320L579.3 322L595.1 324.3L611.3 326.9L627.6 329.8L635.9 331.3L652.7 334.6L669.7 338.1L686.9 342L704.4 346.1Z" fill="#394a2a" opacity="0.06"/><path d="M704 347.6L686.4 343.9L669 340.6L651.9 337.5L635.1 334.7L626.8 333.4L610.4 331L594.2 328.9L578.3 327.1L562.7 325.5L547.3 324.3L532 325.1L516.9 326.3L500.1 327.4L482.2 326L466.7 324.6L451.7 321.7L436.7 319.3L429.2 318.3L414.2 316.5L399.4 313.3L384.6 310.5L369.7 308.2L346.4 304.8L330.9 288.6L323.7 277.8L316.7 267.6L318.9 264.3L326.9 273.5L335 283.5L349 297.4L369.9 299.8L385.2 301.6L400.3 303.9L415.4 306.6L430.6 308.5L438.2 309.6L453.5 312.2L468.8 315.1L484.4 317.3L501.6 319.6L517.8 319.3L532.8 319.1L548.1 319.3L563.5 320.9L579.1 322.9L595 325.1L611.1 327.6L627.5 330.4L635.8 331.9L652.6 335.1L669.6 338.5L686.8 342.3L704.3 346.4Z" fill="#394a2a" opacity="0.06"/><path d="M704.1 347.1L686.5 343.3L669.2 339.8L652.2 336.5L635.4 333.5L627.1 332.2L610.7 329.6L594.5 327.4L578.6 325.4L563 323.7L547.6 322.3L532.3 322.7L517.3 323.5L500.7 324.3L483.1 322.5L467.5 320.8L452.4 317.9L437.3 315.4L429.8 314.4L414.7 312.5L399.8 309.6L384.8 307L369.8 304.8L347.4 301.8L332.5 286.6L325 276.1L317.6 266.3L318.5 265L326.2 274.4L334.2 284.5L348.5 298.9L369.9 301.5L385 303.4L400.1 305.8L415.2 308.6L430.3 310.5L437.9 311.6L453.1 314.1L468.4 317L484 319L501.3 321.1L517.6 320.7L532.6 320.3L547.9 320.3L563.3 321.9L578.9 323.7L594.8 325.8L611 328.3L627.4 331L635.7 332.4L652.4 335.5L669.5 339L686.7 342.6L704.2 346.6Z" fill="#394a2a" opacity="0.06"/><ellipse cx="503" cy="322.1" rx="80.7" ry="15.7" fill="url(#ao-part-parasaurolophus-tail)" opacity="0.17"/><ellipse cx="529" cy="317.5" rx="62.7" ry="12.7" fill="url(#ao-part-parasaurolophus-tail)" opacity="0.12"/><ellipse cx="360.8" cy="310.2" rx="42.6" ry="23.7" fill="url(#ao-part-parasaurolophus-tail)" opacity="0.15"/><ellipse cx="386.8" cy="303.1" rx="34.2" ry="19" fill="url(#ao-part-parasaurolophus-tail)" opacity="0.11"/><ellipse cx="261.2" cy="257.9" rx="25.1" ry="16.2" fill="url(#ao-part-parasaurolophus-tail)" opacity="0.13"/><ellipse cx="539" cy="318.2" rx="56" ry="35.6" fill="url(#ao-part-parasaurolophus-tail)" opacity="0.13"/><g fill="none" stroke="#3e512d" stroke-linecap="round"><path d="M474 308.7A29.6 29.6 0 0 1 529.8 301.7" stroke-width="1.2" opacity="0.18"/><path d="M342.1 288.8A22.2 22.2 0 0 1 380.7 283.9" stroke-width="1.1" opacity="0.16"/></g></g><use href="#sil-part-parasaurolophus-tail" fill="url(#wl-part-parasaurolophus-tail)"/></svg>