<svg xmlns="http://www.w3.org/2000/svg" viewBox="284 184.2 292.5 325.8" role="img" aria-label="Velociraptor stance"><defs><clipPath id="bod-part-velociraptor-stance"><path d="M754.6 317.8L745.2 316.3L735.9 314.9L726.6 313.4L717.4 312L708.3 310.6L699.2 309.3L690.1 307.9L681.1 306.6L672.2 305.3L663.4 304.1L654.5 302.8L645.8 301.6L637.1 300.4L628.5 299.2L619.9 298.1L611.4 297L602.9 295.9L594.5 294.8L586.1 293.7L577.8 292.7L569.6 291.7L561.4 290.7L553.2 289.8L545.2 287.3L537.3 284.8L529.4 282.3L521.5 279.8L513.7 277.3L509.1 275.1L506.7 271.9L500.5 268L494.1 264.1L487.4 261.7L480.6 260L473.7 258.5L466.8 257.1L459.8 255.8L452.9 254.6L446 253.6L439 252.7L432 253L425 253.5L418 254.1L411.1 254.9L404.2 255.7L397.3 256.7L390.4 257.8L396.1 261.5L397.8 263.3L390.8 259.4L383.9 255.9L377.1 252.6L370.4 249.7L363.9 247.1L358 244.2L353.2 240.2L348.4 236.4L343.7 232.9L339 229.6L334.2 226.6L329.5 223.8L322.7 220.2L316.7 217.4L311.5 215.2L307 213.7L303.4 213L300.5 212.9L298.1 212.9L295.8 213.1L293.8 213.8L292 214.7L290.3 215.9L288.9 217.5L287.6 219.6L286.2 221.6L284.7 223.5L283 225.4L281.2 227.1L279.3 228.7L276.7 230L274.3 231.3L272.1 232.6L270 233.8L268.1 235L266.3 236.2L264.7 237.2L263.4 238.1L262.4 239L261.8 239.9L261.5 240.8L261.4 241.7L262.4 242.9L263.4 243.9L264.7 244.6L266.2 245L267.8 245.2L269.5 245.2L274.5 245L279.3 245L283.9 245.1L288.5 245.2L292.8 245.5L297.1 245.8L292.9 249.3L288.6 252.4L284.3 255.2L280 257.6L275.6 259.8L271.1 261.7L270.2 262.5L269.8 263.2L269.8 263.8L270.3 264.4L271.2 264.8L272.6 265.1L279.4 263.2L285.9 261.1L292 259.1L297.8 257L303.3 254.9L308.5 252.8L310.5 252.4L312.2 252.2L313.6 252.1L314.7 252.1L315.5 252.2L316 252.5L316 252.5L319.9 254L324 255.8L328.2 257.8L332.5 260.2L337 262.8L341.6 265.7L345.3 270.3L348.4 275.7L351.6 281.3L354.8 287.2L358.1 293.2L361.4 299.5L373.5 312.1L391.8 315.3L397.6 316.2L403.4 317.2L409.2 318.4L414.9 319.6L420.5 320.9L426.2 322.4L431.8 323.9L437.5 324.4L443.2 325L448.9 325.7L454.7 326.5L460.4 327.4L466.2 328.4L471.9 329.5L477.9 330.1L484.2 329.5L490.6 329L500.9 329.5L511.8 327.9L519.7 326L527.6 324.2L535.6 322.3L543.6 320.6L551.7 319L559.9 318.9L568 318.8L576.3 318.7L584.6 318.7L592.9 318.7L601.4 318.7L609.9 318.8L618.4 318.8L627 318.9L635.7 319L644.4 319.2L653.2 319.4L662.1 319.5L671 319.8L680 320L689 320.3L698.1 320.5L707.3 320.8L716.5 321.2L725.8 321.5L735.2 321.9L744.6 322.3L754.1 322.8Z"/></clipPath><linearGradient id="gb-part-velociraptor-stance" x1="0" y1="0" x2="0" y2="1"><stop offset="0" stop-color="#82a068"/><stop offset="0.55" stop-color="#6b8f4e"/><stop offset="1" stop-color="#536f3d"/></linearGradient><linearGradient id="gl-part-velociraptor-stance" x1="0" y1="0" x2="0" y2="1"><stop offset="0" stop-color="#698d4d"/><stop offset="0.55" stop-color="#5e7e45"/><stop offset="1" stop-color="#526c3c"/></linearGradient><linearGradient id="gf-part-velociraptor-stance" x1="0" y1="0" x2="0" y2="1"><stop offset="0" stop-color="#628347"/><stop offset="0.55" stop-color="#597641"/><stop offset="1" stop-color="#506a3a"/></linearGradient></defs><path d="M520.1 285.9L519.2 291.8L517.1 299.9L514.2 309.9L510.9 321L507.8 332.8L505.4 344.7L504.2 356.3L504.7 367.3L507.1 377.4L511.6 386.3L517.1 394.1L523 401L528.6 407.3L533.5 412.8L537 417.5L538.9 421.1L538.8 424.5L537.8 428.1L535.9 431.8L533.4 435.5L530.5 439L527.6 442.3L524.9 445.4L523 448L535 456L536.2 453.9L538.3 451.2L541.2 447.5L544.4 443.2L547.4 438.1L550 432.4L551.4 425.9L551.1 418.9L549.1 411.5L545.4 404.5L540.8 397.7L536 390.9L531.5 384.1L528 377.6L525.8 371.6L525.3 366.2L527 359.7L530.1 351.3L534.4 342L539.3 332.2L544.6 322.7L549.8 313.9L554.4 306.2L557.9 300.4Z" fill="url(#gf-part-velociraptor-stance)" stroke="#455b32" stroke-width="1.8"/><path d="M533 457.8L517.4 463.7Q514.9 467 518.9 468.3L535 464.2Z" fill="url(#gf-part-velociraptor-stance)" stroke="#455b32" stroke-width="1.5" stroke-linejoin="round"/><path d="M517.6 464.5L513.8 467.4L518.6 467.5Z" fill="#455b32"/><path d="M529.9 455.4L511.1 462.5Q508.4 466.1 512.7 467.5L532.1 462.6Z" fill="url(#gf-part-velociraptor-stance)" stroke="#455b32" stroke-width="1.5" stroke-linejoin="round"/><path d="M511.4 463.5L507.6 466.3L512.4 466.5Z" fill="#455b32"/><path d="M534.5 464.6L541.2 467.4Q544.9 467 543.3 463.6L537.5 459.4Z" fill="url(#gf-part-velociraptor-stance)" stroke="#455b32" stroke-width="1.5" stroke-linejoin="round"/><path d="M541.5 466.9L546.2 467.7L543 464.1Z" fill="#455b32"/><path d="M422.8 282.3L422.7 285.4L422.8 289.6L422.9 294.7L423.1 300.4L423.2 306.4L423.1 312.4L422.8 318.1L422.1 323.4L421.1 328.5L419.7 333.7L418 338.8L416.1 343.7L414.2 348.2L412.5 352.3L411.1 355.6L410.1 358.1L405.5 356.5L406.4 353.8L407.6 350.3L409.1 346.2L410.8 341.7L412.3 336.9L413.8 332L414.9 327.2L415.5 322.6L415.5 317.9L415.2 312.5L414.6 306.9L413.9 301.1L413 295.7L412.2 290.7L411.4 286.4L410.8 283.2Z" fill="url(#gf-part-velociraptor-stance)" stroke="#455b32" stroke-width="1.8"/><path d="M406.1 353.2L400.1 363Q399.9 366.7 403.5 365.7L411.5 357.4Z" fill="url(#gf-part-velociraptor-stance)" stroke="#455b32" stroke-width="1.5" stroke-linejoin="round"/><path d="M400.5 363.3L399 367.9L403.1 365.3Z" fill="#455b32"/><path d="M408.4 356.4L406.1 364.7Q406.9 367.7 409.5 365.9L413.2 358.2Z" fill="url(#gf-part-velociraptor-stance)" stroke="#455b32" stroke-width="1.5" stroke-linejoin="round"/><path d="M406.3 364.8L406.2 369.5L409.3 365.9Z" fill="#455b32"/><path d="M290.6 220.9L294.9 212.3Q307.8 211.2 321 206Q335.3 213.5 351.1 217Q363.5 228.7 378.1 236.9Q392.9 247.5 410.3 254.9Q408.8 248.5 408.9 238.3Q426.4 240 444 237.5Q462.1 241.9 480.7 242Q498.9 248.9 518.1 251.6Q526.2 258.1 535 260.4Q553.5 270.3 572.3 276Q594.6 278.2 617.2 276.2Q636.9 283.8 657 287.2Q672.1 295.5 687.6 299.6L680.9 309.6L645.6 304.6L602.7 298.8L561.2 293.7L521.4 282.8L499.7 270.9L466.2 260L431.8 256L397.3 259.7L388.7 261.6L356.2 246.6L332.8 229.2L309.4 218.9L290.6 220.9Z" fill="#5e7e45" stroke="#3f532e" stroke-width="1.1" stroke-linejoin="round"/><path d="M657 287.2Q650.9 293.1 649 299.4M617.2 276.2Q610 284 607 292M572.3 276Q566.3 282.1 564.5 288.4M535 260.4Q528.1 268.1 525.5 276M518.1 251.6Q509.6 257.8 505.2 265.1M480.7 242Q473.5 248 470.6 254.6M444 237.5Q437.6 243.8 435.4 250.4M408.9 238.3Q402.7 245.8 400.8 253.3M410.3 254.9Q401.2 255.8 395.2 259.6M378.1 236.9Q368.8 239 362.8 243.7M351.1 217Q342.9 220.3 338.3 225.6M321 206Q314.9 210 312.9 215" fill="none" stroke="#425730" stroke-width="1" opacity="0.5"/><g fill="#c9983d" stroke="#896a2c" stroke-width="1" opacity="0.95"><path d="M317.2 222.6Q325.9 216.2 328.8 204.3Q317.1 208 311.3 217.2Z"/><path d="M307.7 221.3Q317 211.9 319.9 197.9Q307.3 204.9 301.2 216.6Z"/><path d="M294.2 222.6Q301.1 212.3 300.6 198.8Q290.1 207.4 287 219.3Z"/></g><g fill="#c9983d" stroke="#896a2c" stroke-width="1" opacity="0.95"><path d="M745.4 325.3Q760.2 327.2 774.2 317.1Q758.9 309.2 744.5 313.3Z"/><path d="M737.3 323.6Q755.4 321.3 770 307.6Q750.2 304.1 733.9 312.1Z"/><path d="M738.7 323Q756.7 315.5 768.4 297.8Q747.3 300.1 732.5 312.7Z"/><path d="M730.7 320.5Q747.1 307.1 754.6 285.5Q733.9 294.9 721.9 312.3Z"/><path d="M722.4 317.8Q734.4 301.4 735.7 279.5Q718.4 293.1 711.8 312.2Z"/></g><path d="M754.6 317.8L745.2 316.3L735.9 314.9L726.6 313.4L717.4 312L708.3 310.6L699.2 309.3L690.1 307.9L681.1 306.6L672.2 305.3L663.4 304.1L654.5 302.8L645.8 301.6L637.1 300.4L628.5 299.2L619.9 298.1L611.4 297L602.9 295.9L594.5 294.8L586.1 293.7L577.8 292.7L569.6 291.7L561.4 290.7L553.2 289.8L545.2 287.3L537.3 284.8L529.4 282.3L521.5 279.8L513.7 277.3L509.1 275.1L506.7 271.9L500.5 268L494.1 264.1L487.4 261.7L480.6 260L473.7 258.5L466.8 257.1L459.8 255.8L452.9 254.6L446 253.6L439 252.7L432 253L425 253.5L418 254.1L411.1 254.9L404.2 255.7L397.3 256.7L390.4 257.8L396.1 261.5L397.8 263.3L390.8 259.4L383.9 255.9L377.1 252.6L370.4 249.7L363.9 247.1L358 244.2L353.2 240.2L348.4 236.4L343.7 232.9L339 229.6L334.2 226.6L329.5 223.8L322.7 220.2L316.7 217.4L311.5 215.2L307 213.7L303.4 213L300.5 212.9L298.1 212.9L295.8 213.1L293.8 213.8L292 214.7L290.3 215.9L288.9 217.5L287.6 219.6L286.2 221.6L284.7 223.5L283 225.4L281.2 227.1L279.3 228.7L276.7 230L274.3 231.3L272.1 232.6L270 233.8L268.1 235L266.3 236.2L264.7 237.2L263.4 238.1L262.4 239L261.8 239.9L261.5 240.8L261.4 241.7L262.4 242.9L263.4 243.9L264.7 244.6L266.2 245L267.8 245.2L269.5 245.2L274.5 245L279.3 245L283.9 245.1L288.5 245.2L292.8 245.5L297.1 245.8L292.9 249.3L288.6 252.4L284.3 255.2L280 257.6L275.6 259.8L271.1 261.7L270.2 262.5L269.8 263.2L269.8 263.8L270.3 264.4L271.2 264.8L272.6 265.1L279.4 263.2L285.9 261.1L292 259.1L297.8 257L303.3 254.9L308.5 252.8L310.5 252.4L312.2 252.2L313.6 252.1L314.7 252.1L315.5 252.2L316 252.5L316 252.5L319.9 254L324 255.8L328.2 257.8L332.5 260.2L337 262.8L341.6 265.7L345.3 270.3L348.4 275.7L351.6 281.3L354.8 287.2L358.1 293.2L361.4 299.5L373.5 312.1L391.8 315.3L397.6 316.2L403.4 317.2L409.2 318.4L414.9 319.6L420.5 320.9L426.2 322.4L431.8 323.9L437.5 324.4L443.2 325L448.9 325.7L454.7 326.5L460.4 327.4L466.2 328.4L471.9 329.5L477.9 330.1L484.2 329.5L490.6 329L500.9 329.5L511.8 327.9L519.7 326L527.6 324.2L535.6 322.3L543.6 320.6L551.7 319L559.9 318.9L568 318.8L576.3 318.7L584.6 318.7L592.9 318.7L601.4 318.7L609.9 318.8L618.4 318.8L627 318.9L635.7 319L644.4 319.2L653.2 319.4L662.1 319.5L671 319.8L680 320L689 320.3L698.1 320.5L707.3 320.8L716.5 321.2L725.8 321.5L735.2 321.9L744.6 322.3L754.1 322.8Z" fill="url(#gb-part-velociraptor-stance)" stroke="#394a2a" stroke-width="3" stroke-linejoin="round"/><g clip-path="url(#bod-part-velociraptor-stance)"><path d="M725.8 321.7L707.3 321.1L689 320.5L671 320L653.2 319.7L635.7 319.4L618.4 319.3L601.3 319.2L584.5 319.2L568 319.3L551.7 319.5L535.5 323.1L519.6 326.9L500.7 330.5L483.9 330.7L471.6 330.9L460.2 328.8L448.7 327.1L437.3 325.8L426.1 323.8L414.8 320.9L403.4 318.5L391.8 316.4L360.6 300.3L354.2 287.8L348 276.2L341.3 266.1L344.6 261.8L352.4 271L360.1 281.5L367.9 293L391.6 304.9L403.5 306.2L415.4 307.8L427.2 309.9L439 311.6L450.9 313.1L462.8 315L474.7 317.3L487.1 318.4L502.4 319.7L520 317.7L535.9 315.6L552 313.7L568.3 313.9L584.9 314.2L601.6 314.6L618.7 315.1L635.9 315.7L653.5 316.4L671.2 317.2L689.2 318L707.5 319L726 320.1Z" fill="#475d34" opacity="0.2"/><path d="M553.3 289.2L537.3 284L529.4 281.4L513.8 276.3L509.3 274L500.8 266.7L494.5 262.8L487.8 260.3L473.9 257.1L467 255.7L453.1 253.2L446.2 252.2L432.1 251.6L425.1 252.1L411.1 253.6L404.2 254.5L390.4 256.7L396.5 260.4L391.4 258.8L384.4 255.3L370.9 249.2L364.2 246.7L353.5 239.7L348.8 235.9L339.3 229.1L334.5 226L325 220.6L323.2 224.9L332.5 229.8L337.2 232.7L346.5 239.3L351.3 242.9L361.6 249.9L367.8 252.8L380.4 259.6L386.8 263.5L393.4 267.5L390.6 264.7L404.1 263.1L410.8 262.5L424.5 261.6L431.3 261.3L445 262.1L451.8 263.1L465.3 265.4L472.1 266.8L485.6 269.8L492.2 272L498.5 275.3L508.1 281.6L513.5 283.4L529.2 287.3L537.1 289.3L553.1 293.3Z" fill="#b4c59f" opacity="0.26"/></g><g clip-path="url(#bod-part-velociraptor-stance)"><g fill="none" stroke="#394a2a" stroke-linecap="round"><path d="M352.3 251.7L342.9 244.7L333.7 238.8L329.2 236.2L320.4 231.8L316 230L307.4 227.4L303.1 226.8L294.8 226.6L290.8 226.9" stroke-width="1.5" opacity="0.3"/><path d="M347 258.6L337.8 252.3L333.3 249.6L328.9 247.1L320.5 243L316.4 241.4L308.6 238.9L305 237.8L301.4 236.8" stroke-width="1.3" opacity="0.26"/><path d="M506.4 293.1L495.1 288.3L482.3 284.1L462.8 280L449.7 277.8L436.6 276.2L423.5 275.8L410.4 275.8L397.4 276.4" stroke-width="1.5" opacity="0.28"/><path d="M488.6 312.9L476.1 311.2L464 308.8L445.8 306L433.7 304.7L421.7 302.7L403.6 300.6L391.4 299.8L371.2 289.8" stroke-width="1.4" opacity="0.26"/><path d="M717.1 315.2L698.8 313.2L680.7 311.3L662.9 309.5L645.3 307.7L628 306.1L610.8 304.6L593.9 303.1L577.3 301.8" stroke-width="1.3" opacity="0.28"/><path d="M707.6 317.3L689.4 315.9L671.4 314.7L662.5 314.1L644.9 313L627.5 312L618.9 311.6L601.9 310.7L593.5 310.3" stroke-width="1.3" opacity="0.24"/><path d="M482.8 310.4A20.6 20.6 0 0 1 521.6 305.5" stroke-width="1.6" opacity="0.3"/><path d="M378.9 297.2A15 15 0 0 1 404.9 294" stroke-width="1.4" opacity="0.26"/></g><path d="M552.7 300.3Q536.7 300.9 520.9 296.4Q507.4 295.8 494.6 290.1Q481.2 289.2 468.9 283.3Q455.5 283.8 442.9 279.1Q429.7 281 416.9 277.7Q403.9 280.7 390.9 278.5Q380.3 274.7 373.4 267.1Q363.6 263.3 357.2 255.5Q346.1 250.8 338.1 241.9Q328 239.3 320.3 232.1Q310.9 232.1 303.1 227.2" fill="none" stroke="#394a2a" stroke-width="1.3" opacity="0.25"/></g><path d="M297.1 245.8L292.8 245.5L288.5 245.2L283.9 245.1L279.3 245L274.5 245L269.5 245.2L267.8 245.2L266.2 245L264.7 244.6L263.4 243.9L262.4 242.9L261.4 241.7L272.9 260.7L276.2 259.1L279.9 257.1L283.8 254.8L287.9 252.1L292.4 249.1L297.1 245.8Z" fill="#5a3138"/><path d="M296.1 246Q297.9 241.2 300.7 236.7" fill="none" stroke="#394a2a" stroke-width="1.6" opacity="0.45"/><path d="M272.6 235.7Q269.6 233.5 267.5 236.4" fill="none" stroke="#394a2a" stroke-width="1.6" opacity="0.75"/><g opacity="1"><path d="M268.5 244.6L266.9 250.5L263.7 245.4Z" fill="#f6f2e4" stroke="#8a7a52" stroke-width="0.8"/><path d="M273.6 244.8L271.9 249.1L268.9 245.5Z" fill="#f6f2e4" stroke="#8a7a52" stroke-width="0.8"/><path d="M278.8 244.7L277.3 250.5L274.1 245.4Z" fill="#f6f2e4" stroke="#8a7a52" stroke-width="0.8"/><path d="M284 244.7L282.2 249L279.2 245.4Z" fill="#f6f2e4" stroke="#8a7a52" stroke-width="0.8"/><path d="M289.1 244.8L287.6 250.6L284.4 245.5Z" fill="#f6f2e4" stroke="#8a7a52" stroke-width="0.8"/><path d="M291.8 251.2L289.2 247.6L287.9 251.8Z" fill="#f6f2e4" stroke="#8a7a52" stroke-width="0.8"/><path d="M286.7 254.6L284.3 251.8L282.8 255.2Z" fill="#f6f2e4" stroke="#8a7a52" stroke-width="0.8"/><path d="M281.4 257.6L278.9 254.1L277.5 258.2Z" fill="#f6f2e4" stroke="#8a7a52" stroke-width="0.8"/></g><ellipse cx="293" cy="230.8" rx="7.6" ry="5.7" fill="#394a2a" opacity="0.1"/><circle cx="292.4" cy="230.9" r="3.8" fill="#fdfaef" stroke="#394a2a" stroke-width="1.5"/><circle cx="291.9" cy="230.9" r="2.3" fill="#c9983d"/><circle cx="291.7" cy="230.9" r="1.3" fill="#1c1a14"/><circle cx="291.1" cy="229.7" r="0.8" fill="#fdfaef" opacity="0.9"/><path d="M296.9 222.5Q290.7 222.1 284.6 227.3" fill="none" stroke="#394a2a" stroke-width="2.2" stroke-linecap="round"/><path d="M494.1 291.9L493.2 297.8L491.1 305.9L488.2 315.9L484.9 327L481.8 338.8L479.4 350.7L478.2 362.3L478.7 373.3L481.1 383.4L485.6 392.3L491.1 400.1L497 407L502.6 413.3L507.5 418.8L511 423.5L512.9 427.1L512.8 430.5L511.8 434.1L509.9 437.8L507.4 441.5L504.5 445L501.6 448.3L498.9 451.4L497 454L509 462L510.2 459.9L512.3 457.2L515.2 453.5L518.4 449.2L521.4 444.1L524 438.4L525.4 431.9L525.1 424.9L523.1 417.5L519.4 410.5L514.8 403.7L510 396.9L505.5 390.1L502 383.6L499.8 377.6L499.3 372.2L501 365.7L504.1 357.3L508.4 348L513.3 338.2L518.6 328.7L523.8 319.9L528.4 312.2L531.9 306.4Z" fill="url(#gl-part-velociraptor-stance)" stroke="#394a2a" stroke-width="2.4"/><g clip-path="url(#bod-part-velociraptor-stance)"><path d="M494.1 291.9L493.2 297.8L491.1 305.9L488.2 315.9L484.9 327L481.8 338.8L479.4 350.7L478.2 362.3L478.7 373.3L481.1 383.4L485.6 392.3L491.1 400.1L497 407L502.6 413.3L507.5 418.8L511 423.5L512.9 427.1L512.8 430.5L511.8 434.1L509.9 437.8L507.4 441.5L504.5 445L501.6 448.3L498.9 451.4L497 454L509 462L510.2 459.9L512.3 457.2L515.2 453.5L518.4 449.2L521.4 444.1L524 438.4L525.4 431.9L525.1 424.9L523.1 417.5L519.4 410.5L514.8 403.7L510 396.9L505.5 390.1L502 383.6L499.8 377.6L499.3 372.2L501 365.7L504.1 357.3L508.4 348L513.3 338.2L518.6 328.7L523.8 319.9L528.4 312.2L531.9 306.4Z" fill="url(#gl-part-velociraptor-stance)"/></g><path d="M507 460.8L491.4 466.7Q488.9 470 492.9 471.3L509 467.2Z" fill="url(#gl-part-velociraptor-stance)" stroke="#394a2a" stroke-width="1.5" stroke-linejoin="round"/><path d="M491.6 467.5L487.8 470.4L492.6 470.5Z" fill="#394a2a"/><path d="M503.9 458.4L485.1 465.5Q482.4 469.1 486.7 470.5L506.1 465.6Z" fill="url(#gl-part-velociraptor-stance)" stroke="#394a2a" stroke-width="1.5" stroke-linejoin="round"/><path d="M485.4 466.5L481.6 469.3L486.4 469.5Z" fill="#394a2a"/><path d="M508.5 467.6L515.2 470.4Q518.9 470 517.3 466.6L511.5 462.4Z" fill="url(#gl-part-velociraptor-stance)" stroke="#394a2a" stroke-width="1.5" stroke-linejoin="round"/><path d="M515.5 469.9L520.2 470.7L517 467.1Z" fill="#394a2a"/><path d="M396.8 288.3L396.7 291.4L396.8 295.6L396.9 300.7L397.1 306.4L397.2 312.4L397.1 318.4L396.8 324.1L396.1 329.4L395.1 334.5L393.7 339.7L392 344.8L390.1 349.7L388.2 354.2L386.5 358.3L385.1 361.6L384.1 364.1L379.5 362.5L380.4 359.8L381.6 356.3L383.1 352.2L384.8 347.7L386.3 342.9L387.8 338L388.9 333.2L389.5 328.6L389.5 323.9L389.2 318.5L388.6 312.9L387.9 307.1L387 301.7L386.2 296.7L385.4 292.4L384.8 289.2Z" fill="url(#gl-part-velociraptor-stance)" stroke="#394a2a" stroke-width="2.4"/><g clip-path="url(#bod-part-velociraptor-stance)"><path d="M396.8 288.3L396.7 291.4L396.8 295.6L396.9 300.7L397.1 306.4L397.2 312.4L397.1 318.4L396.8 324.1L396.1 329.4L395.1 334.5L393.7 339.7L392 344.8L390.1 349.7L388.2 354.2L386.5 358.3L385.1 361.6L384.1 364.1L379.5 362.5L380.4 359.8L381.6 356.3L383.1 352.2L384.8 347.7L386.3 342.9L387.8 338L388.9 333.2L389.5 328.6L389.5 323.9L389.2 318.5L388.6 312.9L387.9 307.1L387 301.7L386.2 296.7L385.4 292.4L384.8 289.2Z" fill="url(#gl-part-velociraptor-stance)"/></g><path d="M380.1 359.2L374.1 369Q373.9 372.7 377.5 371.7L385.5 363.4Z" fill="url(#gl-part-velociraptor-stance)" stroke="#394a2a" stroke-width="1.5" stroke-linejoin="round"/><path d="M374.5 369.3L373 373.9L377.1 371.3Z" fill="#394a2a"/><path d="M382.4 362.4L380.1 370.7Q380.9 373.7 383.5 371.9L387.2 364.2Z" fill="url(#gl-part-velociraptor-stance)" stroke="#394a2a" stroke-width="1.5" stroke-linejoin="round"/><path d="M380.3 370.8L380.2 375.5L383.3 371.9Z" fill="#394a2a"/><g fill="#c9983d" stroke="#896a2c" stroke-width="1" opacity="0.95"><path d="M391.9 306.6Q401.6 310.3 412.6 306.9Q403.6 299.7 393.2 299.5Z"/><path d="M390.9 312.9Q399.9 317.6 411 315.5Q403.2 307.3 393.1 306Z"/><path d="M390.5 319.3Q403.6 325.1 418.7 324Q406.7 314.8 392.6 312.4Z"/><path d="M389.7 325.7Q402.9 332.5 418.6 332.6Q406.7 322.4 392.3 318.9Z"/></g></svg>