<svg xmlns="http://www.w3.org/2000/svg" viewBox="0 0 820 540" role="img" aria-label="Tyrannoceratops, a hybrid dinosaur"><g transform="translate(454.8 470) scale(0.985) translate(-454.8 -470)"><defs><clipPath id="bod-pattern-countershade"><path d="M743.9 356.9L735.2 352.9L726.5 349L717.9 345.2L709.3 341.5L700.7 337.8L692.2 334.2L683.8 330.7L675.3 327.2L667 323.8L658.6 320.5L650.4 317.3L642.1 314.2L633.9 311.1L625.8 308.1L617.7 305.2L609.6 302.4L601.6 299.6L593.6 296.9L585.6 294.3L577.7 291.8L569.9 289.4L562 287L554.2 284.7L546.8 280.9L539.3 276.9L531.9 273L524.5 269.2L517.1 265.5L511.7 262.1L506.2 258.1L498.5 253.7L490.7 249.4L482.6 246.9L474.2 245.4L465.9 244.1L457.5 242.8L449.1 241.8L440.8 240.9L432.4 240.1L424 239.5L415.5 240.4L407.1 241.6L398.8 242.9L390.4 244.4L382.2 246L374 247.8L365.8 249.7L371.2 252.8L379.2 258.1L372.2 256L365.4 254.2L358.6 252.6L352 251.3L345.5 250.3L339.6 248.6L334.8 245.3L330.1 242.2L325.3 239.3L320.4 236.6L315.5 234.1L310.6 231.8L305.6 229.7L300.6 227.8L295.3 226.9L289.9 227.3L284.7 228L279.5 228.9L274.5 230.1L269.7 231.5L265 233.2L260.5 235.1L256.2 237.2L252.1 239.6L248.1 242.1L244.3 244.9L240.8 247.8L237.5 250.7L243.7 263.8L247.7 263.4L251.4 263.3L255 263.4L258.5 263.7L261.9 264.3L265.2 265L268.4 265.9L271.5 267L274.5 268.3L277.4 269.7L280.3 271.2L283.1 272.9L285.9 274.7L288.9 275.7L292.2 276L295.6 276.5L299.2 277.3L302.9 278.2L306.7 279.3L310.6 280.7L314.7 282.2L318.8 284L322 287.8L324.5 292.6L327 297.6L329.5 302.7L331.9 307.9L334.4 313.2L351.8 326.4L372.3 328.1L379.3 328.9L386.2 329.8L393 330.9L399.8 332L406.5 333.3L413.2 334.7L419.9 336.2L426.6 336.4L433.3 336.6L440 337L446.8 337.5L453.5 338.2L460.3 338.9L467 339.8L474 340L481.3 338.7L488.7 337.5L498.3 336.9L507.8 335.4L515.3 333.8L522.9 332.2L530.7 330.7L538.5 329.2L546.5 328.1L554.2 328.6L562 329.3L569.9 330L577.8 330.8L585.9 331.7L593.9 332.6L602.1 333.7L610.4 334.8L618.7 336L627 337.3L635.5 338.7L644 340.1L652.6 341.7L661.3 343.3L670 345L678.8 346.8L687.7 348.7L696.6 350.6L705.6 352.7L714.7 354.8L723.8 357L733 359.3L742.3 361.6Z"/></clipPath><linearGradient id="gb-pattern-countershade" x1="0" y1="0" x2="0" y2="1"><stop offset="0" stop-color="#76858d"/><stop offset="0.55" stop-color="#5d6f7a"/><stop offset="1" stop-color="#49575d"/></linearGradient><linearGradient id="gl-pattern-countershade" x1="0" y1="0" x2="0" y2="1"><stop offset="0" stop-color="#5b6d78"/><stop offset="0.55" stop-color="#52626b"/><stop offset="1" stop-color="#47555b"/></linearGradient><linearGradient id="gf-pattern-countershade" x1="0" y1="0" x2="0" y2="1"><stop offset="0" stop-color="#55666f"/><stop offset="0.55" stop-color="#4e5c64"/><stop offset="1" stop-color="#465359"/></linearGradient><linearGradient id="sc-pattern-countershade" x1="0" y1="0" x2="0" y2="1"><stop offset="0" stop-color="#e1b768"/><stop offset="0.55" stop-color="#d9a441"/><stop offset="1" stop-color="#b18736"/></linearGradient><linearGradient id="bn-pattern-countershade" x1="0" y1="0" x2="0" y2="1"><stop offset="0" stop-color="#eee7d1"/><stop offset="0.55" stop-color="#e6dcc0"/><stop offset="1" stop-color="#c4bca3"/></linearGradient><radialGradient id="sh-pattern-countershade"><stop offset="0" stop-color="#23281e" stop-opacity="0.18"/><stop offset="0.7" stop-color="#23281e" stop-opacity="0.11"/><stop offset="1" stop-color="#23281e" stop-opacity="0"/></radialGradient></defs><line x1="60" y1="470" x2="780" y2="470" stroke="#b9b4a0" stroke-width="2"/><path d="M120 470l5 -9 M127 470l4 -6" stroke="#b9b4a0" stroke-width="1.5" fill="none"/><path d="M300 470l5 -9 M307 470l4 -6" stroke="#b9b4a0" stroke-width="1.5" fill="none"/><path d="M520 470l5 -9 M527 470l4 -6" stroke="#b9b4a0" stroke-width="1.5" fill="none"/><path d="M700 470l5 -9 M707 470l4 -6" stroke="#b9b4a0" stroke-width="1.5" fill="none"/><ellipse cx="491.9" cy="478" rx="231.1" ry="10" fill="url(#sh-pattern-countershade)"/><path d="M516.2 290.7L515.5 297.3L513.8 306.5L511.5 317.9L509 330.4L506.7 343.5L505 356.5L504.3 368.7L505.2 380L508.3 390.1L513.4 398.5L519.4 405L525.6 410.3L531.2 414.6L535.8 418.2L538.9 421.1L540.4 423.2L540 425.6L538.7 428.7L536.5 432.3L533.6 436L530.3 439.6L527 443L523.9 446.2L521.7 448.8L536.3 459.2L537.5 457L539.7 454L542.8 450L546.1 445.4L549.4 440.2L552.2 434.3L553.8 427.9L553.6 420.8L551.6 413.7L547.7 407.6L543.1 402.1L538.4 396.9L534.3 391.8L531.1 386.8L529.3 382.2L528.8 377.5L529.8 370.7L532.1 361.1L535.4 350.1L539.3 338.4L543.4 326.9L547.5 316.3L551.1 307.1L553.8 300.3Z" fill="url(#gf-pattern-countershade)" stroke="#3d484c" stroke-width="1.8"/><ellipse cx="527" cy="461" rx="23.3" ry="6.5" fill="url(#gf-pattern-countershade)" stroke="#3d484c" stroke-width="2"/><path d="M520 456.8L518.4 463M529.8 456.8L528.2 463" fill="none" stroke="#333c3d" stroke-width="1.2" opacity="0.45"/><path d="M385.4 291.2L385.5 295.1L385.6 300.2L385.6 306.4L385.6 313.1L385.6 320.2L385.5 327.2L385.3 333.9L385 339.8L384.5 345.4L383.8 351.3L383 357.2L382.1 363L381.3 368.4L380.5 373.2L379.9 377.3L379.5 380.5L387.5 382L388.3 378.9L389.2 374.9L390.3 370.1L391.5 364.7L392.8 359L394 353L395.1 346.9L396 341L396.9 334.9L397.8 328.1L398.5 320.9L399.3 313.8L399.9 307L400.5 300.9L401.1 295.8L401.6 292.1Z" fill="url(#gf-pattern-countershade)" stroke="#3d484c" stroke-width="1.8"/><path d="M383.5 381.2L374.5 390.2L388.5 388.2Z" fill="url(#gf-pattern-countershade)" stroke="#3d484c" stroke-width="1.5"/><g transform="rotate(-24 342.7 265.3)"><ellipse cx="342.7" cy="265.3" rx="21.5" ry="29" fill="url(#sc-pattern-countershade)" stroke="#93712e" stroke-width="2.2"/><circle cx="321.4" cy="269.3" r="1.3" fill="#d9a441" stroke="#93712e" stroke-width="1.2"/><circle cx="322.5" cy="255.4" r="1.8" fill="#d9a441" stroke="#93712e" stroke-width="1.2"/><circle cx="328.3" cy="243.7" r="0.8" fill="#d9a441" stroke="#93712e" stroke-width="1.2"/><circle cx="337.5" cy="237.2" r="1.3" fill="#d9a441" stroke="#93712e" stroke-width="1.2"/><circle cx="347.9" cy="237.2" r="1.8" fill="#d9a441" stroke="#93712e" stroke-width="1.2"/><circle cx="357" cy="243.7" r="0.8" fill="#d9a441" stroke="#93712e" stroke-width="1.2"/><circle cx="362.8" cy="255.4" r="1.3" fill="#d9a441" stroke="#93712e" stroke-width="1.2"/><circle cx="363.9" cy="269.3" r="1.8" fill="#d9a441" stroke="#93712e" stroke-width="1.2"/><ellipse cx="342.7" cy="265.3" rx="12.8" ry="18" fill="#bf913a"/><path d="M337.5 261.7L326 254.4" stroke="#997530" stroke-width="1.6" opacity="0.4"/><path d="M339.6 258.4L332.8 244.1" stroke="#997530" stroke-width="1.6" opacity="0.4"/><path d="M342.7 257.2L342.7 240.4" stroke="#997530" stroke-width="1.6" opacity="0.4"/><path d="M345.7 258.4L352.5 244.1" stroke="#997530" stroke-width="1.6" opacity="0.4"/><path d="M347.9 261.7L359.3 254.4" stroke="#997530" stroke-width="1.6" opacity="0.4"/></g><path d="M306.9 231.4Q309.2 218 297.6 201.1Q299.5 215.6 293.3 228.1Z" fill="url(#bn-pattern-countershade)" stroke="#8a7a52" stroke-width="1.5" stroke-linejoin="round"/><path d="M306 223.8Q299.4 221.9 293.3 224.9" fill="none" stroke="#8a7a52" stroke-width="1.1" opacity="0.5"/><path d="M304.7 219.5Q299 217.6 293.8 220.5" fill="none" stroke="#8a7a52" stroke-width="1.1" opacity="0.5"/><path d="M316.6 235.9Q319 225.6 311.1 211.8Q309.5 222.4 303.3 231.5Z" fill="url(#bn-pattern-countershade)" stroke="#8a7a52" stroke-width="1.5" stroke-linejoin="round"/><path d="M316.6 229.8Q310.3 227.1 303.8 229.2" fill="none" stroke="#8a7a52" stroke-width="1.1" opacity="0.5"/><path d="M315.8 226.4Q310.5 223.7 304.9 225.8" fill="none" stroke="#8a7a52" stroke-width="1.1" opacity="0.5"/><path d="M255.4 241.9Q252.9 237.6 244.4 235.3Q243.4 240.7 242.1 246.2Z" fill="url(#bn-pattern-countershade)" stroke="#8a7a52" stroke-width="1.5" stroke-linejoin="round"/><path d="M253.6 239.4Q246.8 240.2 242.1 245.2" fill="none" stroke="#8a7a52" stroke-width="1.1" opacity="0.5"/><path d="M743.9 356.9L735.2 352.9L726.5 349L717.9 345.2L709.3 341.5L700.7 337.8L692.2 334.2L683.8 330.7L675.3 327.2L667 323.8L658.6 320.5L650.4 317.3L642.1 314.2L633.9 311.1L625.8 308.1L617.7 305.2L609.6 302.4L601.6 299.6L593.6 296.9L585.6 294.3L577.7 291.8L569.9 289.4L562 287L554.2 284.7L546.8 280.9L539.3 276.9L531.9 273L524.5 269.2L517.1 265.5L511.7 262.1L506.2 258.1L498.5 253.7L490.7 249.4L482.6 246.9L474.2 245.4L465.9 244.1L457.5 242.8L449.1 241.8L440.8 240.9L432.4 240.1L424 239.5L415.5 240.4L407.1 241.6L398.8 242.9L390.4 244.4L382.2 246L374 247.8L365.8 249.7L371.2 252.8L379.2 258.1L372.2 256L365.4 254.2L358.6 252.6L352 251.3L345.5 250.3L339.6 248.6L334.8 245.3L330.1 242.2L325.3 239.3L320.4 236.6L315.5 234.1L310.6 231.8L305.6 229.7L300.6 227.8L295.3 226.9L289.9 227.3L284.7 228L279.5 228.9L274.5 230.1L269.7 231.5L265 233.2L260.5 235.1L256.2 237.2L252.1 239.6L248.1 242.1L244.3 244.9L240.8 247.8L237.5 250.7L243.7 263.8L247.7 263.4L251.4 263.3L255 263.4L258.5 263.7L261.9 264.3L265.2 265L268.4 265.9L271.5 267L274.5 268.3L277.4 269.7L280.3 271.2L283.1 272.9L285.9 274.7L288.9 275.7L292.2 276L295.6 276.5L299.2 277.3L302.9 278.2L306.7 279.3L310.6 280.7L314.7 282.2L318.8 284L322 287.8L324.5 292.6L327 297.6L329.5 302.7L331.9 307.9L334.4 313.2L351.8 326.4L372.3 328.1L379.3 328.9L386.2 329.8L393 330.9L399.8 332L406.5 333.3L413.2 334.7L419.9 336.2L426.6 336.4L433.3 336.6L440 337L446.8 337.5L453.5 338.2L460.3 338.9L467 339.8L474 340L481.3 338.7L488.7 337.5L498.3 336.9L507.8 335.4L515.3 333.8L522.9 332.2L530.7 330.7L538.5 329.2L546.5 328.1L554.2 328.6L562 329.3L569.9 330L577.8 330.8L585.9 331.7L593.9 332.6L602.1 333.7L610.4 334.8L618.7 336L627 337.3L635.5 338.7L644 340.1L652.6 341.7L661.3 343.3L670 345L678.8 346.8L687.7 348.7L696.6 350.6L705.6 352.7L714.7 354.8L723.8 357L733 359.3L742.3 361.6Z" fill="url(#gb-pattern-countershade)" stroke="#333c3d" stroke-width="3" stroke-linejoin="round"/><g clip-path="url(#bod-pattern-countershade)"><path d="M714.6 355L696.5 350.9L678.7 347.1L661.2 343.7L643.9 340.6L626.9 337.8L610.2 335.4L593.8 333.3L577.7 331.5L561.8 330.1L546.3 328.9L530.5 331.7L515.1 335.1L498 338.4L480.9 340.4L466.7 341.7L453.2 340.1L439.8 338.9L426.5 338.3L413.2 336.6L399.8 333.8L386.2 331.5L372.5 329.7L333.5 314.3L328.8 303.6L323.9 293.4L318.4 284.7L322.6 277.6L329.4 285.2L335.9 293.9L342.4 303.3L371.2 314L385.4 314.8L399.6 316L413.6 317.8L427.6 319L441.7 319.9L455.7 321.2L469.8 323.1L484.4 323.4L500.7 323.4L517 322.1L532.2 321L547.9 320.3L563.4 322.1L579.2 324.2L595.3 326.7L611.7 329.5L628.3 332.6L645.2 336L662.3 339.8L679.7 343.9L697.3 348.3L715.2 353.1Z" fill="#3e4a4e" opacity="0.2"/><path d="M554.4 283.8L539.5 275.8L524.7 267.9L512 260.6L498.9 252L482.9 245.1L466.1 242.2L449.3 239.9L432.5 238.2L415.6 238.6L398.7 241.2L382.1 244.4L365.7 248.2L380.1 257L366.1 253.2L352.5 250.5L340 247.9L330.5 241.5L320.8 235.8L310.9 230.9L300.8 226.9L290.1 226.4L279.6 228.1L269.7 230.8L260.4 234.5L251.9 239.1L244.2 244.5L245.2 247.1L252.8 242.5L261.1 238.7L269.9 235.8L279.3 233.8L289.1 232.8L299.2 233.6L308.8 237.2L318.3 241.6L327.7 246.8L337.1 252.9L348.7 256.3L361.1 260L373.8 264.7L366.6 259.1L382.7 256.1L398.9 253.6L415.2 251.8L431.7 251.6L448.1 253.2L464.4 255.4L480.7 258.1L496.5 263.9L510.1 271.1L523.4 277L538.3 283.4L553.3 289.9Z" fill="#adb5b5" opacity="0.26"/></g><g clip-path="url(#bod-pattern-countershade)"><defs><linearGradient id="cs-pattern-countershade" x1="0" y1="1" x2="0" y2="0"><stop offset="0" stop-color="#b4bbbb" stop-opacity="0.62"/><stop offset="0.55" stop-color="#b4bbbb" stop-opacity="0.42"/><stop offset="1" stop-color="#b4bbbb" stop-opacity="0"/></linearGradient></defs><rect x="120" y="315" width="620" height="195" fill="url(#cs-pattern-countershade)"/></g><g clip-path="url(#bod-pattern-countershade)"><g fill="none" stroke="#333c3d" stroke-width="1.2" opacity="0.2"><path d="M339.7 277.1Q334.3 277.9 332.9 272.6"/><path d="M350.8 297.7Q346.8 297.9 346.2 294"/><path d="M326 267.6Q322.2 268.5 320.9 264.8"/><path d="M403.6 301.7Q399.5 305.5 395.3 301.8"/><path d="M417.1 296Q414.1 298.6 411.2 295.9"/><path d="M555.1 302.2Q550.6 305 547.3 300.8"/><path d="M449.5 279.6Q445.2 282.8 441.6 278.9"/><path d="M361.1 303.1Q357.4 305 355.2 301.6"/><path d="M514.4 316.9Q509.8 320.1 506.2 315.8"/><path d="M324.4 259.6Q320.8 260.6 319.4 257.1"/><path d="M321.2 257.7Q316 259.3 313.8 254.2"/><path d="M380.1 281.5Q376.4 285.3 372.3 282"/><path d="M334.7 264.9Q329.4 265.9 327.8 260.8"/><path d="M456.7 279Q453.1 281.5 450.2 278.2"/><path d="M454.3 299.8Q450.8 302.3 447.9 299"/><path d="M442.2 268.3Q438.4 271.2 435.1 267.7"/><path d="M319.8 271.3Q314.7 272.7 312.7 267.7"/><path d="M569.9 310.5Q565.1 313.3 561.8 308.9"/><path d="M351 269.6Q346.3 270.2 345.2 265.5"/><path d="M509.6 294.9Q505.4 297.5 502.3 293.6"/><path d="M356.1 274Q350.3 274.6 349.1 268.8"/><path d="M553.3 308.1Q549.6 310.4 547 307"/></g><g fill="none" stroke="#333c3d" stroke-linecap="round"><path d="M332.3 261L323.3 255.7L314.3 251.2L309.8 249.2L300.9 245.9L296.5 244.6L287.5 243.3L283.1 243.1L274.5 243.5L270.3 243.9" stroke-width="1.5" opacity="0.3"/><path d="M325.7 272.3L317 268L312.8 266.1L308.7 264.5L300.6 261.8L296.6 260.7L289 258.9L285.3 257.9L281.7 256.9" stroke-width="1.3" opacity="0.26"/><path d="M507.3 286.8L492.8 281.7L477.4 277.6L454 274.1L438.3 272.5L422.6 271.4L406.9 271.9L391.3 273L375.7 274.6" stroke-width="1.5" opacity="0.28"/><path d="M485.9 315.7L471.2 314.7L456.8 312.8L435.3 310.8L421 310.1L406.7 308.6L385.1 307.2L370.6 307L346.5 298.4" stroke-width="1.4" opacity="0.26"/><path d="M708 345.4L690.6 339.2L673.5 333.4L656.5 327.9L639.8 322.8L623.3 317.9L607 313.3L590.9 309.1L575 305.2" stroke-width="1.3" opacity="0.28"/><path d="M698 346.1L680.5 341.1L663.3 336.5L654.7 334.3L637.8 330.1L621.1 326.3L612.9 324.4L596.6 321.1L588.6 319.5" stroke-width="1.3" opacity="0.24"/><path d="M477.8 306.7A25.7 25.7 0 0 1 526.2 300.6" stroke-width="1.6" opacity="0.3"/><path d="M350.3 298A20.6 20.6 0 0 1 386.2 293.5" stroke-width="1.4" opacity="0.26"/></g></g><path d="M277.5 266.7L274.5 265.3L268.1 263L264.7 262.1L257.7 260.8L254.1 260.5L246.5 260.6" fill="none" stroke="#333c3d" stroke-width="2" opacity="0.7"/><path d="M280.6 268.2Q282.1 263.4 286.5 259.8" fill="none" stroke="#333c3d" stroke-width="1.6" opacity="0.45"/><path d="M249.1 250Q245.7 248.5 244.2 251.9" fill="none" stroke="#333c3d" stroke-width="1.6" opacity="0.75"/><g opacity="1"><path d="M274.5 265.8L272.9 272.2L271.3 264.5Z" fill="#f6f2e4" stroke="#8a7a52" stroke-width="0.8"/><path d="M268.1 263.4L266.4 268L264.8 262.5Z" fill="#f6f2e4" stroke="#8a7a52" stroke-width="0.8"/><path d="M264.8 262.5L261.3 268.9L257.9 261.3Z" fill="#f6f2e4" stroke="#8a7a52" stroke-width="0.8"/><path d="M257.9 261.3L256 266.2L254.2 261Z" fill="#f6f2e4" stroke="#8a7a52" stroke-width="0.8"/><path d="M250.5 260.9L248.6 268L246.7 261.1Z" fill="#f6f2e4" stroke="#8a7a52" stroke-width="0.8"/></g><circle cx="287.6" cy="242.8" r="5.1" fill="#fdfaef" stroke="#333c3d" stroke-width="1.5"/><circle cx="287" cy="242.8" r="3.1" fill="#c9983d"/><circle cx="286.7" cy="242.8" r="1.7" fill="#1c1a14"/><circle cx="285.9" cy="241.3" r="0.8" fill="#fdfaef" opacity="0.9"/><path d="M296.6 234.2Q288.7 232.2 279.5 235.2" fill="none" stroke="#333c3d" stroke-width="2.2" stroke-linecap="round"/><path d="M490.2 296.7L489.5 303.3L487.8 312.5L485.5 323.9L483 336.4L480.7 349.5L479 362.5L478.3 374.7L479.2 386L482.3 396.1L487.4 404.5L493.4 411L499.6 416.3L505.2 420.6L509.8 424.2L512.9 427.1L514.4 429.2L514 431.6L512.7 434.7L510.5 438.3L507.6 442L504.3 445.6L501 449L497.9 452.2L495.7 454.8L510.3 465.2L511.5 463L513.7 460L516.8 456L520.1 451.4L523.4 446.2L526.2 440.3L527.8 433.9L527.6 426.8L525.6 419.7L521.7 413.6L517.1 408.1L512.4 402.9L508.3 397.8L505.1 392.8L503.3 388.2L502.8 383.5L503.8 376.7L506.1 367.1L509.4 356.1L513.3 344.4L517.4 332.9L521.5 322.3L525.1 313.1L527.8 306.3Z" fill="url(#gl-pattern-countershade)" stroke="#333c3d" stroke-width="2.4"/><ellipse cx="501" cy="464" rx="24.3" ry="7" fill="url(#gl-pattern-countershade)" stroke="#333c3d" stroke-width="2"/><path d="M493.7 459.5L492.1 466.1M503.9 459.5L502.3 466.1" fill="none" stroke="#333c3d" stroke-width="1.2" opacity="0.45"/><path d="M478.7 462L466.7 468L482.7 469Z" fill="url(#gl-pattern-countershade)" stroke="#333c3d" stroke-width="1.5"/><path d="M359.4 297.2L359.5 301.1L359.6 306.2L359.6 312.4L359.6 319.1L359.6 326.2L359.5 333.2L359.3 339.9L359 345.8L358.5 351.4L357.8 357.3L357 363.2L356.1 369L355.3 374.4L354.5 379.2L353.9 383.3L353.5 386.5L361.5 388L362.3 384.9L363.2 380.9L364.3 376.1L365.5 370.7L366.8 365L368 359L369.1 352.9L370 347L370.9 340.9L371.8 334.1L372.5 326.9L373.3 319.8L373.9 313L374.5 306.9L375.1 301.8L375.6 298.1Z" fill="url(#gl-pattern-countershade)" stroke="#333c3d" stroke-width="2.4"/><path d="M357.5 387.2L348.5 396.2L362.5 394.2Z" fill="url(#gl-pattern-countershade)" stroke="#333c3d" stroke-width="1.5"/></g></svg>