<svg xmlns="http://www.w3.org/2000/svg" viewBox="0 0 820 540" role="img" aria-label="Tyrannoceratops, a hybrid dinosaur"><g transform="translate(454.2 470) scale(0.985) translate(-454.2 -470)"><defs><clipPath id="bod-pin-head-triceratops-on-rex"><path d="M769.9 334.7L760.2 331.2L750.4 327.7L740.8 324.3L731.2 321L721.6 317.7L712.1 314.5L702.7 311.3L693.3 308.2L683.9 305.2L674.6 302.3L665.4 299.4L656.2 296.5L647.1 293.8L638 291.1L628.9 288.5L620 285.9L611 283.4L602.1 280.9L593.3 278.6L584.5 276.3L575.8 274L567.1 271.9L558.5 269.7L550.1 266L541.8 262.2L533.5 258.4L525.2 254.7L516.9 251L513.2 248.1L510.5 244L502.8 238.7L495 233.5L486.7 230.2L478.1 227.9L469.4 225.7L460.8 223.8L452.1 222.1L443.4 220.5L434.7 219.1L426 218L417.1 218.8L408.2 219.8L399.5 221.1L390.8 222.5L382.2 224.2L373.7 226L365.2 228L360.6 230.2L365.9 232.6L361.9 233.7L357.9 235L353.9 236.3L350 237.7L346.2 239.2L342.5 239.9L339 239.1L335.4 238.3L330 235.6L324.9 233.3L320.3 231.6L316.1 230.4L312.3 229.7L308.9 229.6L305.8 229.2L302.9 229.3L300.2 230L297.8 231.2L295.7 232.8L293.8 235L292 238.1L290 241.1L287.9 244L285.7 246.7L283.3 249.4L280.8 252L277.4 253.7L274.3 255.3L271.3 256.9L268.6 258.5L266 260.1L263.6 261.6L261.5 262.7L259.8 263.9L258.5 265.1L257.6 266.3L257.1 267.5L257 268.7L257.9 270.7L258.9 272.5L260.2 274.1L261.6 275.6L263.2 277L265 278.1L270.1 280.7L275.2 283L280.5 285L285.9 286.7L291.4 288.1L297 289.2L303.8 289.9L309.6 290.4L314.5 290.7L318.4 290.7L321.4 290.6L323.4 290.2L324.3 289.9L325.3 289.6L326.4 289.1L327.6 288.6L329 288L330.5 287.3L330.5 287.3L333.3 287.2L336 287.1L338.5 288.8L340.6 291.3L342.7 293.8L344.6 296.3L346.4 298.9L348 301.5L358.9 305.4L369.6 306.5L376.4 307.8L383.2 309.3L389.9 310.9L396.5 312.7L403 314.6L409.5 316.7L415.9 318.9L422.4 319.4L429 320.1L435.6 320.9L442.2 321.9L448.8 323L455.5 324.3L462.2 325.7L469.1 326.5L476.6 325.7L484.2 325.2L496.8 326.2L509.5 324.9L517.9 323L526.3 321.1L534.9 319.3L543.5 317.6L552.2 316.1L560.8 316.4L569.5 316.7L578.2 317.1L587 317.6L595.9 318.1L604.9 318.7L613.9 319.4L623 320.2L632.2 321L641.5 321.9L650.8 322.8L660.3 323.8L669.7 324.9L679.3 326.1L688.9 327.3L698.7 328.6L708.4 329.9L718.3 331.4L728.2 332.9L738.2 334.4L748.3 336.1L758.4 337.8L768.6 339.6Z"/></clipPath><path id="sil-pin-head-triceratops-on-rex" d="M769.9 334.7L760.2 331.2L750.4 327.7L740.8 324.3L731.2 321L721.6 317.7L712.1 314.5L702.7 311.3L693.3 308.2L683.9 305.2L674.6 302.3L665.4 299.4L656.2 296.5L647.1 293.8L638 291.1L628.9 288.5L620 285.9L611 283.4L602.1 280.9L593.3 278.6L584.5 276.3L575.8 274L567.1 271.9L558.5 269.7L550.1 266L541.8 262.2L533.5 258.4L525.2 254.7L516.9 251L513.2 248.1L510.5 244L502.8 238.7L495 233.5L486.7 230.2L478.1 227.9L469.4 225.7L460.8 223.8L452.1 222.1L443.4 220.5L434.7 219.1L426 218L417.1 218.8L408.2 219.8L399.5 221.1L390.8 222.5L382.2 224.2L373.7 226L365.2 228L360.6 230.2L365.9 232.6L361.9 233.7L357.9 235L353.9 236.3L350 237.7L346.2 239.2L342.5 239.9L339 239.1L335.4 238.3L330 235.6L324.9 233.3L320.3 231.6L316.1 230.4L312.3 229.7L308.9 229.6L305.8 229.2L302.9 229.3L300.2 230L297.8 231.2L295.7 232.8L293.8 235L292 238.1L290 241.1L287.9 244L285.7 246.7L283.3 249.4L280.8 252L277.4 253.7L274.3 255.3L271.3 256.9L268.6 258.5L266 260.1L263.6 261.6L261.5 262.7L259.8 263.9L258.5 265.1L257.6 266.3L257.1 267.5L257 268.7L257.9 270.7L258.9 272.5L260.2 274.1L261.6 275.6L263.2 277L265 278.1L270.1 280.7L275.2 283L280.5 285L285.9 286.7L291.4 288.1L297 289.2L303.8 289.9L309.6 290.4L314.5 290.7L318.4 290.7L321.4 290.6L323.4 290.2L324.3 289.9L325.3 289.6L326.4 289.1L327.6 288.6L329 288L330.5 287.3L330.5 287.3L333.3 287.2L336 287.1L338.5 288.8L340.6 291.3L342.7 293.8L344.6 296.3L346.4 298.9L348 301.5L358.9 305.4L369.6 306.5L376.4 307.8L383.2 309.3L389.9 310.9L396.5 312.7L403 314.6L409.5 316.7L415.9 318.9L422.4 319.4L429 320.1L435.6 320.9L442.2 321.9L448.8 323L455.5 324.3L462.2 325.7L469.1 326.5L476.6 325.7L484.2 325.2L496.8 326.2L509.5 324.9L517.9 323L526.3 321.1L534.9 319.3L543.5 317.6L552.2 316.1L560.8 316.4L569.5 316.7L578.2 317.1L587 317.6L595.9 318.1L604.9 318.7L613.9 319.4L623 320.2L632.2 321L641.5 321.9L650.8 322.8L660.3 323.8L669.7 324.9L679.3 326.1L688.9 327.3L698.7 328.6L708.4 329.9L718.3 331.4L728.2 332.9L738.2 334.4L748.3 336.1L758.4 337.8L768.6 339.6Z"/><linearGradient id="gb-pin-head-triceratops-on-rex" gradientUnits="userSpaceOnUse" x1="0" y1="217.7" x2="0" y2="339.6"><stop offset="0" stop-color="#5e7e45"/><stop offset="0.52" stop-color="#6b8f4e"/><stop offset="1" stop-color="#b4c199"/></linearGradient><linearGradient id="gl-pin-head-triceratops-on-rex" gradientUnits="userSpaceOnUse" x1="0" y1="217.7" x2="0" y2="470"><stop offset="0" stop-color="#5e7e45"/><stop offset="0.25" stop-color="#6b8f4e"/><stop offset="0.48" stop-color="#b4c199"/><stop offset="0.61" stop-color="#698d4d"/><stop offset="1" stop-color="#618147"/></linearGradient><linearGradient id="gf-pin-head-triceratops-on-rex" gradientUnits="userSpaceOnUse" x1="0" y1="217.7" x2="0" y2="470"><stop offset="0" stop-color="#506a3a"/><stop offset="0.25" stop-color="#5c7b43"/><stop offset="0.48" stop-color="#9aa582"/><stop offset="0.61" stop-color="#5b7942"/><stop offset="1" stop-color="#526d3c"/></linearGradient><radialGradient id="wl-pin-head-triceratops-on-rex" gradientUnits="userSpaceOnUse" cx="462.9" cy="249.4" r="319.2"><stop offset="0" stop-color="#d8dfc8" stop-opacity="0.3"/><stop offset="0.55" stop-color="#d8dfc8" stop-opacity="0.1"/><stop offset="1" stop-color="#d8dfc8" stop-opacity="0"/></radialGradient><radialGradient id="ao-pin-head-triceratops-on-rex"><stop offset="0" stop-color="#394a2a" stop-opacity="1"/><stop offset="0.6" stop-color="#394a2a" stop-opacity="0.5"/><stop offset="1" stop-color="#394a2a" stop-opacity="0"/></radialGradient><linearGradient id="sc-pin-head-triceratops-on-rex" x1="0" y1="0" x2="0" y2="1"><stop offset="0" stop-color="#e1b768"/><stop offset="0.55" stop-color="#d9a441"/><stop offset="1" stop-color="#b18736"/></linearGradient><linearGradient id="bn-pin-head-triceratops-on-rex" x1="0" y1="0" x2="0" y2="1"><stop offset="0" stop-color="#eee7d1"/><stop offset="0.55" stop-color="#e6dcc0"/><stop offset="1" stop-color="#c4bca3"/></linearGradient><radialGradient id="sh-pin-head-triceratops-on-rex"><stop offset="0" stop-color="#23281e" stop-opacity="0.18"/><stop offset="0.7" stop-color="#23281e" stop-opacity="0.11"/><stop offset="1" stop-color="#23281e" stop-opacity="0"/></radialGradient></defs><line x1="60" y1="470" x2="780" y2="470" stroke="#b9b4a0" stroke-width="2"/><path d="M120 470l5 -9 M127 470l4 -6" stroke="#b9b4a0" stroke-width="1.5" fill="none"/><path d="M300 470l5 -9 M307 470l4 -6" stroke="#b9b4a0" stroke-width="1.5" fill="none"/><path d="M520 470l5 -9 M527 470l4 -6" stroke="#b9b4a0" stroke-width="1.5" fill="none"/><path d="M700 470l5 -9 M707 470l4 -6" stroke="#b9b4a0" stroke-width="1.5" fill="none"/><ellipse cx="514.9" cy="478" rx="234.1" ry="10" fill="url(#sh-pin-head-triceratops-on-rex)" opacity="0.7"/><ellipse cx="527" cy="474" rx="33" ry="5" fill="url(#sh-pin-head-triceratops-on-rex)" opacity="0.7"/><ellipse cx="501" cy="474" rx="36.9" ry="5" fill="url(#sh-pin-head-triceratops-on-rex)" opacity="1"/><path d="M513.5 269.4L513.2 276.1L511.8 285.4L509.7 296.9L507.2 309.8L504.9 323.3L503.2 336.8L502.6 349.9L503.5 362.1L505.7 373.3L509.8 383.3L514.9 392L520.3 399.6L525.5 406.3L529.9 412.2L533.1 417.2L534.9 421.2L534.8 425.1L533.9 429.2L532.3 433.4L530.1 437.6L527.6 441.6L525 445.3L522.7 448.9L521 451.9Q517.7 458 516.8 458.6Q513 459 512.6 460.8Q507.6 465.4 503.2 463.4Q498.6 463.8 500 466L538.3 466Q542.9 464.4 538 457L537 460.1L538 457.8L539.9 454.8L542.4 450.7L545.2 445.7L547.9 440L550.1 433.6L551.3 426.6L551.1 418.8L549.6 410.8L546.5 403L542.7 395.5L538.7 388.1L535.1 380.8L532.3 373.9L530.7 367.3L530.5 361.2L532.6 353.6L536 343.9L540.5 333L545.5 321.6L550.8 310.5L556 300.3L560.7 291.4L564.5 284.8Z" fill="url(#gf-pin-head-triceratops-on-rex)" stroke="#597641" stroke-width="1" stroke-linejoin="round"/><path d="M500.7 463L495.7 467.7L502.5 466.6Z" fill="#455b32"/><path d="M513.8 458.3L509.7 462.6L515.5 461.3Z" fill="#455b32"/><path d="M525.1 463.1L522.2 467L526.7 465.3Z" fill="#455b32"/><path d="M508.6 462.9L507 465.2M522 462.6L520.4 465.2" stroke="#455b32" stroke-width="1" opacity="0.35" fill="none"/><path d="M398.3 263.2L398.2 265.9L398.2 269.6L398.4 274.1L398.5 279.1L398.6 284.5L398.5 289.8L398.1 294.9L397.4 299.6L396.3 304.2L394.9 308.7L393.1 313.1L391.3 317.3L389.4 321.2L387.7 324.6L386.2 327.4L385.2 329.6L380.3 327.5L381.2 325.2L382.4 322.2L383.9 318.7L385.5 314.8L387.1 310.7L388.5 306.5L389.5 302.5L390.2 298.6L390.1 294.6L389.8 290L389.1 285.1L388.4 280.1L387.5 275.3L386.6 270.9L385.8 267.2L385.2 264.3Z" fill="url(#gf-pin-head-triceratops-on-rex)" stroke="#597641" stroke-width="1"/><path d="M380.8 324.2L375 334.2Q374.9 338 378.5 336.9L386.7 328.8Z" fill="url(#gf-pin-head-triceratops-on-rex)" stroke="#597641" stroke-width="1.2" stroke-linejoin="round"/><path d="M375.5 334.5L374 339.1L378 336.5Z" fill="#455b32"/><path d="M383.1 327.5L381.1 335.9Q381.9 338.9 384.4 337.2L388.4 329.5Z" fill="url(#gf-pin-head-triceratops-on-rex)" stroke="#597641" stroke-width="1.2" stroke-linejoin="round"/><path d="M381.3 336L381.2 340.7L384.3 337.1Z" fill="#455b32"/><g transform="rotate(-24 346.7 256.6)"><ellipse cx="346.7" cy="256.6" rx="48.8" ry="66" fill="url(#sc-pin-head-triceratops-on-rex)" stroke="#93712e" stroke-width="1.4"/><circle cx="298.4" cy="265.8" r="3" fill="#d9a441" stroke="#93712e" stroke-width="1"/><circle cx="300.8" cy="234" r="4.1" fill="#d9a441" stroke="#93712e" stroke-width="1"/><circle cx="314" cy="207.6" r="1.9" fill="#d9a441" stroke="#93712e" stroke-width="1"/><circle cx="334.9" cy="192.6" r="3" fill="#d9a441" stroke="#93712e" stroke-width="1"/><circle cx="358.5" cy="192.6" r="4.1" fill="#d9a441" stroke="#93712e" stroke-width="1"/><circle cx="379.4" cy="207.6" r="1.9" fill="#d9a441" stroke="#93712e" stroke-width="1"/><circle cx="392.6" cy="234" r="3" fill="#d9a441" stroke="#93712e" stroke-width="1"/><circle cx="395.1" cy="265.8" r="4.1" fill="#d9a441" stroke="#93712e" stroke-width="1"/><ellipse cx="346.7" cy="256.6" rx="29" ry="40.9" fill="#bf913a"/><path d="M334.9 248.5L308.8 231.7" stroke="#997530" stroke-width="1.3" opacity="0.4"/><path d="M339.7 240.9L324.3 208.5" stroke="#997530" stroke-width="1.3" opacity="0.4"/><path d="M346.7 238.1L346.7 199.9" stroke="#997530" stroke-width="1.3" opacity="0.4"/><path d="M353.7 240.9L369.1 208.5" stroke="#997530" stroke-width="1.3" opacity="0.4"/><path d="M358.6 248.5L384.7 231.7" stroke="#997530" stroke-width="1.3" opacity="0.4"/></g><path d="M311.5 231.7Q307.9 200.9 278.4 172.2Q298 201.7 297.5 232.8Z" fill="url(#bn-pin-head-triceratops-on-rex)" stroke="#8a7a52" stroke-width="1.4" stroke-linejoin="round"/><path d="M305.4 218.3Q298.6 218.7 293.7 223.4" fill="none" stroke="#8a7a52" stroke-width="1" opacity="0.45"/><path d="M300.6 209.6Q294.7 209.6 290.6 214" fill="none" stroke="#8a7a52" stroke-width="1" opacity="0.45"/><path d="M324.9 233.3Q321.9 209.4 300.6 187.1Q311.9 210.3 310.9 234.4Z" fill="url(#bn-pin-head-triceratops-on-rex)" stroke="#8a7a52" stroke-width="1.4" stroke-linejoin="round"/><path d="M320.6 222.6Q313.7 222.6 308.5 227.1" fill="none" stroke="#8a7a52" stroke-width="1" opacity="0.45"/><path d="M317 215.8Q311 215.4 306.8 219.5" fill="none" stroke="#8a7a52" stroke-width="1" opacity="0.45"/><path d="M283.7 256.6Q281.8 245.7 271.7 235.5Q271.9 246.5 269.8 257.7Z" fill="url(#bn-pin-head-triceratops-on-rex)" stroke="#8a7a52" stroke-width="1.4" stroke-linejoin="round"/><path d="M282 251.4Q275.2 250.5 269.5 254.3" fill="none" stroke="#8a7a52" stroke-width="1" opacity="0.45"/><use href="#sil-pin-head-triceratops-on-rex" fill="url(#gb-pin-head-triceratops-on-rex)" stroke="#526d3c" stroke-width="1.2" stroke-linejoin="round"/><g clip-path="url(#bod-pin-head-triceratops-on-rex)" fill="#cd9b3e"><path d="M581.2 281.3a2.5 2.5 0 1 0 5 0a2.5 2.5 0 1 0 -5 0M481.8 240a2.4 2.4 0 1 0 4.8 0a2.4 2.4 0 1 0 -4.8 0M536.3 276.2a3.8 3.8 0 1 0 7.6 0a3.8 3.8 0 1 0 -7.6 0M338 253.1a2.7 2.7 0 1 0 5.4 0a2.7 2.7 0 1 0 -5.4 0M707.4 324.5a2.3 2.3 0 1 0 4.6 0a2.3 2.3 0 1 0 -4.6 0M341.7 254.4a2.1 2.1 0 1 0 4.2 0a2.1 2.1 0 1 0 -4.2 0M502.8 257.4a3.4 3.4 0 1 0 6.8 0a3.4 3.4 0 1 0 -6.8 0M677.3 315.4a4.4 4.4 0 1 0 8.8 0a4.4 4.4 0 1 0 -8.8 0M634.1 296.2a2.9 2.9 0 1 0 5.8 0a2.9 2.9 0 1 0 -5.8 0M604.4 300.6a3.6 3.6 0 1 0 7.2 0a3.6 3.6 0 1 0 -7.2 0M668 317a3.5 3.5 0 1 0 7 0a3.5 3.5 0 1 0 -7 0M428.5 237.5a4 4 0 1 0 8 0a4 4 0 1 0 -8 0M481.9 237.6a2.9 2.9 0 1 0 5.8 0a2.9 2.9 0 1 0 -5.8 0M471.6 244.7a2.5 2.5 0 1 0 5 0a2.5 2.5 0 1 0 -5 0M676.8 315.3a4.9 4.9 0 1 0 9.8 0a4.9 4.9 0 1 0 -9.8 0M512.4 269.5a2.7 2.7 0 1 0 5.4 0a2.7 2.7 0 1 0 -5.4 0M513.1 260a2.9 2.9 0 1 0 5.8 0a2.9 2.9 0 1 0 -5.8 0M536.4 276.4a3.6 3.6 0 1 0 7.2 0a3.6 3.6 0 1 0 -7.2 0M508.7 259.3a2.2 2.2 0 1 0 4.4 0a2.2 2.2 0 1 0 -4.4 0M577.3 292.2a4.8 4.8 0 1 0 9.6 0a4.8 4.8 0 1 0 -9.6 0M471.1 240.2a4.1 4.1 0 1 0 8.2 0a4.1 4.1 0 1 0 -8.2 0" opacity="0.3"/><path d="M356.5 260.1a3.4 3.4 0 1 0 6.8 0a3.4 3.4 0 1 0 -6.8 0M350.7 266.4a3.4 3.4 0 1 0 6.8 0a3.4 3.4 0 1 0 -6.8 0M686.3 320.6a4.2 4.2 0 1 0 8.4 0a4.2 4.2 0 1 0 -8.4 0M576.4 300a4.4 4.4 0 1 0 8.8 0a4.4 4.4 0 1 0 -8.8 0M620.6 309.1a4.5 4.5 0 1 0 9 0a4.5 4.5 0 1 0 -9 0M343.5 257.6a3 3 0 1 0 6 0a3 3 0 1 0 -6 0M603.6 304.3a3.8 3.8 0 1 0 7.6 0a3.8 3.8 0 1 0 -7.6 0M488.3 272.9a4.2 4.2 0 1 0 8.4 0a4.2 4.2 0 1 0 -8.4 0M658.8 315.3a3.3 3.3 0 1 0 6.6 0a3.3 3.3 0 1 0 -6.6 0M527.3 290.6a2.5 2.5 0 1 0 5 0a2.5 2.5 0 1 0 -5 0M338.5 266.4a3.4 3.4 0 1 0 6.8 0a3.4 3.4 0 1 0 -6.8 0M364.3 257a2.5 2.5 0 1 0 5 0a2.5 2.5 0 1 0 -5 0M353.6 261.7a4.8 4.8 0 1 0 9.6 0a4.8 4.8 0 1 0 -9.6 0M696.9 322.5a3.2 3.2 0 1 0 6.4 0a3.2 3.2 0 1 0 -6.4 0M504.1 273.9a3.7 3.7 0 1 0 7.4 0a3.7 3.7 0 1 0 -7.4 0M357 265.7a2.8 2.8 0 1 0 5.6 0a2.8 2.8 0 1 0 -5.6 0M442.9 250.8a4.4 4.4 0 1 0 8.8 0a4.4 4.4 0 1 0 -8.8 0" opacity="0.19"/><path d="M410.5 275.3a2.2 2.2 0 1 0 4.4 0a2.2 2.2 0 1 0 -4.4 0M455.2 275.7a3.7 3.7 0 1 0 7.4 0a3.7 3.7 0 1 0 -7.4 0M439.1 272.9a4.5 4.5 0 1 0 9 0a4.5 4.5 0 1 0 -9 0M715.3 326.6a4.2 4.2 0 1 0 8.4 0a4.2 4.2 0 1 0 -8.4 0M434.8 259.4a3 3 0 1 0 6 0a3 3 0 1 0 -6 0M394.3 261.6a3.9 3.9 0 1 0 7.8 0a3.9 3.9 0 1 0 -7.8 0M351.3 275.9a3.4 3.4 0 1 0 6.8 0a3.4 3.4 0 1 0 -6.8 0M393.5 260.4a4.7 4.7 0 1 0 9.4 0a4.7 4.7 0 1 0 -9.4 0M586.8 303.9a2.4 2.4 0 1 0 4.8 0a2.4 2.4 0 1 0 -4.8 0M336.8 271.4a4.4 4.4 0 1 0 8.8 0a4.4 4.4 0 1 0 -8.8 0M541.8 299.5a4 4 0 1 0 8 0a4 4 0 1 0 -8 0M409.2 261.1a4.6 4.6 0 1 0 9.2 0a4.6 4.6 0 1 0 -9.2 0M566.7 301.8a5 5 0 1 0 10 0a5 5 0 1 0 -10 0" opacity="0.1"/></g><g clip-path="url(#bod-pin-head-triceratops-on-rex)"><g fill="none" stroke="#3e512d" stroke-width="1.1" opacity="0.18"><path d="M348.7 269Q344 271.9 340.7 267.6"/><path d="M356.5 280.4Q353 282.3 350.8 279"/><path d="M338.7 266.6Q335.5 268.9 332.9 265.9"/><path d="M401.7 281.6Q397.4 285.3 393.3 281.4"/><path d="M415.6 276.6Q412.4 279.1 409.6 276.2"/><path d="M560 288.2Q555.6 291.3 552.1 287.2"/><path d="M449.5 261.6Q445 264.5 441.7 260.3"/><path d="M362.5 280.9Q359.4 283.6 356.4 280.7"/><path d="M515.7 305.2Q511.2 308.5 507.4 304.3"/><path d="M336.2 259.1Q333.1 261.3 330.6 258.5"/><path d="M334.2 258.6Q329.8 262 326.1 258"/><path d="M378.7 260.1Q374.9 263.8 371 260.4"/><path d="M343.9 259.4Q339.4 262.5 335.9 258.4"/><path d="M457 261.4Q453.2 263.7 450.6 260.2"/><path d="M452.9 283Q449.1 285.2 446.5 281.8"/><path d="M442.9 249.2Q438.9 251.9 435.8 248.2"/><path d="M335.9 273.5Q331.6 276.6 328 272.7"/><path d="M576.7 296.3Q572 299.4 568.5 295.1"/><path d="M353.7 256.1Q349.6 258.6 346.7 254.7"/><path d="M509.8 282.4Q505.5 284.9 502.6 280.9"/><path d="M357.4 257.7Q352.3 260.6 348.9 255.9"/><path d="M558.3 294.6Q554.8 297 552 293.8"/></g><g fill="none" stroke="#3e512d" stroke-linecap="round"><path d="M340.2 256.5L333.7 255.5L327 254.7L323.6 254.3L316.7 254.3L313.1 254.7L306 255.6L302.3 256.2L295 257.5L291.3 258.2" stroke-width="1" opacity="0.18"/><path d="M338.2 271.6L332.2 271.1L329.1 271L326 270.9L319.6 270.9L316.4 270.4L309.7 269.5L306.3 269.1L302.9 268.7" stroke-width="1" opacity="0.15"/><path d="M507.8 273.9L494.2 267.4L478.6 261.7L454.7 256.2L438.7 253.4L422.6 251.3L406.5 251.1L390.5 251.7L374.6 253" stroke-width="1" opacity="0.17"/><path d="M483.7 302.2L468.8 299.9L454.4 296.7L432.9 293.2L418.6 291.6L404.4 289L382.9 286.3L368.4 285.3L352.8 282.9" stroke-width="1.1" opacity="0.15"/><path d="M730.1 325.1L710.8 319.9L691.7 314.9L672.9 310.2L654.3 305.7L636 301.5L617.8 297.6L600 294L582.3 290.6" stroke-width="1" opacity="0.17"/><path d="M719.5 326.6L700.1 322.5L680.9 318.8L671.5 317L652.7 313.6L634.2 310.5L625.1 309.1L607 306.4L598.1 305.1" stroke-width="1" opacity="0.14"/></g></g><use href="#sil-pin-head-triceratops-on-rex" fill="none" stroke="#394a2a" stroke-width="10" opacity="0.24" clip-path="url(#bod-pin-head-triceratops-on-rex)"/><path d="M258.1 270L259.3 271L260.4 271.9L261.6 272.6L262.8 273.1L264 273.4L265.2 273.6L266.3 273.7L267.4 273.8L268.5 273.9L269.5 273.9L270.5 274" fill="none" stroke="#3e512d" stroke-width="1.5" opacity="0.72" stroke-linecap="round"/><path d="M269.9 274Q271.7 275 272.4 276.2" fill="none" stroke="#3e512d" stroke-width="1.2" opacity="0.45"/><path d="M264.2 263.6Q262.4 262.1 260.9 263.9" fill="none" stroke="#3e512d" stroke-width="1.3" opacity="0.72"/><ellipse cx="308.3" cy="258.8" rx="6.6" ry="5" fill="#3e512d" opacity="0.14"/><circle cx="307.6" cy="258.9" r="4.7" fill="#fdfaef" stroke="#3e512d" stroke-width="1.2"/><circle cx="307" cy="258.9" r="3" fill="#c9983d"/><circle cx="306.8" cy="258.9" r="1.6" fill="#1c1a14"/><circle cx="305.8" cy="257.3" r="1.2" fill="#fdfaef" opacity="0.9"/><path d="M313.7 249.3Q305.8 248.7 298.2 251.4" fill="none" stroke="#3e512d" stroke-width="1.55" stroke-linecap="round" opacity="0.8"/><path d="M487.5 275.4L487.2 282.1L485.8 291.4L483.7 302.9L481.2 315.8L478.9 329.3L477.2 342.8L476.6 355.9L477.5 368.1L479.7 379.3L483.8 389.3L488.9 398.1L494.3 405.8L499.5 412.5L503.9 418.4L507.1 423.3L508.9 427.2L508.8 430.8L507.9 434.4L506.4 438.1L504.3 441.7L501.8 445.2L499.3 448.5L496.9 451.8L495.2 454.5Q491.7 461 490.8 461.6Q487 462 486.6 463.8Q481.6 468.4 477.2 466.4Q472.6 466.8 474 469L512.3 469Q516.9 467.4 512 460L510.8 463.5L511.8 461.5L513.6 458.8L516.1 455.1L519 450.6L521.8 445.3L524 439.2L525.3 432.3L525.1 424.8L523.6 416.8L520.5 409.2L516.7 401.7L512.7 394.3L509.1 387L506.3 380L504.7 373.4L504.5 367.2L506.6 359.6L510 349.9L514.5 339L519.5 327.6L524.8 316.5L530 306.3L534.7 297.4L538.5 290.8Z" fill="url(#gl-pin-head-triceratops-on-rex)" stroke="#526d3c" stroke-width="1.2" stroke-linejoin="round"/><g clip-path="url(#bod-pin-head-triceratops-on-rex)"><path d="M487.5 275.4L487.2 282.1L485.8 291.4L483.7 302.9L481.2 315.8L478.9 329.3L477.2 342.8L476.6 355.9L477.5 368.1L479.7 379.3L483.8 389.3L488.9 398.1L494.3 405.8L499.5 412.5L503.9 418.4L507.1 423.3L508.9 427.2L508.8 430.8L507.9 434.4L506.4 438.1L504.3 441.7L501.8 445.2L499.3 448.5L496.9 451.8L495.2 454.5Q491.7 461 490.8 461.6Q487 462 486.6 463.8Q481.6 468.4 477.2 466.4Q472.6 466.8 474 469L512.3 469Q516.9 467.4 512 460L510.8 463.5L511.8 461.5L513.6 458.8L516.1 455.1L519 450.6L521.8 445.3L524 439.2L525.3 432.3L525.1 424.8L523.6 416.8L520.5 409.2L516.7 401.7L512.7 394.3L509.1 387L506.3 380L504.7 373.4L504.5 367.2L506.6 359.6L510 349.9L514.5 339L519.5 327.6L524.8 316.5L530 306.3L534.7 297.4L538.5 290.8Z" fill="url(#gl-pin-head-triceratops-on-rex)"/></g><path d="M474.7 466L469.7 470.7L476.5 469.6Z" fill="#3e512d"/><path d="M487.8 461.3L483.7 465.6L489.5 464.3Z" fill="#3e512d"/><path d="M499.1 466.1L496.2 470L500.7 468.3Z" fill="#3e512d"/><path d="M482.6 465.9L481 468.2M496 465.6L494.4 468.2" stroke="#3e512d" stroke-width="1" opacity="0.35" fill="none"/><path d="M372.3 269.2L372.2 271.9L372.2 275.6L372.4 280.1L372.5 285.1L372.6 290.5L372.5 295.8L372.1 300.9L371.4 305.6L370.3 310.2L368.9 314.7L367.1 319.1L365.3 323.3L363.4 327.2L361.7 330.6L360.2 333.4L359.2 335.6L354.3 333.5L355.2 331.2L356.4 328.2L357.9 324.7L359.5 320.8L361.1 316.7L362.5 312.5L363.5 308.5L364.2 304.6L364.1 300.6L363.8 296L363.1 291.1L362.4 286.1L361.5 281.3L360.6 276.9L359.8 273.2L359.2 270.3Z" fill="url(#gl-pin-head-triceratops-on-rex)" stroke="#526d3c" stroke-width="1.2"/><g clip-path="url(#bod-pin-head-triceratops-on-rex)"><path d="M372.3 269.2L372.2 271.9L372.2 275.6L372.4 280.1L372.5 285.1L372.6 290.5L372.5 295.8L372.1 300.9L371.4 305.6L370.3 310.2L368.9 314.7L367.1 319.1L365.3 323.3L363.4 327.2L361.7 330.6L360.2 333.4L359.2 335.6L354.3 333.5L355.2 331.2L356.4 328.2L357.9 324.7L359.5 320.8L361.1 316.7L362.5 312.5L363.5 308.5L364.2 304.6L364.1 300.6L363.8 296L363.1 291.1L362.4 286.1L361.5 281.3L360.6 276.9L359.8 273.2L359.2 270.3Z" fill="url(#gl-pin-head-triceratops-on-rex)"/></g><path d="M354.8 330.2L349 340.2Q348.9 344 352.5 342.9L360.7 334.8Z" fill="url(#gl-pin-head-triceratops-on-rex)" stroke="#526d3c" stroke-width="1.2" stroke-linejoin="round"/><path d="M349.5 340.5L348 345.1L352 342.5Z" fill="#3e512d"/><path d="M357.1 333.5L355.1 341.9Q355.9 344.9 358.4 343.2L362.4 335.5Z" fill="url(#gl-pin-head-triceratops-on-rex)" stroke="#526d3c" stroke-width="1.2" stroke-linejoin="round"/><path d="M355.3 342L355.2 346.7L358.3 343.1Z" fill="#3e512d"/><g clip-path="url(#bod-pin-head-triceratops-on-rex)"><path d="M731.2 320.7L712.2 314.2L693.3 307.9L674.7 301.8L656.3 296L638.1 290.5L620.1 285.2L602.3 280.2L584.7 275.5L567.2 271L541.9 261L525.3 253.3L513.6 246.6L503.4 237L487.2 228.3L469.9 223.8L452.4 220.1L434.9 217.1L417.2 216.8L399.6 219.2L382.2 222.5L365.1 226.5L366.3 231.2L358.1 233.7L350.2 236.6L339.1 238.1L331.9 236.6L330.7 251.1L337.4 252.3L347.4 252.4L354.2 251.8L361 251.5L366.4 249.4L382.5 247.2L398.7 245.6L415.1 244.6L431.5 245.2L447.9 247.3L464.3 250.1L480.6 253.7L496.5 259.7L509.3 266.7L523.5 270.6L540.2 275.3L565.7 282L583.1 285.5L600.7 289.3L618.6 293.4L636.7 297.8L655 302.5L673.5 307.5L692.3 312.7L711.2 318.1L730.5 323.8Z" fill="#3e512d" opacity="0.04"/><path d="M731.2 320.7L712.2 314.2L693.3 307.9L674.7 301.8L656.3 296L638.1 290.5L620.1 285.2L602.3 280.2L584.7 275.5L567.2 271L541.9 261L525.3 253.3L513.6 246.6L503.4 237L487.2 228.3L469.9 223.8L452.4 220.1L434.9 217.1L417.2 216.8L399.6 219.2L382.2 222.5L365.1 226.5L366.3 231.2L358.1 233.7L350.2 236.6L339.1 238.1L331.9 236.6L331.2 244.8L338.1 246.2L348.6 245.9L355.8 244.5L363.1 243.6L365.9 240.8L382.4 238.2L399 236.4L415.8 235.3L432.6 236.2L449.3 238.9L465.9 242.2L482.6 246.3L498.5 253.2L510.5 260.9L524 265.7L540.7 271.2L566.1 278.7L583.6 282.4L601.2 286.4L619.1 290.7L637.2 295.3L655.5 300.1L674 305.3L692.7 310.8L711.6 316.5L730.8 322.5Z" fill="#3e512d" opacity="0.05"/><path d="M731.2 320.7L712.2 314.2L693.3 307.9L674.7 301.8L656.3 296L638.1 290.5L620.1 285.2L602.3 280.2L584.7 275.5L567.2 271L541.9 261L525.3 253.3L513.6 246.6L503.4 237L487.2 228.3L469.9 223.8L452.4 220.1L434.9 217.1L417.2 216.8L399.6 219.2L382.2 222.5L365.1 226.5L366.3 231.2L358.1 233.7L350.2 236.6L339.1 238.1L331.9 236.6L331.6 240.8L338.6 242.2L349.4 241.2L357 239L364.8 237L365.5 233.1L382.3 229.7L399.3 227L416.6 225.1L433.9 225.7L451 228.5L468.1 232.1L485.1 236.4L501.1 244.4L512.2 253.2L524.7 259.1L541.3 265.9L566.7 274.7L584.1 278.9L601.7 283.4L619.6 288.1L637.6 293L655.8 298.3L674.3 303.7L693 309.5L711.9 315.5L731 321.7Z" fill="#3e512d" opacity="0.06"/><path d="M738.2 334.6L718.2 331.6L698.6 328.9L679.2 326.5L660.2 324.3L641.4 322.4L622.9 320.8L604.8 319.4L586.9 318.4L569.3 317.6L552.1 317L534.7 320.4L517.7 324.3L496.4 327.8L476.1 327.5L461.7 327.6L448.4 325L435.3 322.9L422.2 321.4L409.3 318.7L396.4 314.5L383.2 311L369.7 308L347.6 302.8L344.3 297.6L340.5 292.3L335.9 288.1L337.3 278.2L342.4 281.1L347.1 284.7L351.4 288.4L368.8 291.6L383 293.1L397 295.3L410.9 298.1L424.8 300.3L438.7 302.1L452.7 304.5L466.8 307.6L481.6 309.2L499.9 311.4L519.3 310L536.2 308.4L553.4 307.3L570.7 308.6L588.2 310.2L606 312L624.2 314.1L642.6 316.5L661.2 319.2L680.2 322.1L699.4 325.3L718.9 328.8L738.7 332.5Z" fill="#b4c199" opacity="0.3"/><path d="M738.2 334.6L718.2 331.6L698.6 328.9L679.2 326.5L660.2 324.3L641.4 322.4L622.9 320.8L604.8 319.4L586.9 318.4L569.3 317.6L552.1 317L534.7 320.4L517.7 324.3L496.4 327.8L476.1 327.5L461.7 327.6L448.4 325L435.3 322.9L422.2 321.4L409.3 318.7L396.4 314.5L383.2 311L369.7 308L347.6 302.8L344.3 297.6L340.5 292.3L335.9 288.1L336.7 282.4L341.6 285.9L345.9 290.2L349.8 294.6L369.2 298.6L383.1 300.8L396.8 303.5L410.2 306.9L423.6 309.4L437.2 311L450.9 313.3L464.6 316.2L479.2 317L498.4 318.4L518.6 316.1L535.5 313.6L552.8 311.5L570.1 312.4L587.6 313.7L605.5 315.2L623.6 317L642.1 319L660.8 321.4L679.8 324L699.1 326.9L718.6 330L738.5 333.4Z" fill="#b4c199" opacity="0.18"/><path d="M728.6 331.2L709 327.8L689.5 324.6L670.4 321.7L651.6 319.1L642.3 317.9L623.9 315.7L605.7 313.8L587.9 312.1L570.4 310.7L553.1 309.6L535.8 311.3L518.9 313.4L499.1 315.3L480.3 313.6L465.6 312.4L451.7 309.4L437.9 307.1L431 306.1L417.3 304.7L403.7 301.4L390 298.5L376.1 296.3L359.1 294.9L348.5 289.8L344.3 285.7L339.5 281.8L340.8 273.9L346.1 276.5L351 279.3L359.4 282.8L375.6 283.3L390.2 284.4L404.6 286.2L418.9 288.6L433.3 290.2L440.5 291.2L455 293.8L469.5 297.1L484.5 299.6L501.7 302.8L520.1 302.5L536.9 302.2L554.1 302.2L571.4 303.9L588.9 305.9L606.7 308.1L624.8 310.6L643.2 313.4L652.4 314.9L671.2 318.1L690.2 321.6L709.5 325.3L729.1 329.3Z" fill="#394a2a" opacity="0.06"/><path d="M728.7 330.7L709.1 327.2L689.7 323.9L670.6 320.8L651.8 318.1L642.5 316.8L624.1 314.5L606 312.4L588.2 310.6L570.6 309L553.3 307.8L536.1 309L519.2 310.7L499.7 312.2L481.3 310.1L466.6 308.5L452.5 305.5L438.6 303.1L431.6 302.1L417.7 300.7L403.9 297.6L390 295L375.9 293.1L359.2 291.8L349.2 287.2L344.7 283.4L339.8 279.9L340.6 274.9L345.8 277.7L350.7 280.6L359.4 284.3L375.7 284.9L390.1 286.2L404.5 288.1L418.7 290.6L433 292.2L440.2 293.2L454.6 295.8L469 299L483.9 301.4L501.4 304.3L519.9 303.8L536.8 303.3L554 303.1L571.2 304.8L588.8 306.7L606.6 308.8L624.7 311.3L643.1 314L652.3 315.5L671.1 318.6L690.2 322L709.5 325.6L729 329.5Z" fill="#394a2a" opacity="0.06"/><path d="M728.9 330.3L709.2 326.5L689.9 323.1L670.8 319.9L652 317L642.7 315.7L624.3 313.2L606.2 311L588.4 309L570.9 307.3L553.6 305.9L536.4 306.7L519.5 307.9L500.4 309L482.4 306.6L467.6 304.7L453.4 301.6L439.2 299.2L432.2 298.2L418.1 296.7L404.2 293.8L390.1 291.5L375.8 289.8L359.3 288.8L349.8 284.5L345.2 281.1L340.2 277.9L340.5 275.9L345.6 278.8L350.4 281.9L359.3 285.8L375.7 286.5L390.1 287.9L404.4 290L418.5 292.6L432.7 294.2L439.9 295.2L454.2 297.7L468.5 300.9L483.4 303.1L501 305.9L519.8 305.2L536.7 304.4L553.8 304L571.1 305.6L588.7 307.4L606.5 309.5L624.6 311.9L642.9 314.6L652.2 316L671 319L690.1 322.3L709.4 325.9L729 329.8Z" fill="#394a2a" opacity="0.06"/><ellipse cx="503" cy="305.4" rx="73.6" ry="14.5" fill="url(#ao-pin-head-triceratops-on-rex)" opacity="0.17"/><ellipse cx="529" cy="301.2" rx="57.3" ry="11.7" fill="url(#ao-pin-head-triceratops-on-rex)" opacity="0.12"/><ellipse cx="365.8" cy="295.6" rx="30.7" ry="22.6" fill="url(#ao-pin-head-triceratops-on-rex)" opacity="0.15"/><ellipse cx="391.8" cy="288.8" rx="24.4" ry="18.1" fill="url(#ao-pin-head-triceratops-on-rex)" opacity="0.11"/><ellipse cx="300.5" cy="289.6" rx="32.7" ry="21.1" fill="url(#ao-pin-head-triceratops-on-rex)" opacity="0.13"/><ellipse cx="539" cy="303.4" rx="51.7" ry="32.9" fill="url(#ao-pin-head-triceratops-on-rex)" opacity="0.13"/><g fill="none" stroke="#3e512d" stroke-linecap="round"><path d="M476.5 294.1A27 27 0 0 1 527.4 287.7" stroke-width="1.2" opacity="0.18"/><path d="M353 277.9A15.9 15.9 0 0 1 380.6 274.4" stroke-width="1.1" opacity="0.16"/></g></g><use href="#sil-pin-head-triceratops-on-rex" fill="url(#wl-pin-head-triceratops-on-rex)"/></g></svg>