<svg xmlns="http://www.w3.org/2000/svg" viewBox="0 0 820 540" role="img" aria-label="Tricerastegorex, a hybrid dinosaur"><g transform="translate(455.9 470) scale(0.985) translate(-455.9 -470)"><line x1="60" y1="470" x2="780" y2="470" stroke="#b9b4a0" stroke-width="2"/><path d="M120 470l5 -9 M127 470l4 -6" stroke="#b9b4a0" stroke-width="1.5" fill="none"/><path d="M300 470l5 -9 M307 470l4 -6" stroke="#b9b4a0" stroke-width="1.5" fill="none"/><path d="M520 470l5 -9 M527 470l4 -6" stroke="#b9b4a0" stroke-width="1.5" fill="none"/><path d="M700 470l5 -9 M707 470l4 -6" stroke="#b9b4a0" stroke-width="1.5" fill="none"/><ellipse cx="481" cy="478" rx="179.3" ry="9" fill="rgba(30,30,20,0.14)"/><path d="M515.1 278.4L514.4 285.5L512.8 295.4L510.6 307.4L508.1 320.9L505.9 334.8L504.3 348.7L503.6 361.8L504.6 373.8L507.6 384.6L512.6 393.7L518.6 401.2L524.7 407.3L530.4 412.6L535.1 417L538.3 420.5L540 423.2L539.7 425.9L538.4 429.1L536.2 432.5L533.3 436.1L530.1 439.5L526.8 442.8L523.7 445.9L521.4 448.4L536.6 459.6L537.8 457.4L539.9 454.5L543 450.7L546.4 446.1L549.7 440.8L552.5 434.9L554.2 428.2L554 420.8L552.1 413.4L548.4 406.7L543.9 400.5L539.3 394.4L535.1 388.5L531.9 382.6L530 377L529.4 371.4L530.5 363.7L532.8 353.2L536.2 341.3L540.1 328.7L544.3 316.4L548.5 305L552.1 295.2L554.9 287.9Z" fill="#486035" stroke="#3e512d" stroke-width="2"/><ellipse cx="527" cy="461" rx="24.2" ry="6.5" fill="#486035" stroke="#3e512d" stroke-width="2"/><path d="M391.3 269.3L391.3 272L391.3 275.6L391.2 279.9L391.1 284.5L390.9 289.4L390.7 294.2L390.4 298.6L390.1 302.5L389.5 306.1L388.8 309.8L387.9 313.5L387 317L386.1 320.3L385.3 323.2L384.6 325.8L384.1 327.7L389.4 329.3L390.1 327.5L391 325.1L392 322.2L393.2 318.9L394.4 315.3L395.5 311.5L396.6 307.6L397.5 303.8L398.3 299.6L399 295L399.7 290.1L400.3 285.2L400.9 280.5L401.4 276.3L401.8 272.8L402.2 270.2Z" fill="#486035" stroke="#3e512d" stroke-width="2"/><path d="M386.8 328.5L377.8 337.5L391.8 335.5Z" fill="#486035" stroke="#3e512d" stroke-width="1.5"/><g transform="rotate(-24 349.1 256.6)"><ellipse cx="349.1" cy="256.6" rx="48.8" ry="66" fill="#d9a441" stroke="#93712e" stroke-width="2.5"/><ellipse cx="349.1" cy="256.6" rx="29" ry="40.9" fill="#bb8e39"/></g><path d="M558.2 284L557.9 256.8L547.5 256.5L533.3 276.7Z" fill="#d9a441" stroke="#93712e" stroke-width="2"/><path d="M536.2 264L536.7 226.7L526.1 228L510.9 258.1Z" fill="#d9a441" stroke="#93712e" stroke-width="2"/><path d="M523.9 247.7L540.8 205.5L530 204L501.9 233.9Z" fill="#d9a441" stroke="#93712e" stroke-width="2"/><path d="M479.6 217.8L486.1 168.2L475.1 170L454.7 210.3Z" fill="#d9a441" stroke="#93712e" stroke-width="2"/><path d="M438.8 206.8L432.8 157.1L422.6 161.6L412.8 205.7Z" fill="#d9a441" stroke="#93712e" stroke-width="2"/><path d="M398.4 215.4L381 173.4L372.2 179.9L373 220.9Z" fill="#d9a441" stroke="#93712e" stroke-width="2"/><path d="M370.2 233.9L354.1 200.3L345.1 206.1L344.9 239.8Z" fill="#d9a441" stroke="#93712e" stroke-width="2"/><path d="M368.3 242.5L364.8 215.5L354.5 216.4L342.7 238.1Z" fill="#d9a441" stroke="#93712e" stroke-width="2"/><path d="M325 241.6Q324.5 210.6 298 179.1Q314.5 210.4 311 241.4Z" fill="#e6dcc0" stroke="#8a7a52" stroke-width="1.5"/><path d="M332.3 241.7Q332.5 217.7 314.2 192.8Q322.5 217.2 318.3 241Z" fill="#e6dcc0" stroke="#8a7a52" stroke-width="1.5"/><path d="M283.5 258Q280.7 247.3 269.6 238.1Q270.8 249 269.7 260.4Z" fill="#e6dcc0" stroke="#8a7a52" stroke-width="1.5"/><defs><clipPath id="bod-pin-back-stego-stance-rex-on-trike"><path d="M695.7 363L688.9 358.2L682.2 353.5L675.4 348.9L668.7 344.4L662 340L655.4 335.7L648.7 331.5L642.1 327.4L635.6 323.3L629.1 319.4L622.6 315.6L616.1 311.9L609.6 308.3L603.2 304.7L596.8 301.3L590.5 298L584.1 294.8L577.8 291.6L571.5 288.6L565.3 285.6L559 282.8L552.8 280.1L546.6 277.4L541 272.7L535.5 267.7L529.9 262.9L524.2 258.1L518.5 253.4L522.3 252.1L521.7 246.9L514.5 238.2L506.8 229.8L497.8 223.7L488.1 218.9L478.1 214.8L468 211.2L457.7 208.2L447.2 205.9L436.6 204.2L425.9 203.2L415.3 205.2L404.9 207.9L394.8 211.3L385.1 215.2L375.7 219.8L366.7 224.8L358.1 230.4L356.8 234L368.4 234.7L364.2 235.5L360.1 236.4L356 237.4L351.9 238.4L347.9 239.4L344.1 240.1L340.3 239.8L336.6 239.6L332.9 239.5L329.1 239.4L325.4 239.4L321.7 239.4L318 239.5L314.3 240L310.6 241.3L307 242.7L303.4 244.1L299.9 245.5L296.4 247L292.9 248.6L289.5 250.2L286.1 251.9L282.8 253.6L279.5 255.4L276.3 257.2L273.1 259.1L269.9 261L266.8 263L268.4 270.7L272 271.3L275.4 271.9L278.9 272.6L282.3 273.4L285.6 274.1L289 275L292.3 275.9L295.5 276.9L298.7 277.9L301.9 278.9L305 280L308.1 281.2L311.2 282.4L314.2 283.7L317.2 284.3L320.2 284.5L323.2 284.8L326.2 285.2L329.2 285.5L332.2 286L335.2 286.5L338.2 287L341.1 288.5L343.8 290.6L346.5 292.7L349.2 294.9L351.8 297.1L354.4 299.3L372.7 301.6L386.2 298.6L392.4 298.5L398.1 298.9L403.5 299.8L408.6 301L413.3 302.6L417.6 304.4L421.7 306.5L425.8 306.6L429.9 307L434.2 307.7L438.7 308.6L443.3 310L448.1 311.7L453.2 313.8L458.9 315.4L466 315.8L473.5 316.7L487.7 322.2L503.3 323.4L509.5 321.4L515.8 319.5L522.3 317.7L528.9 316.1L535.6 314.8L541.7 315.9L548 317.1L554.2 318.4L560.6 319.8L567 321.3L573.5 322.9L580 324.7L586.6 326.5L593.3 328.4L600.1 330.5L606.9 332.7L613.7 334.9L620.7 337.3L627.7 339.8L634.7 342.4L641.8 345.2L649 348L656.2 350.9L663.5 354L670.9 357.1L678.3 360.4L685.7 363.8L693.2 367.3Z"/></clipPath></defs><path d="M695.7 363L688.9 358.2L682.2 353.5L675.4 348.9L668.7 344.4L662 340L655.4 335.7L648.7 331.5L642.1 327.4L635.6 323.3L629.1 319.4L622.6 315.6L616.1 311.9L609.6 308.3L603.2 304.7L596.8 301.3L590.5 298L584.1 294.8L577.8 291.6L571.5 288.6L565.3 285.6L559 282.8L552.8 280.1L546.6 277.4L541 272.7L535.5 267.7L529.9 262.9L524.2 258.1L518.5 253.4L522.3 252.1L521.7 246.9L514.5 238.2L506.8 229.8L497.8 223.7L488.1 218.9L478.1 214.8L468 211.2L457.7 208.2L447.2 205.9L436.6 204.2L425.9 203.2L415.3 205.2L404.9 207.9L394.8 211.3L385.1 215.2L375.7 219.8L366.7 224.8L358.1 230.4L356.8 234L368.4 234.7L364.2 235.5L360.1 236.4L356 237.4L351.9 238.4L347.9 239.4L344.1 240.1L340.3 239.8L336.6 239.6L332.9 239.5L329.1 239.4L325.4 239.4L321.7 239.4L318 239.5L314.3 240L310.6 241.3L307 242.7L303.4 244.1L299.9 245.5L296.4 247L292.9 248.6L289.5 250.2L286.1 251.9L282.8 253.6L279.5 255.4L276.3 257.2L273.1 259.1L269.9 261L266.8 263L268.4 270.7L272 271.3L275.4 271.9L278.9 272.6L282.3 273.4L285.6 274.1L289 275L292.3 275.9L295.5 276.9L298.7 277.9L301.9 278.9L305 280L308.1 281.2L311.2 282.4L314.2 283.7L317.2 284.3L320.2 284.5L323.2 284.8L326.2 285.2L329.2 285.5L332.2 286L335.2 286.5L338.2 287L341.1 288.5L343.8 290.6L346.5 292.7L349.2 294.9L351.8 297.1L354.4 299.3L372.7 301.6L386.2 298.6L392.4 298.5L398.1 298.9L403.5 299.8L408.6 301L413.3 302.6L417.6 304.4L421.7 306.5L425.8 306.6L429.9 307L434.2 307.7L438.7 308.6L443.3 310L448.1 311.7L453.2 313.8L458.9 315.4L466 315.8L473.5 316.7L487.7 322.2L503.3 323.4L509.5 321.4L515.8 319.5L522.3 317.7L528.9 316.1L535.6 314.8L541.7 315.9L548 317.1L554.2 318.4L560.6 319.8L567 321.3L573.5 322.9L580 324.7L586.6 326.5L593.3 328.4L600.1 330.5L606.9 332.7L613.7 334.9L620.7 337.3L627.7 339.8L634.7 342.4L641.8 345.2L649 348L656.2 350.9L663.5 354L670.9 357.1L678.3 360.4L685.7 363.8L693.2 367.3Z" fill="#6b8f4e" stroke="#394a2a" stroke-width="2.5" stroke-linejoin="round"/><path d="M301.7 275.9L298.5 274.9L291.9 272.9L288.6 272L281.8 270.4L278.4 269.7L271.4 268.4" fill="none" stroke="#394a2a" stroke-width="2" opacity="0.7"/><circle cx="310.8" cy="255.3" r="4.5" fill="#fdfaef" stroke="#394a2a" stroke-width="1.5"/><circle cx="309.7" cy="255.3" r="2" fill="#1c1a14"/><path d="M489.1 284.4L488.4 291.5L486.8 301.4L484.6 313.4L482.1 326.9L479.9 340.8L478.3 354.7L477.6 367.8L478.6 379.8L481.6 390.6L486.6 399.7L492.6 407.2L498.7 413.3L504.4 418.6L509.1 423L512.3 426.5L514 429.2L513.7 431.9L512.4 435.1L510.2 438.5L507.3 442.1L504.1 445.5L500.8 448.8L497.7 451.9L495.4 454.4L510.6 465.6L511.8 463.4L513.9 460.5L517 456.7L520.4 452.1L523.7 446.8L526.5 440.9L528.2 434.2L528 426.8L526.1 419.4L522.4 412.7L517.9 406.5L513.3 400.4L509.1 394.5L505.9 388.6L504 383L503.4 377.4L504.5 369.7L506.8 359.2L510.2 347.3L514.1 334.7L518.3 322.4L522.5 311L526.1 301.2L528.9 293.9Z" fill="#5e7e45" stroke="#394a2a" stroke-width="2"/><ellipse cx="501" cy="464" rx="25.2" ry="7" fill="#5e7e45" stroke="#394a2a" stroke-width="2"/><path d="M477.8 462L465.8 468L481.8 469Z" fill="#5e7e45" stroke="#394a2a" stroke-width="1.5"/><path d="M365.3 275.3L365.3 278L365.3 281.6L365.2 285.9L365.1 290.5L364.9 295.4L364.7 300.2L364.4 304.6L364.1 308.5L363.5 312.1L362.8 315.8L361.9 319.5L361 323L360.1 326.3L359.3 329.2L358.6 331.8L358.1 333.7L363.4 335.3L364.1 333.5L365 331.1L366 328.2L367.2 324.9L368.4 321.3L369.5 317.5L370.6 313.6L371.5 309.8L372.3 305.6L373 301L373.7 296.1L374.3 291.2L374.9 286.5L375.4 282.3L375.8 278.8L376.2 276.2Z" fill="#5e7e45" stroke="#394a2a" stroke-width="2"/><path d="M360.8 334.5L351.8 343.5L365.8 341.5Z" fill="#5e7e45" stroke="#394a2a" stroke-width="1.5"/></g></svg>