<svg xmlns="http://www.w3.org/2000/svg" viewBox="0 0 820 540" role="img" aria-label="Iguanodon, a hybrid dinosaur"><g transform="translate(450.3 470) scale(0.985) translate(-450.3 -470)"><defs><clipPath id="bod-pure-iguanodon"><path d="M729.1 349.9L721 346.3L712.8 342.8L704.8 339.4L696.7 336L688.7 332.7L680.7 329.4L672.8 326.2L664.9 323.1L657.1 320.1L649.3 317.1L641.5 314.1L633.8 311.3L626.1 308.5L618.5 305.7L610.9 303.1L603.3 300.4L595.8 297.9L588.3 295.4L580.8 293L573.4 290.6L566 288.4L558.7 286.1L551.4 284L544.4 280.1L537.4 276L530.5 272L523.5 268.1L516.5 264.2L514.1 261.2L509.9 256.6L502 251.1L493.9 245.7L485.4 242.2L476.5 239.8L467.7 237.4L458.8 235.2L450 233.1L441.1 231.1L432.2 229.2L423.3 227.5L414.2 227.4L405 227.5L396 227.7L386.9 228L377.9 228.5L368.9 229.1L360 229.9L362.8 233L368.2 238.3L360.5 236.7L352.9 235.3L345.5 234.3L338.2 233.5L331.1 233L324.8 231.8L319.9 228.7L315 225.8L310.1 223.1L305.2 220.6L300.4 218.4L295.5 216.3L290.7 214.5L283.8 211.7L277.7 209.5L272.5 207.8L268.2 206.6L264.7 206.1L262.1 206L259.9 205.9L257.9 206.2L256.2 206.9L254.6 208L253.3 209.4L252.1 211.3L251.2 213.8L250.1 216.2L248.8 218.5L247.5 220.6L246 222.5L244.5 224.3L242.3 225.9L240.3 227.4L238.4 228.9L236.6 230.4L235 231.8L233.5 233.2L232.2 234.4L231.1 235.5L230.4 236.6L229.9 237.7L229.6 238.9L229.7 240L230.5 241.8L231.5 243.4L232.6 244.9L233.8 246.2L235.2 247.3L236.6 248.2L240.2 249.8L243.8 251.2L247.5 252.3L251.3 253.3L255.2 254L259.1 254.6L263.8 254.7L267.9 254.8L271.3 254.8L274 254.6L276 254.3L277.4 253.9L277.8 253.7L278.2 253.6L278.3 253.6L278.4 253.7L278.3 253.9L278 254.2L278 254.2L281.4 255.1L284.9 256.3L288.6 257.7L292.4 259.3L296.3 261.1L300.4 263.1L304.5 265.4L307.5 269.9L309.9 275.6L312.2 281.4L314.5 287.4L316.8 293.5L319.1 299.7L334.7 313.3L354 317.5L361.5 319.5L368.9 321.6L376.4 323.7L383.8 326L391.1 328.4L398.5 330.9L405.8 333.4L413.3 334.5L420.9 335.7L428.5 337L436 338.4L443.6 339.9L451.2 341.5L458.8 343.2L466.7 344.2L475.2 343.5L483.7 342.9L495.9 343.4L507.4 341.9L514.4 339.8L521.6 337.7L528.9 335.7L536.3 333.8L543.7 332.1L551 332.3L558.3 332.6L565.7 333L573.1 333.4L580.7 333.9L588.3 334.5L595.9 335.1L603.7 335.8L611.5 336.6L619.3 337.4L627.3 338.3L635.3 339.3L643.4 340.3L651.5 341.5L659.7 342.6L668 343.9L676.3 345.2L684.7 346.6L693.2 348.1L701.7 349.6L710.3 351.2L718.9 352.9L727.6 354.6Z"/></clipPath><linearGradient id="gb-pure-iguanodon" x1="0" y1="0" x2="0" y2="1"><stop offset="0" stop-color="#a59465"/><stop offset="0.55" stop-color="#94804a"/><stop offset="1" stop-color="#72633a"/></linearGradient><linearGradient id="gl-pure-iguanodon" x1="0" y1="0" x2="0" y2="1"><stop offset="0" stop-color="#917e49"/><stop offset="0.55" stop-color="#827141"/><stop offset="1" stop-color="#6f6139"/></linearGradient><linearGradient id="gf-pure-iguanodon" x1="0" y1="0" x2="0" y2="1"><stop offset="0" stop-color="#877544"/><stop offset="0.55" stop-color="#7a6a3e"/><stop offset="1" stop-color="#6c5f37"/></linearGradient><radialGradient id="sh-pure-iguanodon"><stop offset="0" stop-color="#23281e" stop-opacity="0.18"/><stop offset="0.7" stop-color="#23281e" stop-opacity="0.11"/><stop offset="1" stop-color="#23281e" stop-opacity="0"/></radialGradient></defs><line x1="60" y1="470" x2="780" y2="470" stroke="#b9b4a0" stroke-width="2"/><path d="M120 470l5 -9 M127 470l4 -6" stroke="#b9b4a0" stroke-width="1.5" fill="none"/><path d="M300 470l5 -9 M307 470l4 -6" stroke="#b9b4a0" stroke-width="1.5" fill="none"/><path d="M520 470l5 -9 M527 470l4 -6" stroke="#b9b4a0" stroke-width="1.5" fill="none"/><path d="M700 470l5 -9 M707 470l4 -6" stroke="#b9b4a0" stroke-width="1.5" fill="none"/><ellipse cx="480.2" cy="478" rx="228.3" ry="10" fill="url(#sh-pure-iguanodon)"/><path d="M511.7 281.6L511.4 287.6L509.9 295.9L507.4 306.3L504.6 318.1L502 330.5L500 343.1L499.2 355.5L500.2 367.5L503.1 378.8L508 388.4L514 396.4L520.2 403.4L526 409.4L530.9 414.6L534.4 418.8L536.2 421.6L536 424.2L535.1 427.2L533.4 430.4L531 433.8L528.2 437.2L525.3 440.4L522.4 443.6L520.4 446.3L537.6 457.7L538.6 455.8L540.6 453.1L543.5 449.4L546.8 444.9L550 439.5L552.6 433.3L554.2 426.2L553.8 418.4L551.8 410.3L548 402.7L543.5 395.6L538.8 388.7L534.7 382L531.5 375.8L529.9 370.4L529.8 365.9L532 360.3L535.5 352.4L540.2 343.4L545.6 333.8L551.3 324.4L557 315.7L562.2 307.9L566.3 302Z" fill="url(#gf-pure-iguanodon)" stroke="#5d5230" stroke-width="1.8"/><path d="M533 457.7L516.6 463.7Q514.1 467 518 468.3L535 464.3Z" fill="url(#gf-pure-iguanodon)" stroke="#5d5230" stroke-width="1.5" stroke-linejoin="round"/><path d="M516.9 464.5L513 467.3L517.8 467.5Z" fill="#5d5230"/><path d="M529.9 455.4L509.8 462.5Q507 466 511.3 467.5L532.1 462.6Z" fill="url(#gf-pure-iguanodon)" stroke="#5d5230" stroke-width="1.5" stroke-linejoin="round"/><path d="M510.1 463.5L506.2 466.3L511 466.5Z" fill="#5d5230"/><path d="M534.6 464.7L541.8 467.5Q545.5 466.9 543.8 463.5L537.4 459.3Z" fill="url(#gf-pure-iguanodon)" stroke="#5d5230" stroke-width="1.5" stroke-linejoin="round"/><path d="M542.1 466.9L546.8 467.6L543.5 464.1Z" fill="#5d5230"/><path d="M393.9 268.7L393.4 275.7L393.1 285L392.9 296.2L392.6 308.6L392.3 321.8L391.8 335.1L391.1 347.9L390 359.8L388.9 371.4L387.4 383.6L385.5 396L383.6 408.1L381.6 419.4L379.7 429.5L378.1 438L377 444.4L366.5 442.9L367.2 436.3L368.3 427.7L369.7 417.5L371.2 406.2L372.6 394.2L373.9 382.1L374.9 370.2L375.5 359L375.1 347.7L374.4 335.2L373.4 322.3L372.2 309.4L371 297.1L369.7 286.1L368.5 276.7L367.6 269.6Z" fill="url(#gf-pure-iguanodon)" stroke="#5d5230" stroke-width="1.8"/><ellipse cx="368.7" cy="462" rx="14.9" ry="5.5" fill="url(#gf-pure-iguanodon)" stroke="#5d5230" stroke-width="2"/><path d="M364.3 458.4L362.7 463.7M370.5 458.4L368.9 463.7" fill="none" stroke="#5d5230" stroke-width="1.2" opacity="0.45"/><path d="M729.1 349.9L721 346.3L712.8 342.8L704.8 339.4L696.7 336L688.7 332.7L680.7 329.4L672.8 326.2L664.9 323.1L657.1 320.1L649.3 317.1L641.5 314.1L633.8 311.3L626.1 308.5L618.5 305.7L610.9 303.1L603.3 300.4L595.8 297.9L588.3 295.4L580.8 293L573.4 290.6L566 288.4L558.7 286.1L551.4 284L544.4 280.1L537.4 276L530.5 272L523.5 268.1L516.5 264.2L514.1 261.2L509.9 256.6L502 251.1L493.9 245.7L485.4 242.2L476.5 239.8L467.7 237.4L458.8 235.2L450 233.1L441.1 231.1L432.2 229.2L423.3 227.5L414.2 227.4L405 227.5L396 227.7L386.9 228L377.9 228.5L368.9 229.1L360 229.9L362.8 233L368.2 238.3L360.5 236.7L352.9 235.3L345.5 234.3L338.2 233.5L331.1 233L324.8 231.8L319.9 228.7L315 225.8L310.1 223.1L305.2 220.6L300.4 218.4L295.5 216.3L290.7 214.5L283.8 211.7L277.7 209.5L272.5 207.8L268.2 206.6L264.7 206.1L262.1 206L259.9 205.9L257.9 206.2L256.2 206.9L254.6 208L253.3 209.4L252.1 211.3L251.2 213.8L250.1 216.2L248.8 218.5L247.5 220.6L246 222.5L244.5 224.3L242.3 225.9L240.3 227.4L238.4 228.9L236.6 230.4L235 231.8L233.5 233.2L232.2 234.4L231.1 235.5L230.4 236.6L229.9 237.7L229.6 238.9L229.7 240L230.5 241.8L231.5 243.4L232.6 244.9L233.8 246.2L235.2 247.3L236.6 248.2L240.2 249.8L243.8 251.2L247.5 252.3L251.3 253.3L255.2 254L259.1 254.6L263.8 254.7L267.9 254.8L271.3 254.8L274 254.6L276 254.3L277.4 253.9L277.8 253.7L278.2 253.6L278.3 253.6L278.4 253.7L278.3 253.9L278 254.2L278 254.2L281.4 255.1L284.9 256.3L288.6 257.7L292.4 259.3L296.3 261.1L300.4 263.1L304.5 265.4L307.5 269.9L309.9 275.6L312.2 281.4L314.5 287.4L316.8 293.5L319.1 299.7L334.7 313.3L354 317.5L361.5 319.5L368.9 321.6L376.4 323.7L383.8 326L391.1 328.4L398.5 330.9L405.8 333.4L413.3 334.5L420.9 335.7L428.5 337L436 338.4L443.6 339.9L451.2 341.5L458.8 343.2L466.7 344.2L475.2 343.5L483.7 342.9L495.9 343.4L507.4 341.9L514.4 339.8L521.6 337.7L528.9 335.7L536.3 333.8L543.7 332.1L551 332.3L558.3 332.6L565.7 333L573.1 333.4L580.7 333.9L588.3 334.5L595.9 335.1L603.7 335.8L611.5 336.6L619.3 337.4L627.3 338.3L635.3 339.3L643.4 340.3L651.5 341.5L659.7 342.6L668 343.9L676.3 345.2L684.7 346.6L693.2 348.1L701.7 349.6L710.3 351.2L718.9 352.9L727.6 354.6Z" fill="url(#gb-pure-iguanodon)" stroke="#4b4428" stroke-width="3" stroke-linejoin="round"/><g clip-path="url(#bod-pure-iguanodon)"><path d="M701.6 349.8L684.6 346.9L667.9 344.3L651.4 341.9L635.2 339.8L619.2 338L603.5 336.4L588.1 335.2L573 334.2L558.1 333.5L543.6 333.1L528.7 336.9L514.3 341.2L495.6 345L474.6 345.3L458.3 345.3L443.1 341.9L428 339L412.9 336.6L398.2 332.9L383.5 328L368.8 323.4L353.8 319.3L318.1 301L313.7 288.4L309.3 276.4L304.1 266L308.2 259.3L315 268L321.4 278L327.9 288.7L355 301.7L370.6 304.8L386 308.3L401.3 312.2L416.7 315.5L432.3 318.3L448 321.4L463.6 325.1L480 326.8L499.2 328.6L516.1 326.9L530.4 324.9L545.1 323.4L559.7 324.6L574.5 326.1L589.6 327.9L605 329.9L620.6 332.2L636.4 334.8L652.5 337.6L668.8 340.7L685.4 344.1L702.2 347.8Z" fill="#5f5431" opacity="0.2"/><path d="M551.5 283L537.6 274.8L530.6 270.7L516.7 262.7L514.4 259.5L502.5 249.3L494.5 243.8L477 237.7L468.2 235.4L450.4 231L441.5 229L423.6 225.3L414.5 225.3L396.2 225.7L387.1 226.1L369.1 227.3L360.1 228.1L369.2 237.1L361.3 235.6L346.1 233.3L338.8 232.7L325.2 231.1L320.3 228L310.4 222.4L305.5 219.9L295.8 215.5L290.9 213.7L289.2 219.2L293.8 221L303.2 225.1L308 227.5L317.5 232.8L322.4 235.8L334.8 238.5L341.5 239.9L355.2 243.5L362.3 245.7L359.2 240.4L368 240L385.6 239.5L394.5 239.5L412.3 239.8L421.2 240.2L438.7 243.6L447.4 245.5L464.8 249.7L473.5 252L490.7 257.6L498.7 262.2L511.9 271L515.4 273.6L529.4 279.9L536.4 283.2L550.5 289.7Z" fill="#c8bd9d" opacity="0.26"/></g><g clip-path="url(#bod-pure-iguanodon)" fill="#544a2e" opacity="0.42"><rect x="241" y="130" width="18" height="360" rx="9" transform="rotate(-7 250 300)"/><rect x="293" y="130" width="18" height="360" rx="9" transform="rotate(-7 302 300)"/><rect x="345" y="130" width="18" height="360" rx="9" transform="rotate(-7 354 300)"/><rect x="397" y="130" width="18" height="360" rx="9" transform="rotate(-7 406 300)"/><rect x="449" y="130" width="18" height="360" rx="9" transform="rotate(-7 458 300)"/><rect x="501" y="130" width="18" height="360" rx="9" transform="rotate(-7 510 300)"/><rect x="553" y="130" width="18" height="360" rx="9" transform="rotate(-7 562 300)"/><rect x="605" y="130" width="18" height="360" rx="9" transform="rotate(-7 614 300)"/><rect x="657" y="130" width="18" height="360" rx="9" transform="rotate(-7 666 300)"/><rect x="709" y="130" width="18" height="360" rx="9" transform="rotate(-7 718 300)"/></g><g clip-path="url(#bod-pure-iguanodon)"><g fill="none" stroke="#4b4428" stroke-width="1.2" opacity="0.2"><path d="M325.4 259.8Q320 260.6 318.6 255.3"/><path d="M336.9 282.2Q332.9 282.4 332.3 278.5"/><path d="M311.4 249.6Q307.6 250.4 306.3 246.7"/><path d="M392.1 293.1Q387.5 296.3 383.8 292"/><path d="M407.9 288.7Q404.5 290.9 402 287.8"/><path d="M552.3 303.3Q547.9 306.2 544.5 302"/><path d="M445.4 274.7Q440.8 277.4 437.6 273.1"/><path d="M346.8 288.1Q343 289.7 341 286.1"/><path d="M514 321.2Q509.4 324.4 505.8 320.2"/><path d="M309.6 241.9Q306 242.8 304.7 239.3"/><path d="M306.4 239.9Q301.1 241.4 299.1 236.4"/><path d="M369.6 267.3Q365.5 270.5 361.9 266.7"/><path d="M320.1 247.3Q314.8 248.4 313.2 243.2"/><path d="M453.4 274.8Q449.6 277 447 273.4"/><path d="M448.4 297.5Q444.6 299.6 442.1 296.1"/><path d="M438.9 261.4Q434.8 263.8 431.9 260"/><path d="M305.2 252.7Q300 254 298.2 249"/><path d="M566.2 311.6Q561.5 314.5 558 310.1"/><path d="M337.3 252Q332.6 252.6 331.5 247.9"/><path d="M509.9 297.2Q505.6 299.7 502.7 295.7"/><path d="M342.8 256.4Q336.9 257 335.7 251.2"/><path d="M550.5 309.9Q546.9 312.2 544.2 308.9"/></g><g fill="none" stroke="#4b4428" stroke-linecap="round"><path d="M317.7 243.5L308.4 238.2L299.4 233.6L295 231.6L286.2 228.4L282 227.1L273.6 225.2L269.4 224.9L261.4 225L257.5 225.4" stroke-width="1.5" opacity="0.3"/><path d="M311.2 254.3L302.5 249.4L298.2 247.3L294.1 245.5L286.1 242.3L282.2 241.1L274.8 239.2L271.3 238.4L267.9 237.5" stroke-width="1.3" opacity="0.26"/><path d="M508.1 288.3L493.1 281.6L476.6 275.6L451.3 269.2L434.4 265.6L417.5 262.4L400.5 260.8L383.4 259.6L366.5 258.9" stroke-width="1.5" opacity="0.28"/><path d="M482.4 318.5L466 316L450.1 312.2L426.3 307.4L410.5 304.8L394.9 301.1L371.4 296.4L355.6 293.8L332.4 283.2" stroke-width="1.4" opacity="0.26"/><path d="M695.5 340.2L679.2 335L663.1 330L647.2 325.2L631.5 320.7L616 316.5L600.7 312.6L585.6 308.9L570.7 305.5" stroke-width="1.3" opacity="0.28"/><path d="M686.1 341.7L669.7 337.7L653.4 334L645.4 332.2L629.6 328.8L613.9 325.8L606.2 324.3L590.9 321.7L583.3 320.4" stroke-width="1.3" opacity="0.24"/><path d="M474 308.7A29.6 29.6 0 0 1 529.8 301.7" stroke-width="1.6" opacity="0.3"/><path d="M332.8 279.7A25.8 25.8 0 0 1 377.6 274" stroke-width="1.4" opacity="0.26"/></g></g><path d="M231.7 242.8L232.9 243.7L234.2 244.4L235.7 244.7L237.2 244.7L241.6 244.7L245.9 244.7L250.1 245L254.1 245.3L258 245.7L261.8 246.3" fill="none" stroke="#4b4428" stroke-width="2" opacity="0.65"/><path d="M260.8 246.5Q262.5 241.6 265.2 237" fill="none" stroke="#4b4428" stroke-width="1.6" opacity="0.45"/><path d="M239.5 233Q236.4 230.9 234.3 234" fill="none" stroke="#4b4428" stroke-width="1.6" opacity="0.75"/><ellipse cx="257.1" cy="227.7" rx="9.4" ry="7" fill="#4b4428" opacity="0.1"/><circle cx="256.4" cy="227.8" r="4.7" fill="#fdfaef" stroke="#4b4428" stroke-width="1.5"/><circle cx="255.8" cy="227.8" r="2.9" fill="#4f462b"/><circle cx="255.5" cy="227.8" r="1.6" fill="#1c1a14"/><circle cx="254.8" cy="226.4" r="0.8" fill="#fdfaef" opacity="0.9"/><path d="M261.6 217.4Q254 217.1 246.6 223.6" fill="none" stroke="#4b4428" stroke-width="2.2" stroke-linecap="round"/><path d="M485.7 287.6L485.4 293.6L483.9 301.9L481.4 312.3L478.6 324.1L476 336.5L474 349.1L473.2 361.5L474.2 373.5L477.1 384.8L482 394.4L488 402.4L494.2 409.4L500 415.4L504.9 420.6L508.4 424.8L510.2 427.6L510 430.2L509.1 433.2L507.4 436.4L505 439.8L502.2 443.2L499.3 446.4L496.4 449.6L494.4 452.3L511.6 463.7L512.6 461.8L514.6 459.1L517.5 455.4L520.8 450.9L524 445.5L526.6 439.3L528.2 432.2L527.8 424.4L525.8 416.3L522 408.7L517.5 401.6L512.8 394.7L508.7 388L505.5 381.8L503.9 376.4L503.8 371.9L506 366.3L509.5 358.4L514.2 349.4L519.6 339.8L525.3 330.4L531 321.7L536.2 313.9L540.3 308Z" fill="url(#gl-pure-iguanodon)" stroke="#4b4428" stroke-width="2.4"/><g clip-path="url(#bod-pure-iguanodon)"><path d="M485.7 287.6L485.4 293.6L483.9 301.9L481.4 312.3L478.6 324.1L476 336.5L474 349.1L473.2 361.5L474.2 373.5L477.1 384.8L482 394.4L488 402.4L494.2 409.4L500 415.4L504.9 420.6L508.4 424.8L510.2 427.6L510 430.2L509.1 433.2L507.4 436.4L505 439.8L502.2 443.2L499.3 446.4L496.4 449.6L494.4 452.3L511.6 463.7L512.6 461.8L514.6 459.1L517.5 455.4L520.8 450.9L524 445.5L526.6 439.3L528.2 432.2L527.8 424.4L525.8 416.3L522 408.7L517.5 401.6L512.8 394.7L508.7 388L505.5 381.8L503.9 376.4L503.8 371.9L506 366.3L509.5 358.4L514.2 349.4L519.6 339.8L525.3 330.4L531 321.7L536.2 313.9L540.3 308Z" fill="url(#gl-pure-iguanodon)"/></g><path d="M507 460.7L490.6 466.7Q488.1 470 492 471.3L509 467.3Z" fill="url(#gl-pure-iguanodon)" stroke="#4b4428" stroke-width="1.5" stroke-linejoin="round"/><path d="M490.9 467.5L487 470.3L491.8 470.5Z" fill="#4b4428"/><path d="M503.9 458.4L483.8 465.5Q481 469 485.3 470.5L506.1 465.6Z" fill="url(#gl-pure-iguanodon)" stroke="#4b4428" stroke-width="1.5" stroke-linejoin="round"/><path d="M484.1 466.5L480.2 469.3L485 469.5Z" fill="#4b4428"/><path d="M508.6 467.7L515.8 470.5Q519.5 469.9 517.8 466.5L511.4 462.3Z" fill="url(#gl-pure-iguanodon)" stroke="#4b4428" stroke-width="1.5" stroke-linejoin="round"/><path d="M516.1 469.9L520.8 470.6L517.5 467.1Z" fill="#4b4428"/><path d="M367.9 274.7L367.4 281.7L367.1 291L366.9 302.2L366.6 314.6L366.3 327.8L365.8 341.1L365.1 353.9L364 365.8L362.9 377.4L361.4 389.6L359.5 402L357.6 414.1L355.6 425.4L353.7 435.5L352.1 444L351 450.4L340.5 448.9L341.2 442.3L342.3 433.7L343.7 423.5L345.2 412.2L346.6 400.2L347.9 388.1L348.9 376.2L349.5 365L349.1 353.7L348.4 341.2L347.4 328.3L346.2 315.4L345 303.1L343.7 292.1L342.5 282.7L341.6 275.6Z" fill="url(#gl-pure-iguanodon)" stroke="#4b4428" stroke-width="2.4"/><g clip-path="url(#bod-pure-iguanodon)"><path d="M367.9 274.7L367.4 281.7L367.1 291L366.9 302.2L366.6 314.6L366.3 327.8L365.8 341.1L365.1 353.9L364 365.8L362.9 377.4L361.4 389.6L359.5 402L357.6 414.1L355.6 425.4L353.7 435.5L352.1 444L351 450.4L340.5 448.9L341.2 442.3L342.3 433.7L343.7 423.5L345.2 412.2L346.6 400.2L347.9 388.1L348.9 376.2L349.5 365L349.1 353.7L348.4 341.2L347.4 328.3L346.2 315.4L345 303.1L343.7 292.1L342.5 282.7L341.6 275.6Z" fill="url(#gl-pure-iguanodon)"/></g><ellipse cx="342.7" cy="465" rx="15.9" ry="6" fill="url(#gl-pure-iguanodon)" stroke="#4b4428" stroke-width="2"/><path d="M338 461.1L336.4 466.8M344.7 461.1L343.1 466.8" fill="none" stroke="#4b4428" stroke-width="1.2" opacity="0.45"/></g></svg>