<svg xmlns="http://www.w3.org/2000/svg" viewBox="0 0 820 540" role="img" aria-label="Tyrannoceratosaurus, a hybrid dinosaur"><g transform="translate(455.4 470) scale(0.985) translate(-455.4 -470)"><line x1="60" y1="470" x2="780" y2="470" stroke="#b9b4a0" stroke-width="2"/><path d="M120 470l5 -9 M127 470l4 -6" stroke="#b9b4a0" stroke-width="1.5" fill="none"/><path d="M300 470l5 -9 M307 470l4 -6" stroke="#b9b4a0" stroke-width="1.5" fill="none"/><path d="M520 470l5 -9 M527 470l4 -6" stroke="#b9b4a0" stroke-width="1.5" fill="none"/><path d="M700 470l5 -9 M707 470l4 -6" stroke="#b9b4a0" stroke-width="1.5" fill="none"/><ellipse cx="493.2" cy="478" rx="200.6" ry="9" fill="rgba(30,30,20,0.14)"/><path d="M516.5 298.5L515.8 304.9L514.1 313.7L511.8 324.5L509.3 336.6L506.9 349.1L505.2 361.5L504.5 373.2L505.4 384L508.6 393.8L513.8 401.7L519.9 407.6L526 412.3L531.6 416.1L536.1 419.2L539.1 421.6L540.5 423.3L540.1 425.4L538.9 428.5L536.6 432.1L533.7 435.9L530.4 439.6L527 443.1L524 446.3L521.8 448.9L536.2 459.1L537.4 456.8L539.7 453.7L542.7 449.7L546.1 445L549.3 439.8L552.1 434L553.7 427.7L553.5 420.7L551.4 413.9L547.4 408.1L542.7 403.1L538 398.4L533.8 393.8L530.7 389.4L529 385.4L528.6 381.5L529.7 375.3L531.9 366.3L535.1 355.9L539 344.8L543.1 333.8L547.2 323.7L550.8 314.9L553.5 308.5Z" fill="#486035" stroke="#3e512d" stroke-width="2"/><ellipse cx="527" cy="461" rx="23.1" ry="6.5" fill="#486035" stroke="#3e512d" stroke-width="2"/><path d="M386.1 311.3L386.3 316.1L386.4 322.4L386.5 329.9L386.5 338.2L386.5 346.8L386.4 355.5L386.3 363.8L386.1 371.2L385.6 378.3L384.9 385.8L384.1 393.3L383.3 400.7L382.5 407.6L381.7 413.8L381.1 419.1L380.8 423.1L390 424.4L390.7 420.5L391.7 415.3L392.9 409.2L394.1 402.3L395.4 394.9L396.6 387.3L397.7 379.7L398.7 372.3L399.6 364.7L400.5 356.3L401.3 347.6L402.1 338.8L402.8 330.5L403.5 323L404.1 316.8L404.6 312.2Z" fill="#486035" stroke="#3e512d" stroke-width="2"/><path d="M385.4 423.7L376.4 432.7L390.4 430.7Z" fill="#486035" stroke="#3e512d" stroke-width="1.5"/><g transform="rotate(-24 344.1 292.7)"><ellipse cx="344.1" cy="292.7" rx="21.5" ry="29" fill="#d9a441" stroke="#93712e" stroke-width="2.5"/><ellipse cx="344.1" cy="292.7" rx="12.8" ry="18" fill="#bb8e39"/></g><path d="M565.1 300.3L557.8 296.1L548 294.2L539.7 294.6Z" fill="#d9a441" stroke="#93712e" stroke-width="2"/><path d="M537.3 282.7L530 277.9L520.1 276.5L511.7 278.1Z" fill="#d9a441" stroke="#93712e" stroke-width="2"/><path d="M510.4 266.1L503.3 260.5L493.4 259.1L484.9 261.3Z" fill="#d9a441" stroke="#93712e" stroke-width="2"/><path d="M468.2 254.8L460.4 249.7L450.4 249.7L442.2 253.4Z" fill="#d9a441" stroke="#93712e" stroke-width="2"/><path d="M433.4 252.7L425.1 248.5L415.2 249.5L407.4 254.1Z" fill="#d9a441" stroke="#93712e" stroke-width="2"/><path d="M399.3 260.3L390.8 257.5L381 259.5L373.7 264.5Z" fill="#d9a441" stroke="#93712e" stroke-width="2"/><path d="M377 273.9L369.1 270.4L359.1 270.5L351 273.5Z" fill="#d9a441" stroke="#93712e" stroke-width="2"/><path d="M366.5 284.6L360 279.3L350.6 275.9L342.3 274.9Z" fill="#d9a441" stroke="#93712e" stroke-width="2"/><path d="M712.5 371.7L709.4 366.3L699.6 366.3Z" fill="#e6dcc0" stroke="#8a7a52" stroke-width="1.5"/><path d="M680.4 354.9L677.2 349.6L667.4 349.8Z" fill="#e6dcc0" stroke="#8a7a52" stroke-width="1.5"/><path d="M306.1 271.3Q306.3 257.7 292.3 242.8Q296.4 256.8 292.2 270.1Z" fill="#e6dcc0" stroke="#8a7a52" stroke-width="1.5"/><path d="M318.8 274.4Q319.7 263.8 309.8 251.4Q309.8 262.1 305 272Z" fill="#e6dcc0" stroke="#8a7a52" stroke-width="1.5"/><path d="M268.3 283.2Q266.1 278.8 257.6 276.1Q256.4 281.4 254.8 286.9Z" fill="#e6dcc0" stroke="#8a7a52" stroke-width="1.5"/><defs><clipPath id="bod-sibling-seed-3"><path d="M733 376.9L724.8 372.4L716.6 367.9L708.4 363.5L700.2 359.1L692.2 354.9L684.1 350.8L676.1 346.8L668.1 342.8L660.2 338.9L652.3 335.2L644.4 331.5L636.6 327.9L628.8 324.4L621.1 321L613.4 317.7L605.7 314.5L598.1 311.3L590.5 308.3L582.9 305.4L575.4 302.5L567.9 299.7L560.5 297.1L553 294.5L546 290.3L539 285.9L532 281.6L525 277.4L518 273.3L512.4 269.6L506.2 265.2L498.2 260.7L490.1 256.5L481.5 254.1L472.8 252.9L464.1 251.9L455.3 251.1L446.6 250.6L437.8 250.3L429 250.2L420.2 250.4L411.5 252.3L403 254.5L394.4 256.9L386 259.5L377.7 262.3L369.4 265.4L361.2 268.6L364.1 270.7L374 274.8L367.7 275.3L361.6 276.1L355.5 277L349.6 278L343.9 279.2L338.7 279.5L334.2 277.8L329.8 276.3L325.4 274.8L321 273.5L316.6 272.3L312.3 271.2L307.9 270.3L303.6 269.4L299.3 268.7L295 269.5L290.7 270.5L286.6 271.6L282.5 272.8L278.6 274.2L274.8 275.8L271.2 277.4L267.7 279.2L264.3 281.1L261 283.1L257.9 285.3L255 287.5L252.2 289.8L256.4 300.6L259.6 300.6L262.8 300.8L265.9 301.1L268.9 301.6L272 302.1L275 302.8L278 303.6L280.9 304.5L283.9 305.5L286.8 306.6L289.7 307.8L292.7 309.1L295.6 310.4L298.7 310.4L302 310.6L305.3 310.9L308.7 311.3L312.1 311.8L315.7 312.4L319.4 313.1L323.1 314L327 314.9L330.1 318.1L332.9 322.4L335.6 326.8L338.3 331.3L341 335.8L343.7 340.4L362.7 348.8L380.4 347L387.2 346.8L393.8 346.8L400.4 347L406.8 347.4L413.2 347.9L419.6 348.7L425.8 349.5L431.9 349.1L438 348.8L444.2 348.6L450.3 348.7L456.5 348.9L462.6 349.3L468.8 349.8L475.2 349.6L482 347.9L488.9 346.4L497.6 345.4L506.2 344L513.4 342.3L520.7 340.8L528.2 339.4L535.8 338L543.5 337L550.8 337.9L558.3 338.8L565.8 339.8L573.4 341L581 342.2L588.8 343.5L596.6 345L604.4 346.5L612.4 348.1L620.4 349.9L628.5 351.7L636.7 353.6L644.9 355.7L653.2 357.8L661.6 360L670 362.4L678.5 364.8L687.1 367.3L695.8 370L704.5 372.7L713.2 375.5L722.1 378.5L731 381.5Z"/></clipPath></defs><path d="M733 376.9L724.8 372.4L716.6 367.9L708.4 363.5L700.2 359.1L692.2 354.9L684.1 350.8L676.1 346.8L668.1 342.8L660.2 338.9L652.3 335.2L644.4 331.5L636.6 327.9L628.8 324.4L621.1 321L613.4 317.7L605.7 314.5L598.1 311.3L590.5 308.3L582.9 305.4L575.4 302.5L567.9 299.7L560.5 297.1L553 294.5L546 290.3L539 285.9L532 281.6L525 277.4L518 273.3L512.4 269.6L506.2 265.2L498.2 260.7L490.1 256.5L481.5 254.1L472.8 252.9L464.1 251.9L455.3 251.1L446.6 250.6L437.8 250.3L429 250.2L420.2 250.4L411.5 252.3L403 254.5L394.4 256.9L386 259.5L377.7 262.3L369.4 265.4L361.2 268.6L364.1 270.7L374 274.8L367.7 275.3L361.6 276.1L355.5 277L349.6 278L343.9 279.2L338.7 279.5L334.2 277.8L329.8 276.3L325.4 274.8L321 273.5L316.6 272.3L312.3 271.2L307.9 270.3L303.6 269.4L299.3 268.7L295 269.5L290.7 270.5L286.6 271.6L282.5 272.8L278.6 274.2L274.8 275.8L271.2 277.4L267.7 279.2L264.3 281.1L261 283.1L257.9 285.3L255 287.5L252.2 289.8L256.4 300.6L259.6 300.6L262.8 300.8L265.9 301.1L268.9 301.6L272 302.1L275 302.8L278 303.6L280.9 304.5L283.9 305.5L286.8 306.6L289.7 307.8L292.7 309.1L295.6 310.4L298.7 310.4L302 310.6L305.3 310.9L308.7 311.3L312.1 311.8L315.7 312.4L319.4 313.1L323.1 314L327 314.9L330.1 318.1L332.9 322.4L335.6 326.8L338.3 331.3L341 335.8L343.7 340.4L362.7 348.8L380.4 347L387.2 346.8L393.8 346.8L400.4 347L406.8 347.4L413.2 347.9L419.6 348.7L425.8 349.5L431.9 349.1L438 348.8L444.2 348.6L450.3 348.7L456.5 348.9L462.6 349.3L468.8 349.8L475.2 349.6L482 347.9L488.9 346.4L497.6 345.4L506.2 344L513.4 342.3L520.7 340.8L528.2 339.4L535.8 338L543.5 337L550.8 337.9L558.3 338.8L565.8 339.8L573.4 341L581 342.2L588.8 343.5L596.6 345L604.4 346.5L612.4 348.1L620.4 349.9L628.5 351.7L636.7 353.6L644.9 355.7L653.2 357.8L661.6 360L670 362.4L678.5 364.8L687.1 367.3L695.8 370L704.5 372.7L713.2 375.5L722.1 378.5L731 381.5Z" fill="#6b8f4e" stroke="#394a2a" stroke-width="2.5" stroke-linejoin="round"/><path d="M286.8 303.6L283.7 302.5L277.6 300.6L274.5 299.8L268.3 298.6L265.1 298.2L258.6 297.8" fill="none" stroke="#394a2a" stroke-width="2" opacity="0.7"/><g opacity="0.6"><path d="M283.8 303L282.2 306.8L280.7 302Z" fill="#f6f2e4" stroke="#8a7a52" stroke-width="0.8"/><path d="M277.7 301.1L276.1 305L274.6 300.3Z" fill="#f6f2e4" stroke="#8a7a52" stroke-width="0.8"/><path d="M274.6 300.3L271.5 304L268.4 299.1Z" fill="#f6f2e4" stroke="#8a7a52" stroke-width="0.8"/><path d="M268.4 299.1L266.8 303.2L265.2 298.7Z" fill="#f6f2e4" stroke="#8a7a52" stroke-width="0.8"/><path d="M262 298.4L260.4 302.6L258.8 298.2Z" fill="#f6f2e4" stroke="#8a7a52" stroke-width="0.8"/></g><circle cx="294.2" cy="282.9" r="4.4" fill="#fdfaef" stroke="#394a2a" stroke-width="1.5"/><circle cx="293.1" cy="282.9" r="2" fill="#1c1a14"/><path d="M490.5 304.5L489.8 310.9L488.1 319.7L485.8 330.5L483.3 342.6L480.9 355.1L479.2 367.5L478.5 379.2L479.4 390L482.6 399.8L487.8 407.7L493.9 413.6L500 418.3L505.6 422.1L510.1 425.2L513.1 427.6L514.5 429.3L514.1 431.4L512.9 434.5L510.6 438.1L507.7 441.9L504.4 445.6L501 449.1L498 452.3L495.8 454.9L510.2 465.1L511.4 462.8L513.7 459.7L516.7 455.7L520.1 451L523.3 445.8L526.1 440L527.7 433.7L527.5 426.7L525.4 419.9L521.4 414.1L516.7 409.1L512 404.4L507.8 399.8L504.7 395.4L503 391.4L502.6 387.5L503.7 381.3L505.9 372.3L509.1 361.9L513 350.8L517.1 339.8L521.2 329.7L524.8 320.9L527.5 314.5Z" fill="#5e7e45" stroke="#394a2a" stroke-width="2"/><ellipse cx="501" cy="464" rx="24.1" ry="7" fill="#5e7e45" stroke="#394a2a" stroke-width="2"/><path d="M478.9 462L466.9 468L482.9 469Z" fill="#5e7e45" stroke="#394a2a" stroke-width="1.5"/><path d="M360.1 317.3L360.3 322.1L360.4 328.4L360.5 335.9L360.5 344.2L360.5 352.8L360.4 361.5L360.3 369.8L360.1 377.2L359.6 384.3L358.9 391.8L358.1 399.3L357.3 406.7L356.5 413.6L355.7 419.8L355.1 425.1L354.8 429.1L364 430.4L364.7 426.5L365.7 421.3L366.9 415.2L368.1 408.3L369.4 400.9L370.6 393.3L371.7 385.7L372.7 378.3L373.6 370.7L374.5 362.3L375.3 353.6L376.1 344.8L376.8 336.5L377.5 329L378.1 322.8L378.6 318.2Z" fill="#5e7e45" stroke="#394a2a" stroke-width="2"/><path d="M359.4 429.7L350.4 438.7L364.4 436.7Z" fill="#5e7e45" stroke="#394a2a" stroke-width="1.5"/></g></svg>