<svg xmlns="http://www.w3.org/2000/svg" viewBox="0 0 820 540" role="img" aria-label="Tyrannoceratosaurus, a hybrid dinosaur"><g transform="translate(456.2 470) scale(0.985) translate(-456.2 -470)"><defs><clipPath id="bod-trio-equal"><path d="M729.2 382.2L721.1 377.4L713.1 372.7L705 368.1L697 363.6L689.1 359.2L681.2 354.8L673.3 350.6L665.4 346.5L657.7 342.5L649.9 338.5L642.2 334.7L634.5 331L626.9 327.3L619.3 323.8L611.7 320.4L604.1 317L596.6 313.8L589.2 310.6L581.8 307.6L574.4 304.7L567 301.8L559.7 299.1L552.4 296.4L545.6 291.7L538.9 286.8L532.1 282L525.3 277.3L518.5 272.7L513.7 268.6L508.2 263.6L500.2 258.4L492 253.4L483.2 250.7L474.2 249.3L465.1 248.2L456.1 247.4L447 246.9L437.9 246.8L428.7 246.9L419.6 247.4L410.7 250L402 253L393.4 256.3L384.9 259.9L376.6 263.7L368.4 267.8L360.4 272.2L362.2 274.6L372.5 277.5L366.8 278.8L361.1 280.2L355.6 281.7L350.2 283.3L345 285.1L340.1 285.8L335.8 284.5L331.5 283.2L327.3 282L323 280.9L318.8 279.9L314.6 278.9L309.5 276.7L304.9 274.9L300.8 273.5L297.3 272.5L294.2 272L291.6 271.9L289.3 271.7L287.2 271.9L285.2 272.5L283.5 273.5L282 275L280.7 276.8L279.5 279.5L278.2 281.9L276.7 284.2L275.2 286.3L273.5 288.3L271.7 290.1L269.3 291.6L267 293.1L264.9 294.5L263 296L261.2 297.4L259.5 298.8L258 299.9L256.8 301L255.9 302.2L255.3 303.3L255 304.5L255 305.7L255.9 306.8L256.8 307.8L257.7 308.6L258.6 309.2L259.5 309.7L260.4 310L261.3 310.1L262.1 310.1L263 310.2L263.7 310.2L264.5 310.3L265.2 310.3L263.7 310.6L262.3 310.9L261 311.2L259.8 311.5L258.6 311.9L257.6 312.2L257.4 313.5L257.7 314.8L258.5 316.1L259.8 317.4L261.6 318.8L263.9 320.2L270.2 321.7L276.4 322.8L282.4 323.7L288.3 324.1L294.1 324.3L299.7 324.1L301.7 323.6L303.6 323.2L305.3 322.7L307 322.2L308.5 321.6L310 321L310 321L313.4 321L317 321.1L320.5 321.2L324.2 321.5L328 321.8L331.8 322.2L335.1 324.9L338.2 328.8L341.2 332.7L344.2 336.7L347.2 340.7L350.1 344.8L369.2 350.8L385.7 348.1L392.4 347.8L398.8 347.7L405.2 347.9L411.4 348.4L417.4 349.1L423.3 349.9L429.1 351L434.7 350.4L440.2 349.9L445.7 349.7L451.3 349.7L456.9 349.8L462.5 350.2L468.2 350.7L474 350.4L480.5 348.4L487.1 346.6L496.3 345.7L505.4 344L512.6 342.1L519.9 340.2L527.4 338.5L535 336.9L542.7 335.6L549.9 336.6L557.2 337.8L564.6 339L572.1 340.4L579.6 341.9L587.2 343.4L594.9 345.1L602.6 346.9L610.4 348.8L618.3 350.8L626.3 352.9L634.3 355.2L642.4 357.5L650.6 359.9L658.8 362.5L667.1 365.1L675.5 367.9L683.9 370.7L692.4 373.7L701 376.8L709.6 380L718.3 383.3L727.1 386.7Z"/></clipPath><path id="sil-trio-equal" d="M729.2 382.2L721.1 377.4L713.1 372.7L705 368.1L697 363.6L689.1 359.2L681.2 354.8L673.3 350.6L665.4 346.5L657.7 342.5L649.9 338.5L642.2 334.7L634.5 331L626.9 327.3L619.3 323.8L611.7 320.4L604.1 317L596.6 313.8L589.2 310.6L581.8 307.6L574.4 304.7L567 301.8L559.7 299.1L552.4 296.4L545.6 291.7L538.9 286.8L532.1 282L525.3 277.3L518.5 272.7L513.7 268.6L508.2 263.6L500.2 258.4L492 253.4L483.2 250.7L474.2 249.3L465.1 248.2L456.1 247.4L447 246.9L437.9 246.8L428.7 246.9L419.6 247.4L410.7 250L402 253L393.4 256.3L384.9 259.9L376.6 263.7L368.4 267.8L360.4 272.2L362.2 274.6L372.5 277.5L366.8 278.8L361.1 280.2L355.6 281.7L350.2 283.3L345 285.1L340.1 285.8L335.8 284.5L331.5 283.2L327.3 282L323 280.9L318.8 279.9L314.6 278.9L309.5 276.7L304.9 274.9L300.8 273.5L297.3 272.5L294.2 272L291.6 271.9L289.3 271.7L287.2 271.9L285.2 272.5L283.5 273.5L282 275L280.7 276.8L279.5 279.5L278.2 281.9L276.7 284.2L275.2 286.3L273.5 288.3L271.7 290.1L269.3 291.6L267 293.1L264.9 294.5L263 296L261.2 297.4L259.5 298.8L258 299.9L256.8 301L255.9 302.2L255.3 303.3L255 304.5L255 305.7L255.9 306.8L256.8 307.8L257.7 308.6L258.6 309.2L259.5 309.7L260.4 310L261.3 310.1L262.1 310.1L263 310.2L263.7 310.2L264.5 310.3L265.2 310.3L263.7 310.6L262.3 310.9L261 311.2L259.8 311.5L258.6 311.9L257.6 312.2L257.4 313.5L257.7 314.8L258.5 316.1L259.8 317.4L261.6 318.8L263.9 320.2L270.2 321.7L276.4 322.8L282.4 323.7L288.3 324.1L294.1 324.3L299.7 324.1L301.7 323.6L303.6 323.2L305.3 322.7L307 322.2L308.5 321.6L310 321L310 321L313.4 321L317 321.1L320.5 321.2L324.2 321.5L328 321.8L331.8 322.2L335.1 324.9L338.2 328.8L341.2 332.7L344.2 336.7L347.2 340.7L350.1 344.8L369.2 350.8L385.7 348.1L392.4 347.8L398.8 347.7L405.2 347.9L411.4 348.4L417.4 349.1L423.3 349.9L429.1 351L434.7 350.4L440.2 349.9L445.7 349.7L451.3 349.7L456.9 349.8L462.5 350.2L468.2 350.7L474 350.4L480.5 348.4L487.1 346.6L496.3 345.7L505.4 344L512.6 342.1L519.9 340.2L527.4 338.5L535 336.9L542.7 335.6L549.9 336.6L557.2 337.8L564.6 339L572.1 340.4L579.6 341.9L587.2 343.4L594.9 345.1L602.6 346.9L610.4 348.8L618.3 350.8L626.3 352.9L634.3 355.2L642.4 357.5L650.6 359.9L658.8 362.5L667.1 365.1L675.5 367.9L683.9 370.7L692.4 373.7L701 376.8L709.6 380L718.3 383.3L727.1 386.7Z"/><linearGradient id="gb-trio-equal" gradientUnits="userSpaceOnUse" x1="0" y1="246.7" x2="0" y2="387"><stop offset="0" stop-color="#5e7e45"/><stop offset="0.52" stop-color="#6b8f4e"/><stop offset="1" stop-color="#b4c199"/></linearGradient><linearGradient id="gl-trio-equal" gradientUnits="userSpaceOnUse" x1="0" y1="246.7" x2="0" y2="470"><stop offset="0" stop-color="#5e7e45"/><stop offset="0.33" stop-color="#6b8f4e"/><stop offset="0.63" stop-color="#b4c199"/><stop offset="0.76" stop-color="#698d4d"/><stop offset="1" stop-color="#618147"/></linearGradient><linearGradient id="gf-trio-equal" gradientUnits="userSpaceOnUse" x1="0" y1="246.7" x2="0" y2="470"><stop offset="0" stop-color="#506a3a"/><stop offset="0.33" stop-color="#5c7b43"/><stop offset="0.63" stop-color="#9aa582"/><stop offset="0.76" stop-color="#5b7942"/><stop offset="1" stop-color="#526d3c"/></linearGradient><radialGradient id="wl-trio-equal" gradientUnits="userSpaceOnUse" cx="445.3" cy="283.2" r="294.9"><stop offset="0" stop-color="#d8dfc8" stop-opacity="0.3"/><stop offset="0.55" stop-color="#d8dfc8" stop-opacity="0.1"/><stop offset="1" stop-color="#d8dfc8" stop-opacity="0"/></radialGradient><radialGradient id="ao-trio-equal"><stop offset="0" stop-color="#394a2a" stop-opacity="1"/><stop offset="0.6" stop-color="#394a2a" stop-opacity="0.5"/><stop offset="1" stop-color="#394a2a" stop-opacity="0"/></radialGradient><linearGradient id="sc-trio-equal" x1="0" y1="0" x2="0" y2="1"><stop offset="0" stop-color="#e1b768"/><stop offset="0.55" stop-color="#d9a441"/><stop offset="1" stop-color="#b18736"/></linearGradient><linearGradient id="bn-trio-equal" x1="0" y1="0" x2="0" y2="1"><stop offset="0" stop-color="#eee7d1"/><stop offset="0.55" stop-color="#e6dcc0"/><stop offset="1" stop-color="#c4bca3"/></linearGradient><radialGradient id="sh-trio-equal"><stop offset="0" stop-color="#23281e" stop-opacity="0.18"/><stop offset="0.7" stop-color="#23281e" stop-opacity="0.11"/><stop offset="1" stop-color="#23281e" stop-opacity="0"/></radialGradient></defs><line x1="60" y1="470" x2="780" y2="470" stroke="#b9b4a0" stroke-width="2"/><path d="M120 470l5 -9 M127 470l4 -6" stroke="#b9b4a0" stroke-width="1.5" fill="none"/><path d="M300 470l5 -9 M307 470l4 -6" stroke="#b9b4a0" stroke-width="1.5" fill="none"/><path d="M520 470l5 -9 M527 470l4 -6" stroke="#b9b4a0" stroke-width="1.5" fill="none"/><path d="M700 470l5 -9 M707 470l4 -6" stroke="#b9b4a0" stroke-width="1.5" fill="none"/><ellipse cx="492.8" cy="478" rx="216.5" ry="10" fill="url(#sh-trio-equal)" opacity="0.7"/><ellipse cx="527" cy="474" rx="34.7" ry="5" fill="url(#sh-trio-equal)" opacity="0.7"/><ellipse cx="501" cy="474" rx="38.8" ry="5" fill="url(#sh-trio-equal)" opacity="1"/><path d="M513.1 292.6L513.6 298.6L513.6 306.6L513.1 316.4L512.5 327.4L512 339L511.7 350.7L512 362.1L513 372.7L513.9 382.7L515.5 392.7L517.7 402.3L520.2 411.4L522.7 419.8L524.9 427.4L526.6 433.9L527.6 438.9L527.4 442.5L526.9 444.9L526.3 446.4L525.6 447.4L524.8 448.2L523.7 449.3L522.1 451.1L520.8 453Q517.1 459.3 516.1 460.3Q512.3 460.7 511.9 462.5Q506.5 464 501.8 463.4Q497.2 463.8 498.6 466L538.9 466Q543.5 464.4 538.5 458.7L537.2 462.4L537.3 462L537.7 461.4L539.1 459.6L540.9 456.9L542.7 453.3L544 448.9L544.7 443.8L544.6 437.9L544.3 431L543.3 423.5L541.8 415.3L540.2 406.8L538.7 398L537.6 389.3L536.9 380.8L537.1 372.9L539.2 364.6L542 355.1L545.4 344.9L549 334.7L552.8 324.9L556.4 315.9L559.8 308.2L562.6 302.3Z" fill="url(#gf-trio-equal)" stroke="#597641" stroke-width="1" stroke-linejoin="round"/><path d="M499 462.4L496.6 466.5L501.3 467.2Z" fill="#455b32"/><path d="M512.7 459.5L510.9 463.2L515 463.5Z" fill="#455b32"/><path d="M524.6 462.7L523.5 465.9L526.8 465.7Z" fill="#455b32"/><path d="M507.5 463L505.9 465.2M521.6 462.6L520 465.2" stroke="#455b32" stroke-width="1" opacity="0.35" fill="none"/><path d="M409.2 308.1L408.8 312.8L408.6 319.2L408.5 326.9L408.3 335.5L408.1 344.6L407.7 353.7L407.1 362.6L406 370.7L405 378.7L403.4 386.9L401.6 395.1L399.7 403.1L397.7 410.5L395.9 417.1L394.4 422.6L393.2 426.8L384.2 424.8L384.9 420.5L386.1 414.8L387.5 408.1L389 400.7L390.5 392.8L391.8 384.8L392.8 377L393.4 369.8L393.1 362.3L392.4 353.9L391.5 345.2L390.5 336.5L389.3 328.1L388.2 320.6L387.1 314.1L386.2 309.3Z" fill="url(#gf-trio-equal)" stroke="#597641" stroke-width="1"/><path d="M384.5 419.8L381 431.4Q380.8 435.2 384.4 434.2L394.9 427.8Z" fill="url(#gf-trio-equal)" stroke="#597641" stroke-width="1.2" stroke-linejoin="round"/><path d="M381.4 431.8L379.9 436.4L384 433.8Z" fill="#455b32"/><path d="M387 424L387 433.2Q387.8 436.2 390.4 434.4L396.4 427.6Z" fill="url(#gf-trio-equal)" stroke="#597641" stroke-width="1.2" stroke-linejoin="round"/><path d="M387.2 433.2L387.1 438L390.2 434.4Z" fill="#455b32"/><g transform="rotate(-24 346.3 298.3)"><ellipse cx="346.3" cy="298.3" rx="17.6" ry="23.7" fill="url(#sc-trio-equal)" stroke="#93712e" stroke-width="1.4"/><circle cx="328.9" cy="301.6" r="1.1" fill="#d9a441" stroke="#93712e" stroke-width="1"/><circle cx="329.8" cy="290.2" r="1.5" fill="#d9a441" stroke="#93712e" stroke-width="1"/><circle cx="334.5" cy="280.7" r="0.7" fill="#d9a441" stroke="#93712e" stroke-width="1"/><circle cx="342" cy="275.3" r="1.1" fill="#d9a441" stroke="#93712e" stroke-width="1"/><circle cx="350.5" cy="275.3" r="1.5" fill="#d9a441" stroke="#93712e" stroke-width="1"/><circle cx="358" cy="280.7" r="0.7" fill="#d9a441" stroke="#93712e" stroke-width="1"/><circle cx="362.8" cy="290.2" r="1.1" fill="#d9a441" stroke="#93712e" stroke-width="1"/><circle cx="363.7" cy="301.6" r="1.5" fill="#d9a441" stroke="#93712e" stroke-width="1"/><ellipse cx="346.3" cy="298.3" rx="10.4" ry="14.7" fill="#bf913a"/><path d="M342 295.4L332.6 289.4" stroke="#997530" stroke-width="1.3" opacity="0.4"/><path d="M343.8 292.7L338.2 281" stroke="#997530" stroke-width="1.3" opacity="0.4"/><path d="M346.3 291.7L346.3 277.9" stroke="#997530" stroke-width="1.3" opacity="0.4"/><path d="M348.8 292.7L354.3 281" stroke="#997530" stroke-width="1.3" opacity="0.4"/><path d="M350.5 295.4L359.9 289.4" stroke="#997530" stroke-width="1.3" opacity="0.4"/></g><path d="M564.3 302.5Q564.4 297.7 558.2 291.3Q554 289.6 548.8 290.2Q540.9 292.7 539 296.2Z" fill="url(#sc-trio-equal)" stroke="#8d6d2d" stroke-width="1.5" stroke-linejoin="round"/><path d="M552.4 296.4Q554.7 295.3 553.5 291.9" fill="none" stroke="#85672b" stroke-width="1.2" opacity="0.45"/><path d="M537.5 282.7Q537.8 276.1 531.7 268.2Q527.4 266.5 522 268Q514 272.5 512 277.7Z" fill="url(#sc-trio-equal)" stroke="#8d6d2d" stroke-width="1.5" stroke-linejoin="round"/><path d="M525.3 277.3Q528 274.2 526.8 269.7" fill="none" stroke="#85672b" stroke-width="1.2" opacity="0.45"/><path d="M512.3 264.1Q513 256 507.4 246.6Q503.3 244.5 497.7 246.4Q489.3 252.1 486.9 258.5Z" fill="url(#sc-trio-equal)" stroke="#8d6d2d" stroke-width="1.5" stroke-linejoin="round"/><path d="M500.2 258.4Q503.3 253.9 502.4 248.4" fill="none" stroke="#85672b" stroke-width="1.2" opacity="0.45"/><path d="M468.9 251Q468.3 242.1 461.2 232.8Q456.8 231.4 451.7 234.5Q444.3 242.4 442.9 249.8Z" fill="url(#sc-trio-equal)" stroke="#8d6d2d" stroke-width="1.5" stroke-linejoin="round"/><path d="M456.1 247.4Q458.3 241.6 456.6 235.8" fill="none" stroke="#85672b" stroke-width="1.2" opacity="0.45"/><path d="M432.8 249.2Q431 240.4 422.7 232.3Q418.1 231.4 413.5 235.3Q407.2 244 406.9 251.6Z" fill="url(#sc-trio-equal)" stroke="#8d6d2d" stroke-width="1.5" stroke-linejoin="round"/><path d="M419.6 247.4Q421.1 241.3 418.5 235.9" fill="none" stroke="#85672b" stroke-width="1.2" opacity="0.45"/><path d="M398.2 259.9Q395.5 252.3 386.3 246.1Q381.7 246 377.5 250.1Q372.4 258.9 372.9 265.7Z" fill="url(#sc-trio-equal)" stroke="#8d6d2d" stroke-width="1.5" stroke-linejoin="round"/><path d="M384.9 259.9Q385.7 254.5 382.6 249.9" fill="none" stroke="#85672b" stroke-width="1.2" opacity="0.45"/><path d="M375.4 276.4Q373.8 269.9 365.8 264.1Q361.2 263.6 356.4 266.5Q350 273.2 349.5 278.7Z" fill="url(#sc-trio-equal)" stroke="#8d6d2d" stroke-width="1.5" stroke-linejoin="round"/><path d="M362.2 274.6Q363.9 270.8 361.5 266.9" fill="none" stroke="#85672b" stroke-width="1.2" opacity="0.45"/><path d="M367.3 288.1Q367.6 283.4 361.7 276.8Q357.5 275 352.2 275.3Q344.3 277.6 342.3 281.1Z" fill="url(#sc-trio-equal)" stroke="#8d6d2d" stroke-width="1.5" stroke-linejoin="round"/><path d="M355.6 281.7Q358 280.6 356.9 277.2" fill="none" stroke="#85672b" stroke-width="1.2" opacity="0.45"/><path d="M708.8 376.5Q715.3 370.7 715.8 363.7Q704.6 366.5 696.1 370.6Z" fill="url(#bn-trio-equal)" stroke="#8a7a52" stroke-width="1.4" stroke-linejoin="round"/><path d="M677.4 358.9Q683.6 352.9 683.9 345.9Q672.8 349.1 664.5 353.4Z" fill="url(#bn-trio-equal)" stroke="#8a7a52" stroke-width="1.4" stroke-linejoin="round"/><path d="M297 273.8Q294.7 262.9 279.8 253.5Q284.7 264.1 283.1 275.5Z" fill="url(#bn-trio-equal)" stroke="#8a7a52" stroke-width="1.4" stroke-linejoin="round"/><path d="M293.9 267.9Q287.1 268.5 282.4 273.5" fill="none" stroke="#8a7a52" stroke-width="1" opacity="0.45"/><path d="M291.5 265.1Q285.5 265.3 281.7 269.8" fill="none" stroke="#8a7a52" stroke-width="1" opacity="0.45"/><path d="M307.6 275.4Q305.6 267 293.8 259.7Q295.6 268.2 293.7 277.1Z" fill="url(#bn-trio-equal)" stroke="#8a7a52" stroke-width="1.4" stroke-linejoin="round"/><path d="M305.2 270.6Q298.4 270.9 293.4 275.6" fill="none" stroke="#8a7a52" stroke-width="1" opacity="0.45"/><path d="M303.3 268.5Q297.3 268.3 293.2 272.6" fill="none" stroke="#8a7a52" stroke-width="1" opacity="0.45"/><path d="M275.9 294.2Q274.5 290.4 266.9 287.3Q264.5 291.6 262 295.9Z" fill="url(#bn-trio-equal)" stroke="#8a7a52" stroke-width="1.4" stroke-linejoin="round"/><path d="M274.7 291.8Q267.9 291.2 262.4 295.2" fill="none" stroke="#8a7a52" stroke-width="1" opacity="0.45"/><use href="#sil-trio-equal" fill="url(#gb-trio-equal)" stroke="#526d3c" stroke-width="1.2" stroke-linejoin="round"/><g clip-path="url(#bod-trio-equal)" fill="#cd9b3e"><path d="M563.2 306.7a2.5 2.5 0 1 0 5 0a2.5 2.5 0 1 0 -5 0M461.9 258.2a2.4 2.4 0 1 0 4.8 0a2.4 2.4 0 1 0 -4.8 0M525.4 295.8a3.8 3.8 0 1 0 7.6 0a3.8 3.8 0 1 0 -7.6 0M322.3 295.1a2.7 2.7 0 1 0 5.4 0a2.7 2.7 0 1 0 -5.4 0M675.2 363.3a2.3 2.3 0 1 0 4.6 0a2.3 2.3 0 1 0 -4.6 0M326.6 298.2a2.1 2.1 0 1 0 4.2 0a2.1 2.1 0 1 0 -4.2 0M493.8 272.2a3.4 3.4 0 1 0 6.8 0a3.4 3.4 0 1 0 -6.8 0M649.3 352.1a4.4 4.4 0 1 0 8.8 0a4.4 4.4 0 1 0 -8.8 0M607.1 325.3a2.9 2.9 0 1 0 5.8 0a2.9 2.9 0 1 0 -5.8 0M580.4 327.4a3.6 3.6 0 1 0 7.2 0a3.6 3.6 0 1 0 -7.2 0M641.5 350.9a3.5 3.5 0 1 0 7 0a3.5 3.5 0 1 0 -7 0M400.9 271.2a4 4 0 1 0 8 0a4 4 0 1 0 -8 0M461.6 255.8a2.9 2.9 0 1 0 5.8 0a2.9 2.9 0 1 0 -5.8 0M452.8 264.6a2.5 2.5 0 1 0 5 0a2.5 2.5 0 1 0 -5 0M648.9 352a4.9 4.9 0 1 0 9.8 0a4.9 4.9 0 1 0 -9.8 0M506.9 286.6a2.7 2.7 0 1 0 5.4 0a2.7 2.7 0 1 0 -5.4 0M508.8 277.4a2.9 2.9 0 1 0 5.8 0a2.9 2.9 0 1 0 -5.8 0M518.9 291.4a3.6 3.6 0 1 0 7.2 0a3.6 3.6 0 1 0 -7.2 0M495.6 269.6a2.2 2.2 0 1 0 4.4 0a2.2 2.2 0 1 0 -4.4 0M550.8 314.6a4.8 4.8 0 1 0 9.6 0a4.8 4.8 0 1 0 -9.6 0" opacity="0.3"/><path d="M450.6 275.9a4.1 4.1 0 1 0 8.2 0a4.1 4.1 0 1 0 -8.2 0M349.2 308.9a3.4 3.4 0 1 0 6.8 0a3.4 3.4 0 1 0 -6.8 0M339 312.9a3.4 3.4 0 1 0 6.8 0a3.4 3.4 0 1 0 -6.8 0M656.9 356.9a4.2 4.2 0 1 0 8.4 0a4.2 4.2 0 1 0 -8.4 0M556.3 325a4.4 4.4 0 1 0 8.8 0a4.4 4.4 0 1 0 -8.8 0M593.6 335.3a4.5 4.5 0 1 0 9 0a4.5 4.5 0 1 0 -9 0M324.7 303a3 3 0 1 0 6 0a3 3 0 1 0 -6 0M579.2 330.9a3.8 3.8 0 1 0 7.6 0a3.8 3.8 0 1 0 -7.6 0M473.7 286a4.2 4.2 0 1 0 8.4 0a4.2 4.2 0 1 0 -8.4 0M625.9 345.2a3.3 3.3 0 1 0 6.6 0a3.3 3.3 0 1 0 -6.6 0M510.1 304.6a2.5 2.5 0 1 0 5 0a2.5 2.5 0 1 0 -5 0M323.4 308.1a3.4 3.4 0 1 0 6.8 0a3.4 3.4 0 1 0 -6.8 0M360.9 305.1a2.5 2.5 0 1 0 5 0a2.5 2.5 0 1 0 -5 0M342.7 310.6a4.8 4.8 0 1 0 9.6 0a4.8 4.8 0 1 0 -9.6 0M666.1 360a3.2 3.2 0 1 0 6.4 0a3.2 3.2 0 1 0 -6.4 0M490.9 284.1a3.7 3.7 0 1 0 7.4 0a3.7 3.7 0 1 0 -7.4 0" opacity="0.19"/><path d="M347.3 316.9a2.8 2.8 0 1 0 5.6 0a2.8 2.8 0 1 0 -5.6 0M427.1 295.9a4.4 4.4 0 1 0 8.8 0a4.4 4.4 0 1 0 -8.8 0M402.1 312a2.2 2.2 0 1 0 4.4 0a2.2 2.2 0 1 0 -4.4 0M442.7 298a3.7 3.7 0 1 0 7.4 0a3.7 3.7 0 1 0 -7.4 0M427.2 298.4a4.5 4.5 0 1 0 9 0a4.5 4.5 0 1 0 -9 0M681.5 366.7a4.2 4.2 0 1 0 8.4 0a4.2 4.2 0 1 0 -8.4 0M412.6 289a3 3 0 1 0 6 0a3 3 0 1 0 -6 0M376.1 306.6a3.9 3.9 0 1 0 7.8 0a3.9 3.9 0 1 0 -7.8 0M342.9 314.9a3.4 3.4 0 1 0 6.8 0a3.4 3.4 0 1 0 -6.8 0M375 305.5a4.7 4.7 0 1 0 9.4 0a4.7 4.7 0 1 0 -9.4 0M565.6 327a2.4 2.4 0 1 0 4.8 0a2.4 2.4 0 1 0 -4.8 0" opacity="0.1"/></g><g clip-path="url(#bod-trio-equal)"><g fill="none" stroke="#3e512d" stroke-width="1.1" opacity="0.18"><path d="M347.3 310.3Q342.4 312.8 339.4 308.3"/><path d="M360 324.5Q356.3 326.1 354.4 322.7"/><path d="M334.2 306.2Q330.8 308.1 328.5 305"/><path d="M409.4 316.2Q406 320.7 401.1 317.8"/><path d="M421.1 308.5Q418.5 311.5 415.2 309.2"/><path d="M552.5 312.6Q547.7 315.1 544.7 310.7"/><path d="M450.4 287.4Q446.4 290.9 442.5 287.3"/><path d="M370 325.6Q367.2 328.7 363.9 326.2"/><path d="M513.1 325.3Q508.3 328.2 504.9 323.8"/><path d="M331.2 299.7Q328 301.7 325.7 298.7"/><path d="M328.5 299Q323.9 301.9 320.5 297.6"/><path d="M382.1 300.2Q379.4 304.7 374.7 302.4"/><path d="M340.7 301.3Q336 304 332.9 299.5"/><path d="M457.5 286.1Q454.1 288.9 451 285.8"/><path d="M456.5 308.6Q453.1 311.4 450 308.3"/><path d="M442.1 275.9Q438.6 279.2 434.9 276"/><path d="M330.2 311.1Q325.7 313.9 322.4 309.6"/><path d="M566 321.2Q561 323.7 558 319"/><path d="M354.2 299.6Q350 301.7 347.4 297.7"/><path d="M509.8 302.5Q505.5 304.9 502.6 300.8"/><path d="M359.3 301.5Q354 304 350.9 299"/><path d="M550.3 317.9Q546.6 319.9 544.2 316.3"/></g><g fill="none" stroke="#3e512d" stroke-linecap="round"><path d="M337.2 298.6L329 296.6L320.9 294.9L316.9 294.3L309.1 293.2L305.2 292.7L297.6 292.7L293.8 293.1L286.6 294.1L283 294.7" stroke-width="1" opacity="0.18"/><path d="M334.5 310.2L326.6 308.8L322.8 308.3L319 307.8L311.5 307.1L307.9 306.9L300.8 306.7L297.3 306.1L293.9 305.7" stroke-width="1" opacity="0.15"/><path d="M508 294L493.7 288.1L478.2 283.7L454.5 281.1L438.6 280.8L422.7 281.6L407.1 284.7L391.6 288.9L376.3 294.2" stroke-width="1" opacity="0.17"/><path d="M485.8 324.1L472.2 323.7L459.1 322.4L439.6 322.1L426.5 323L413.3 323.1L392.8 325L378.9 327.6L356.2 326.7" stroke-width="1.1" opacity="0.15"/><path d="M695.4 367.1L679.2 359.4L663.1 352.1L647.3 345.2L631.6 338.7L616.2 332.6L600.9 326.9L585.8 321.6L570.9 316.7" stroke-width="1" opacity="0.17"/><path d="M685.7 366.7L669.3 360L653.1 353.8L645 350.9L629.2 345.2L613.5 340.1L605.8 337.6L590.5 333.1L583 330.9" stroke-width="1" opacity="0.14"/></g></g><use href="#sil-trio-equal" fill="none" stroke="#394a2a" stroke-width="10" opacity="0.24" clip-path="url(#bod-trio-equal)"/><path d="M265.2 310.3L264.5 310.3L263.7 310.2L263 310.2L262.1 310.1L261.3 310.1L260.4 310L259.5 309.7L258.6 309.2L257.7 308.6L256.8 307.8L255.9 306.8L255 305.7L258.4 311.8L259.2 311.6L260.1 311.4L261.2 311.1L262.4 310.9L263.7 310.6L265.2 310.3Z" fill="#5a3138"/><path d="M264.6 310.3Q266.4 311.2 267.3 312.5" fill="none" stroke="#3e512d" stroke-width="1.2" opacity="0.45"/><path d="M260.3 301Q258.7 299.7 257.4 301.3" fill="none" stroke="#3e512d" stroke-width="1.3" opacity="0.72"/><g opacity="0.4"><path d="M258.5 308L257.6 310.7L256 308.3Z" fill="#ece2c4" stroke="#8a7a52" stroke-width="0.6"/><path d="M261.5 309.8L260.5 312.1L259 310.1Z" fill="#ece2c4" stroke="#8a7a52" stroke-width="0.6"/><path d="M264.3 310.1L263.4 312.8L261.8 310.4Z" fill="#ece2c4" stroke="#8a7a52" stroke-width="0.6"/><path d="M262.5 311L261.2 309.1L260.4 311.2Z" fill="#ece2c4" stroke="#8a7a52" stroke-width="0.6"/></g><ellipse cx="292.5" cy="297.4" rx="5.1" ry="3.8" fill="#3e512d" opacity="0.14"/><circle cx="292" cy="297.5" r="3.7" fill="#fdfaef" stroke="#3e512d" stroke-width="1.2"/><circle cx="291.5" cy="297.5" r="2.3" fill="#c9983d"/><circle cx="291.4" cy="297.5" r="1.2" fill="#1c1a14"/><circle cx="290.5" cy="296.4" r="0.9" fill="#fdfaef" opacity="0.9"/><path d="M296.4 289.9Q290.4 290.1 284.6 292.8" fill="none" stroke="#3e512d" stroke-width="1.55" stroke-linecap="round" opacity="0.8"/><path d="M487.1 298.6L487.6 304.6L487.6 312.6L487.1 322.4L486.5 333.4L486 345L485.7 356.7L486 368.1L487 378.7L487.9 388.7L489.5 398.7L491.7 408.4L494.2 417.5L496.7 426.1L498.9 433.7L500.6 440L501.6 444.9L501.4 448.2L501 450.1L500.5 450.8L500.2 451L499.8 451.2L498.9 451.8L496.9 453.3L495.3 455.1Q491.1 462.3 490.1 463.3Q486.3 463.7 485.9 465.5Q480.5 467 475.8 466.4Q471.2 466.8 472.6 469L512.9 469Q517.5 467.4 512.5 461.7L510.7 466.3L510.4 466.3L510.5 466.1L512.1 464.7L514.3 462.3L516.4 458.8L517.9 454.6L518.7 449.6L518.6 443.9L518.3 437.2L517.3 429.7L515.8 421.6L514.2 413L512.7 404.2L511.6 395.3L510.9 386.8L511.1 378.9L513.2 370.6L516 361.1L519.4 350.9L523 340.7L526.8 330.9L530.4 321.9L533.8 314.2L536.6 308.3Z" fill="url(#gl-trio-equal)" stroke="#526d3c" stroke-width="1.2" stroke-linejoin="round"/><g clip-path="url(#bod-trio-equal)"><path d="M487.1 298.6L487.6 304.6L487.6 312.6L487.1 322.4L486.5 333.4L486 345L485.7 356.7L486 368.1L487 378.7L487.9 388.7L489.5 398.7L491.7 408.4L494.2 417.5L496.7 426.1L498.9 433.7L500.6 440L501.6 444.9L501.4 448.2L501 450.1L500.5 450.8L500.2 451L499.8 451.2L498.9 451.8L496.9 453.3L495.3 455.1Q491.1 462.3 490.1 463.3Q486.3 463.7 485.9 465.5Q480.5 467 475.8 466.4Q471.2 466.8 472.6 469L512.9 469Q517.5 467.4 512.5 461.7L510.7 466.3L510.4 466.3L510.5 466.1L512.1 464.7L514.3 462.3L516.4 458.8L517.9 454.6L518.7 449.6L518.6 443.9L518.3 437.2L517.3 429.7L515.8 421.6L514.2 413L512.7 404.2L511.6 395.3L510.9 386.8L511.1 378.9L513.2 370.6L516 361.1L519.4 350.9L523 340.7L526.8 330.9L530.4 321.9L533.8 314.2L536.6 308.3Z" fill="url(#gl-trio-equal)"/></g><path d="M473 465.4L470.6 469.5L475.3 470.2Z" fill="#3e512d"/><path d="M486.7 462.5L484.9 466.2L489 466.5Z" fill="#3e512d"/><path d="M498.6 465.7L497.5 468.9L500.8 468.7Z" fill="#3e512d"/><path d="M481.5 466L479.9 468.2M495.6 465.6L494 468.2" stroke="#3e512d" stroke-width="1" opacity="0.35" fill="none"/><path d="M383.2 314.1L382.8 318.8L382.6 325.2L382.5 332.9L382.3 341.5L382.1 350.6L381.7 359.7L381.1 368.6L380 376.7L379 384.7L377.4 392.9L375.6 401.1L373.7 409.1L371.7 416.5L369.9 423.1L368.4 428.6L367.2 432.8L358.2 430.8L358.9 426.5L360.1 420.8L361.5 414.1L363 406.7L364.5 398.8L365.8 390.8L366.8 383L367.4 375.8L367.1 368.3L366.4 359.9L365.5 351.2L364.5 342.5L363.3 334.1L362.2 326.6L361.1 320.1L360.2 315.3Z" fill="url(#gl-trio-equal)" stroke="#526d3c" stroke-width="1.2"/><g clip-path="url(#bod-trio-equal)"><path d="M383.2 314.1L382.8 318.8L382.6 325.2L382.5 332.9L382.3 341.5L382.1 350.6L381.7 359.7L381.1 368.6L380 376.7L379 384.7L377.4 392.9L375.6 401.1L373.7 409.1L371.7 416.5L369.9 423.1L368.4 428.6L367.2 432.8L358.2 430.8L358.9 426.5L360.1 420.8L361.5 414.1L363 406.7L364.5 398.8L365.8 390.8L366.8 383L367.4 375.8L367.1 368.3L366.4 359.9L365.5 351.2L364.5 342.5L363.3 334.1L362.2 326.6L361.1 320.1L360.2 315.3Z" fill="url(#gl-trio-equal)"/></g><path d="M358.5 425.8L355 437.4Q354.8 441.2 358.4 440.2L368.9 433.8Z" fill="url(#gl-trio-equal)" stroke="#526d3c" stroke-width="1.2" stroke-linejoin="round"/><path d="M355.4 437.8L353.9 442.4L358 439.8Z" fill="#3e512d"/><path d="M361 430L361 439.2Q361.8 442.2 364.4 440.4L370.4 433.6Z" fill="url(#gl-trio-equal)" stroke="#526d3c" stroke-width="1.2" stroke-linejoin="round"/><path d="M361.2 439.2L361.1 444L364.2 440.4Z" fill="#3e512d"/><g clip-path="url(#bod-trio-equal)"><path d="M697.1 363.4L681.3 354.6L665.6 346.2L650 338.2L627 326.9L611.9 319.8L596.8 313.2L581.9 307L567.2 301.1L545.8 290.8L532.3 280.8L518.7 271.2L508.6 262L492.3 251.4L465.3 246.1L447 244.8L428.6 244.8L410.5 248L384.5 258.1L367.9 266.2L362.1 273L367.2 277.6L355.9 280.7L340.3 285.1L331.7 282.4L323.1 280.1L314.7 278.1L313.4 290.2L321.4 291.7L329.5 293.6L337.8 295.8L351.7 295.7L361.4 295.8L364.1 295.4L374.9 289.5L390.3 283.5L414 276.4L430.3 273.8L446.7 273.1L463.1 273.6L487.6 277.2L503.1 283.6L515.4 289.5L529.3 295.5L543.2 302L564.8 310L579.6 315L594.5 320.5L609.6 326.4L624.9 332.7L648.2 342.9L663.9 350.2L679.8 357.9L695.9 366Z" fill="#3e512d" opacity="0.04"/><path d="M697.1 363.4L681.3 354.6L665.6 346.2L650 338.2L627 326.9L611.9 319.8L596.8 313.2L581.9 307L567.2 301.1L545.8 290.8L532.3 280.8L518.7 271.2L508.6 262L492.3 251.4L465.3 246.1L447 244.8L428.6 244.8L410.5 248L384.5 258.1L367.9 266.2L362.1 273L367.2 277.6L355.9 280.7L340.3 285.1L331.7 282.4L323.1 280.1L314.7 278.1L313.9 284.8L322.2 286.6L330.5 288.8L338.9 291.3L353.4 289.6L363.7 288.6L363.3 286.9L372.3 281L388.3 274.6L412.8 266.9L429.7 264.5L446.8 264.4L463.7 265.4L489 269.7L504.7 277.4L516.3 284.3L530.2 291.3L543.9 298.7L565.5 307.3L580.3 312.5L595.3 318.1L610.4 324.1L625.7 330.6L648.9 341.1L664.6 348.6L680.4 356.5L696.4 364.9Z" fill="#3e512d" opacity="0.05"/><path d="M697.1 363.4L681.3 354.6L665.6 346.2L650 338.2L627 326.9L611.9 319.8L596.8 313.2L581.9 307L567.2 301.1L545.8 290.8L532.3 280.8L518.7 271.2L508.6 262L492.3 251.4L465.3 246.1L447 244.8L428.6 244.8L410.5 248L384.5 258.1L367.9 266.2L362.1 273L367.2 277.6L355.9 280.7L340.3 285.1L331.7 282.4L323.1 280.1L314.7 278.1L314.3 281.7L322.6 283.5L331.1 285.7L339.6 288.2L354.7 285L365.5 282.8L362.7 279.5L370 273L386.2 265.6L411.5 256.5L429.1 253.6L446.9 253.6L464.6 254.8L490.8 259.7L506.8 269L517.6 277.3L531.3 285.8L544.9 294.6L566.4 304.2L581.1 309.7L596 315.7L611.1 322.1L626.3 328.9L649.4 339.8L665 347.5L680.8 355.7L696.7 364.2Z" fill="#3e512d" opacity="0.06"/><path d="M700.9 377L683.8 371L667 365.4L650.4 360.3L634.2 355.6L618.2 351.3L602.4 347.5L587 344L571.9 341.1L557 338.5L542.5 336.4L527.2 339.5L512.3 343.4L496 347.2L480.1 350.2L467.9 352.7L456.7 351.8L445.7 351.8L434.8 352.4L423.6 351.9L411.7 350.2L399.3 349.4L386.2 349.6L349.7 346.2L343.9 337.8L337.9 329.7L331.6 322.9L333.4 315.3L340.5 320.2L347.4 326L354.4 332.1L380.9 333.6L394.6 331.8L408 330.9L420.9 331L433.5 330.7L446 330.2L458.5 330.5L471 331.7L484.2 331.3L499.6 331L515 329.8L529.6 328.7L544.5 328.2L559.1 331L573.9 334.2L589 337.8L604.3 341.9L620 346.4L635.8 351.3L651.9 356.6L668.3 362.4L684.9 368.5L701.7 375.1Z" fill="#b4c199" opacity="0.3"/><path d="M700.9 377L683.8 371L667 365.4L650.4 360.3L634.2 355.6L618.2 351.3L602.4 347.5L587 344L571.9 341.1L557 338.5L542.5 336.4L527.2 339.5L512.3 343.4L496 347.2L480.1 350.2L467.9 352.7L456.7 351.8L445.7 351.8L434.8 352.4L423.6 351.9L411.7 350.2L399.3 349.4L386.2 349.6L349.7 346.2L343.9 337.8L337.9 329.7L331.6 322.9L332.6 318.6L339.4 324.3L345.9 331.1L352.4 338.1L383.2 340.5L396.6 339.3L409.6 339.2L422.1 340L434.1 340L445.9 339.4L457.7 339.6L469.7 340.7L482.4 339.4L498.1 338L513.9 335.6L528.5 333.3L543.6 331.7L558.2 334.2L573 337.1L588.1 340.5L603.5 344.3L619.2 348.5L635.1 353.1L651.3 358.2L667.7 363.7L684.4 369.6L701.4 375.9Z" fill="#b4c199" opacity="0.18"/><path d="M693.1 372.3L676.3 366L659.7 360.2L643.5 354.8L627.4 349.9L619.5 347.5L603.9 343.2L588.5 339.3L573.4 335.8L558.6 332.8L544 330.1L529 331.2L514.4 333L498.7 334.9L483.2 335.8L470.3 336.7L458 335.6L445.9 335.3L439.9 335.5L427.8 336.5L415.3 335.6L402.3 335.6L389 336.6L368.2 340.1L349.9 332.1L343.2 325.6L336.5 319.4L338.1 313L345.5 317.4L353 322.2L367.1 327.9L385.2 323.8L399.1 321.5L412.8 320.2L426.3 319.9L439.5 319L446.1 318.9L459.4 319.3L472.7 320.7L486.4 321.4L501.5 322.6L516.4 322.6L530.8 323L545.6 323.9L560.1 327L575 330.6L590 334.6L605.3 339L620.9 343.8L628.8 346.3L644.7 351.8L660.8 357.7L677.2 364L693.8 370.7Z" fill="#394a2a" opacity="0.06"/><path d="M693.2 371.9L676.5 365.5L660 359.6L643.8 354.1L627.8 349L619.9 346.6L604.3 342.1L588.9 338.1L573.8 334.5L559 331.3L544.4 328.6L529.5 329.2L514.9 330.4L499.4 331.8L484 332.2L470.9 332.7L458.4 331.5L446 331.2L439.8 331.4L427.4 332.3L414.6 331.8L401.5 332.1L388 333.4L368 337.1L350.7 329.6L343.8 323.5L336.9 317.8L337.9 313.8L345.2 318.4L352.7 323.4L367.3 329.5L385.6 325.4L399.5 323.3L413.1 322.2L426.5 322L439.5 321L446.1 320.9L459.2 321.4L472.4 322.7L486 323.2L501.2 324.1L516.2 323.9L530.6 324L545.4 324.6L560 327.7L574.8 331.2L589.8 335.1L605.2 339.5L620.7 344.2L628.6 346.8L644.5 352.2L660.7 358L677.1 364.2L693.7 370.9Z" fill="#394a2a" opacity="0.06"/><path d="M693.4 371.5L676.7 365L660.3 358.9L644.1 353.3L628.1 348.1L620.2 345.7L604.6 341.1L589.3 336.9L574.2 333.2L559.4 329.9L544.8 327L529.9 327.1L515.4 327.8L500.1 328.7L484.8 328.6L471.5 328.7L458.7 327.4L446 327.1L439.7 327.2L427 328.2L414 327.9L400.7 328.6L387.1 330.2L367.7 334L351.5 327.1L344.4 321.5L337.3 316.2L337.7 314.6L345 319.5L352.3 324.6L367.4 331L386.1 327L399.9 325L413.4 324.1L426.6 324L439.6 323.1L446.1 323L459 323.4L472.1 324.7L485.6 325L500.8 325.6L515.9 325.2L530.4 325L545.2 325.4L559.8 328.4L574.6 331.9L589.7 335.7L605 340L620.6 344.7L628.4 347.2L644.4 352.6L660.5 358.3L677 364.5L693.6 371.1Z" fill="#394a2a" opacity="0.06"/><ellipse cx="503" cy="322.9" rx="65.5" ry="12.5" fill="url(#ao-trio-equal)" opacity="0.17"/><ellipse cx="529" cy="319.2" rx="51" ry="10.1" fill="url(#ao-trio-equal)" opacity="0.12"/><ellipse cx="371.7" cy="341" rx="44.7" ry="23" fill="url(#ao-trio-equal)" opacity="0.15"/><ellipse cx="397.7" cy="334.1" rx="35.9" ry="18.4" fill="url(#ao-trio-equal)" opacity="0.11"/><ellipse cx="285.5" cy="323.9" rx="27.7" ry="17.9" fill="url(#ao-trio-equal)" opacity="0.13"/><ellipse cx="539" cy="323.8" rx="44.6" ry="28.4" fill="url(#ao-trio-equal)" opacity="0.13"/><g fill="none" stroke="#3e512d" stroke-linecap="round"><path d="M479.4 314.6A24 24 0 0 1 524.7 308.9" stroke-width="1.2" opacity="0.18"/><path d="M352 320.1A23.3 23.3 0 0 1 392.6 315" stroke-width="1.1" opacity="0.16"/></g></g><use href="#sil-trio-equal" fill="url(#wl-trio-equal)"/></g></svg>