<svg xmlns="http://www.w3.org/2000/svg" viewBox="0 0 820 540" role="img" aria-label="Tyrannoceratosaurus, a hybrid dinosaur"><g transform="translate(455.7 470) scale(0.985) translate(-455.7 -470)"><defs><clipPath id="bod-trio-rex-dominant"><path d="M739.1 370.7L730.6 366.2L722.1 361.8L713.7 357.5L705.3 353.2L697 349.1L688.7 345L680.4 341.1L672.2 337.2L664 333.4L655.9 329.7L647.8 326.1L639.8 322.6L631.8 319.2L623.8 315.8L615.9 312.6L608 309.5L600.1 306.4L592.3 303.4L584.6 300.5L576.8 297.8L569.1 295.1L561.5 292.5L553.8 289.9L546.7 285.4L539.5 280.8L532.4 276.3L525.2 271.8L518 267.4L513.6 263.6L508.8 258.9L500.9 253.6L492.8 248.6L484.1 245.7L475.2 244L466.3 242.7L457.3 241.6L448.3 240.8L439.3 240.3L430.3 240L421.3 240.1L412.4 242.2L403.6 244.8L394.9 247.5L386.4 250.6L377.9 253.9L369.6 257.4L361.5 261.2L365.6 263.7L376.1 268L369.6 268L363.2 268.2L356.9 268.5L350.8 269L344.8 269.8L339.4 269.6L334.8 267.3L330.3 265.2L325.8 263.2L321.3 261.3L316.7 259.6L312.2 258L306.2 255.1L300.8 252.7L296 250.9L292 249.7L288.5 249L285.7 248.9L283.3 248.6L281 248.8L279 249.5L277.2 250.6L275.6 252.1L274.2 254.1L273 256.9L271.6 259.5L270.1 262L268.4 264.3L266.7 266.4L264.8 268.3L262.3 269.9L259.9 271.5L257.7 273L255.6 274.6L253.7 276.1L252 277.6L250.4 278.8L249.1 280L248.2 281.2L247.6 282.4L247.3 283.7L247.3 284.9L248.2 286.7L249.3 288.2L250.6 289.3L252.1 290.1L253.7 290.5L255.5 290.6L260.4 290.8L265.2 291.2L269.8 291.7L274.4 292.3L278.7 293L283 293.8L278.8 297.9L274.6 301.5L270.3 304.7L266 307.5L261.6 309.9L257.2 312L256.3 313L255.9 314L256 314.9L256.4 315.7L257.4 316.4L258.8 317.1L265.6 315.2L272 313.2L278.1 311.1L283.9 309L289.4 306.7L294.6 304.4L296.6 303.9L298.4 303.5L299.9 303L301.3 302.5L302.4 302L303.3 301.4L303.3 301.4L306.8 301.6L310.5 301.9L314.2 302.4L318.1 303L322.1 303.7L326.1 304.6L329.4 307.8L332.2 312.2L335 316.7L337.8 321.2L340.5 325.8L343.2 330.6L362.9 339.9L381.9 338.2L388.5 338.3L395 338.7L401.4 339.2L407.7 340L413.9 340.9L419.9 342.1L425.8 343.4L431.6 343L437.4 342.8L443.2 342.8L449 343L454.8 343.4L460.7 343.9L466.6 344.7L472.8 344.6L479.5 342.9L486.4 341.4L496.4 341L506.5 339.4L513.9 337.5L521.5 335.6L529.2 333.9L537.1 332.2L545 330.9L552.5 331.8L560.2 332.7L567.9 333.8L575.7 334.9L583.5 336.1L591.5 337.5L599.5 338.9L607.6 340.5L615.7 342.1L623.9 343.8L632.2 345.7L640.6 347.6L649 349.6L657.5 351.7L666.1 354L674.8 356.3L683.5 358.7L692.2 361.2L701.1 363.8L710 366.6L719 369.4L728 372.3L737.1 375.3Z"/></clipPath><linearGradient id="gb-trio-rex-dominant" x1="0" y1="0" x2="0" y2="1"><stop offset="0" stop-color="#82a068"/><stop offset="0.55" stop-color="#6b8f4e"/><stop offset="1" stop-color="#536f3d"/></linearGradient><linearGradient id="gl-trio-rex-dominant" x1="0" y1="0" x2="0" y2="1"><stop offset="0" stop-color="#698d4d"/><stop offset="0.55" stop-color="#5e7e45"/><stop offset="1" stop-color="#526c3c"/></linearGradient><linearGradient id="gf-trio-rex-dominant" x1="0" y1="0" x2="0" y2="1"><stop offset="0" stop-color="#628347"/><stop offset="0.55" stop-color="#597641"/><stop offset="1" stop-color="#506a3a"/></linearGradient><linearGradient id="sc-trio-rex-dominant" x1="0" y1="0" x2="0" y2="1"><stop offset="0" stop-color="#e1b768"/><stop offset="0.55" stop-color="#d9a441"/><stop offset="1" stop-color="#b18736"/></linearGradient><linearGradient id="bn-trio-rex-dominant" x1="0" y1="0" x2="0" y2="1"><stop offset="0" stop-color="#eee7d1"/><stop offset="0.55" stop-color="#e6dcc0"/><stop offset="1" stop-color="#c4bca3"/></linearGradient><radialGradient id="sh-trio-rex-dominant"><stop offset="0" stop-color="#23281e" stop-opacity="0.18"/><stop offset="0.7" stop-color="#23281e" stop-opacity="0.11"/><stop offset="1" stop-color="#23281e" stop-opacity="0"/></radialGradient></defs><line x1="60" y1="470" x2="780" y2="470" stroke="#b9b4a0" stroke-width="2"/><path d="M120 470l5 -9 M127 470l4 -6" stroke="#b9b4a0" stroke-width="1.5" fill="none"/><path d="M300 470l5 -9 M307 470l4 -6" stroke="#b9b4a0" stroke-width="1.5" fill="none"/><path d="M520 470l5 -9 M527 470l4 -6" stroke="#b9b4a0" stroke-width="1.5" fill="none"/><path d="M700 470l5 -9 M707 470l4 -6" stroke="#b9b4a0" stroke-width="1.5" fill="none"/><ellipse cx="494" cy="478" rx="224.6" ry="10" fill="url(#sh-trio-rex-dominant)"/><path d="M516.2 283.9L515.6 289.8L513.7 298L511 308.2L508 319.7L505.1 331.7L502.9 344L501.9 355.9L502.6 367.4L505.3 378L509.9 387.3L515.7 395.2L521.7 402.1L527.4 408.3L532.3 413.6L535.8 418.1L537.6 421.4L537.5 424.4L536.5 427.7L534.7 431.2L532.3 434.7L529.4 438.2L526.5 441.4L523.8 444.6L521.8 447.2L536.2 456.8L537.3 454.8L539.4 452.1L542.3 448.4L545.5 444L548.6 438.8L551.2 432.8L552.7 426.1L552.4 418.6L550.4 410.9L546.6 403.7L542.1 396.7L537.3 389.9L533 383.2L529.6 376.7L527.7 371L527.4 366.1L529.3 360L532.6 351.9L537.1 342.6L542.3 333L547.7 323.5L553.1 314.7L558 307L561.8 301.2Z" fill="url(#gf-trio-rex-dominant)" stroke="#455b32" stroke-width="1.8"/><path d="M533 457.8L517 463.7Q514.5 467 518.5 468.3L535 464.2Z" fill="url(#gf-trio-rex-dominant)" stroke="#455b32" stroke-width="1.5" stroke-linejoin="round"/><path d="M517.3 464.5L513.4 467.3L518.2 467.5Z" fill="#455b32"/><path d="M529.9 455.4L510.5 462.5Q507.8 466.1 512 467.5L532.1 462.6Z" fill="url(#gf-trio-rex-dominant)" stroke="#455b32" stroke-width="1.5" stroke-linejoin="round"/><path d="M510.8 463.5L506.9 466.3L511.7 466.5Z" fill="#455b32"/><path d="M534.6 464.6L541.5 467.4Q545.2 467 543.5 463.6L537.4 459.4Z" fill="url(#gf-trio-rex-dominant)" stroke="#455b32" stroke-width="1.5" stroke-linejoin="round"/><path d="M541.7 466.9L546.5 467.6L543.3 464.1Z" fill="#455b32"/><path d="M406.6 297.2L406.3 301.5L406.1 307.2L406 314.1L406 321.8L405.8 330L405.5 338.2L404.9 346.2L403.9 353.5L402.9 360.6L401.4 367.9L399.6 375.2L397.7 382.3L395.7 388.9L393.9 394.7L392.4 399.6L391.3 403.2L383.3 401.2L384 397.4L385.2 392.3L386.6 386.4L388.1 379.9L389.6 372.9L391 365.9L392 359L392.6 352.5L392.4 345.9L391.8 338.4L391 330.6L390 322.8L388.9 315.3L387.8 308.5L386.8 302.7L385.9 298.4Z" fill="url(#gf-trio-rex-dominant)" stroke="#455b32" stroke-width="1.8"/><path d="M383.6 396.6L379.5 407.9Q379.4 411.7 383 410.6L392.9 403.8Z" fill="url(#gf-trio-rex-dominant)" stroke="#455b32" stroke-width="1.5" stroke-linejoin="round"/><path d="M380 408.2L378.5 412.8L382.5 410.2Z" fill="#455b32"/><path d="M386.1 400.6L385.6 409.6Q386.4 412.6 389 410.9L394.5 403.8Z" fill="url(#gf-trio-rex-dominant)" stroke="#455b32" stroke-width="1.5" stroke-linejoin="round"/><path d="M385.8 409.7L385.7 414.4L388.8 410.8Z" fill="#455b32"/><g transform="rotate(-24 344.7 283.3)"><ellipse cx="344.7" cy="283.3" rx="4.6" ry="6.2" fill="url(#sc-trio-rex-dominant)" stroke="#93712e" stroke-width="2.2"/><circle cx="340.1" cy="284.1" r="0.3" fill="#d9a441" stroke="#93712e" stroke-width="1.2"/><circle cx="340.4" cy="281.2" r="0.4" fill="#d9a441" stroke="#93712e" stroke-width="1.2"/><circle cx="341.6" cy="278.7" r="0.2" fill="#d9a441" stroke="#93712e" stroke-width="1.2"/><circle cx="343.6" cy="277.3" r="0.3" fill="#d9a441" stroke="#93712e" stroke-width="1.2"/><circle cx="345.8" cy="277.3" r="0.4" fill="#d9a441" stroke="#93712e" stroke-width="1.2"/><circle cx="347.7" cy="278.7" r="0.2" fill="#d9a441" stroke="#93712e" stroke-width="1.2"/><circle cx="349" cy="281.2" r="0.3" fill="#d9a441" stroke="#93712e" stroke-width="1.2"/><circle cx="349.2" cy="284.1" r="0.4" fill="#d9a441" stroke="#93712e" stroke-width="1.2"/><ellipse cx="344.7" cy="283.3" rx="2.7" ry="3.8" fill="#bf913a"/><path d="M343.6 282.5L341.1 280.9" stroke="#997530" stroke-width="1.6" opacity="0.4"/><path d="M344 281.8L342.6 278.8" stroke="#997530" stroke-width="1.6" opacity="0.4"/><path d="M344.7 281.5L344.7 277.9" stroke="#997530" stroke-width="1.6" opacity="0.4"/><path d="M345.3 281.8L346.8 278.8" stroke="#997530" stroke-width="1.6" opacity="0.4"/><path d="M345.8 282.5L348.2 280.9" stroke="#997530" stroke-width="1.6" opacity="0.4"/></g><path d="M565.9 295.6Q565.2 294.2 558.1 291.4Q553.8 290.3 548.8 289.7Q541.7 289.3 540.5 290.1Z" fill="url(#sc-trio-rex-dominant)" stroke="#8d6d2d" stroke-width="2" stroke-linejoin="round"/><path d="M553.8 289.9Q555.4 292.1 553.6 290.9" fill="none" stroke="#85672b" stroke-width="1.3" opacity="0.45"/><path d="M537.5 276.9Q536.8 275.1 529.7 272.1Q525.3 271.1 520.3 270.9Q513.1 271.3 511.9 272.5Z" fill="url(#sc-trio-rex-dominant)" stroke="#8d6d2d" stroke-width="2" stroke-linejoin="round"/><path d="M525.2 271.8Q527 273.4 525.2 272" fill="none" stroke="#85672b" stroke-width="1.3" opacity="0.45"/><path d="M512.8 259.6Q512.4 257.3 505.6 253.5Q501.3 252.2 496.2 251.8Q489 252 487.6 253.5Z" fill="url(#sc-trio-rex-dominant)" stroke="#8d6d2d" stroke-width="2" stroke-linejoin="round"/><path d="M500.9 253.6Q502.6 254.9 501 253.2" fill="none" stroke="#85672b" stroke-width="1.3" opacity="0.45"/><path d="M470 245.6Q469.2 243.2 461.9 240.3Q457.5 239.6 452.4 240.1Q445.3 241.6 444.1 243.5Z" fill="url(#sc-trio-rex-dominant)" stroke="#8d6d2d" stroke-width="2" stroke-linejoin="round"/><path d="M457.3 241.6Q459.3 242.4 457.4 240.8" fill="none" stroke="#85672b" stroke-width="1.3" opacity="0.45"/><path d="M434.4 242.5Q433.3 240.2 425.7 238.3Q421.2 238.1 416.2 239.2Q409.3 241.7 408.4 243.6Z" fill="url(#sc-trio-rex-dominant)" stroke="#8d6d2d" stroke-width="2" stroke-linejoin="round"/><path d="M421.3 240.1Q423.3 240.7 421.2 239.3" fill="none" stroke="#85672b" stroke-width="1.3" opacity="0.45"/><path d="M399.7 251.4Q398.3 249.5 390.6 248.6Q386.1 249.1 381.3 250.7Q374.7 253.8 374 255.7Z" fill="url(#sc-trio-rex-dominant)" stroke="#8d6d2d" stroke-width="2" stroke-linejoin="round"/><path d="M386.4 250.6Q388.5 251.1 386.3 250.1" fill="none" stroke="#85672b" stroke-width="1.3" opacity="0.45"/><path d="M378.5 267.2Q377.6 265.4 370.1 263.4Q365.6 263 360.6 263.5Q353.6 264.8 352.5 266.2Z" fill="url(#sc-trio-rex-dominant)" stroke="#8d6d2d" stroke-width="2" stroke-linejoin="round"/><path d="M365.6 263.7Q367.6 265.1 365.6 263.9" fill="none" stroke="#85672b" stroke-width="1.3" opacity="0.45"/><path d="M367.5 276.6Q367.1 275.1 360.8 270.9Q356.7 268.9 352 267.2Q345.2 265.4 343.8 265.9Z" fill="url(#sc-trio-rex-dominant)" stroke="#8d6d2d" stroke-width="2" stroke-linejoin="round"/><path d="M356.9 268.5Q358 271 356.5 269.4" fill="none" stroke="#85672b" stroke-width="1.3" opacity="0.45"/><path d="M717.9 365.6Q718.8 363.8 714.8 360.3Q708.5 359.8 704.9 360.4Z" fill="url(#bn-trio-rex-dominant)" stroke="#8a7a52" stroke-width="1.6" stroke-linejoin="round"/><path d="M684.9 349.1Q685.7 347.2 681.6 343.9Q675.3 343.5 671.8 344.2Z" fill="url(#bn-trio-rex-dominant)" stroke="#8a7a52" stroke-width="1.6" stroke-linejoin="round"/><path d="M292.7 250.9Q291.4 248.2 283.1 246.3Q281.4 249.4 278.8 252.7Z" fill="url(#bn-trio-rex-dominant)" stroke="#8a7a52" stroke-width="1.5" stroke-linejoin="round"/><path d="M291 248Q284.2 248.6 279.5 253.6" fill="none" stroke="#8a7a52" stroke-width="1.1" opacity="0.5"/><path d="M289.8 247.5Q283.8 247.8 280 252.3" fill="none" stroke="#8a7a52" stroke-width="1.1" opacity="0.5"/><path d="M304.2 253.3Q302.9 251.2 295.4 249.9Q293 252.5 290.3 255.1Z" fill="url(#bn-trio-rex-dominant)" stroke="#8a7a52" stroke-width="1.5" stroke-linejoin="round"/><path d="M302.8 250.9Q295.9 251.2 291 255.9" fill="none" stroke="#8a7a52" stroke-width="1.1" opacity="0.5"/><path d="M301.6 250.6Q295.7 250.5 291.6 254.8" fill="none" stroke="#8a7a52" stroke-width="1.1" opacity="0.5"/><path d="M269.4 272.1Q268.3 271.2 261.9 271Q258.4 272.4 255.6 273.8Z" fill="url(#bn-trio-rex-dominant)" stroke="#8a7a52" stroke-width="1.5" stroke-linejoin="round"/><path d="M268.6 270.8Q261.7 270.3 256.2 274.3" fill="none" stroke="#8a7a52" stroke-width="1.1" opacity="0.5"/><path d="M739.1 370.7L730.6 366.2L722.1 361.8L713.7 357.5L705.3 353.2L697 349.1L688.7 345L680.4 341.1L672.2 337.2L664 333.4L655.9 329.7L647.8 326.1L639.8 322.6L631.8 319.2L623.8 315.8L615.9 312.6L608 309.5L600.1 306.4L592.3 303.4L584.6 300.5L576.8 297.8L569.1 295.1L561.5 292.5L553.8 289.9L546.7 285.4L539.5 280.8L532.4 276.3L525.2 271.8L518 267.4L513.6 263.6L508.8 258.9L500.9 253.6L492.8 248.6L484.1 245.7L475.2 244L466.3 242.7L457.3 241.6L448.3 240.8L439.3 240.3L430.3 240L421.3 240.1L412.4 242.2L403.6 244.8L394.9 247.5L386.4 250.6L377.9 253.9L369.6 257.4L361.5 261.2L365.6 263.7L376.1 268L369.6 268L363.2 268.2L356.9 268.5L350.8 269L344.8 269.8L339.4 269.6L334.8 267.3L330.3 265.2L325.8 263.2L321.3 261.3L316.7 259.6L312.2 258L306.2 255.1L300.8 252.7L296 250.9L292 249.7L288.5 249L285.7 248.9L283.3 248.6L281 248.8L279 249.5L277.2 250.6L275.6 252.1L274.2 254.1L273 256.9L271.6 259.5L270.1 262L268.4 264.3L266.7 266.4L264.8 268.3L262.3 269.9L259.9 271.5L257.7 273L255.6 274.6L253.7 276.1L252 277.6L250.4 278.8L249.1 280L248.2 281.2L247.6 282.4L247.3 283.7L247.3 284.9L248.2 286.7L249.3 288.2L250.6 289.3L252.1 290.1L253.7 290.5L255.5 290.6L260.4 290.8L265.2 291.2L269.8 291.7L274.4 292.3L278.7 293L283 293.8L278.8 297.9L274.6 301.5L270.3 304.7L266 307.5L261.6 309.9L257.2 312L256.3 313L255.9 314L256 314.9L256.4 315.7L257.4 316.4L258.8 317.1L265.6 315.2L272 313.2L278.1 311.1L283.9 309L289.4 306.7L294.6 304.4L296.6 303.9L298.4 303.5L299.9 303L301.3 302.5L302.4 302L303.3 301.4L303.3 301.4L306.8 301.6L310.5 301.9L314.2 302.4L318.1 303L322.1 303.7L326.1 304.6L329.4 307.8L332.2 312.2L335 316.7L337.8 321.2L340.5 325.8L343.2 330.6L362.9 339.9L381.9 338.2L388.5 338.3L395 338.7L401.4 339.2L407.7 340L413.9 340.9L419.9 342.1L425.8 343.4L431.6 343L437.4 342.8L443.2 342.8L449 343L454.8 343.4L460.7 343.9L466.6 344.7L472.8 344.6L479.5 342.9L486.4 341.4L496.4 341L506.5 339.4L513.9 337.5L521.5 335.6L529.2 333.9L537.1 332.2L545 330.9L552.5 331.8L560.2 332.7L567.9 333.8L575.7 334.9L583.5 336.1L591.5 337.5L599.5 338.9L607.6 340.5L615.7 342.1L623.9 343.8L632.2 345.7L640.6 347.6L649 349.6L657.5 351.7L666.1 354L674.8 356.3L683.5 358.7L692.2 361.2L701.1 363.8L710 366.6L719 369.4L728 372.3L737.1 375.3Z" fill="url(#gb-trio-rex-dominant)" stroke="#394a2a" stroke-width="3" stroke-linejoin="round"/><g clip-path="url(#bod-trio-rex-dominant)"><path d="M709.9 366.7L692.1 361.5L674.6 356.6L657.4 352.1L640.5 348L623.8 344.3L607.4 341L591.3 338.1L575.5 335.6L560 333.5L544.8 331.7L529 334.9L513.7 338.8L496.1 342.5L479 344.7L466.3 346.7L454.6 345.4L443.1 344.9L431.6 345.1L420 344.1L408 341.8L395.4 340.4L382.3 339.8L342.5 331.8L337.2 322.3L331.9 313.1L325.9 305.3L328.5 298.3L335.6 304.4L342.3 311.7L349.1 319.3L378.2 324.4L392 323.4L405.4 323.3L418.5 324.1L431.3 324.5L444.1 324.5L456.9 325.2L469.8 326.9L483.3 326.8L499.5 327L516 325.6L531.1 324.3L546.6 323.5L561.8 325.9L577.3 328.7L593 331.9L609.1 335.4L625.3 339.4L641.9 343.7L658.7 348.4L675.8 353.5L693.1 359L710.7 364.9Z" fill="#475d34" opacity="0.2"/><path d="M554 289.1L539.7 279.7L532.6 275.1L525.4 270.5L513.9 262.1L509.3 257.2L493.2 246.6L484.5 243.7L466.5 240.6L457.5 239.6L439.4 238.2L430.3 238L412.2 240.2L403.4 242.8L386.1 248.8L377.6 252.2L369.3 255.8L365.7 262.2L376.7 266.8L363.7 267.1L357.3 267.6L345.1 269L339.6 268.9L330.6 264.4L326 262.4L316.9 258.8L312.4 257.1L311.1 263.2L315.6 264.6L324.4 267.9L328.9 269.7L337.8 273.8L343 274.3L354.3 274.3L360.1 274.5L372.1 275.5L365.3 272.8L371.9 267.1L380 264.1L388.2 261.2L404.8 256.3L413.3 254.2L430.4 252.4L439.1 252.6L456.3 253.8L464.9 254.7L482 257.5L490.4 260.1L506.1 268.8L511.5 272.9L523.9 279.7L531.1 283.4L538.3 287.2L552.8 294.9Z" fill="#b4c59f" opacity="0.26"/></g><g clip-path="url(#bod-trio-rex-dominant)"><g fill="none" stroke="#394a2a" stroke-width="1.2" opacity="0.2"><path d="M343.9 295.3Q338.7 297 336.5 292.1"/><path d="M356.2 312.2Q352.3 313.2 350.9 309.4"/><path d="M330.4 288.9Q326.8 290.4 324.9 286.9"/><path d="M407.5 307.9Q403.9 312.2 399.2 309.1"/><path d="M419.7 300.8Q417 303.7 413.8 301.2"/><path d="M554.3 306.7Q549.6 309.3 546.5 305"/><path d="M450.2 281.1Q446.1 284.5 442.3 280.7"/><path d="M366.9 315.1Q363.7 317.8 360.7 314.9"/><path d="M513.7 320.4Q509.1 323.5 505.5 319.1"/><path d="M327.9 281.9Q324.4 283.4 322.5 280.1"/><path d="M324.9 280.6Q320 283 317.1 278.3"/><path d="M381.3 290.4Q378.3 294.7 373.8 292.2"/><path d="M337.8 285.1Q332.8 287 330.3 282.2"/><path d="M457.4 280.1Q453.9 282.8 450.9 279.6"/><path d="M455.6 302.4Q452.1 305 449.1 301.9"/><path d="M442.3 269.4Q438.7 272.5 435.2 269.2"/><path d="M325.4 293.2Q320.6 295.4 317.9 290.8"/><path d="M568.6 315.2Q563.7 317.8 560.6 313.2"/><path d="M352.8 286Q348.3 287.4 346.4 283.1"/><path d="M509.8 297.6Q505.5 300 502.6 296"/><path d="M358.1 288.9Q352.4 290.6 350.2 285.1"/><path d="M552.3 312.2Q548.6 314.3 546.1 310.9"/></g><g fill="none" stroke="#394a2a" stroke-linecap="round"><path d="M334.7 281.8L326 278.4L317.5 275.5L313.3 274.3L304.9 272.2L300.8 271.4L292.6 270.8L288.5 270.9L280.7 271.7L276.9 272.3" stroke-width="1.5" opacity="0.3"/><path d="M330.5 293L322.1 290.5L318.1 289.5L314 288.5L306.2 287.1L302.4 286.6L295 285.8L291.5 285L288 284.4" stroke-width="1.3" opacity="0.26"/><path d="M507.9 289.1L493.8 283.1L478.4 278.3L454.6 275.1L438.7 274.1L422.8 274.2L407 276.5L391.3 279.8L375.9 284.1" stroke-width="1.5" opacity="0.28"/><path d="M485.3 318.8L471.3 317.9L457.9 316.2L437.9 315.1L424.6 315.5L411.1 315L390.4 315.8L376.4 317.4L352 313.7" stroke-width="1.4" opacity="0.26"/><path d="M703.8 356.9L686.8 349.8L670.1 343.1L653.5 336.7L637.1 330.7L621 325L605 319.8L589.3 314.9L573.7 310.4" stroke-width="1.3" opacity="0.28"/><path d="M693.9 357L676.7 351L659.8 345.3L651.4 342.6L634.9 337.6L618.5 332.9L610.5 330.7L594.5 326.6L586.6 324.7" stroke-width="1.3" opacity="0.24"/><path d="M478.7 309.6A24.8 24.8 0 0 1 525.4 303.7" stroke-width="1.6" opacity="0.3"/><path d="M352.3 309.9A21.5 21.5 0 0 1 389.7 305.2" stroke-width="1.4" opacity="0.26"/></g></g><path d="M283 293.8L278.7 293L274.4 292.3L269.8 291.7L265.2 291.2L260.4 290.8L255.5 290.6L253.7 290.5L252.1 290.1L250.6 289.3L249.3 288.2L248.2 286.7L247.3 284.9L259 311L262.3 309.1L265.9 306.8L269.8 304.2L273.9 301.1L278.3 297.7L283 293.8Z" fill="#5a3138"/><path d="M282 294Q283.9 289.2 286.9 284.8" fill="none" stroke="#394a2a" stroke-width="1.6" opacity="0.45"/><path d="M258.3 277.8Q255.4 275.5 253.2 278.4" fill="none" stroke="#394a2a" stroke-width="1.6" opacity="0.75"/><g opacity="1"><path d="M253.5 289.2L252 296.1L248.7 289.8Z" fill="#f6f2e4" stroke="#8a7a52" stroke-width="0.8"/><path d="M258.7 290.3L256.9 295.4L253.9 290.9Z" fill="#f6f2e4" stroke="#8a7a52" stroke-width="0.8"/><path d="M264.1 290.6L262.5 297.5L259.3 291.2Z" fill="#f6f2e4" stroke="#8a7a52" stroke-width="0.8"/><path d="M269.4 291.1L267.6 296.1L264.7 291.7Z" fill="#f6f2e4" stroke="#8a7a52" stroke-width="0.8"/><path d="M274.8 291.7L273.2 298.6L270 292.3Z" fill="#f6f2e4" stroke="#8a7a52" stroke-width="0.8"/><path d="M278 300L275.4 295.7L274 300.5Z" fill="#f6f2e4" stroke="#8a7a52" stroke-width="0.8"/><path d="M273 303.9L270.5 300.5L269 304.4Z" fill="#f6f2e4" stroke="#8a7a52" stroke-width="0.8"/><path d="M267.7 307.4L265.1 303.1L263.7 307.9Z" fill="#f6f2e4" stroke="#8a7a52" stroke-width="0.8"/></g><ellipse cx="278.8" cy="272.8" rx="10.5" ry="7.9" fill="#394a2a" opacity="0.1"/><circle cx="278" cy="272.9" r="5.2" fill="#fdfaef" stroke="#394a2a" stroke-width="1.5"/><circle cx="277.4" cy="272.9" r="3.2" fill="#c9983d"/><circle cx="277.1" cy="272.9" r="1.8" fill="#1c1a14"/><circle cx="276.2" cy="271.3" r="0.8" fill="#fdfaef" opacity="0.9"/><path d="M284.5 261.5Q275.9 260.7 267.3 267.6" fill="none" stroke="#394a2a" stroke-width="2.2" stroke-linecap="round"/><path d="M490.2 289.9L489.6 295.8L487.7 304L485 314.2L482 325.7L479.1 337.7L476.9 350L475.9 361.9L476.6 373.4L479.3 384L483.9 393.3L489.7 401.2L495.7 408.1L501.4 414.3L506.3 419.6L509.8 424.1L511.6 427.4L511.5 430.4L510.5 433.7L508.7 437.2L506.3 440.7L503.4 444.2L500.5 447.4L497.8 450.6L495.8 453.2L510.2 462.8L511.3 460.8L513.4 458.1L516.3 454.4L519.5 450L522.6 444.8L525.2 438.8L526.7 432.1L526.4 424.6L524.4 416.9L520.6 409.7L516.1 402.7L511.3 395.9L507 389.2L503.6 382.7L501.7 377L501.4 372.1L503.3 366L506.6 357.9L511.1 348.6L516.3 339L521.7 329.5L527.1 320.7L532 313L535.8 307.2Z" fill="url(#gl-trio-rex-dominant)" stroke="#394a2a" stroke-width="2.4"/><g clip-path="url(#bod-trio-rex-dominant)"><path d="M490.2 289.9L489.6 295.8L487.7 304L485 314.2L482 325.7L479.1 337.7L476.9 350L475.9 361.9L476.6 373.4L479.3 384L483.9 393.3L489.7 401.2L495.7 408.1L501.4 414.3L506.3 419.6L509.8 424.1L511.6 427.4L511.5 430.4L510.5 433.7L508.7 437.2L506.3 440.7L503.4 444.2L500.5 447.4L497.8 450.6L495.8 453.2L510.2 462.8L511.3 460.8L513.4 458.1L516.3 454.4L519.5 450L522.6 444.8L525.2 438.8L526.7 432.1L526.4 424.6L524.4 416.9L520.6 409.7L516.1 402.7L511.3 395.9L507 389.2L503.6 382.7L501.7 377L501.4 372.1L503.3 366L506.6 357.9L511.1 348.6L516.3 339L521.7 329.5L527.1 320.7L532 313L535.8 307.2Z" fill="url(#gl-trio-rex-dominant)"/></g><path d="M507 460.8L491 466.7Q488.5 470 492.5 471.3L509 467.2Z" fill="url(#gl-trio-rex-dominant)" stroke="#394a2a" stroke-width="1.5" stroke-linejoin="round"/><path d="M491.3 467.5L487.4 470.3L492.2 470.5Z" fill="#394a2a"/><path d="M503.9 458.4L484.5 465.5Q481.8 469.1 486 470.5L506.1 465.6Z" fill="url(#gl-trio-rex-dominant)" stroke="#394a2a" stroke-width="1.5" stroke-linejoin="round"/><path d="M484.8 466.5L480.9 469.3L485.7 469.5Z" fill="#394a2a"/><path d="M508.6 467.6L515.5 470.4Q519.2 470 517.5 466.6L511.4 462.4Z" fill="url(#gl-trio-rex-dominant)" stroke="#394a2a" stroke-width="1.5" stroke-linejoin="round"/><path d="M515.7 469.9L520.5 470.6L517.3 467.1Z" fill="#394a2a"/><path d="M380.6 303.2L380.3 307.5L380.1 313.2L380 320.1L380 327.8L379.8 336L379.5 344.2L378.9 352.2L377.9 359.5L376.9 366.6L375.4 373.9L373.6 381.2L371.7 388.3L369.7 394.9L367.9 400.7L366.4 405.6L365.3 409.2L357.3 407.2L358 403.4L359.2 398.3L360.6 392.4L362.1 385.9L363.6 378.9L365 371.9L366 365L366.6 358.5L366.4 351.9L365.8 344.4L365 336.6L364 328.8L362.9 321.3L361.8 314.5L360.8 308.7L359.9 304.4Z" fill="url(#gl-trio-rex-dominant)" stroke="#394a2a" stroke-width="2.4"/><g clip-path="url(#bod-trio-rex-dominant)"><path d="M380.6 303.2L380.3 307.5L380.1 313.2L380 320.1L380 327.8L379.8 336L379.5 344.2L378.9 352.2L377.9 359.5L376.9 366.6L375.4 373.9L373.6 381.2L371.7 388.3L369.7 394.9L367.9 400.7L366.4 405.6L365.3 409.2L357.3 407.2L358 403.4L359.2 398.3L360.6 392.4L362.1 385.9L363.6 378.9L365 371.9L366 365L366.6 358.5L366.4 351.9L365.8 344.4L365 336.6L364 328.8L362.9 321.3L361.8 314.5L360.8 308.7L359.9 304.4Z" fill="url(#gl-trio-rex-dominant)"/></g><path d="M357.6 402.6L353.5 413.9Q353.4 417.7 357 416.6L366.9 409.8Z" fill="url(#gl-trio-rex-dominant)" stroke="#394a2a" stroke-width="1.5" stroke-linejoin="round"/><path d="M354 414.2L352.5 418.8L356.5 416.2Z" fill="#394a2a"/><path d="M360.1 406.6L359.6 415.6Q360.4 418.6 363 416.9L368.5 409.8Z" fill="url(#gl-trio-rex-dominant)" stroke="#394a2a" stroke-width="1.5" stroke-linejoin="round"/><path d="M359.8 415.7L359.7 420.4L362.8 416.8Z" fill="#394a2a"/></g></svg>