<svg width="32" height="32" viewBox="0 0 32 32" fill="none" xmlns="http://www.w3.org/2000/svg">
  <!-- Dinosaur head outline -->
  <path d="M16 4C20.5 4 24 7.5 24 12C24 14 23.5 15.8 22.5 17.2L25 19C25.5 19.5 25.5 20.5 25 21L23 23C22.5 23.5 21.5 23.5 21 23L19.5 21.5C18.5 22.2 17.3 22.7 16 22.7C14.7 22.7 13.5 22.2 12.5 21.5L11 23C10.5 23.5 9.5 23.5 9 23L7 21C6.5 20.5 6.5 19.5 7 19L9.5 17.2C8.5 15.8 8 14 8 12C8 7.5 11.5 4 16 4Z" fill="#4F7942" stroke="#2D5016" stroke-width="1"/>
  
  <!-- Eye socket -->
  <ellipse cx="20" cy="11" rx="2.5" ry="3" fill="#2D5016"/>
  
  <!-- Eye -->
  <ellipse cx="20.5" cy="10.5" rx="1.5" ry="2" fill="#FFD700"/>
  
  <!-- Pupil -->
  <ellipse cx="20.8" cy="10.2" rx="0.8" ry="1.2" fill="#000000"/>
  
  <!-- Nostril -->
  <ellipse cx="22" cy="14" rx="0.8" ry="1.2" fill="#2D5016"/>
  
  <!-- Small crest spikes -->
  <path d="M14 6L15 3L16 6M17 5L18 2L19 5M20 6L21 3L22 6" stroke="#2D5016" stroke-width="1" fill="none"/>
  
  <!-- Teeth -->
  <path d="M18 18L19 20L20 18M21 18L22 20L23 18" fill="#FFFFFF" stroke="#2D5016" stroke-width="0.5"/>
</svg>